G04 Layer_Color=8150272*
%FSAX24Y24*%
%MOIN*%
G70*
G01*
G75*
%ADD10O,0.0500X0.0200*%
%ADD11R,0.0295X0.0276*%
%ADD15C,0.0500*%
%ADD18R,0.0177X0.0197*%
%ADD24R,0.0177X0.0177*%
%ADD25R,0.0177X0.0177*%
%ADD41R,0.0197X0.0177*%
%ADD44R,0.0197X0.0217*%
%ADD64R,0.0217X0.0197*%
%ADD88R,0.0276X0.0256*%
%ADD114O,0.0400X0.0200*%
%ADD133O,0.0200X0.0500*%
%ADD158R,0.0276X0.0253*%
%ADD160R,0.0253X0.0276*%
%ADD164R,0.0400X0.0280*%
%ADD172R,0.0237X0.0237*%
G04:AMPARAMS|DCode=178|XSize=59.1mil|YSize=31.6mil|CornerRadius=4.8mil|HoleSize=0mil|Usage=FLASHONLY|Rotation=180.000|XOffset=0mil|YOffset=0mil|HoleType=Round|Shape=RoundedRectangle|*
%AMROUNDEDRECTD178*
21,1,0.0591,0.0220,0,0,180.0*
21,1,0.0496,0.0316,0,0,180.0*
1,1,0.0095,-0.0248,0.0110*
1,1,0.0095,0.0248,0.0110*
1,1,0.0095,0.0248,-0.0110*
1,1,0.0095,-0.0248,-0.0110*
%
%ADD178ROUNDEDRECTD178*%
%ADD210C,0.1290*%
%ADD211O,0.0490X0.0390*%
G04:AMPARAMS|DCode=212|XSize=44mil|YSize=64mil|CornerRadius=0mil|HoleSize=0mil|Usage=FLASHONLY|Rotation=135.000|XOffset=0mil|YOffset=0mil|HoleType=Round|Shape=Round|*
%AMOVALD212*
21,1,0.0200,0.0440,0.0000,0.0000,225.0*
1,1,0.0440,0.0071,0.0071*
1,1,0.0440,-0.0071,-0.0071*
%
%ADD212OVALD212*%

%ADD213C,0.0490*%
%ADD214C,0.0394*%
%ADD215R,0.0640X0.0640*%
%ADD216C,0.0640*%
%ADD217R,0.0490X0.0490*%
%ADD218P,0.0693X8X22.5*%
%ADD219C,0.0590*%
%ADD220O,0.0540X0.0390*%
%ADD221O,0.0390X0.0540*%
%ADD222O,0.0433X0.0512*%
%ADD223O,0.0512X0.0788*%
%ADD224R,0.0866X0.1220*%
%ADD225R,0.0316X0.0552*%
%ADD226R,0.0177X0.0552*%
%ADD227R,0.1182X0.0788*%
%ADD228R,0.0443X0.0971*%
%ADD229R,0.0443X0.0502*%
%ADD230R,0.0443X0.0455*%
%ADD231R,0.0313X0.0337*%
%ADD232R,0.0227X0.0424*%
%ADD233R,0.0296X0.0473*%
%ADD234R,0.0394X0.0276*%
%ADD235R,0.0394X0.0276*%
%ADD236R,0.0709X0.0355*%
%ADD237R,0.0520X0.0398*%
G04:AMPARAMS|DCode=238|XSize=67mil|YSize=90.6mil|CornerRadius=0mil|HoleSize=0mil|Usage=FLASHONLY|Rotation=300.000|XOffset=0mil|YOffset=0mil|HoleType=Round|Shape=Rectangle|*
%AMROTATEDRECTD238*
4,1,4,-0.0560,0.0064,0.0225,0.0517,0.0560,-0.0064,-0.0225,-0.0517,-0.0560,0.0064,0.0*
%
%ADD238ROTATEDRECTD238*%

G04:AMPARAMS|DCode=239|XSize=31.6mil|YSize=74.9mil|CornerRadius=0mil|HoleSize=0mil|Usage=FLASHONLY|Rotation=300.000|XOffset=0mil|YOffset=0mil|HoleType=Round|Shape=Rectangle|*
%AMROTATEDRECTD239*
4,1,4,-0.0403,-0.0051,0.0245,0.0324,0.0403,0.0051,-0.0245,-0.0324,-0.0403,-0.0051,0.0*
%
%ADD239ROTATEDRECTD239*%

%ADD240R,0.0355X0.0670*%
%ADD241R,0.0670X0.1221*%
G04:AMPARAMS|DCode=242|XSize=27.6mil|YSize=25.3mil|CornerRadius=0mil|HoleSize=0mil|Usage=FLASHONLY|Rotation=45.000|XOffset=0mil|YOffset=0mil|HoleType=Round|Shape=Rectangle|*
%AMROTATEDRECTD242*
4,1,4,-0.0008,-0.0187,-0.0187,-0.0008,0.0008,0.0187,0.0187,0.0008,-0.0008,-0.0187,0.0*
%
%ADD242ROTATEDRECTD242*%

G04:AMPARAMS|DCode=243|XSize=29.2mil|YSize=30.8mil|CornerRadius=0mil|HoleSize=0mil|Usage=FLASHONLY|Rotation=45.000|XOffset=0mil|YOffset=0mil|HoleType=Round|Shape=Rectangle|*
%AMROTATEDRECTD243*
4,1,4,0.0006,-0.0212,-0.0212,0.0006,-0.0006,0.0212,0.0212,-0.0006,0.0006,-0.0212,0.0*
%
%ADD243ROTATEDRECTD243*%

D10*
X032200Y036272D02*
D03*
X029137Y038562D02*
D03*
X027319Y038949D02*
D03*
D11*
X037650Y038612D02*
D03*
X038024D02*
D03*
D15*
X019028Y028728D02*
D03*
Y027728D02*
D03*
Y026728D02*
D03*
X037837Y022212D02*
D03*
X038387Y021062D02*
D03*
X040387Y023612D02*
D03*
D18*
X036837Y037214D02*
D03*
Y037509D02*
D03*
X029482Y039903D02*
D03*
Y039608D02*
D03*
X029832Y039900D02*
D03*
Y039605D02*
D03*
X023578Y030128D02*
D03*
Y029832D02*
D03*
Y031428D02*
D03*
Y031132D02*
D03*
Y027528D02*
D03*
Y027232D02*
D03*
Y028828D02*
D03*
Y028532D02*
D03*
D24*
X019615Y036138D02*
D03*
X019300D02*
D03*
X030285Y036038D02*
D03*
X029970D02*
D03*
D25*
X029976Y036036D02*
D03*
Y036351D02*
D03*
D41*
X021130Y038178D02*
D03*
X021425D02*
D03*
X020530Y036628D02*
D03*
X020825D02*
D03*
X020530Y036978D02*
D03*
X020825D02*
D03*
X020530Y037328D02*
D03*
X020825D02*
D03*
X020680Y037678D02*
D03*
X020975D02*
D03*
X020173Y026605D02*
D03*
X019878D02*
D03*
Y027105D02*
D03*
X020173D02*
D03*
X019878Y029105D02*
D03*
X020173D02*
D03*
X020430Y021128D02*
D03*
X020725D02*
D03*
X020432Y021528D02*
D03*
X020728D02*
D03*
X020175Y031105D02*
D03*
X019880D02*
D03*
D44*
X036837Y038159D02*
D03*
Y037864D02*
D03*
D64*
X020172Y027605D02*
D03*
X019877D02*
D03*
X020173Y028105D02*
D03*
X019878D02*
D03*
Y028605D02*
D03*
X020173D02*
D03*
X019878Y029605D02*
D03*
X020173D02*
D03*
X019880Y030605D02*
D03*
X020175D02*
D03*
X020173Y030105D02*
D03*
X019878D02*
D03*
D88*
X018637Y028237D02*
D03*
X019011D02*
D03*
X018637Y027237D02*
D03*
X019011D02*
D03*
X018687Y026237D02*
D03*
X019061D02*
D03*
X018687Y025887D02*
D03*
X019061D02*
D03*
D114*
X030763Y039343D02*
D03*
Y038949D02*
D03*
D133*
X029287Y039185D02*
D03*
D158*
X023578Y029491D02*
D03*
Y029169D02*
D03*
Y030791D02*
D03*
Y030468D02*
D03*
Y026891D02*
D03*
Y026569D02*
D03*
Y028191D02*
D03*
Y027868D02*
D03*
X031108Y037733D02*
D03*
Y037410D02*
D03*
X029562Y036012D02*
D03*
Y036335D02*
D03*
D160*
X037248Y038612D02*
D03*
X036926Y038612D02*
D03*
X020269Y036138D02*
D03*
X019946D02*
D03*
X029126Y035701D02*
D03*
X029448D02*
D03*
X019919Y034138D02*
D03*
X019596D02*
D03*
X028732Y037178D02*
D03*
X029055D02*
D03*
X028732Y037965D02*
D03*
X029055D02*
D03*
X028732Y037571D02*
D03*
X029055D02*
D03*
D164*
X038537Y037152D02*
D03*
Y037772D02*
D03*
X038878Y022558D02*
D03*
Y021938D02*
D03*
X039328Y022558D02*
D03*
Y021938D02*
D03*
X038428D02*
D03*
Y022558D02*
D03*
Y023548D02*
D03*
Y022928D02*
D03*
X038878Y023548D02*
D03*
Y022928D02*
D03*
X039328D02*
D03*
Y023548D02*
D03*
X039778Y022928D02*
D03*
Y023548D02*
D03*
D172*
X030309Y036935D02*
D03*
Y036580D02*
D03*
X029385Y037059D02*
D03*
Y036705D02*
D03*
D178*
X021119Y034852D02*
D03*
Y034104D02*
D03*
D210*
X024169Y040327D02*
D03*
X033187Y024912D02*
D03*
X024287Y018912D02*
D03*
X021537Y024662D02*
D03*
X024287D02*
D03*
D211*
X040887Y034012D02*
D03*
Y034512D02*
D03*
Y032012D02*
D03*
Y032512D02*
D03*
Y033012D02*
D03*
Y033512D02*
D03*
D212*
X035478Y026278D02*
D03*
X035128Y026628D02*
D03*
X034778Y026978D02*
D03*
D213*
X019528Y036978D02*
D03*
X018128Y031828D02*
D03*
Y030228D02*
D03*
Y024678D02*
D03*
Y025878D02*
D03*
Y027078D02*
D03*
Y028278D02*
D03*
X025828Y018078D02*
D03*
X021028Y038628D02*
D03*
X021428Y039028D02*
D03*
X020628Y038228D02*
D03*
X020228Y037828D02*
D03*
X019878Y037378D02*
D03*
X019178Y036528D02*
D03*
D214*
X018928Y033237D02*
D03*
Y034418D02*
D03*
D215*
X026928Y040528D02*
D03*
D216*
X026928Y041528D02*
D03*
D217*
X018128Y025328D02*
D03*
Y026528D02*
D03*
Y027728D02*
D03*
Y028928D02*
D03*
D218*
X025978Y041328D02*
D03*
D219*
X024028Y020678D02*
D03*
Y021428D02*
D03*
D220*
X026702Y024278D02*
D03*
Y022478D02*
D03*
Y021578D02*
D03*
Y019778D02*
D03*
Y017978D02*
D03*
X026702Y023378D02*
D03*
X026702Y018878D02*
D03*
Y020678D02*
D03*
Y025178D02*
D03*
D221*
X026252Y017628D02*
D03*
Y023928D02*
D03*
Y023028D02*
D03*
Y022128D02*
D03*
Y021228D02*
D03*
Y020328D02*
D03*
Y019428D02*
D03*
Y018528D02*
D03*
Y024828D02*
D03*
D222*
X030404Y040354D02*
D03*
X028652D02*
D03*
D223*
X031132Y041536D02*
D03*
X027923D02*
D03*
D224*
X028031Y017531D02*
D03*
X031024D02*
D03*
D225*
X037292Y037135D02*
D03*
X038040D02*
D03*
Y038080D02*
D03*
X037666D02*
D03*
X037292D02*
D03*
D226*
X030039Y040482D02*
D03*
X029783D02*
D03*
X029528D02*
D03*
X029272D02*
D03*
X029016D02*
D03*
D227*
X029528Y041536D02*
D03*
D228*
X021836Y035345D02*
D03*
Y036945D02*
D03*
D229*
X021836Y034091D02*
D03*
X026219Y033866D02*
D03*
X021836Y035691D02*
D03*
X026219Y035466D02*
D03*
D230*
Y034894D02*
D03*
Y036494D02*
D03*
D231*
Y035394D02*
D03*
Y036994D02*
D03*
D232*
X022397Y036449D02*
D03*
X022830Y036449D02*
D03*
X023263Y036449D02*
D03*
X023696D02*
D03*
X024129D02*
D03*
X024562Y036449D02*
D03*
X024995Y036449D02*
D03*
X025428Y036449D02*
D03*
X022397Y038049D02*
D03*
X022830D02*
D03*
X023263D02*
D03*
X023696D02*
D03*
X024129D02*
D03*
X024562D02*
D03*
X024995D02*
D03*
X025428D02*
D03*
D233*
X020306Y035608D02*
D03*
X019932D02*
D03*
X019558D02*
D03*
Y034664D02*
D03*
X019932D02*
D03*
X020306D02*
D03*
D234*
X020394Y032011D02*
D03*
X024108Y027002D02*
D03*
Y028304D02*
D03*
Y029602D02*
D03*
Y030902D02*
D03*
D235*
X019724Y032385D02*
D03*
Y031637D02*
D03*
X024778Y026628D02*
D03*
Y027376D02*
D03*
Y027930D02*
D03*
Y028678D02*
D03*
Y029228D02*
D03*
Y029976D02*
D03*
Y030528D02*
D03*
Y031276D02*
D03*
D236*
X018628Y032597D02*
D03*
Y031258D02*
D03*
Y030828D02*
D03*
Y029489D02*
D03*
D237*
X020828Y026884D02*
D03*
Y028171D02*
D03*
D238*
X029820Y024279D02*
D03*
X033309Y018235D02*
D03*
D239*
X030197Y021309D02*
D03*
X030443Y020882D02*
D03*
X029705Y022161D02*
D03*
X029951Y021735D02*
D03*
X029459Y022587D02*
D03*
X029213Y023013D02*
D03*
X030689Y020456D02*
D03*
X030935Y020030D02*
D03*
X031181Y019604D02*
D03*
X031428Y019178D02*
D03*
X031674Y018751D02*
D03*
X031920Y018325D02*
D03*
D240*
X029035Y018672D02*
D03*
X030020D02*
D03*
X029528D02*
D03*
D241*
X024815Y020403D02*
D03*
X024028D02*
D03*
X023240D02*
D03*
D242*
X035760Y027451D02*
D03*
X035989Y027223D02*
D03*
D243*
X035452Y027160D02*
D03*
X035697Y026915D02*
D03*
M02*
