G04 Layer_Physical_Order=4*
G04 Layer_Color=11436288*
%FSAX24Y24*%
%MOIN*%
G70*
G01*
G75*
%ADD10O,0.0500X0.0200*%
%ADD11R,0.0295X0.0276*%
%ADD15C,0.0500*%
%ADD18R,0.0177X0.0197*%
%ADD23R,0.0236X0.0213*%
%ADD24R,0.0177X0.0177*%
%ADD25R,0.0177X0.0177*%
%ADD31R,0.0213X0.0236*%
%ADD36R,0.0360X0.0240*%
%ADD41R,0.0197X0.0177*%
%ADD44R,0.0197X0.0217*%
%ADD45R,0.0197X0.0197*%
G04:AMPARAMS|DCode=52|XSize=55.1mil|YSize=27.6mil|CornerRadius=2.8mil|HoleSize=0mil|Usage=FLASHONLY|Rotation=180.000|XOffset=0mil|YOffset=0mil|HoleType=Round|Shape=RoundedRectangle|*
%AMROUNDEDRECTD52*
21,1,0.0551,0.0220,0,0,180.0*
21,1,0.0496,0.0276,0,0,180.0*
1,1,0.0055,-0.0248,0.0110*
1,1,0.0055,0.0248,0.0110*
1,1,0.0055,0.0248,-0.0110*
1,1,0.0055,-0.0248,-0.0110*
%
%ADD52ROUNDEDRECTD52*%
%ADD64R,0.0217X0.0197*%
%ADD88R,0.0276X0.0256*%
%ADD89C,0.0060*%
%ADD90C,0.0100*%
%ADD92C,0.0200*%
%ADD93C,0.0118*%
%ADD94C,0.0150*%
%ADD95C,0.0250*%
%ADD96C,0.0080*%
%ADD98C,0.1250*%
%ADD99O,0.0450X0.0350*%
G04:AMPARAMS|DCode=100|XSize=40mil|YSize=60mil|CornerRadius=0mil|HoleSize=0mil|Usage=FLASHONLY|Rotation=135.000|XOffset=0mil|YOffset=0mil|HoleType=Round|Shape=Round|*
%AMOVALD100*
21,1,0.0200,0.0400,0.0000,0.0000,225.0*
1,1,0.0400,0.0071,0.0071*
1,1,0.0400,-0.0071,-0.0071*
%
%ADD100OVALD100*%

%ADD101C,0.0450*%
%ADD102C,0.0354*%
%ADD103R,0.0600X0.0600*%
%ADD104C,0.0600*%
%ADD105R,0.0450X0.0450*%
%ADD106P,0.0649X8X22.5*%
%ADD107C,0.0550*%
%ADD108O,0.0500X0.0350*%
%ADD109O,0.0350X0.0500*%
%ADD110O,0.0413X0.0492*%
%ADD111O,0.0472X0.0748*%
%ADD112C,0.0177*%
%ADD113R,0.0276X0.0512*%
%ADD114O,0.0400X0.0200*%
%ADD115R,0.0157X0.0532*%
%ADD116R,0.1142X0.0748*%
%ADD117R,0.0413X0.0941*%
%ADD118R,0.0413X0.0472*%
%ADD119R,0.0413X0.0425*%
%ADD120R,0.0283X0.0307*%
%ADD121R,0.0197X0.0394*%
%ADD122R,0.0256X0.0433*%
%ADD123R,0.0354X0.0236*%
%ADD124R,0.0354X0.0236*%
%ADD125R,0.0669X0.0315*%
%ADD126R,0.0480X0.0358*%
G04:AMPARAMS|DCode=127|XSize=63mil|YSize=86.6mil|CornerRadius=0mil|HoleSize=0mil|Usage=FLASHONLY|Rotation=300.000|XOffset=0mil|YOffset=0mil|HoleType=Round|Shape=Rectangle|*
%AMROTATEDRECTD127*
4,1,4,-0.0533,0.0056,0.0218,0.0489,0.0533,-0.0056,-0.0218,-0.0489,-0.0533,0.0056,0.0*
%
%ADD127ROTATEDRECTD127*%

G04:AMPARAMS|DCode=128|XSize=27.6mil|YSize=70.9mil|CornerRadius=0mil|HoleSize=0mil|Usage=FLASHONLY|Rotation=300.000|XOffset=0mil|YOffset=0mil|HoleType=Round|Shape=Rectangle|*
%AMROTATEDRECTD128*
4,1,4,-0.0376,-0.0058,0.0238,0.0297,0.0376,0.0058,-0.0238,-0.0297,-0.0376,-0.0058,0.0*
%
%ADD128ROTATEDRECTD128*%

%ADD129R,0.0315X0.0630*%
%ADD130R,0.0630X0.1181*%
G04:AMPARAMS|DCode=131|XSize=23.6mil|YSize=21.3mil|CornerRadius=0mil|HoleSize=0mil|Usage=FLASHONLY|Rotation=45.000|XOffset=0mil|YOffset=0mil|HoleType=Round|Shape=Rectangle|*
%AMROTATEDRECTD131*
4,1,4,-0.0008,-0.0159,-0.0159,-0.0008,0.0008,0.0159,0.0159,0.0008,-0.0008,-0.0159,0.0*
%
%ADD131ROTATEDRECTD131*%

G04:AMPARAMS|DCode=132|XSize=25.2mil|YSize=26.8mil|CornerRadius=0mil|HoleSize=0mil|Usage=FLASHONLY|Rotation=45.000|XOffset=0mil|YOffset=0mil|HoleType=Round|Shape=Rectangle|*
%AMROTATEDRECTD132*
4,1,4,0.0006,-0.0184,-0.0184,0.0006,-0.0006,0.0184,0.0184,-0.0006,0.0006,-0.0184,0.0*
%
%ADD132ROTATEDRECTD132*%

%ADD133O,0.0200X0.0500*%
%ADD134R,0.0827X0.1181*%
G36*
X025780Y040155D02*
X025829Y040122D01*
X025887Y040110D01*
Y039863D01*
X025829Y039852D01*
X025780Y039819D01*
X025747Y039770D01*
X025736Y039712D01*
X025747Y039654D01*
X025771Y039618D01*
X025748Y039569D01*
X025741Y039562D01*
X025737Y039563D01*
X025679Y039552D01*
X025630Y039519D01*
X025597Y039470D01*
X025586Y039412D01*
X025597Y039354D01*
X025630Y039305D01*
X025643Y039296D01*
Y039044D01*
X025583Y039038D01*
X025577Y039070D01*
X025544Y039119D01*
X025495Y039152D01*
X025437Y039163D01*
X025379Y039152D01*
X025330Y039119D01*
X025294D01*
X025245Y039152D01*
X025187Y039163D01*
X025129Y039152D01*
X025080Y039119D01*
X025047Y039070D01*
X025036Y039012D01*
X025047Y038954D01*
X025080Y038905D01*
X025093Y038896D01*
Y038759D01*
X024713Y038378D01*
X024692Y038348D01*
X024685Y038312D01*
Y038306D01*
X024404D01*
Y037792D01*
X024448D01*
Y037273D01*
X024423Y037236D01*
X024411Y037178D01*
X024423Y037120D01*
X024448Y037082D01*
Y036918D01*
X024388Y036884D01*
X024345Y036893D01*
X024303Y036884D01*
X024243Y036919D01*
Y037792D01*
X024287D01*
Y038306D01*
X024115D01*
Y038399D01*
X024703Y038987D01*
X024724Y039017D01*
X024731Y039053D01*
Y039146D01*
X024744Y039155D01*
X024777Y039204D01*
X024788Y039262D01*
X024779Y039308D01*
X024811Y039368D01*
X024846D01*
X024881Y039375D01*
X024912Y039395D01*
X025684Y040168D01*
X025771D01*
X025780Y040155D01*
D02*
G37*
G36*
X028897Y041101D02*
X030023D01*
X030061Y041056D01*
X030072Y040998D01*
X030105Y040948D01*
X030154Y040916D01*
X030192Y040908D01*
X030186Y040848D01*
X030089D01*
Y040482D01*
X029989D01*
Y040848D01*
X029861D01*
Y040808D01*
X028877D01*
Y040633D01*
X028817Y040603D01*
X028786Y040627D01*
X028721Y040654D01*
X028652Y040663D01*
X028582Y040654D01*
X028517Y040627D01*
X028461Y040584D01*
X028419Y040528D01*
X028392Y040463D01*
X028383Y040394D01*
Y040315D01*
X028392Y040245D01*
X028419Y040181D01*
X028444Y040147D01*
X028259Y039962D01*
X026719D01*
X026609Y040072D01*
X026632Y040128D01*
X026878D01*
Y040528D01*
X026928D01*
Y040578D01*
X027328D01*
Y040901D01*
X028124D01*
X028160Y040908D01*
X028190Y040928D01*
X028363Y041101D01*
X028390Y041107D01*
X028432Y041106D01*
X028481Y041073D01*
X028539Y041062D01*
X028597Y041073D01*
X028646Y041106D01*
X028679Y041155D01*
X028683Y041174D01*
X028897D01*
Y041101D01*
D02*
G37*
%LPC*%
G36*
X027328Y040478D02*
X026978D01*
Y040128D01*
X027328D01*
Y040478D01*
D02*
G37*
%LPD*%
D10*
X032200Y036272D02*
D03*
X029137Y038562D02*
D03*
X027319Y038949D02*
D03*
D11*
X037650Y038612D02*
D03*
X038024D02*
D03*
D15*
X019028Y028728D02*
D03*
Y027728D02*
D03*
Y026728D02*
D03*
X037837Y022212D02*
D03*
X038387Y021062D02*
D03*
X040387Y023612D02*
D03*
D18*
X036837Y037214D02*
D03*
Y037509D02*
D03*
X029482Y039903D02*
D03*
Y039608D02*
D03*
X029832Y039900D02*
D03*
Y039605D02*
D03*
X023578Y030128D02*
D03*
Y029832D02*
D03*
Y031428D02*
D03*
Y031132D02*
D03*
Y027528D02*
D03*
Y027232D02*
D03*
Y028828D02*
D03*
Y028532D02*
D03*
D23*
Y029491D02*
D03*
Y029169D02*
D03*
Y030791D02*
D03*
Y030468D02*
D03*
Y026891D02*
D03*
Y026569D02*
D03*
Y028191D02*
D03*
Y027868D02*
D03*
X031108Y037733D02*
D03*
Y037410D02*
D03*
X029562Y036012D02*
D03*
Y036335D02*
D03*
D24*
X019615Y036138D02*
D03*
X019300D02*
D03*
X030285Y036038D02*
D03*
X029970D02*
D03*
D25*
X029976Y036036D02*
D03*
Y036351D02*
D03*
D31*
X037248Y038612D02*
D03*
X036926Y038612D02*
D03*
X020269Y036138D02*
D03*
X019946D02*
D03*
X029126Y035701D02*
D03*
X029448D02*
D03*
X019919Y034138D02*
D03*
X019596D02*
D03*
X028732Y037178D02*
D03*
X029055D02*
D03*
X028732Y037965D02*
D03*
X029055D02*
D03*
X028732Y037571D02*
D03*
X029055D02*
D03*
D36*
X038537Y037152D02*
D03*
Y037772D02*
D03*
X038878Y022558D02*
D03*
Y021938D02*
D03*
X039328Y022558D02*
D03*
Y021938D02*
D03*
X038428D02*
D03*
Y022558D02*
D03*
Y023548D02*
D03*
Y022928D02*
D03*
X038878Y023548D02*
D03*
Y022928D02*
D03*
X039328D02*
D03*
Y023548D02*
D03*
X039778Y022928D02*
D03*
Y023548D02*
D03*
D41*
X021130Y038178D02*
D03*
X021425D02*
D03*
X020530Y036628D02*
D03*
X020825D02*
D03*
X020530Y036978D02*
D03*
X020825D02*
D03*
X020530Y037328D02*
D03*
X020825D02*
D03*
X020680Y037678D02*
D03*
X020975D02*
D03*
X020173Y026605D02*
D03*
X019878D02*
D03*
Y027105D02*
D03*
X020173D02*
D03*
X019878Y029105D02*
D03*
X020173D02*
D03*
X020430Y021128D02*
D03*
X020725D02*
D03*
X020432Y021528D02*
D03*
X020728D02*
D03*
X020175Y031105D02*
D03*
X019880D02*
D03*
D44*
X036837Y038159D02*
D03*
Y037864D02*
D03*
D45*
X030309Y036935D02*
D03*
Y036580D02*
D03*
X029385Y037059D02*
D03*
Y036705D02*
D03*
D52*
X021119Y034852D02*
D03*
Y034104D02*
D03*
D64*
X020172Y027605D02*
D03*
X019877D02*
D03*
X020173Y028105D02*
D03*
X019878D02*
D03*
Y028605D02*
D03*
X020173D02*
D03*
X019878Y029605D02*
D03*
X020173D02*
D03*
X019880Y030605D02*
D03*
X020175D02*
D03*
X020173Y030105D02*
D03*
X019878D02*
D03*
D88*
X018637Y028237D02*
D03*
X019011D02*
D03*
X018637Y027237D02*
D03*
X019011D02*
D03*
X018687Y026237D02*
D03*
X019061D02*
D03*
X018687Y025887D02*
D03*
X019061D02*
D03*
D89*
X030170Y022132D02*
G03*
X030065Y022088I000000J-000148D01*
G01*
X025937Y037673D02*
Y039662D01*
X025737Y037473D02*
X025937Y037673D01*
X025908Y039690D02*
X025937Y039662D01*
X026156Y033062D02*
X027043Y033949D01*
X025860Y033062D02*
X026156D01*
X035339Y039337D02*
X035874D01*
X033814Y040862D02*
X035339Y039337D01*
X033187Y040862D02*
X033814D01*
X035924Y039632D02*
X036824D01*
X034735Y040821D02*
X035924Y039632D01*
X028698Y034912D02*
X029268D01*
X026826Y036784D02*
X028698Y034912D01*
X023876Y034722D02*
Y035060D01*
X023422Y034269D02*
X023876Y034722D01*
X023244Y034269D02*
X023422D01*
X023756Y034782D02*
Y035280D01*
X023376Y034402D02*
X023756Y034782D01*
X023130Y034402D02*
X023376D01*
X025979Y037296D02*
X026393D01*
X025862Y037178D02*
X025979Y037296D01*
X025862Y036075D02*
Y037178D01*
X025737Y035288D02*
Y037473D01*
X025737Y037813D02*
Y039412D01*
X025617Y037693D02*
X025737Y037813D01*
X025617Y035338D02*
Y037693D01*
X031055Y035993D02*
X031452Y036390D01*
X031055Y034654D02*
X031107Y034602D01*
X031175Y035943D02*
X031655Y036423D01*
X031055Y034654D02*
Y035993D01*
X031295Y035841D02*
X031515Y036061D01*
X031295Y035041D02*
Y035841D01*
Y035041D02*
X031535Y034801D01*
X036005Y037711D02*
X036158Y037864D01*
X036005Y037411D02*
Y037711D01*
X036158Y037864D02*
X036837D01*
X035574Y037162D02*
X035874Y037462D01*
Y038387D01*
X034685Y037031D02*
X035625D01*
X036005Y037411D01*
X034537Y037362D02*
X034737Y037162D01*
X035574D01*
X034797Y036752D02*
X034956Y036911D01*
X036876D01*
X034885Y036471D02*
X035175Y036761D01*
X036795D01*
X033037Y036638D02*
Y037962D01*
X032684Y036284D02*
X033037Y036638D01*
X027153Y039343D02*
X028106D01*
X026395Y040101D02*
X027153Y039343D01*
X026395Y040101D02*
Y040751D01*
X026639Y040995D01*
X035524Y037587D02*
Y037934D01*
X033794Y039664D02*
X035524Y037934D01*
X033415Y041251D02*
X033717D01*
X033050Y041616D02*
X033415Y041251D01*
X032120Y041616D02*
X033050D01*
X033717Y041251D02*
X035457Y039512D01*
X036837Y037509D02*
X037042Y037715D01*
X030884Y042040D02*
X031275D01*
X031464Y041851D01*
X031885D01*
X032120Y041616D01*
X030695Y041851D02*
X030884Y042040D01*
X030695Y041795D02*
Y041851D01*
X028577Y024722D02*
X029255Y024044D01*
X031655Y036423D02*
Y036591D01*
X026437Y037562D02*
X027900D01*
X026087Y037912D02*
X026437Y037562D01*
X026236Y038693D02*
Y040761D01*
X024779Y035674D02*
Y038312D01*
X025187Y038720D01*
Y039012D01*
X025212Y035827D02*
Y038262D01*
X025437Y038487D01*
Y039012D01*
X031487Y024412D02*
X032087Y023812D01*
X031637Y024462D02*
X032137Y023962D01*
X031757Y024542D02*
X032187Y024112D01*
X032087Y023812D02*
X032367D01*
X032137Y023962D02*
X032567D01*
X032187Y024112D02*
X032767D01*
X027900Y037562D02*
X028106Y037768D01*
X026639Y040995D02*
X028124D01*
X028303Y041508D02*
X028813Y042018D01*
X028124Y040995D02*
X028303Y041174D01*
Y041508D01*
X032767Y024112D02*
X033417Y023462D01*
X032567Y023962D02*
X033067Y023462D01*
X032367Y023812D02*
X032717Y023462D01*
X031888Y019163D02*
X032138D01*
X030884Y018962D02*
X031087Y018759D01*
X030507Y018962D02*
X030884D01*
X030247Y019222D02*
X030507Y018962D01*
X028447Y019222D02*
X030247D01*
X028053Y018828D02*
X028447Y019222D01*
X027152Y018828D02*
X028053D01*
X028777Y019102D02*
X030198D01*
X028257Y018582D02*
X028777Y019102D01*
X026998Y018582D02*
X028257D01*
X030212Y041056D02*
X030252D01*
X026708Y036981D02*
X027318D01*
X026393Y037296D02*
X026708Y036981D01*
X025862Y036075D02*
X025941Y035996D01*
X036321Y023028D02*
X037621D01*
X037637Y023012D01*
X038387Y021062D02*
X038787D01*
X039328Y021602D01*
Y021938D01*
X038087Y022212D02*
X038337Y021962D01*
X037837Y022212D02*
X038087D01*
X038763Y023212D02*
X039037D01*
X039043D02*
X039987D01*
X039037D02*
X039043D01*
X039987D02*
X040387Y023612D01*
X039337Y023557D02*
Y023862D01*
X039328Y023548D02*
X039337Y023557D01*
X039787D02*
Y023862D01*
X039778Y023548D02*
X039787Y023557D01*
X036400Y039512D02*
X036674Y039237D01*
X035457Y039512D02*
X036400D01*
X035956Y023962D02*
X037887D01*
X035371Y023378D02*
X035956Y023962D01*
X027487Y041362D02*
Y041736D01*
X027240Y041115D02*
X027487Y041362D01*
X026589Y041115D02*
X027240D01*
X038937Y022167D02*
X039328Y022558D01*
X038937Y021962D02*
Y022167D01*
X039043Y023212D02*
X039328Y022928D01*
X038428Y023548D02*
X038763Y023212D01*
X038281Y022968D02*
X038387D01*
X038087Y023162D02*
X038281Y022968D01*
X038087Y023162D02*
Y023712D01*
X031362Y019112D02*
X031428Y019178D01*
X030527Y019112D02*
X031362D01*
X030282Y019357D02*
X030527Y019112D01*
X027123Y019357D02*
X030282D01*
X026702Y019778D02*
X027123Y019357D01*
X027338Y024542D02*
X028517D01*
X026702Y025178D02*
X027338Y024542D01*
X028499Y021600D02*
X029736D01*
X028107Y021992D02*
X028499Y021600D01*
X028107Y021992D02*
Y023302D01*
X027951Y024228D02*
X028287Y023892D01*
Y022142D02*
Y023892D01*
Y022142D02*
X028697Y021732D01*
X030741Y019835D02*
X030935Y020030D01*
X027545Y019835D02*
X030741D01*
X030787Y019882D01*
X030359Y020126D02*
X030689Y020456D01*
X028154Y020126D02*
X030359D01*
X030213Y020652D02*
X030443Y020882D01*
X028507Y020652D02*
X030213D01*
X026702Y020678D02*
X027545Y019835D01*
X027818Y019962D02*
X030317D01*
X027152Y020628D02*
X027818Y019962D01*
X026702Y021578D02*
X028154Y020126D01*
X029707Y020282D02*
X029882Y020457D01*
X028398Y020282D02*
X029707D01*
X027152Y021528D02*
X028398Y020282D01*
X030198Y019102D02*
X030527Y018772D01*
X027152Y019728D02*
X027391Y019488D01*
X021087Y029019D02*
Y031412D01*
X020173Y028105D02*
X021087Y029019D01*
X028456Y036193D02*
X028893D01*
X027471Y037178D02*
X028456Y036193D01*
X026826Y037178D02*
X027471D01*
X021537Y025762D02*
X022787Y027012D01*
X020960Y025762D02*
X021537D01*
X020508Y025309D02*
X020960Y025762D01*
X021437Y025912D02*
X022587Y027062D01*
X020941Y025912D02*
X021437D01*
X020458Y025429D02*
X020941Y025912D01*
X021337Y026062D02*
X022387Y027112D01*
X020921Y026062D02*
X021337D01*
X020408Y025549D02*
X020921Y026062D01*
X021237Y026212D02*
X022187Y027162D01*
X020901Y026212D02*
X021237D01*
X020358Y025669D02*
X020901Y026212D01*
X020882Y026362D02*
X021137D01*
X021987Y027212D01*
X020311Y025792D02*
X020882Y026362D01*
X020736Y026512D02*
X021062D01*
X020190Y025965D02*
X020736Y026512D01*
X022387Y033412D02*
X023244Y034269D01*
X022387Y027112D02*
Y033412D01*
X020480Y030105D02*
X020487Y030112D01*
X020173Y030105D02*
X020480D01*
X020330Y029605D02*
X020487Y029762D01*
X020173Y029605D02*
X020330D01*
X020444Y030605D02*
X020487Y030562D01*
X020175Y030605D02*
X020444D01*
X020737Y029669D02*
Y031062D01*
X020082Y031717D02*
X020737Y031062D01*
X020173Y029105D02*
X020737Y029669D01*
X020488Y032011D02*
X021087Y031412D01*
X020394Y032011D02*
X020488D01*
X021437Y033048D02*
X022181Y033792D01*
X021437Y028781D02*
Y033048D01*
X020828Y028171D02*
X021437Y028781D01*
X019687Y030862D02*
X020092D01*
X019382Y031167D02*
X019687Y030862D01*
X020092D02*
X020175Y030945D01*
X021987Y027212D02*
Y033428D01*
X023037Y034478D01*
X022187Y033459D02*
X023130Y034402D01*
X022187Y027162D02*
Y033459D01*
X022587Y027062D02*
Y031678D01*
X022787Y027012D02*
Y031622D01*
X022587Y031678D02*
X022752Y031843D01*
X018463Y023557D02*
X019628Y021678D01*
X018463Y023557D02*
Y024843D01*
X018583Y023594D02*
X019678Y021828D01*
X018583Y023594D02*
Y024793D01*
Y023591D02*
Y023594D01*
X018703Y023631D02*
X019728Y021978D01*
X018703Y023631D02*
Y024743D01*
Y023628D02*
Y023631D01*
X018828Y023660D02*
X019778Y022128D01*
X018828Y023660D02*
Y024699D01*
Y023657D02*
Y023660D01*
X019070Y029912D02*
X019878Y029105D01*
X018443Y029912D02*
X019070D01*
X018128Y030228D02*
X018443Y029912D01*
X023287Y030407D02*
Y031457D01*
Y030407D02*
X023567Y030128D01*
X023137Y029257D02*
Y031477D01*
Y029257D02*
X023567Y028828D01*
X022987Y028107D02*
Y031496D01*
Y028107D02*
X023567Y027528D01*
X022787Y031622D02*
X023126Y031961D01*
X024236Y032406D02*
Y034610D01*
X024356Y032356D02*
Y034500D01*
X025190Y032392D02*
X025860Y033062D01*
X024937Y032392D02*
X025190D01*
X024526Y031981D02*
X024937Y032392D01*
X024307Y031981D02*
X024526D01*
X023913Y035438D02*
Y036784D01*
X023756Y035280D02*
X023913Y035438D01*
X023876Y035060D02*
X024346Y035531D01*
X023996Y034890D02*
X024779Y035674D01*
X024116Y034730D02*
X025212Y035827D01*
X024854Y035229D02*
X025507D01*
X024236Y034610D02*
X024854Y035229D01*
X024964Y035109D02*
X025557D01*
X024356Y034500D02*
X024964Y035109D01*
X023037Y035742D02*
X023480Y036185D01*
X023037Y034478D02*
Y035742D01*
X023187Y035602D02*
X023696Y036111D01*
X023187Y035010D02*
Y035602D01*
Y035010D02*
X023421Y034776D01*
X023696Y036111D02*
Y036449D01*
X023480Y036185D02*
Y038319D01*
X022867Y035942D02*
X023047Y036122D01*
X022867Y035010D02*
Y035942D01*
X022181Y034323D02*
X022867Y035010D01*
X022830Y036175D02*
Y036449D01*
X022653Y035998D02*
X022830Y036175D01*
X022653Y035327D02*
Y035998D01*
X021747Y038680D02*
X021876Y038810D01*
X021747Y038032D02*
Y038680D01*
X021393Y037678D02*
X021747Y038032D01*
X020975Y037678D02*
X021393D01*
X021984Y037999D02*
Y038615D01*
X021313Y037328D02*
X021984Y037999D01*
X020825Y037328D02*
X021313D01*
X022399Y038810D02*
X022732Y038477D01*
X021876Y038810D02*
X022399D01*
X022712Y038930D02*
X022948Y038693D01*
X021826Y038930D02*
X022712D01*
X032297Y035612D02*
X032407Y035502D01*
Y035192D02*
Y035502D01*
X030058Y034122D02*
X030507D01*
X038897Y036852D02*
Y037492D01*
X038617Y037772D02*
X038897Y037492D01*
X038537Y037772D02*
X038617D01*
X038797Y036752D02*
X038897Y036852D01*
X038040Y037135D02*
X038520D01*
X034667Y037842D02*
X034837Y038012D01*
X034667Y037402D02*
Y037842D01*
Y037402D02*
X034777Y037292D01*
X035507D01*
X035717Y037502D01*
X035697Y038492D02*
X035797Y038592D01*
X035987D01*
X036224Y038354D01*
Y038337D02*
Y038354D01*
X028893Y039067D02*
Y039343D01*
X028578Y038752D02*
X028893Y039067D01*
X026236Y040761D02*
X026589Y041115D01*
X028652Y040354D02*
X028972D01*
X026767Y038162D02*
X027318D01*
X028421Y038752D02*
X028578D01*
X028303Y038634D02*
X028421Y038752D01*
X028303Y038457D02*
Y038634D01*
X028106Y038260D02*
X028303Y038457D01*
X028106Y038162D02*
Y038260D01*
X028374Y038949D02*
X028500D01*
X028178Y038752D02*
X028374Y038949D01*
X027909Y038752D02*
X028178D01*
X028500Y038424D02*
Y038556D01*
X028303Y038228D02*
X028500Y038424D01*
X028303Y037178D02*
Y038228D01*
X019578Y036528D02*
X019685Y036635D01*
X020522D01*
X020530Y036628D01*
X036837Y038159D02*
X037213D01*
X038040Y037765D02*
Y038080D01*
X038024Y038096D02*
X038040Y038080D01*
X038024Y038096D02*
Y038612D01*
X037666Y038080D02*
Y038595D01*
X037650Y038612D02*
X037666Y038595D01*
X037248Y038612D02*
X037650D01*
X027909Y038359D02*
X028106Y038556D01*
X026826Y038359D02*
X027909D01*
X033317Y020512D02*
Y021092D01*
X037887Y022862D02*
Y023962D01*
X037187Y022162D02*
X037887Y022862D01*
X036487Y022162D02*
X037187D01*
X035987Y024462D02*
X036287Y024162D01*
X038387D01*
Y022968D02*
X038428Y022928D01*
X038387Y022968D02*
Y023262D01*
X039328Y022558D02*
X039408D01*
X039778Y022928D01*
X038878Y022602D02*
Y022928D01*
X038833Y022558D02*
X038878Y022602D01*
X038428Y022558D02*
X038833D01*
X038087Y023712D02*
X038187Y023812D01*
X038787D01*
X038878Y023721D01*
Y023548D02*
Y023721D01*
X032447Y020842D02*
X032647Y020642D01*
X032032Y020842D02*
X032447D01*
X032030Y020840D02*
X032032Y020842D01*
X031835Y020715D02*
X032223D01*
X031566Y020446D02*
X031835Y020715D01*
X031157Y020446D02*
X031566D01*
X031401Y020031D02*
Y020031D01*
X031907Y020537D01*
Y020542D01*
X030904Y020868D02*
X030924Y020888D01*
X032482Y021187D02*
X032987Y020682D01*
X031770Y021187D02*
X032482D01*
X031555Y021594D02*
X031612Y021652D01*
X033422Y021442D02*
X033677D01*
X033169Y021190D02*
X033422Y021442D01*
X033169Y021190D02*
Y021190D01*
X033143Y021164D02*
X033169Y021190D01*
X031447Y022132D02*
X031657Y022342D01*
X031396Y020016D02*
Y020026D01*
X031401Y020031D01*
X030317Y019961D02*
X031157Y020446D01*
X030486Y018211D02*
X031806D01*
X029374Y022502D02*
X029459Y022587D01*
X028967Y022502D02*
X029374D01*
X028807Y022662D02*
X028967Y022502D01*
X030422Y018147D02*
X030486Y018211D01*
X028791Y018147D02*
X030422D01*
X028727Y018211D02*
X028791Y018147D01*
X027546Y018211D02*
X028727D01*
X030437Y018332D02*
X031433D01*
X031433Y018332D02*
X032134Y018737D01*
X028841Y018267D02*
X030372D01*
X030437Y018332D01*
X031048Y018628D02*
X031496D01*
X030904Y018772D02*
X031048Y018628D01*
X031087Y018759D02*
X031187D01*
X030527Y018772D02*
X030904D01*
X028777Y018331D02*
X028841Y018267D01*
X027497Y018331D02*
X028777D01*
X027152Y017987D02*
X027497Y018331D01*
X027152Y017928D02*
Y017987D01*
X027427Y018092D02*
X027546Y018211D01*
X027427Y017822D02*
Y018092D01*
X027307Y017702D02*
X027427Y017822D01*
X026978Y017702D02*
X027307D01*
X026702Y017978D02*
X026978Y017702D01*
X026702Y018878D02*
X026998Y018582D01*
X030180Y018512D02*
X030287D01*
X031496Y018628D02*
Y018751D01*
X031674D01*
X031187Y018759D02*
X031888Y019163D01*
X029528Y018672D02*
X030020D01*
X029037Y023189D02*
X029213Y023013D01*
X029337Y021182D02*
X029480D01*
X028587D02*
X029337D01*
Y021372D01*
X029817Y020452D02*
X030183D01*
X030904Y020868D01*
X029867Y020838D02*
X030658Y021294D01*
X029481Y020838D02*
X029867D01*
X029347Y020972D02*
X029481Y020838D01*
X026702Y022456D02*
X028507Y020652D01*
X029337Y020962D02*
X029347Y020972D01*
X028618Y020962D02*
X029337D01*
X027152Y022428D02*
X028618Y020962D01*
X029482Y021184D02*
X030412Y021721D01*
X029480Y021182D02*
X029482Y021184D01*
X027947Y021822D02*
X028587Y021182D01*
X027947Y021822D02*
Y022533D01*
X028697Y021732D02*
X029277D01*
X027152Y023328D02*
X027947Y022533D01*
X026702Y023378D02*
X026886Y023562D01*
X027847D01*
X028107Y023302D01*
X029128Y021731D02*
X029448D01*
X029537Y021782D01*
X027152Y024228D02*
X027951D01*
X026702Y024278D02*
X026847Y024422D01*
X027977D01*
X028447Y023952D01*
Y022232D02*
Y023952D01*
Y022232D02*
X028657Y022022D01*
X029566D01*
X029705Y022161D01*
X027558Y024722D02*
X028577D01*
X027152Y025128D02*
X027558Y024722D01*
X028845Y035996D02*
X028992D01*
X028720Y035872D02*
X028845Y035996D01*
X031452Y036390D02*
Y036626D01*
X028992Y035996D02*
X029090Y036095D01*
Y036685D01*
X028992Y036784D02*
X029090Y036685D01*
X028696Y036784D02*
X028992D01*
X028303Y037178D02*
X028696Y036784D01*
X027318Y036981D02*
X028500Y035800D01*
X030840Y040739D02*
X030851D01*
X022181Y033792D02*
Y034323D01*
X023578Y031428D02*
Y031578D01*
X021098Y036272D02*
X021256Y036430D01*
Y036823D01*
X021101Y036978D02*
X021256Y036823D01*
X020825Y036978D02*
X021101D01*
X020826Y036626D02*
X021078D01*
X021425Y038178D02*
Y038528D01*
X026433Y038851D02*
X026728Y038556D01*
X025428Y035426D02*
Y036449D01*
X026728Y038556D02*
X027712D01*
X026826Y038752D02*
X027712D01*
X027712Y038556D02*
X027909Y038752D01*
X020628Y038228D02*
X021080D01*
X020530Y037828D02*
X020680Y037678D01*
X020228Y037828D02*
X020530D01*
X019878Y037378D02*
X020228D01*
X020278Y037328D01*
X020530D01*
X019178Y036528D02*
X019578D01*
X019528Y036978D02*
X020530D01*
X019060Y025669D02*
X020358D01*
X018603Y025212D02*
X019060Y025669D01*
X018603Y024983D02*
Y025212D01*
X019110Y025549D02*
X020408D01*
X018723Y025162D02*
X019110Y025549D01*
X018723Y024933D02*
Y025162D01*
X019159Y025429D02*
X020458D01*
X018843Y025112D02*
X019159Y025429D01*
X018843Y024883D02*
Y025112D01*
X019209Y025309D02*
X020508D01*
X018963Y025063D02*
X019209Y025309D01*
X018963Y024834D02*
Y025063D01*
X018828Y024699D02*
X018963Y024834D01*
X018703Y024743D02*
X018843Y024883D01*
X018583Y024793D02*
X018723Y024933D01*
X018463Y024843D02*
X018603Y024983D01*
X020378Y021928D02*
X021228D01*
X020178Y022128D02*
X020378Y021928D01*
X019778Y022128D02*
X020178D01*
X021172Y021728D02*
X021225Y021675D01*
X020402Y021728D02*
X021172D01*
X020152Y021978D02*
X020402Y021728D01*
X019728Y021978D02*
X020152D01*
X019678Y021828D02*
X020132D01*
X019628Y021678D02*
X020023D01*
X020132Y021828D02*
X020432Y021528D01*
X020151Y021406D02*
X020430Y021128D01*
X020151Y021406D02*
Y021549D01*
X020023Y021678D02*
X020151Y021549D01*
X020728Y021528D02*
X021068D01*
X021218Y021378D01*
X020725Y021128D02*
X021158D01*
X021208Y021078D01*
X020118Y025792D02*
X020311D01*
X019878Y026032D02*
X020118Y025792D01*
X023578Y026569D02*
X023882D01*
X023578Y027868D02*
X023882D01*
X023578Y029169D02*
X023882D01*
X023578Y030468D02*
X023882D01*
X024108Y027999D02*
Y028304D01*
Y026697D02*
Y027002D01*
X019011Y028218D02*
Y028237D01*
X024108Y029297D02*
Y029602D01*
Y030597D02*
Y030902D01*
X024728Y030528D02*
X024778D01*
X024428Y030228D02*
X024728Y030528D01*
Y029228D02*
X024778D01*
X024428Y028928D02*
X024728Y029228D01*
Y027928D02*
X024778D01*
X024428Y027628D02*
X024728Y027928D01*
X024428Y026328D02*
X024728Y026628D01*
X024778D01*
X023976Y027376D02*
X024778D01*
X023832Y027232D02*
X023976Y027376D01*
X023578Y027232D02*
X023832D01*
X023578Y026891D02*
Y027232D01*
X023976Y028678D02*
X024778D01*
X023832Y028534D02*
X023976Y028678D01*
X023578Y028534D02*
X023832D01*
X023578Y028193D02*
Y028534D01*
X023976Y029976D02*
X024778D01*
X023832Y029832D02*
X023976Y029976D01*
X023578Y029832D02*
X023832D01*
X023578Y029491D02*
Y029832D01*
Y030791D02*
Y031132D01*
X023832D01*
X023976Y031276D01*
X024778D01*
X018482Y035539D02*
X018882Y035939D01*
X018482Y034189D02*
Y035539D01*
Y034189D02*
X018782Y033889D01*
X019132Y034839D02*
X019307Y034664D01*
X019558D01*
X020175Y030945D02*
Y031105D01*
X019578Y030605D02*
X019880D01*
X020173Y028605D02*
Y028850D01*
X019877Y027631D02*
Y028087D01*
X019444Y026934D02*
Y027311D01*
X019581Y026628D02*
X019880D01*
X019878Y026032D02*
Y026605D01*
X020173Y027988D02*
Y028105D01*
X019578Y028905D02*
Y029105D01*
Y028905D02*
X019878Y028605D01*
X019578Y029855D02*
X019828Y029605D01*
X019878D01*
X019178Y029105D02*
X019578D01*
X018793Y029489D02*
X019178Y029105D01*
X018628Y029489D02*
X018793D01*
X019628Y027105D02*
X019878D01*
X019628Y027605D02*
X019877D01*
X019328Y030305D02*
X019678D01*
X019878Y030105D01*
X018628Y031258D02*
X018638Y031268D01*
X019724Y031260D02*
Y031637D01*
Y031260D02*
X019880Y031105D01*
X020474Y027537D02*
Y027685D01*
X020172Y027987D02*
X020474Y027685D01*
X018483Y025682D02*
X018687Y025887D01*
X018483Y025033D02*
Y025682D01*
X018128Y025878D02*
X018487Y026237D01*
X019558D02*
X019582Y026213D01*
X019061Y026237D02*
X019558D01*
X019028Y026728D02*
X019481D01*
X019581Y026628D01*
X019444Y026934D02*
X019535Y026843D01*
X020787D01*
X018688Y027587D02*
Y027894D01*
Y027587D02*
X019011Y027263D01*
Y027237D02*
Y027263D01*
X019028Y027728D02*
X019444Y027311D01*
X019011Y028237D02*
Y028263D01*
X020787Y026843D02*
X020828Y026884D01*
X019228Y035819D02*
X019300Y035891D01*
Y036138D01*
X019228Y035819D02*
Y035878D01*
X019608Y035658D02*
Y036130D01*
X019558Y035608D02*
X019608Y035658D01*
X022397Y034972D02*
X022397Y034973D01*
X030862Y036193D02*
X031059Y036390D01*
X029448Y035638D02*
X029681Y035406D01*
X029448Y035638D02*
Y035701D01*
X028893Y035800D02*
X028992Y035701D01*
X029126D01*
X030285Y035983D02*
X030468Y035800D01*
X030074Y036587D02*
X030309D01*
X030285Y035983D02*
Y036038D01*
X030263Y036981D02*
X030309Y036935D01*
X027909Y038949D02*
X028106D01*
X027712Y038752D02*
X027909Y038949D01*
X019061Y025887D02*
Y026237D01*
X018128Y028278D02*
X018597D01*
X018478Y027078D02*
X018637Y027237D01*
X018128Y027078D02*
X018478D01*
X018487Y026237D02*
X018687D01*
X018128Y024678D02*
X018483Y025033D01*
X020175Y027528D02*
X020339Y027363D01*
X020546D01*
X020670Y027487D01*
X020674D01*
Y028018D01*
X020175Y027078D02*
Y027528D01*
X020174Y026387D02*
Y026627D01*
X020175Y026628D01*
X030074Y036981D02*
X030263D01*
X029635Y036012D02*
X029779Y036156D01*
X029582Y036012D02*
X029635D01*
X029681Y036587D02*
X029779Y036489D01*
X029900Y036036D02*
X029976D01*
X029779Y036156D02*
Y036489D01*
Y036156D02*
X029900Y036036D01*
X029385Y036705D02*
X029431Y036659D01*
X019608Y036130D02*
X019615Y036138D01*
X023567Y028828D02*
X023578D01*
X023567Y027528D02*
X023578D01*
X024995Y036115D02*
Y036449D01*
X021425Y038528D02*
X021826Y038930D01*
X023567Y030128D02*
X023578D01*
X025557Y035109D02*
X025737Y035288D01*
X025507Y035229D02*
X025617Y035338D01*
X036685Y037214D02*
X036837D01*
X036487Y037412D02*
X036685Y037214D01*
X037650Y038612D02*
Y038775D01*
X037787Y038912D01*
X033037Y037962D02*
X033187Y038112D01*
X034287D01*
X034537Y037362D02*
Y037862D01*
X034287Y038112D02*
X034537Y037862D01*
X035697Y038262D02*
X035717Y038242D01*
Y037502D02*
Y038242D01*
X035697Y038262D02*
Y038492D01*
X026787Y034612D02*
Y034815D01*
X026590Y035012D02*
X026787Y034815D01*
X020082Y032239D02*
X020311Y032468D01*
X020082Y031717D02*
Y032239D01*
X020311Y032468D02*
X020594D01*
X018782Y033889D02*
X019610D01*
X020337Y033162D01*
Y032812D02*
Y032962D01*
X020137Y032612D02*
X020337Y032812D01*
X019482Y032612D02*
X020137D01*
X019382Y032512D02*
X019482Y032612D01*
X020337Y032812D02*
Y033162D01*
X019382Y031167D02*
Y032512D01*
X018628Y032597D02*
X018802D01*
X018987Y032412D01*
Y032262D02*
Y032412D01*
X027391Y019488D02*
X028763D01*
X028987Y019712D01*
X030503D01*
X030729Y019627D02*
X030737Y019635D01*
X030587Y019627D02*
X030729D01*
X030503Y019712D02*
X030587Y019627D01*
X030737Y019635D02*
X031396Y020016D01*
X031040Y019462D02*
X031181Y019604D01*
X030437Y019462D02*
X031040D01*
X030337Y019562D02*
X030437Y019462D01*
X029287Y019562D02*
X030337D01*
X029261Y019535D02*
X029287Y019562D01*
X033437Y020962D02*
X033587Y021112D01*
X032138Y019163D02*
X033437Y020462D01*
Y020962D01*
X033557Y020832D02*
X033837Y021112D01*
X032134Y018737D02*
X033557Y020160D01*
Y020832D01*
X032223Y020715D02*
X032527Y020412D01*
X033047D01*
X033197Y020562D01*
X031907Y020542D02*
X032187Y020262D01*
X033067D01*
X033317Y020512D01*
X033308Y040081D02*
X033483Y040256D01*
X021844Y036324D02*
Y036937D01*
X022397Y034972D02*
Y036449D01*
X022284Y037654D02*
X022397Y037768D01*
Y038049D01*
X024463Y039334D02*
X024592Y039462D01*
X023480Y038319D02*
X023545Y038384D01*
X023047Y038256D02*
X023306Y038514D01*
X023047Y036122D02*
Y038256D01*
X018688Y027894D02*
X019011Y028218D01*
X019746D01*
X019877Y028087D01*
X036824Y039632D02*
X036935Y039521D01*
X033950Y035549D02*
X034304D01*
X034495Y035740D01*
Y036841D02*
X034685Y037031D01*
X032717Y035549D02*
X033950D01*
X040887Y034012D02*
Y034512D01*
X040295Y035104D02*
X040887Y034512D01*
X040295Y035104D02*
Y035911D01*
X039745Y036461D02*
X040295Y035911D01*
X038785Y036461D02*
X039745D01*
X038625Y036621D02*
X038785Y036461D01*
X036876Y036911D02*
X037035Y036752D01*
X038797D01*
X036935Y036621D02*
X037135D01*
X036795Y036761D02*
X036935Y036621D01*
X038625D01*
X034495Y036471D02*
X034885D01*
X034495Y035740D02*
Y036471D01*
Y036841D01*
X023306Y038514D02*
X023908D01*
X024463Y039070D01*
Y039334D01*
X023545Y038384D02*
X023968D01*
X024637Y039053D01*
Y039262D01*
X024592Y039462D02*
X024846D01*
X025646Y040262D01*
X025887D01*
X024346Y035531D02*
Y036741D01*
X025215Y039421D02*
X025455D01*
X024345Y038551D02*
X025215Y039421D01*
X024345Y037001D02*
Y038551D01*
X029777Y024812D02*
X029896Y024931D01*
X030175D01*
X030894Y024212D01*
X031237D01*
X031175Y022593D02*
X031196Y022571D01*
X031634Y039974D02*
X031740Y040081D01*
X033308D01*
X032905Y041144D02*
Y041431D01*
Y041144D02*
X033187Y040862D01*
X030525Y041181D02*
X030527Y041183D01*
X028813Y042018D02*
X030125D01*
X028517Y024542D02*
X029037Y024022D01*
Y023189D02*
Y024022D01*
X029255Y023639D02*
X029335Y023559D01*
X029255Y023639D02*
Y024044D01*
X031347Y020682D02*
X031627D01*
X031785Y020840D01*
X032030D01*
X031767Y021013D02*
X031775D01*
X031642Y020888D02*
X031767Y021013D01*
X030924Y020888D02*
X031642D01*
X031767Y021013D02*
X031959D01*
X030658Y021294D02*
X031562D01*
X029268Y034912D02*
X030058Y034122D01*
X031637Y024462D02*
Y024793D01*
X031487Y024412D02*
Y024813D01*
X031197Y024942D02*
X031446D01*
X031757Y024542D02*
Y024743D01*
X031217Y025192D02*
X031526D01*
X031207Y025482D02*
X031646D01*
X033131Y026967D01*
Y027096D01*
X031526Y025192D02*
X033266Y026933D01*
Y027061D01*
X031446Y024942D02*
X033386Y026883D01*
Y027011D01*
X031487Y024813D02*
X033515Y026841D01*
Y026970D01*
X031637Y024793D02*
X033635Y026791D01*
Y026920D01*
X031757Y024743D02*
X033765Y026751D01*
Y026870D01*
X034515Y027620D01*
X033635Y026920D02*
X034395Y027680D01*
X033515Y026970D02*
X034275Y027730D01*
X033386Y027011D02*
X034155Y027780D01*
X033131Y027096D02*
X033915Y027880D01*
X033266Y027061D02*
X034035Y027830D01*
X030877Y034422D02*
X031017Y034282D01*
X034515Y027620D02*
Y031601D01*
X031017Y034282D02*
X031665D01*
X034395Y031552D01*
Y027680D02*
Y031552D01*
X030817Y034162D02*
X031615D01*
X034275Y031502D01*
Y027730D02*
Y031502D01*
X031666Y033941D02*
X034155Y031452D01*
Y027780D02*
Y031452D01*
X031616Y033821D02*
X034035Y031402D01*
Y027830D02*
Y031402D01*
X031417Y033592D02*
X031676D01*
X033915Y031353D01*
Y027880D02*
Y031353D01*
X031175Y034811D02*
Y035943D01*
X030008Y034002D02*
X030374D01*
X030435Y033941D01*
X031666D01*
X029958Y033882D02*
X030325D01*
X030385Y033821D01*
X030465D01*
X030385D02*
X031616D01*
X025435Y040411D02*
X025515Y040491D01*
X025957D01*
X026087Y040361D01*
Y037912D02*
Y040361D01*
X030652Y039998D02*
X030962Y040308D01*
X030272Y039998D02*
X030652D01*
X030981Y040101D02*
X031065D01*
X031495Y040381D02*
Y040383D01*
X031340Y040537D02*
X031495Y040381D01*
X030770Y040537D02*
X031340D01*
X030252Y041056D02*
X030770Y040537D01*
X031098Y040741D02*
X031574D01*
X031846Y041012D01*
Y041626D01*
X031547Y041093D02*
Y041492D01*
X030851Y040739D02*
X031033Y040921D01*
X031375D01*
X031547Y041093D01*
X018638Y031268D02*
X019038D01*
X019578Y030729D01*
Y030605D02*
Y030729D01*
X021062Y026512D02*
X021785Y027235D01*
Y030264D01*
X021687Y030362D02*
X021785Y030264D01*
X033143Y020823D02*
Y021164D01*
Y020823D02*
X033197Y020769D01*
Y020562D02*
Y020769D01*
X031137Y021062D02*
X031645D01*
X031770Y021187D01*
X030669Y022132D02*
X030672Y022135D01*
X030816D01*
X030818Y022132D01*
X031447D01*
X029775Y021053D02*
X030197Y021309D01*
X029736Y021600D02*
Y021735D01*
X029951D01*
X030170Y022132D02*
X030245D01*
X029451Y021734D02*
X030065Y022088D01*
X030126Y022124D01*
X030170Y022132D02*
X030669D01*
X030412Y021721D02*
X031064D01*
X031176Y021832D01*
X031547D01*
X031237Y023653D02*
Y024212D01*
X031175Y023591D02*
X031237Y023653D01*
X031175Y022593D02*
Y023591D01*
X037042Y037715D02*
X037990D01*
X038040Y037765D01*
X036374Y038063D02*
X036635D01*
X036759Y038081D02*
X036837Y038159D01*
X036653Y038081D02*
X036759D01*
X036635Y038063D02*
X036653Y038081D01*
X037248Y038612D02*
Y038785D01*
X037376Y038912D01*
X037487D01*
X031452Y036390D02*
Y036709D01*
X031256Y036587D02*
Y036682D01*
X031059Y036390D02*
Y036655D01*
X030862Y036587D02*
Y037126D01*
X031175Y034811D02*
X031584Y034402D01*
X031714D01*
X034515Y031601D01*
X029234Y034776D02*
X030008Y034002D01*
X029184Y034656D02*
X029958Y033882D01*
X026826Y036390D02*
X027050D01*
X028665Y034776D01*
X029234D01*
X026826Y035209D02*
X028062D01*
X028615Y034656D01*
X029184D01*
X028720Y035304D02*
Y035872D01*
Y035304D02*
X028992Y035032D01*
X029317D01*
X030046Y034304D01*
X030675D01*
X030817Y034162D01*
X031515Y036061D02*
X032205D01*
X032717Y035549D01*
X030639Y037349D02*
Y038273D01*
Y037349D02*
X030862Y037126D01*
X031256Y036682D02*
X031454Y036881D01*
X031452Y036709D02*
X031574Y036831D01*
X030074Y039801D02*
X030272Y039998D01*
X030271Y039728D02*
X030335Y039791D01*
X030271Y038641D02*
X030639Y038273D01*
X030391Y039512D02*
X030981Y040101D01*
X030074Y038949D02*
Y039801D01*
X030271Y038641D02*
Y039728D01*
X030391Y038711D02*
Y039512D01*
X030862Y039737D02*
X031059Y039540D01*
Y038437D02*
Y039540D01*
Y038437D02*
X031454Y038042D01*
Y036881D02*
Y038042D01*
X030391Y038711D02*
X030980Y038122D01*
X031177D01*
X030962Y040308D02*
X031205D01*
X031295Y040218D01*
Y039933D02*
Y040218D01*
X031216Y039855D02*
X031295Y039933D01*
X031216Y038450D02*
Y039855D01*
Y038450D02*
X031574Y038092D01*
Y036831D02*
Y038092D01*
X031177Y038122D02*
X031334Y037965D01*
X031059Y036655D02*
X031334Y036930D01*
Y037965D01*
X030525Y041181D02*
Y041618D01*
X030125Y042018D02*
X030525Y041618D01*
X026236Y038693D02*
X026767Y038162D01*
X025240Y032272D02*
X025910Y032942D01*
X022987Y031496D02*
X023996Y032505D01*
Y034890D01*
X023137Y031477D02*
X024116Y032455D01*
Y034730D01*
X023287Y031457D02*
X024236Y032406D01*
X023578Y031578D02*
X024356Y032356D01*
X024459Y031744D02*
X024987Y032272D01*
X025240D01*
X024051Y031744D02*
X024459D01*
X025910Y032942D02*
X026205D01*
X027035Y033772D01*
X027338D01*
X031612Y021652D02*
X033212D01*
X033422Y021442D01*
D90*
X035478Y026278D02*
X035697Y026497D01*
Y026915D01*
X035989Y027206D02*
Y027223D01*
X035697Y026915D02*
X035989Y027206D01*
X027248Y040848D02*
X027328D01*
X026928Y040528D02*
X027248Y040848D01*
X036926Y038800D02*
X037387Y039262D01*
X036926Y038612D02*
Y038800D01*
X026219Y034402D02*
Y034894D01*
Y033866D02*
Y034402D01*
X026472D01*
X026219Y036494D02*
Y036994D01*
Y035466D02*
Y036494D01*
Y035394D02*
Y035466D01*
Y034894D02*
Y035394D01*
X019946Y036138D02*
Y036453D01*
X019937Y036462D02*
X019946Y036453D01*
X028500Y038162D02*
X028696Y037965D01*
X028500Y037768D02*
X028535D01*
X020938Y034128D02*
Y034478D01*
X021288Y034104D02*
Y034478D01*
X020594Y032468D02*
X020974Y032848D01*
X020387Y035012D02*
X020547D01*
X020306Y035093D02*
X020387Y035012D01*
X020306Y035093D02*
Y035608D01*
X020938Y034128D02*
X020962Y034104D01*
X021288D01*
X018628Y030278D02*
Y030828D01*
X019632Y031989D02*
Y032293D01*
X019724Y032385D01*
X019028Y028728D02*
Y028729D01*
X019326Y034146D02*
X019335Y034138D01*
X019596D01*
X019878Y035111D02*
X019932Y035165D01*
Y035608D01*
X019878Y035111D02*
Y035150D01*
X019946Y035622D02*
Y036138D01*
X024562Y036449D02*
Y038049D01*
X026216Y036997D02*
X026219Y036994D01*
X023696Y036449D02*
Y038049D01*
X035452Y027160D02*
X035469D01*
X034959D02*
X035452D01*
X035469D02*
X035760Y027451D01*
X020974Y032848D02*
Y032987D01*
X022828Y036568D02*
X022830Y038049D01*
X024129Y036449D02*
Y038049D01*
X024995Y036449D02*
Y038049D01*
X025428Y036449D02*
Y038049D01*
X030907Y037772D02*
X031167D01*
X028696Y037965D02*
X028732D01*
X028535Y037374D02*
X028732Y037178D01*
X028535Y037768D02*
X028732Y037571D01*
X029055D02*
X029090D01*
X029055Y037178D02*
X029090D01*
X029055Y037965D02*
X029090D01*
X028500Y037374D02*
X028535D01*
X024128Y036105D02*
Y036448D01*
X023263Y037642D02*
Y038049D01*
Y036449D02*
Y036863D01*
X021836Y036945D02*
X021844Y036937D01*
X021836Y034594D02*
X022054D01*
X021836Y034091D02*
Y034594D01*
Y035345D01*
X020406Y036054D02*
X021934D01*
X022174Y036294D01*
X020306Y035954D02*
X020406Y036054D01*
X022174Y036294D02*
Y036724D01*
X023034Y039144D02*
Y040154D01*
Y039144D02*
X023324Y038854D01*
X023984D01*
X022174Y036724D02*
X022614Y037164D01*
Y037394D02*
Y037504D01*
Y037164D02*
Y037394D01*
Y037694D01*
X039336Y032512D02*
X040887D01*
X038965Y032141D02*
X039336Y032512D01*
X033387Y033729D02*
Y034012D01*
Y033729D02*
X034975Y032141D01*
X038965D01*
X037292Y037135D02*
Y037433D01*
X037192Y037533D02*
X037292Y037433D01*
D92*
X020618Y034852D02*
X021119D01*
X029090Y037965D02*
X029287Y037768D01*
X020594Y033367D02*
Y034965D01*
Y033367D02*
X020974Y032987D01*
X029090Y037571D02*
X029287Y037374D01*
X029090Y037178D02*
X029287Y037374D01*
X029431Y036486D02*
X029572Y036345D01*
X029431Y036486D02*
Y036659D01*
X029385Y037059D02*
Y037276D01*
X029287Y037374D02*
X029385Y037276D01*
X020306Y035608D02*
Y035954D01*
D93*
X029681Y036882D02*
Y036981D01*
X029504Y036705D02*
X029681Y036882D01*
X029385Y036705D02*
X029504D01*
D94*
X019919Y034002D02*
X020232Y033689D01*
X019919Y034002D02*
Y034138D01*
X019932Y034151D02*
Y034664D01*
D95*
X023240Y020403D02*
Y021140D01*
X023528Y021428D01*
X024028D01*
X024815Y020403D02*
Y021190D01*
X024578Y021428D02*
X024815Y021190D01*
X024028Y021428D02*
X024578D01*
D96*
X030648Y036078D02*
Y037157D01*
X030469Y035208D02*
X030469D01*
X030263Y035003D02*
X030469Y035208D01*
X030263Y034934D02*
Y035003D01*
X030153Y034824D02*
X030263Y034934D01*
X029878Y035209D02*
X030074Y035406D01*
X029878Y034942D02*
Y035209D01*
Y034942D02*
X029990Y034830D01*
X029990D01*
X029996Y034824D01*
X030153D01*
X030469Y035208D02*
X030648Y035388D01*
X030428Y035167D02*
X030469Y035208D01*
X030648Y035388D02*
X030792Y035531D01*
X030648Y035388D02*
Y035388D01*
X030074Y035012D02*
X030652Y035589D01*
X030508Y036020D02*
X030652Y035876D01*
Y035589D02*
Y035876D01*
X030648Y036078D02*
X030792Y035934D01*
Y035531D02*
Y035934D01*
X030507Y036439D02*
X030508Y036439D01*
X030507Y036439D02*
Y036440D01*
X030468Y038260D02*
X030509Y038219D01*
X029976Y036351D02*
Y036488D01*
X030074Y036587D01*
X029482Y039608D02*
X029582Y039508D01*
Y038948D02*
Y039508D01*
X030468Y038260D02*
Y038260D01*
X029722Y039495D02*
X029832Y039605D01*
X029722Y039006D02*
Y039495D01*
X029832Y039900D02*
Y040039D01*
X029783Y040088D02*
X029832Y040039D01*
X029482Y040041D02*
X029528Y040086D01*
X029482Y039903D02*
Y040041D01*
X029528Y040086D02*
Y040482D01*
X029783Y040088D02*
Y040482D01*
X030369Y037237D02*
Y038161D01*
Y037237D02*
X030508Y037099D01*
Y036020D02*
Y037099D01*
X030606Y037198D02*
X030648Y037157D01*
X030606Y037198D02*
Y037198D01*
X030509Y037295D02*
X030606Y037198D01*
X030509Y037295D02*
Y038219D01*
X030897Y037370D02*
X031157D01*
X029582Y038948D02*
X030369Y038161D01*
X029722Y039006D02*
X030468Y038260D01*
D98*
X024169Y040327D02*
D03*
X033187Y024912D02*
D03*
X024287Y018912D02*
D03*
X021537Y024662D02*
D03*
X024287D02*
D03*
D99*
X040887Y034012D02*
D03*
Y034512D02*
D03*
Y032012D02*
D03*
Y032512D02*
D03*
Y033012D02*
D03*
Y033512D02*
D03*
D100*
X035478Y026278D02*
D03*
X035128Y026628D02*
D03*
X034778Y026978D02*
D03*
D101*
X019528Y036978D02*
D03*
X018128Y031828D02*
D03*
Y030228D02*
D03*
Y024678D02*
D03*
Y025878D02*
D03*
Y027078D02*
D03*
Y028278D02*
D03*
X025828Y018078D02*
D03*
X021028Y038628D02*
D03*
X021428Y039028D02*
D03*
X020628Y038228D02*
D03*
X020228Y037828D02*
D03*
X019878Y037378D02*
D03*
X019178Y036528D02*
D03*
D102*
X018928Y033237D02*
D03*
Y034418D02*
D03*
D103*
X026928Y040528D02*
D03*
D104*
X026928Y041528D02*
D03*
D105*
X018128Y025328D02*
D03*
Y026528D02*
D03*
Y027728D02*
D03*
Y028928D02*
D03*
D106*
X025978Y041328D02*
D03*
D107*
X024028Y020678D02*
D03*
Y021428D02*
D03*
D108*
X026702Y024278D02*
D03*
Y022478D02*
D03*
Y021578D02*
D03*
Y019778D02*
D03*
Y017978D02*
D03*
X026702Y023378D02*
D03*
X026702Y018878D02*
D03*
Y020678D02*
D03*
Y025178D02*
D03*
D109*
X026252Y017628D02*
D03*
Y023928D02*
D03*
Y023028D02*
D03*
Y022128D02*
D03*
Y021228D02*
D03*
Y020328D02*
D03*
Y019428D02*
D03*
Y018528D02*
D03*
Y024828D02*
D03*
D110*
X030404Y040354D02*
D03*
X028652D02*
D03*
D111*
X031132Y041536D02*
D03*
X027923D02*
D03*
D112*
X024855Y034111D02*
D03*
X037535Y037541D02*
D03*
X037825Y037521D02*
D03*
X029261Y019535D02*
D03*
X030695Y041851D02*
D03*
X027485Y041741D02*
D03*
X020315Y034001D02*
D03*
X031655Y036591D02*
D03*
X038795Y021634D02*
D03*
X030335Y039791D02*
D03*
X025887Y040262D02*
D03*
X025737Y039412D02*
D03*
X025887Y039712D02*
D03*
X025187Y039012D02*
D03*
X025437D02*
D03*
X024637Y039262D02*
D03*
X023387Y039356D02*
D03*
X029287Y038556D02*
D03*
X031987Y024612D02*
D03*
X037387Y039262D02*
D03*
X035387Y031862D02*
D03*
Y031612D02*
D03*
Y031362D02*
D03*
X035437Y031062D02*
D03*
X035787D02*
D03*
X035987Y031212D02*
D03*
X039087Y027162D02*
D03*
X038737Y027212D02*
D03*
X038487Y027312D02*
D03*
X038287Y027162D02*
D03*
X038487Y026962D02*
D03*
X038837D02*
D03*
X039087Y026812D02*
D03*
X038937Y026512D02*
D03*
Y026012D02*
D03*
X039187Y026262D02*
D03*
X039437D02*
D03*
X039687D02*
D03*
X039937D02*
D03*
X040187D02*
D03*
X039087Y036662D02*
D03*
X032887Y034736D02*
D03*
X033387Y034912D02*
D03*
X033087D02*
D03*
X032887Y034428D02*
D03*
Y034148D02*
D03*
X033137Y034012D02*
D03*
X033987Y035262D02*
D03*
X033950Y035549D02*
D03*
X034304D02*
D03*
X038824Y033087D02*
D03*
Y033337D02*
D03*
X026590Y037374D02*
D03*
X026472Y034402D02*
D03*
X026590Y037768D02*
D03*
X026610Y035996D02*
D03*
X025941D02*
D03*
X029287Y039343D02*
D03*
X027319Y038949D02*
D03*
X040621Y024928D02*
D03*
X036321Y023028D02*
D03*
X039337Y023862D02*
D03*
X039787D02*
D03*
X021687Y030362D02*
D03*
X020487Y030112D02*
D03*
Y029762D02*
D03*
Y030562D02*
D03*
X031797Y035802D02*
D03*
X033977Y026732D02*
D03*
X031817Y034552D02*
D03*
X032297Y035612D02*
D03*
X032407Y035192D02*
D03*
X031107Y034602D02*
D03*
X030877Y034422D02*
D03*
X030507Y034122D02*
D03*
X033417Y023462D02*
D03*
X033067D02*
D03*
X032717D02*
D03*
X031217Y025192D02*
D03*
X031197Y024942D02*
D03*
X031237Y024212D02*
D03*
X032057Y023622D02*
D03*
X031858Y023460D02*
D03*
X032107Y022832D02*
D03*
X031900Y022475D02*
D03*
X029777Y024812D02*
D03*
X038897Y036852D02*
D03*
X034797Y036752D02*
D03*
X034837Y038012D02*
D03*
X035291Y036499D02*
D03*
X035645D02*
D03*
X030057Y040072D02*
D03*
X031547Y041492D02*
D03*
X028347Y041872D02*
D03*
X031846Y041626D02*
D03*
X030212Y041056D02*
D03*
X036374Y038063D02*
D03*
X028893Y039343D02*
D03*
X032200Y036272D02*
D03*
X028539Y041213D02*
D03*
X019937Y036462D02*
D03*
X028106Y038162D02*
D03*
X028500Y038162D02*
D03*
X028106Y038556D02*
D03*
X028500Y037768D02*
D03*
X033837Y021112D02*
D03*
X033587D02*
D03*
X031256Y036587D02*
D03*
X037637Y023012D02*
D03*
X036487Y022162D02*
D03*
X037887Y023962D02*
D03*
X035371Y023378D02*
D03*
X035987Y024462D02*
D03*
X038387Y024162D02*
D03*
X040621Y024578D02*
D03*
X038987Y025612D02*
D03*
X038971Y025328D02*
D03*
X039921Y025678D02*
D03*
Y025328D02*
D03*
X035687Y021762D02*
D03*
X036087Y021756D02*
D03*
X035037Y021762D02*
D03*
X035437Y021756D02*
D03*
Y020562D02*
D03*
X035037Y020568D02*
D03*
X035687D02*
D03*
X036087Y020562D02*
D03*
X036074Y022225D02*
D03*
X037921Y021278D02*
D03*
X037853Y021678D02*
D03*
X038787Y021372D02*
D03*
X038387Y023262D02*
D03*
X039037Y023212D02*
D03*
X031347Y020682D02*
D03*
X031907Y020542D02*
D03*
X031959Y021013D02*
D03*
X031555Y021584D02*
D03*
X031547Y021832D02*
D03*
X031657Y022342D02*
D03*
X032647Y020642D02*
D03*
X032987Y020682D02*
D03*
X031137Y021062D02*
D03*
X033317Y021092D02*
D03*
X031587Y017142D02*
D03*
X031780Y017719D02*
D03*
X030747Y018572D02*
D03*
X029612Y017943D02*
D03*
X029199Y017931D02*
D03*
X030287Y018512D02*
D03*
X029047Y018822D02*
D03*
X028807Y022662D02*
D03*
X029337Y021372D02*
D03*
X035988Y019832D02*
D03*
X035588Y019742D02*
D03*
X033816Y020341D02*
D03*
X033737Y019372D02*
D03*
X028627Y019662D02*
D03*
X029817Y020452D02*
D03*
X033677Y021442D02*
D03*
X029347Y020972D02*
D03*
X028675Y020455D02*
D03*
X030108Y023510D02*
D03*
X029708Y023437D02*
D03*
X030958Y023498D02*
D03*
X031358Y023460D02*
D03*
X031196Y022571D02*
D03*
X033736Y022611D02*
D03*
X034149Y022599D02*
D03*
Y021717D02*
D03*
X033736Y021705D02*
D03*
X033317Y022310D02*
D03*
X031217Y022314D02*
D03*
X030742Y021470D02*
D03*
X034372Y020078D02*
D03*
X032889Y018694D02*
D03*
X032728Y017418D02*
D03*
X032328Y017326D02*
D03*
X032373Y021454D02*
D03*
X032870D02*
D03*
X032867Y021981D02*
D03*
X032358Y021973D02*
D03*
X030744Y021961D02*
D03*
X030244Y017343D02*
D03*
X029199Y017089D02*
D03*
X029612Y017077D02*
D03*
X032731Y035978D02*
D03*
X034255Y036369D02*
D03*
X033900D02*
D03*
X033635Y036749D02*
D03*
X027318Y038162D02*
D03*
X026610Y035603D02*
D03*
X029287Y038162D02*
D03*
Y037768D02*
D03*
X031098Y040741D02*
D03*
X030840Y040739D02*
D03*
X028616Y034146D02*
D03*
X022948Y038693D02*
D03*
X022732Y038477D02*
D03*
X022653Y035327D02*
D03*
X023913Y036784D02*
D03*
X027338Y033772D02*
D03*
X025924Y032537D02*
D03*
X024051Y031744D02*
D03*
X023126Y031961D02*
D03*
X022752Y031843D02*
D03*
X027043Y033949D02*
D03*
X025165Y031978D02*
D03*
X024307Y031981D02*
D03*
X027667Y034146D02*
D03*
X020938Y034478D02*
D03*
X021288D02*
D03*
X020547Y035268D02*
D03*
X020724Y035445D02*
D03*
X020901Y035622D02*
D03*
X021078Y035800D02*
D03*
X021098Y036272D02*
D03*
X019759Y033209D02*
D03*
X020087Y032912D02*
D03*
X021984Y038615D02*
D03*
X021078Y036626D02*
D03*
X026433Y038851D02*
D03*
X025094Y034185D02*
D03*
X025349Y034162D02*
D03*
X018882Y035939D02*
D03*
X026826Y038752D02*
D03*
Y038359D02*
D03*
X021228Y021928D02*
D03*
X019978Y021478D02*
D03*
X018628Y030278D02*
D03*
X019078Y031878D02*
D03*
X018728D02*
D03*
X021208Y021078D02*
D03*
X021218Y021378D02*
D03*
X021225Y021675D02*
D03*
X023882Y026569D02*
D03*
Y027868D02*
D03*
Y029169D02*
D03*
Y030468D02*
D03*
X024108Y027999D02*
D03*
Y026697D02*
D03*
Y029297D02*
D03*
Y030597D02*
D03*
X024428Y030228D02*
D03*
Y028928D02*
D03*
Y027628D02*
D03*
Y026328D02*
D03*
X020190Y025965D02*
D03*
X019132Y034839D02*
D03*
X019632Y031989D02*
D03*
X020232Y033689D02*
D03*
Y034267D02*
D03*
X019578Y030605D02*
D03*
X020173Y028850D02*
D03*
X019578Y029855D02*
D03*
Y029105D02*
D03*
X019628Y027105D02*
D03*
Y027605D02*
D03*
X019328Y030305D02*
D03*
X019582Y026213D02*
D03*
X019028Y028729D02*
D03*
X019228Y035819D02*
D03*
X019326Y034146D02*
D03*
X019878Y035111D02*
D03*
X026826Y036390D02*
D03*
Y037178D02*
D03*
X024563D02*
D03*
X022397Y034973D02*
D03*
X026826Y035209D02*
D03*
X028500Y035800D02*
D03*
X025429Y035406D02*
D03*
X024779Y033418D02*
D03*
X026590Y035012D02*
D03*
X037824Y026437D02*
D03*
Y026187D02*
D03*
Y025937D02*
D03*
X037474Y025637D02*
D03*
Y025387D02*
D03*
X035524Y037587D02*
D03*
X035174Y037589D02*
D03*
X036574Y038287D02*
D03*
X036224Y038337D02*
D03*
X035874Y038387D02*
D03*
Y039337D02*
D03*
X036674Y039237D02*
D03*
X036224Y039287D02*
D03*
X034715Y038276D02*
D03*
X030862Y039737D02*
D03*
Y038949D02*
D03*
X030074Y035406D02*
D03*
X028893Y035800D02*
D03*
X029681Y035406D02*
D03*
X030074Y035012D02*
D03*
X030468Y035800D02*
D03*
X030862Y036193D02*
D03*
X030074Y035800D02*
D03*
X029665Y035028D02*
D03*
X030862Y035012D02*
D03*
Y036587D02*
D03*
X028500Y038556D02*
D03*
Y038949D02*
D03*
X028106Y039343D02*
D03*
X026826Y036784D02*
D03*
X028106Y037768D02*
D03*
X025874Y033916D02*
D03*
X024567Y032492D02*
D03*
X025645Y033916D02*
D03*
X024567Y032778D02*
D03*
X030862Y037768D02*
D03*
Y038556D02*
D03*
Y039343D02*
D03*
X028106Y038949D02*
D03*
X028893Y036193D02*
D03*
X030074Y038162D02*
D03*
X029681D02*
D03*
X025374Y032837D02*
D03*
X026148Y032387D02*
D03*
X020474Y027537D02*
D03*
X020174Y026387D02*
D03*
X020594Y032468D02*
D03*
X020974Y032987D02*
D03*
X023324Y032770D02*
D03*
X023574D02*
D03*
X024567Y033063D02*
D03*
X023574Y034087D02*
D03*
X030074Y036981D02*
D03*
X027978Y034528D02*
D03*
X030439Y034789D02*
D03*
X027152Y017928D02*
D03*
X028675Y017755D02*
D03*
X027152Y018828D02*
D03*
X028675Y018655D02*
D03*
X027152Y019728D02*
D03*
Y020628D02*
D03*
Y021528D02*
D03*
X028675Y021355D02*
D03*
X027152Y022428D02*
D03*
X028675Y022255D02*
D03*
X027152Y023328D02*
D03*
X028675Y023155D02*
D03*
X027152Y024228D02*
D03*
X028675Y024055D02*
D03*
X028675Y024955D02*
D03*
X027152Y025128D02*
D03*
X038824Y034587D02*
D03*
Y034337D02*
D03*
Y034087D02*
D03*
Y033837D02*
D03*
Y033587D02*
D03*
X030074Y036587D02*
D03*
X029681Y036981D02*
D03*
X029681Y036587D02*
D03*
X033302Y041084D02*
D03*
X030074Y037374D02*
D03*
X029287D02*
D03*
X030094Y037768D02*
D03*
X029661Y037374D02*
D03*
X029681Y037768D02*
D03*
X028500Y036587D02*
D03*
Y037374D02*
D03*
X028893Y036587D02*
D03*
X022378Y034128D02*
D03*
X032554Y040661D02*
D03*
X032161D02*
D03*
X031649Y038949D02*
D03*
X024128Y036105D02*
D03*
X023263Y037642D02*
D03*
Y036863D02*
D03*
X021678Y021675D02*
D03*
X023324Y034087D02*
D03*
X024995Y036115D02*
D03*
X024563Y036095D02*
D03*
X024567Y034380D02*
D03*
Y033808D02*
D03*
Y034094D02*
D03*
X023421Y034776D02*
D03*
X023378Y035378D02*
D03*
X023578Y035248D02*
D03*
X021828Y039128D02*
D03*
X036487Y037412D02*
D03*
X037487Y038912D02*
D03*
X037787D02*
D03*
X026787Y034612D02*
D03*
X025787Y034812D02*
D03*
X025437D02*
D03*
X025087D02*
D03*
X019437Y033212D02*
D03*
X018987Y032262D02*
D03*
X032537Y020012D02*
D03*
X033794Y039664D02*
D03*
X033374Y036654D02*
D03*
X033794Y039104D02*
D03*
X033483Y040256D02*
D03*
X033774Y040044D02*
D03*
X033214Y037854D02*
D03*
Y037504D02*
D03*
X032684Y036284D02*
D03*
X031634Y039974D02*
D03*
X021844Y036324D02*
D03*
X022054Y034594D02*
D03*
X022284Y037654D02*
D03*
X024381Y031477D02*
D03*
X023034Y040154D02*
D03*
X023984Y038854D02*
D03*
X022614Y037694D02*
D03*
Y037394D02*
D03*
X019094Y033704D02*
D03*
X030862Y037374D02*
D03*
X034735Y040821D02*
D03*
X036935Y039521D02*
D03*
X031535Y034801D02*
D03*
X024345Y036741D02*
D03*
X033724Y040587D02*
D03*
X032874Y040384D02*
D03*
X025455Y039421D02*
D03*
X024345Y037001D02*
D03*
X033387Y034012D02*
D03*
X021669Y022069D02*
D03*
X021491Y021891D02*
D03*
X022895Y022069D02*
D03*
X024088Y022078D02*
D03*
X029815Y023011D02*
D03*
X032055Y017581D02*
D03*
X031895Y017181D02*
D03*
X032905Y041431D02*
D03*
X030525Y041181D02*
D03*
X030745Y041351D02*
D03*
X029037Y023402D02*
D03*
X029335Y023559D02*
D03*
X031562Y021294D02*
D03*
X038955Y021921D02*
D03*
X037192Y037533D02*
D03*
X025955Y032151D02*
D03*
X029178Y033967D02*
D03*
X031417Y033592D02*
D03*
X031207Y025482D02*
D03*
X029628Y033967D02*
D03*
X025435Y040411D02*
D03*
X031065Y040101D02*
D03*
X031495Y040381D02*
D03*
X029775Y021053D02*
D03*
X030074Y038949D02*
D03*
X026587Y038062D02*
D03*
D113*
X037292Y037135D02*
D03*
X038040D02*
D03*
Y038080D02*
D03*
X037666D02*
D03*
X037292D02*
D03*
D114*
X030763Y039343D02*
D03*
Y038949D02*
D03*
D115*
X030039Y040482D02*
D03*
X029783D02*
D03*
X029528D02*
D03*
X029272D02*
D03*
X029016D02*
D03*
D116*
X029528Y041536D02*
D03*
D117*
X021836Y035345D02*
D03*
Y036945D02*
D03*
D118*
X021836Y034091D02*
D03*
X026219Y033866D02*
D03*
X021836Y035691D02*
D03*
X026219Y035466D02*
D03*
D119*
Y034894D02*
D03*
Y036494D02*
D03*
D120*
Y035394D02*
D03*
Y036994D02*
D03*
D121*
X022397Y036449D02*
D03*
X022830Y036449D02*
D03*
X023263Y036449D02*
D03*
X023696D02*
D03*
X024129D02*
D03*
X024562Y036449D02*
D03*
X024995Y036449D02*
D03*
X025428Y036449D02*
D03*
X022397Y038049D02*
D03*
X022830D02*
D03*
X023263D02*
D03*
X023696D02*
D03*
X024129D02*
D03*
X024562D02*
D03*
X024995D02*
D03*
X025428D02*
D03*
D122*
X020306Y035608D02*
D03*
X019932D02*
D03*
X019558D02*
D03*
Y034664D02*
D03*
X019932D02*
D03*
X020306D02*
D03*
D123*
X020394Y032011D02*
D03*
X024108Y027002D02*
D03*
Y028304D02*
D03*
Y029602D02*
D03*
Y030902D02*
D03*
D124*
X019724Y032385D02*
D03*
Y031637D02*
D03*
X024778Y026628D02*
D03*
Y027376D02*
D03*
Y027930D02*
D03*
Y028678D02*
D03*
Y029228D02*
D03*
Y029976D02*
D03*
Y030528D02*
D03*
Y031276D02*
D03*
D125*
X018628Y032597D02*
D03*
Y031258D02*
D03*
Y030828D02*
D03*
Y029489D02*
D03*
D126*
X020828Y026884D02*
D03*
Y028171D02*
D03*
D127*
X029820Y024279D02*
D03*
X033309Y018235D02*
D03*
D128*
X030197Y021309D02*
D03*
X030443Y020882D02*
D03*
X029705Y022161D02*
D03*
X029951Y021735D02*
D03*
X029459Y022587D02*
D03*
X029213Y023013D02*
D03*
X030689Y020456D02*
D03*
X030935Y020030D02*
D03*
X031181Y019604D02*
D03*
X031428Y019178D02*
D03*
X031674Y018751D02*
D03*
X031920Y018325D02*
D03*
D129*
X029035Y018672D02*
D03*
X030020D02*
D03*
X029528D02*
D03*
D130*
X024815Y020403D02*
D03*
X024028D02*
D03*
X023240D02*
D03*
D131*
X035760Y027451D02*
D03*
X035989Y027223D02*
D03*
D132*
X035452Y027160D02*
D03*
X035697Y026915D02*
D03*
D133*
X029287Y039185D02*
D03*
D134*
X031024Y017530D02*
D03*
X028032D02*
D03*
M02*
