G04 Layer_Physical_Order=1*
G04 Layer_Color=25308*
%FSAX24Y24*%
%MOIN*%
G70*
G01*
G75*
%ADD10O,0.0500X0.0200*%
%ADD11R,0.0295X0.0276*%
%ADD12R,0.0295X0.0335*%
%ADD13R,0.0217X0.0217*%
%ADD14R,0.0236X0.0217*%
%ADD15C,0.0500*%
%ADD16O,0.0177X0.0827*%
%ADD17O,0.0532X0.0138*%
%ADD18R,0.0177X0.0197*%
%ADD19R,0.0335X0.0374*%
%ADD20C,0.0200*%
%ADD21O,0.0138X0.0669*%
%ADD22R,0.0256X0.0197*%
%ADD23R,0.0236X0.0213*%
%ADD24R,0.0177X0.0177*%
%ADD25R,0.0177X0.0177*%
%ADD26R,0.0559X0.0839*%
%ADD27R,0.0532X0.0571*%
%ADD28R,0.0220X0.0205*%
%ADD29R,0.0217X0.0236*%
%ADD30R,0.0283X0.0299*%
%ADD31R,0.0213X0.0236*%
%ADD32R,0.0268X0.0252*%
%ADD33R,0.0299X0.0283*%
%ADD34R,0.0252X0.0268*%
%ADD35R,0.0256X0.0236*%
%ADD36R,0.0360X0.0240*%
G04:AMPARAMS|DCode=37|XSize=11.8mil|YSize=31.5mil|CornerRadius=1.5mil|HoleSize=0mil|Usage=FLASHONLY|Rotation=90.000|XOffset=0mil|YOffset=0mil|HoleType=Round|Shape=RoundedRectangle|*
%AMROUNDEDRECTD37*
21,1,0.0118,0.0285,0,0,90.0*
21,1,0.0089,0.0315,0,0,90.0*
1,1,0.0030,0.0143,0.0044*
1,1,0.0030,0.0143,-0.0044*
1,1,0.0030,-0.0143,-0.0044*
1,1,0.0030,-0.0143,0.0044*
%
%ADD37ROUNDEDRECTD37*%
G04:AMPARAMS|DCode=38|XSize=11.8mil|YSize=31.5mil|CornerRadius=1.5mil|HoleSize=0mil|Usage=FLASHONLY|Rotation=0.000|XOffset=0mil|YOffset=0mil|HoleType=Round|Shape=RoundedRectangle|*
%AMROUNDEDRECTD38*
21,1,0.0118,0.0285,0,0,0.0*
21,1,0.0089,0.0315,0,0,0.0*
1,1,0.0030,0.0044,-0.0143*
1,1,0.0030,-0.0044,-0.0143*
1,1,0.0030,-0.0044,0.0143*
1,1,0.0030,0.0044,0.0143*
%
%ADD38ROUNDEDRECTD38*%
G04:AMPARAMS|DCode=39|XSize=82.7mil|YSize=82.7mil|CornerRadius=0.4mil|HoleSize=0mil|Usage=FLASHONLY|Rotation=0.000|XOffset=0mil|YOffset=0mil|HoleType=Round|Shape=RoundedRectangle|*
%AMROUNDEDRECTD39*
21,1,0.0827,0.0818,0,0,0.0*
21,1,0.0818,0.0827,0,0,0.0*
1,1,0.0008,0.0409,-0.0409*
1,1,0.0008,-0.0409,-0.0409*
1,1,0.0008,-0.0409,0.0409*
1,1,0.0008,0.0409,0.0409*
%
%ADD39ROUNDEDRECTD39*%
%ADD40R,0.0354X0.0335*%
%ADD41R,0.0197X0.0177*%
%ADD42R,0.0240X0.0360*%
%ADD43R,0.0354X0.0315*%
%ADD44R,0.0197X0.0217*%
%ADD45R,0.0197X0.0197*%
%ADD46R,0.0335X0.0354*%
%ADD47R,0.0630X0.0236*%
%ADD48R,0.1063X0.0512*%
%ADD49C,0.0197*%
G04:AMPARAMS|DCode=50|XSize=55.1mil|YSize=27.6mil|CornerRadius=2.8mil|HoleSize=0mil|Usage=FLASHONLY|Rotation=90.000|XOffset=0mil|YOffset=0mil|HoleType=Round|Shape=RoundedRectangle|*
%AMROUNDEDRECTD50*
21,1,0.0551,0.0220,0,0,90.0*
21,1,0.0496,0.0276,0,0,90.0*
1,1,0.0055,0.0110,0.0248*
1,1,0.0055,0.0110,-0.0248*
1,1,0.0055,-0.0110,-0.0248*
1,1,0.0055,-0.0110,0.0248*
%
%ADD50ROUNDEDRECTD50*%
%ADD51R,0.0433X0.0256*%
G04:AMPARAMS|DCode=52|XSize=55.1mil|YSize=27.6mil|CornerRadius=2.8mil|HoleSize=0mil|Usage=FLASHONLY|Rotation=180.000|XOffset=0mil|YOffset=0mil|HoleType=Round|Shape=RoundedRectangle|*
%AMROUNDEDRECTD52*
21,1,0.0551,0.0220,0,0,180.0*
21,1,0.0496,0.0276,0,0,180.0*
1,1,0.0055,-0.0248,0.0110*
1,1,0.0055,0.0248,0.0110*
1,1,0.0055,0.0248,-0.0110*
1,1,0.0055,-0.0248,-0.0110*
%
%ADD52ROUNDEDRECTD52*%
%ADD53R,0.0500X0.0300*%
%ADD54R,0.1000X0.1051*%
%ADD55R,0.0276X0.0354*%
G04:AMPARAMS|DCode=56|XSize=23.6mil|YSize=21.3mil|CornerRadius=0mil|HoleSize=0mil|Usage=FLASHONLY|Rotation=315.000|XOffset=0mil|YOffset=0mil|HoleType=Round|Shape=Rectangle|*
%AMROTATEDRECTD56*
4,1,4,-0.0159,0.0008,-0.0008,0.0159,0.0159,-0.0008,0.0008,-0.0159,-0.0159,0.0008,0.0*
%
%ADD56ROTATEDRECTD56*%

G04:AMPARAMS|DCode=57|XSize=24mil|YSize=36mil|CornerRadius=0mil|HoleSize=0mil|Usage=FLASHONLY|Rotation=225.000|XOffset=0mil|YOffset=0mil|HoleType=Round|Shape=Rectangle|*
%AMROTATEDRECTD57*
4,1,4,-0.0042,0.0212,0.0212,-0.0042,0.0042,-0.0212,-0.0212,0.0042,-0.0042,0.0212,0.0*
%
%ADD57ROTATEDRECTD57*%

%ADD58R,0.0451X0.0217*%
%ADD59R,0.0217X0.0451*%
%ADD60R,0.1181X0.0551*%
%ADD61R,0.0335X0.0295*%
G04:AMPARAMS|DCode=62|XSize=35.8mil|YSize=48mil|CornerRadius=9mil|HoleSize=0mil|Usage=FLASHONLY|Rotation=270.000|XOffset=0mil|YOffset=0mil|HoleType=Round|Shape=RoundedRectangle|*
%AMROUNDEDRECTD62*
21,1,0.0358,0.0301,0,0,270.0*
21,1,0.0179,0.0480,0,0,270.0*
1,1,0.0179,-0.0151,-0.0090*
1,1,0.0179,-0.0151,0.0090*
1,1,0.0179,0.0151,0.0090*
1,1,0.0179,0.0151,-0.0090*
%
%ADD62ROUNDEDRECTD62*%
G04:AMPARAMS|DCode=63|XSize=35.8mil|YSize=35mil|CornerRadius=8.8mil|HoleSize=0mil|Usage=FLASHONLY|Rotation=270.000|XOffset=0mil|YOffset=0mil|HoleType=Round|Shape=RoundedRectangle|*
%AMROUNDEDRECTD63*
21,1,0.0358,0.0175,0,0,270.0*
21,1,0.0183,0.0350,0,0,270.0*
1,1,0.0175,-0.0088,-0.0092*
1,1,0.0175,-0.0088,0.0092*
1,1,0.0175,0.0088,0.0092*
1,1,0.0175,0.0088,-0.0092*
%
%ADD63ROUNDEDRECTD63*%
%ADD64R,0.0217X0.0197*%
%ADD65R,0.0236X0.0433*%
%ADD66R,0.0315X0.0394*%
%ADD67R,0.0591X0.0276*%
%ADD68R,0.0276X0.0984*%
%ADD69R,0.0248X0.0327*%
%ADD70R,0.0839X0.0559*%
%ADD71R,0.0551X0.1181*%
%ADD72R,0.0532X0.0453*%
%ADD73R,0.0433X0.0532*%
%ADD74R,0.0709X0.0394*%
%ADD75R,0.0472X0.0551*%
%ADD76R,0.0709X0.0709*%
%ADD77R,0.0118X0.0297*%
%ADD78R,0.0297X0.0118*%
%ADD79R,0.0315X0.0315*%
%ADD80R,0.0315X0.0669*%
%ADD81R,0.0315X0.0315*%
G04:AMPARAMS|DCode=82|XSize=133.9mil|YSize=63mil|CornerRadius=0mil|HoleSize=0mil|Usage=FLASHONLY|Rotation=45.000|XOffset=0mil|YOffset=0mil|HoleType=Round|Shape=Rectangle|*
%AMROTATEDRECTD82*
4,1,4,-0.0251,-0.0696,-0.0696,-0.0251,0.0251,0.0696,0.0696,0.0251,-0.0251,-0.0696,0.0*
%
%ADD82ROTATEDRECTD82*%

G04:AMPARAMS|DCode=83|XSize=40mil|YSize=137.8mil|CornerRadius=0mil|HoleSize=0mil|Usage=FLASHONLY|Rotation=315.000|XOffset=0mil|YOffset=0mil|HoleType=Round|Shape=Rectangle|*
%AMROTATEDRECTD83*
4,1,4,-0.0629,-0.0346,0.0346,0.0629,0.0629,0.0346,-0.0346,-0.0629,-0.0629,-0.0346,0.0*
%
%ADD83ROTATEDRECTD83*%

%ADD84R,0.0866X0.0433*%
%ADD85R,0.0650X0.0433*%
%ADD86O,0.0787X0.0118*%
G04:AMPARAMS|DCode=87|XSize=31.5mil|YSize=63mil|CornerRadius=0mil|HoleSize=0mil|Usage=FLASHONLY|Rotation=315.000|XOffset=0mil|YOffset=0mil|HoleType=Round|Shape=Rectangle|*
%AMROTATEDRECTD87*
4,1,4,-0.0334,-0.0111,0.0111,0.0334,0.0334,0.0111,-0.0111,-0.0334,-0.0334,-0.0111,0.0*
%
%ADD87ROTATEDRECTD87*%

%ADD88R,0.0276X0.0256*%
%ADD89C,0.0060*%
%ADD90C,0.0100*%
%ADD91C,0.0300*%
%ADD92C,0.0200*%
%ADD93C,0.0118*%
%ADD94C,0.0150*%
%ADD95C,0.0250*%
%ADD96C,0.0080*%
G04:AMPARAMS|DCode=97|XSize=82.7mil|YSize=118.1mil|CornerRadius=0mil|HoleSize=0mil|Usage=FLASHONLY|Rotation=315.000|XOffset=0mil|YOffset=0mil|HoleType=Round|Shape=Rectangle|*
%AMROTATEDRECTD97*
4,1,4,-0.0710,-0.0125,0.0125,0.0710,0.0710,0.0125,-0.0125,-0.0710,-0.0710,-0.0125,0.0*
%
%ADD97ROTATEDRECTD97*%

%ADD98C,0.1250*%
%ADD99O,0.0450X0.0350*%
G04:AMPARAMS|DCode=100|XSize=40mil|YSize=60mil|CornerRadius=0mil|HoleSize=0mil|Usage=FLASHONLY|Rotation=135.000|XOffset=0mil|YOffset=0mil|HoleType=Round|Shape=Round|*
%AMOVALD100*
21,1,0.0200,0.0400,0.0000,0.0000,225.0*
1,1,0.0400,0.0071,0.0071*
1,1,0.0400,-0.0071,-0.0071*
%
%ADD100OVALD100*%

%ADD101C,0.0450*%
%ADD102C,0.0354*%
%ADD103R,0.0600X0.0600*%
%ADD104C,0.0600*%
%ADD105R,0.0450X0.0450*%
%ADD106P,0.0649X8X22.5*%
%ADD107C,0.0550*%
%ADD108O,0.0500X0.0350*%
%ADD109O,0.0350X0.0500*%
%ADD110O,0.0413X0.0492*%
%ADD111O,0.0472X0.0748*%
%ADD112C,0.0177*%
G36*
X033535Y034745D02*
X033538Y034730D01*
X033532Y034721D01*
X033516Y034716D01*
X033485Y034708D01*
X033478Y034708D01*
X033318D01*
Y034428D01*
Y034148D01*
X033473D01*
X033488Y034148D01*
X033523Y034112D01*
X033523Y034112D01*
Y034110D01*
X033532Y034067D01*
X033535Y034061D01*
Y033862D01*
X032887D01*
Y035012D01*
X033535D01*
Y034745D01*
D02*
G37*
G36*
X036887Y031962D02*
X036987Y031862D01*
Y031495D01*
X036978Y031449D01*
Y030736D01*
X036932Y030685D01*
X036744D01*
Y030093D01*
Y029500D01*
X036932D01*
Y029527D01*
X036996Y029540D01*
Y029540D01*
X037392D01*
Y029662D01*
X037496D01*
Y029540D01*
X037892D01*
Y029662D01*
X040273D01*
X040276Y029659D01*
X040238Y029589D01*
X040098D01*
Y028948D01*
X040424D01*
Y029483D01*
X040489Y029510D01*
X040537Y029462D01*
X040587Y029412D01*
Y027163D01*
X040538Y027114D01*
X040341D01*
X040273Y027121D01*
X040273Y027121D01*
D01*
X040273D01*
Y027121D01*
X040273Y027121D01*
X039377D01*
Y027161D01*
X039375Y027172D01*
X039374Y027183D01*
X039371Y027191D01*
X039369Y027200D01*
X039363Y027209D01*
X039358Y027219D01*
X039326Y027265D01*
X039320Y027271D01*
X039315Y027278D01*
X039196Y027397D01*
X039180Y027408D01*
X039164Y027419D01*
X039113Y027441D01*
X039112Y027441D01*
X039111Y027442D01*
X039092Y027446D01*
X039074Y027450D01*
X039032Y027500D01*
Y027704D01*
X038914D01*
X038910Y027711D01*
X038947Y027781D01*
X039072D01*
Y027929D01*
X038844D01*
Y027979D01*
X038794D01*
Y028178D01*
X038632D01*
X038631D01*
X038562Y028180D01*
X038562D01*
X038547Y028180D01*
X038394D01*
Y027974D01*
X038294D01*
Y028180D01*
X038189D01*
Y028737D01*
X038180Y028781D01*
X038155Y028818D01*
X037968Y029005D01*
X037931Y029030D01*
X037925Y029031D01*
X037622Y029334D01*
X037589Y029356D01*
X037550Y029364D01*
X036761D01*
X036751Y029362D01*
X036741Y029362D01*
X036733Y029358D01*
X036694Y029351D01*
X036671Y029355D01*
X036651Y029369D01*
X036635Y029393D01*
X036634Y029399D01*
X036628Y029407D01*
X036624Y029416D01*
X036617Y029423D01*
X036611Y029432D01*
X036607Y029436D01*
X036634Y029500D01*
X036644D01*
Y030093D01*
Y030685D01*
X036537D01*
Y030762D01*
X036137D01*
Y030849D01*
X036255D01*
Y031113D01*
X036305D01*
Y031163D01*
X036529D01*
Y031312D01*
X036529Y031376D01*
X036597Y031382D01*
X036597D01*
X036617D01*
Y031612D01*
X036397D01*
Y031662D01*
X036347D01*
Y031942D01*
X036287D01*
X036250Y032012D01*
X036837D01*
X036887Y031962D01*
D02*
G37*
G36*
X038435Y033545D02*
X038385Y033517D01*
X038325Y033529D01*
X038224D01*
Y033246D01*
X038124D01*
Y033529D01*
X038024D01*
X037950Y033514D01*
X037887Y033472D01*
X037845Y033409D01*
X037831Y033335D01*
Y033284D01*
X037784Y033264D01*
X037687Y033362D01*
X037332D01*
Y033571D01*
X036641D01*
Y033671D01*
X037332D01*
Y033964D01*
X037543D01*
Y034212D01*
X037593D01*
Y034262D01*
X037860D01*
Y034362D01*
X037965D01*
X037981Y034339D01*
X038029Y034306D01*
X038087Y034295D01*
X038262D01*
X038319Y034306D01*
X038368Y034339D01*
X038383Y034362D01*
X038435D01*
Y033545D01*
D02*
G37*
G36*
X040126Y031573D02*
X040103Y031518D01*
X040098D01*
Y030877D01*
X040424D01*
Y031196D01*
X040479Y031219D01*
X040687Y031012D01*
Y029554D01*
X040650Y029518D01*
X040627Y029516D01*
X040609Y029534D01*
X040561Y029582D01*
X040528Y029604D01*
X040489Y029612D01*
X040450Y029604D01*
X040423Y029593D01*
X040398Y029608D01*
X040375Y029639D01*
X040375Y029639D01*
X040375Y029644D01*
X040377Y029649D01*
X040375Y029664D01*
X040375Y029678D01*
X040374Y029683D01*
X040373Y029688D01*
X040368Y029697D01*
X040368Y029701D01*
X040364Y029706D01*
X040360Y029715D01*
X040358Y029718D01*
X040355Y029721D01*
X040354Y029723D01*
X040350Y029726D01*
X040345Y029734D01*
X040337Y029739D01*
X040330Y029747D01*
X040321Y029750D01*
X040312Y029756D01*
X040303Y029758D01*
X040293Y029762D01*
X040283Y029762D01*
X040273Y029764D01*
X037932D01*
Y030043D01*
X037694D01*
Y030093D01*
X037644D01*
Y030685D01*
X037496D01*
Y030761D01*
X037694D01*
Y031087D01*
X037744D01*
Y031137D01*
X038110D01*
Y031413D01*
X038070D01*
Y031762D01*
X039937D01*
X040126Y031573D01*
D02*
G37*
G36*
X036137Y031336D02*
X036121D01*
Y031058D01*
X036107Y031037D01*
X036100Y031002D01*
Y030944D01*
X036098Y030943D01*
X036065Y030921D01*
X036059Y030912D01*
X035287D01*
Y032012D01*
X036137D01*
Y031336D01*
D02*
G37*
G36*
X038779Y035060D02*
X038978D01*
Y034960D01*
X038779D01*
Y034802D01*
X038961D01*
X038983Y034752D01*
X038969Y034731D01*
X038960Y034687D01*
Y032584D01*
X038863Y032487D01*
X038817Y032506D01*
Y032587D01*
X038500D01*
Y032687D01*
X038817D01*
Y033003D01*
X038583D01*
X038537Y033012D01*
Y034718D01*
X038338Y034905D01*
X038358Y034955D01*
X038645D01*
Y035211D01*
X038779D01*
Y035060D01*
D02*
G37*
G36*
X035287Y034705D02*
X034762D01*
Y034330D01*
X034662D01*
Y034705D01*
X034108D01*
Y034708D01*
X033938D01*
Y034428D01*
Y034148D01*
X034022D01*
Y033954D01*
X034062D01*
Y033285D01*
X035363D01*
Y033290D01*
X035593D01*
X035636Y033299D01*
X035656Y033312D01*
X035991D01*
Y033285D01*
X037266D01*
X037293Y033268D01*
X037332Y033260D01*
X037627D01*
X037722Y033165D01*
X037759Y033140D01*
X037803Y033131D01*
X037876D01*
X037883Y033098D01*
X037913Y033053D01*
X037908Y033031D01*
X037894Y033003D01*
X037632D01*
Y032687D01*
X037949D01*
Y032637D01*
X037999D01*
Y032271D01*
X038137D01*
Y032162D01*
X034887D01*
X033637Y033412D01*
Y034110D01*
X033668Y034148D01*
X033838D01*
Y034428D01*
Y034708D01*
X033668D01*
X033637Y034745D01*
Y035012D01*
X035287D01*
Y034705D01*
D02*
G37*
G36*
X038187Y036012D02*
X038288Y035910D01*
Y035900D01*
X038299D01*
X038487Y035712D01*
Y035508D01*
X038311D01*
Y035548D01*
X038143D01*
Y035232D01*
X038043D01*
Y035548D01*
X037874D01*
Y035508D01*
X037697D01*
X037587Y035612D01*
X037424D01*
Y035803D01*
X036793D01*
Y035903D01*
X037424D01*
Y036112D01*
X037540D01*
Y035900D01*
X037897D01*
Y036112D01*
X038087D01*
X038187Y036012D01*
D02*
G37*
G36*
X038114Y037185D02*
Y036236D01*
X038087Y036214D01*
X037937D01*
Y036407D01*
X037954D01*
Y036577D01*
X037674D01*
Y036627D01*
X037624D01*
Y036847D01*
X037424D01*
Y036905D01*
X036843D01*
Y036599D01*
X037394D01*
Y036407D01*
X037500D01*
Y036214D01*
X037424D01*
X037385Y036206D01*
X037352Y036184D01*
X037342Y036169D01*
X036201D01*
Y035537D01*
X036553D01*
X036572Y035491D01*
X036015Y034934D01*
X035993Y034901D01*
X035985Y034862D01*
Y034752D01*
X035985Y034705D01*
Y034705D01*
X035991Y034657D01*
Y033994D01*
X035991D01*
Y033957D01*
X035991D01*
Y033414D01*
X035656D01*
X035646Y033412D01*
X035636D01*
X035627Y033408D01*
X035617Y033406D01*
X035609Y033400D01*
X035599Y033397D01*
X035596Y033395D01*
X035582Y033392D01*
X035403D01*
Y033571D01*
X034712D01*
Y033671D01*
X035403D01*
Y033997D01*
X035363D01*
Y034639D01*
X035381Y034666D01*
X035389Y034705D01*
Y035012D01*
X035381Y035051D01*
X035359Y035084D01*
X035337Y035099D01*
Y035912D01*
X035987Y036562D01*
X036037Y036612D01*
Y037112D01*
X036111Y037186D01*
X036161Y037165D01*
Y037005D01*
X037424D01*
Y037021D01*
X037434Y037067D01*
X037914D01*
Y037212D01*
X038087D01*
X038114Y037185D01*
D02*
G37*
G36*
X035996Y029540D02*
X036358D01*
X036539Y029359D01*
X036541Y029349D01*
X036577Y029295D01*
X036631Y029259D01*
X036694Y029247D01*
X036757Y029259D01*
X036761Y029262D01*
X037550D01*
X037887Y028924D01*
X038074Y028737D01*
Y027862D01*
X038126Y027810D01*
Y027701D01*
X038344D01*
Y027651D01*
X038394D01*
Y027445D01*
X038562D01*
X038562Y027445D01*
Y027445D01*
X038562Y027445D01*
X038616Y027430D01*
Y027348D01*
X038794D01*
Y027546D01*
X038894D01*
Y027348D01*
X039072D01*
X039072Y027348D01*
Y027348D01*
X039123Y027325D01*
X039243Y027206D01*
X039275Y027161D01*
X039275D01*
X039275Y027161D01*
Y026831D01*
X040313D01*
Y027012D01*
X040587D01*
Y026362D01*
X040337Y026112D01*
X039287D01*
X038923Y025748D01*
X038880Y025719D01*
X038851Y025676D01*
X038687Y025512D01*
X038624D01*
Y025528D01*
X038435D01*
Y025628D01*
X038624D01*
Y025743D01*
X038755D01*
Y026213D01*
X038376D01*
Y026263D01*
X038326D01*
Y026782D01*
X037996D01*
X037987Y026838D01*
Y026945D01*
X038138D01*
Y027163D01*
X037890D01*
Y027213D01*
X037840D01*
Y027480D01*
X037643D01*
Y027480D01*
X037606Y027440D01*
X037509D01*
X037424Y027525D01*
X037462Y027571D01*
X037470Y027571D01*
X037644D01*
Y028163D01*
Y028756D01*
X037456D01*
Y028314D01*
X037396Y028289D01*
X037392Y028293D01*
Y028716D01*
X037083D01*
X036987Y028812D01*
X035762D01*
Y028874D01*
X035544D01*
Y028924D01*
X035494D01*
Y029130D01*
X035194D01*
Y028924D01*
X035094D01*
Y029130D01*
X035037D01*
Y029312D01*
X035287Y029562D01*
X035996D01*
Y029540D01*
D02*
G37*
G36*
X037424Y035510D02*
X037500D01*
Y035282D01*
X037719D01*
Y035182D01*
X037500D01*
Y034952D01*
X037325D01*
Y034705D01*
X036691D01*
Y034330D01*
X036591D01*
Y034705D01*
X036087D01*
Y034712D01*
Y034862D01*
X036737Y035512D01*
X037414D01*
X037424Y035510D01*
D02*
G37*
%LPC*%
G36*
X039290Y029589D02*
X038964D01*
Y028948D01*
X039290D01*
Y029589D01*
D02*
G37*
G36*
X037932Y028756D02*
X037744D01*
Y028213D01*
X037932D01*
Y028756D01*
D02*
G37*
G36*
X039290Y030777D02*
X038964D01*
Y030137D01*
X039290D01*
Y030777D01*
D02*
G37*
G36*
X039998Y031518D02*
X039390D01*
Y030827D01*
Y030137D01*
X039998D01*
Y030827D01*
Y031518D01*
D02*
G37*
G36*
X035762Y029130D02*
X035594D01*
Y028974D01*
X035762D01*
Y029130D01*
D02*
G37*
G36*
X039998Y029589D02*
X039390D01*
Y028898D01*
X039340D01*
Y028848D01*
X038964D01*
Y028248D01*
X038964Y028207D01*
X038907Y028178D01*
X038907Y028178D01*
X038894D01*
Y028029D01*
X039072D01*
Y028137D01*
X039072Y028178D01*
X039130Y028207D01*
X039275D01*
Y027894D01*
X040313D01*
Y028207D01*
X040424D01*
Y028848D01*
X040048D01*
Y028898D01*
X039998D01*
Y029589D01*
D02*
G37*
G36*
X038426Y026782D02*
Y026313D01*
X038755D01*
Y026782D01*
X038426D01*
D02*
G37*
G36*
X039744Y026731D02*
X039275D01*
Y026402D01*
X039744D01*
Y026731D01*
D02*
G37*
G36*
X040313D02*
X039844D01*
Y026402D01*
X040313D01*
Y026731D01*
D02*
G37*
G36*
X038294Y027601D02*
X038126D01*
Y027480D01*
X037940D01*
Y027263D01*
X038138D01*
Y027445D01*
X038294D01*
Y027601D01*
D02*
G37*
G36*
X037932Y028113D02*
X037744D01*
Y027571D01*
X037932D01*
Y028113D01*
D02*
G37*
G36*
X040313Y027794D02*
X039844D01*
Y027465D01*
X040313D01*
Y027794D01*
D02*
G37*
G36*
X039744D02*
X039275D01*
Y027465D01*
X039744D01*
Y027794D01*
D02*
G37*
G36*
X037899Y032587D02*
X037632D01*
Y032271D01*
X037899D01*
Y032587D01*
D02*
G37*
G36*
X037860Y034162D02*
X037643D01*
Y033964D01*
X037860D01*
Y034162D01*
D02*
G37*
G36*
X035997Y031942D02*
X035827D01*
Y031712D01*
X035997D01*
Y031942D01*
D02*
G37*
G36*
X036617D02*
X036447D01*
Y031712D01*
X036617D01*
Y031942D01*
D02*
G37*
G36*
X036743Y036905D02*
X036161D01*
Y036599D01*
X036743D01*
Y036905D01*
D02*
G37*
G36*
X037954Y036847D02*
X037724D01*
Y036677D01*
X037954D01*
Y036847D01*
D02*
G37*
G36*
X033218Y034378D02*
X033048D01*
Y034148D01*
X033218D01*
Y034378D01*
D02*
G37*
G36*
Y034708D02*
X033048D01*
Y034478D01*
X033218D01*
Y034708D01*
D02*
G37*
G36*
X038110Y031037D02*
X037794D01*
Y030761D01*
X038110D01*
Y031037D01*
D02*
G37*
G36*
X036529Y031063D02*
X036355D01*
Y030849D01*
X036529D01*
Y031063D01*
D02*
G37*
G36*
X040424Y030777D02*
X040098D01*
Y030137D01*
X040424D01*
Y030777D01*
D02*
G37*
G36*
X037932Y030685D02*
X037744D01*
Y030143D01*
X037932D01*
Y030685D01*
D02*
G37*
G36*
X035997Y031612D02*
X035827D01*
Y031382D01*
X035997D01*
Y031612D01*
D02*
G37*
G36*
X035727Y031942D02*
X035557D01*
Y031712D01*
X035727D01*
Y031942D01*
D02*
G37*
G36*
X039290Y031518D02*
X038964D01*
Y030877D01*
X039290D01*
Y031518D01*
D02*
G37*
G36*
X035727Y031612D02*
X035557D01*
Y031382D01*
X035727D01*
Y031612D01*
D02*
G37*
%LPD*%
D10*
X026437Y038062D02*
D03*
X026413Y035996D02*
D03*
Y035603D02*
D03*
X026433Y037768D02*
D03*
Y037374D02*
D03*
D11*
X026715Y024778D02*
D03*
X027089D02*
D03*
X026715Y023878D02*
D03*
X027089D02*
D03*
X026715Y022978D02*
D03*
X027089D02*
D03*
X026715Y022078D02*
D03*
X027089D02*
D03*
X026715Y021178D02*
D03*
X027089D02*
D03*
X026715Y020278D02*
D03*
X027089D02*
D03*
X026715Y019378D02*
D03*
X027089D02*
D03*
X026715Y018478D02*
D03*
X027089D02*
D03*
X026715Y017578D02*
D03*
X027089D02*
D03*
X028291Y034528D02*
D03*
X028665D02*
D03*
D12*
X033324Y020128D02*
D03*
X032831D02*
D03*
X037398Y027213D02*
D03*
X037890D02*
D03*
X035582Y022578D02*
D03*
X036074D02*
D03*
X023242Y022078D02*
D03*
X023734D02*
D03*
D13*
X032900Y019678D02*
D03*
X033255D02*
D03*
X036005Y023778D02*
D03*
X035650D02*
D03*
D14*
X032160Y019678D02*
D03*
X032495D02*
D03*
X037248Y024630D02*
D03*
X036913D02*
D03*
X037182Y023351D02*
D03*
X036848D02*
D03*
X035995Y023028D02*
D03*
X035660D02*
D03*
D15*
X031337Y018932D02*
D03*
X036437Y024612D02*
D03*
X035387Y022412D02*
D03*
X035087Y024362D02*
D03*
X036937Y019512D02*
D03*
X040437Y025662D02*
D03*
X034137Y023162D02*
D03*
D16*
X029988Y017940D02*
D03*
X030244D02*
D03*
X030500D02*
D03*
X030756D02*
D03*
X029988Y019613D02*
D03*
X030244D02*
D03*
X030500D02*
D03*
X030756D02*
D03*
D17*
X032442Y019206D02*
D03*
Y018950D02*
D03*
Y018694D02*
D03*
Y018438D02*
D03*
X034076Y019206D02*
D03*
Y018950D02*
D03*
Y018694D02*
D03*
Y018438D02*
D03*
D18*
X037578Y024530D02*
D03*
Y024825D02*
D03*
X030848Y024720D02*
D03*
Y025015D02*
D03*
X030498Y024720D02*
D03*
Y025015D02*
D03*
X030148Y024720D02*
D03*
Y025015D02*
D03*
X032718Y022920D02*
D03*
Y023215D02*
D03*
X033068Y022920D02*
D03*
Y023215D02*
D03*
X033418Y022920D02*
D03*
Y023215D02*
D03*
X035874Y038935D02*
D03*
Y038639D02*
D03*
X036224Y038885D02*
D03*
Y038589D02*
D03*
X036574Y038539D02*
D03*
Y038835D02*
D03*
X036674Y039785D02*
D03*
Y039489D02*
D03*
X035874Y039885D02*
D03*
Y039589D02*
D03*
X035174Y038137D02*
D03*
Y037842D02*
D03*
X026039Y033388D02*
D03*
Y033093D02*
D03*
X029628Y034575D02*
D03*
Y034280D02*
D03*
X029178Y034575D02*
D03*
Y034280D02*
D03*
D19*
X037266Y022835D02*
D03*
X036734D02*
D03*
D20*
X036337Y023162D02*
D03*
X035187Y023562D02*
D03*
X035305Y019531D02*
D03*
X033537Y017662D02*
D03*
X033137Y017612D02*
D03*
X029487Y018662D02*
D03*
Y019412D02*
D03*
D21*
X039518Y024657D02*
D03*
X039262D02*
D03*
X039006D02*
D03*
X038750D02*
D03*
X038494D02*
D03*
X038238D02*
D03*
X037982D02*
D03*
X039518Y022413D02*
D03*
X039262D02*
D03*
X039006D02*
D03*
X038750D02*
D03*
X038494D02*
D03*
X038238D02*
D03*
X037982D02*
D03*
D22*
X038844Y027546D02*
D03*
Y027979D02*
D03*
D23*
X038344Y027974D02*
D03*
Y027651D02*
D03*
X035988Y019540D02*
D03*
Y019218D02*
D03*
X032728Y018000D02*
D03*
Y017678D02*
D03*
X031519Y017719D02*
D03*
Y017396D02*
D03*
X029199Y017671D02*
D03*
Y017349D02*
D03*
X029528Y022835D02*
D03*
Y023158D02*
D03*
X030958Y022896D02*
D03*
Y023219D02*
D03*
X032258Y023046D02*
D03*
Y023369D02*
D03*
X034149Y021996D02*
D03*
Y022319D02*
D03*
X034015Y040407D02*
D03*
Y040085D02*
D03*
Y038785D02*
D03*
Y039107D02*
D03*
X026039Y034162D02*
D03*
Y034485D02*
D03*
X025645D02*
D03*
Y034162D02*
D03*
Y033402D02*
D03*
Y033079D02*
D03*
X033302Y040503D02*
D03*
Y040826D02*
D03*
X035544Y028601D02*
D03*
Y028924D02*
D03*
X035144Y028601D02*
D03*
Y028924D02*
D03*
D24*
X036520Y027278D02*
D03*
X036835D02*
D03*
X035670Y024128D02*
D03*
X035985D02*
D03*
X040020Y024258D02*
D03*
X040335D02*
D03*
X038120Y025578D02*
D03*
X038435D02*
D03*
X033380Y035262D02*
D03*
X033694D02*
D03*
X035187Y028263D02*
D03*
X035502D02*
D03*
X028370Y040828D02*
D03*
X028685D02*
D03*
X040335Y024928D02*
D03*
X040020D02*
D03*
D25*
X036824Y026630D02*
D03*
Y026944D02*
D03*
D26*
X038376Y026263D02*
D03*
X037313D02*
D03*
D27*
X037278Y024008D02*
D03*
X036628D02*
D03*
X036653Y021658D02*
D03*
X037302D02*
D03*
X027578Y024928D02*
D03*
X028227D02*
D03*
X027578Y024028D02*
D03*
X028227D02*
D03*
X027578Y023128D02*
D03*
X028227D02*
D03*
X027578Y022228D02*
D03*
X028227D02*
D03*
X027550Y021355D02*
D03*
X028200D02*
D03*
X027580Y020455D02*
D03*
X028230D02*
D03*
X027580Y019555D02*
D03*
X028230D02*
D03*
X027580Y018655D02*
D03*
X028230D02*
D03*
X027580Y017755D02*
D03*
X028230D02*
D03*
D28*
X035981Y023378D02*
D03*
X035674D02*
D03*
D29*
X035588Y019435D02*
D03*
Y019100D02*
D03*
X036388Y019685D02*
D03*
Y019350D02*
D03*
X035028Y019995D02*
D03*
Y019660D02*
D03*
X034628Y018810D02*
D03*
Y019145D02*
D03*
Y019510D02*
D03*
Y019845D02*
D03*
X031907Y018624D02*
D03*
Y018959D02*
D03*
X039378Y035325D02*
D03*
Y034990D02*
D03*
D30*
X035078Y019220D02*
D03*
Y018835D02*
D03*
D31*
X034139Y020078D02*
D03*
X033816D02*
D03*
X038539Y021278D02*
D03*
X038216D02*
D03*
X025416Y031948D02*
D03*
X025739D02*
D03*
X030439Y034478D02*
D03*
X030116D02*
D03*
X027980Y034146D02*
D03*
X028303D02*
D03*
X032116Y035978D02*
D03*
X032439D02*
D03*
X039316Y025678D02*
D03*
X039639D02*
D03*
X040339Y024578D02*
D03*
X040016D02*
D03*
D32*
X034132Y019672D02*
D03*
X033785D02*
D03*
X038528Y021678D02*
D03*
X038181D02*
D03*
X039281Y025328D02*
D03*
X039628D02*
D03*
D33*
X032228Y020128D02*
D03*
X031842D02*
D03*
D34*
X032328Y017951D02*
D03*
Y017604D02*
D03*
X031106Y017731D02*
D03*
Y017384D02*
D03*
X029612Y017683D02*
D03*
Y017337D02*
D03*
X030108Y022884D02*
D03*
Y023231D02*
D03*
X031358Y022834D02*
D03*
Y023181D02*
D03*
X031858Y022834D02*
D03*
Y023181D02*
D03*
X033736Y021985D02*
D03*
Y022331D02*
D03*
D35*
X030210Y020308D02*
D03*
X030545D02*
D03*
D36*
X029767Y023792D02*
D03*
Y024412D02*
D03*
X031237Y023892D02*
D03*
Y024512D02*
D03*
X022878Y034178D02*
D03*
Y033558D02*
D03*
Y032618D02*
D03*
Y033238D02*
D03*
X037674Y036627D02*
D03*
Y037247D02*
D03*
D37*
X031900Y022106D02*
D03*
Y021850D02*
D03*
Y021594D02*
D03*
Y021338D02*
D03*
X033317D02*
D03*
Y021594D02*
D03*
Y021850D02*
D03*
Y022106D02*
D03*
X029800D02*
D03*
Y021850D02*
D03*
Y021594D02*
D03*
Y021338D02*
D03*
X031217D02*
D03*
Y021594D02*
D03*
Y021850D02*
D03*
Y022106D02*
D03*
D38*
X032225Y021013D02*
D03*
X032481D02*
D03*
X032737D02*
D03*
X032993D02*
D03*
Y022431D02*
D03*
X032737D02*
D03*
X032481D02*
D03*
X032225D02*
D03*
X030125Y021013D02*
D03*
X030381D02*
D03*
X030637D02*
D03*
X030893D02*
D03*
Y022431D02*
D03*
X030637D02*
D03*
X030381D02*
D03*
X030125D02*
D03*
D39*
X032609Y021722D02*
D03*
X030509D02*
D03*
D40*
X035237Y021418D02*
D03*
Y020906D02*
D03*
X035887Y021418D02*
D03*
Y020906D02*
D03*
D41*
X036880Y022308D02*
D03*
X037175D02*
D03*
D42*
X037788Y025478D02*
D03*
X037168D02*
D03*
X034375Y040896D02*
D03*
X033755D02*
D03*
X033948Y037678D02*
D03*
X034568D02*
D03*
X034178D02*
D03*
X033558D02*
D03*
X034747Y035862D02*
D03*
X034127D02*
D03*
X033268Y034428D02*
D03*
X033888D02*
D03*
X036397Y031662D02*
D03*
X035777D02*
D03*
D43*
X036981Y038761D02*
D03*
Y038013D02*
D03*
X037768Y038387D02*
D03*
D44*
X036224Y039539D02*
D03*
Y039835D02*
D03*
X035524Y038135D02*
D03*
Y037839D02*
D03*
X025645Y032404D02*
D03*
Y032699D02*
D03*
X022378Y033875D02*
D03*
Y033580D02*
D03*
X038978Y035010D02*
D03*
Y035305D02*
D03*
D45*
X034015Y039419D02*
D03*
Y039773D02*
D03*
X024563Y035859D02*
D03*
Y035504D02*
D03*
D46*
X034371Y038196D02*
D03*
X033859D02*
D03*
X039543Y035812D02*
D03*
X039031D02*
D03*
D47*
X034778Y037176D02*
D03*
Y036428D02*
D03*
X035486Y036802D02*
D03*
D48*
X036793Y036955D02*
D03*
Y035853D02*
D03*
D49*
X027122Y035209D02*
D03*
Y035603D02*
D03*
Y035996D02*
D03*
Y036390D02*
D03*
Y036784D02*
D03*
Y037178D02*
D03*
Y037571D02*
D03*
Y037965D02*
D03*
Y038359D02*
D03*
Y038752D02*
D03*
Y039146D02*
D03*
Y039540D02*
D03*
X027515Y035209D02*
D03*
Y035603D02*
D03*
Y035996D02*
D03*
Y036390D02*
D03*
Y036784D02*
D03*
Y037178D02*
D03*
Y037571D02*
D03*
Y037965D02*
D03*
Y038359D02*
D03*
Y038752D02*
D03*
Y039146D02*
D03*
Y039540D02*
D03*
X027909Y035209D02*
D03*
Y035603D02*
D03*
Y035996D02*
D03*
Y036390D02*
D03*
Y036784D02*
D03*
Y037178D02*
D03*
Y037571D02*
D03*
Y037965D02*
D03*
Y038359D02*
D03*
Y038752D02*
D03*
Y039146D02*
D03*
Y039540D02*
D03*
X028303Y035209D02*
D03*
Y035603D02*
D03*
Y035996D02*
D03*
Y036390D02*
D03*
Y036784D02*
D03*
Y037178D02*
D03*
Y037571D02*
D03*
Y037965D02*
D03*
Y038359D02*
D03*
Y038752D02*
D03*
Y039146D02*
D03*
Y039540D02*
D03*
X028696Y035209D02*
D03*
Y035603D02*
D03*
Y035996D02*
D03*
Y036390D02*
D03*
Y036784D02*
D03*
Y037178D02*
D03*
Y037571D02*
D03*
Y037965D02*
D03*
Y038359D02*
D03*
Y038752D02*
D03*
Y039146D02*
D03*
Y039540D02*
D03*
X029090Y035209D02*
D03*
Y035603D02*
D03*
Y035996D02*
D03*
Y036390D02*
D03*
Y036784D02*
D03*
Y037178D02*
D03*
Y037571D02*
D03*
Y037965D02*
D03*
Y038359D02*
D03*
Y038752D02*
D03*
Y039146D02*
D03*
Y039540D02*
D03*
X029484Y035209D02*
D03*
Y035603D02*
D03*
Y035996D02*
D03*
Y036390D02*
D03*
Y036784D02*
D03*
Y037178D02*
D03*
Y037571D02*
D03*
Y037965D02*
D03*
Y038359D02*
D03*
Y038752D02*
D03*
Y039146D02*
D03*
Y039540D02*
D03*
X029878Y035209D02*
D03*
Y035603D02*
D03*
Y035996D02*
D03*
Y036390D02*
D03*
Y036784D02*
D03*
Y037178D02*
D03*
Y037571D02*
D03*
Y037965D02*
D03*
Y038359D02*
D03*
Y038752D02*
D03*
Y039146D02*
D03*
Y039540D02*
D03*
X030271Y035209D02*
D03*
Y035603D02*
D03*
Y035996D02*
D03*
Y036390D02*
D03*
Y036784D02*
D03*
Y037178D02*
D03*
Y037571D02*
D03*
Y037965D02*
D03*
Y038359D02*
D03*
Y038752D02*
D03*
Y039146D02*
D03*
Y039540D02*
D03*
X030665Y035209D02*
D03*
Y035603D02*
D03*
Y035996D02*
D03*
Y036390D02*
D03*
Y036784D02*
D03*
Y037178D02*
D03*
Y037571D02*
D03*
Y037965D02*
D03*
Y038359D02*
D03*
Y038752D02*
D03*
Y039146D02*
D03*
Y039540D02*
D03*
X031059Y035209D02*
D03*
Y035603D02*
D03*
Y035996D02*
D03*
Y036390D02*
D03*
Y036784D02*
D03*
Y037178D02*
D03*
Y037571D02*
D03*
Y037965D02*
D03*
Y038359D02*
D03*
Y038752D02*
D03*
Y039146D02*
D03*
Y039540D02*
D03*
X031452Y035209D02*
D03*
Y035603D02*
D03*
Y035996D02*
D03*
Y036390D02*
D03*
Y036784D02*
D03*
Y037178D02*
D03*
Y037571D02*
D03*
Y037965D02*
D03*
Y038359D02*
D03*
Y038752D02*
D03*
Y039146D02*
D03*
Y039540D02*
D03*
D50*
X020652Y034128D02*
D03*
X019904D02*
D03*
D51*
X024128Y034468D02*
D03*
Y034094D02*
D03*
Y033720D02*
D03*
X025072D02*
D03*
Y034468D02*
D03*
X024128Y033152D02*
D03*
Y032778D02*
D03*
Y032404D02*
D03*
X025072D02*
D03*
Y033152D02*
D03*
D52*
X023478Y034476D02*
D03*
Y033728D02*
D03*
X023478Y033152D02*
D03*
Y032404D02*
D03*
X033458Y036314D02*
D03*
Y037062D02*
D03*
D53*
X021828Y033703D02*
D03*
D54*
Y032778D02*
D03*
D55*
X020628Y033487D02*
D03*
X021002Y032468D02*
D03*
X020254Y032468D02*
D03*
D56*
X022913Y039363D02*
D03*
X023142Y039592D02*
D03*
X023613Y035613D02*
D03*
X023842Y035842D02*
D03*
X024092Y035592D02*
D03*
X023863Y035363D02*
D03*
D57*
X022552Y039672D02*
D03*
X022113Y039233D02*
D03*
X022383Y039503D02*
D03*
X022821Y039941D02*
D03*
D58*
X034518Y038813D02*
D03*
Y039128D02*
D03*
Y039443D02*
D03*
Y039757D02*
D03*
Y040072D02*
D03*
Y040387D02*
D03*
X035382D02*
D03*
Y040072D02*
D03*
Y039757D02*
D03*
Y039443D02*
D03*
Y039128D02*
D03*
Y038813D02*
D03*
D59*
X034950Y040426D02*
D03*
Y038774D02*
D03*
D60*
X036641Y034330D02*
D03*
Y033621D02*
D03*
X034712D02*
D03*
Y034330D02*
D03*
D61*
X034078Y037174D02*
D03*
Y036681D02*
D03*
X037593Y034704D02*
D03*
Y034212D02*
D03*
X019878Y021781D02*
D03*
Y022274D02*
D03*
D62*
X038174Y033246D02*
D03*
D63*
Y034537D02*
D03*
D64*
X039235Y036312D02*
D03*
X038939D02*
D03*
D65*
X037719Y036177D02*
D03*
X038467D02*
D03*
Y035232D02*
D03*
X038093D02*
D03*
X037719D02*
D03*
D66*
X018514Y035265D02*
D03*
X019341D02*
D03*
Y032391D02*
D03*
X018514D02*
D03*
D67*
X019617Y034713D02*
D03*
Y033532D02*
D03*
Y032942D02*
D03*
D68*
X036194Y028163D02*
D03*
X036694D02*
D03*
X037194D02*
D03*
X037694D02*
D03*
X036194Y030093D02*
D03*
X036694D02*
D03*
X037194D02*
D03*
X037694D02*
D03*
D69*
X036305Y031113D02*
D03*
X037183D02*
D03*
D70*
X039794Y026781D02*
D03*
Y027844D02*
D03*
D71*
X039340Y030827D02*
D03*
X040048D02*
D03*
Y028898D02*
D03*
X039340D02*
D03*
D72*
X037744Y031087D02*
D03*
Y031638D02*
D03*
D73*
X037949Y032637D02*
D03*
X038500D02*
D03*
D74*
X032490Y037870D02*
D03*
Y036885D02*
D03*
D75*
X032375Y038744D02*
D03*
X033005D02*
D03*
Y039611D02*
D03*
X032375D02*
D03*
D76*
X032358Y040858D02*
D03*
D77*
X032653Y040296D02*
D03*
X032456D02*
D03*
X032259D02*
D03*
X032062D02*
D03*
Y041420D02*
D03*
X032259D02*
D03*
X032456D02*
D03*
X032653D02*
D03*
D78*
X031796Y040562D02*
D03*
Y040759D02*
D03*
Y040956D02*
D03*
Y041153D02*
D03*
X032920D02*
D03*
Y040956D02*
D03*
Y040759D02*
D03*
Y040562D02*
D03*
D79*
X029843Y040628D02*
D03*
X029213D02*
D03*
D80*
X028858Y041428D02*
D03*
X030197D02*
D03*
D81*
X018178Y030713D02*
D03*
Y031343D02*
D03*
D82*
X023261Y036095D02*
D03*
X021395Y037961D02*
D03*
D83*
X021006Y035149D02*
D03*
X020449Y035706D02*
D03*
D84*
X025041Y025965D02*
D03*
X025041Y026753D02*
D03*
X025041Y027540D02*
D03*
X025041Y031477D02*
D03*
X018978D02*
D03*
Y030690D02*
D03*
X018978Y029902D02*
D03*
Y029115D02*
D03*
X018978Y028328D02*
D03*
X018978Y027540D02*
D03*
X018978Y026753D02*
D03*
Y025965D02*
D03*
D85*
X024935Y028328D02*
D03*
Y029115D02*
D03*
X024935Y029902D02*
D03*
X024935Y030690D02*
D03*
D86*
X020573Y022069D02*
D03*
Y021872D02*
D03*
Y021675D02*
D03*
Y021478D02*
D03*
Y021281D02*
D03*
X022227Y022069D02*
D03*
Y021872D02*
D03*
Y021675D02*
D03*
Y021478D02*
D03*
Y021281D02*
D03*
D87*
X035828Y026628D02*
D03*
X035132Y027324D02*
D03*
X035480Y026976D02*
D03*
D88*
X027715Y024278D02*
D03*
X028089D02*
D03*
X027715Y023378D02*
D03*
X028089D02*
D03*
X027715Y022478D02*
D03*
X028089D02*
D03*
X027715Y021578D02*
D03*
X028089D02*
D03*
X027715Y020678D02*
D03*
X028089D02*
D03*
X027715Y019778D02*
D03*
X028089D02*
D03*
X027715Y018878D02*
D03*
X028089D02*
D03*
X027715Y017978D02*
D03*
X028089D02*
D03*
X027715Y025178D02*
D03*
X028089D02*
D03*
D89*
X024344Y039301D02*
X024564Y039082D01*
X023690Y039301D02*
X024344D01*
X023502Y039112D02*
X023690Y039301D01*
X024274Y039181D02*
X024494Y038962D01*
X023750Y039181D02*
X024274D01*
X023556Y038987D02*
X023750Y039181D01*
X024214Y039061D02*
X024464Y038812D01*
X023810Y039061D02*
X024214D01*
X023616Y038867D02*
X023810Y039061D01*
X022792Y038867D02*
X023616D01*
X022642Y038987D02*
X023556D01*
X022482Y039112D02*
X023502D01*
X021815Y037638D02*
X022421Y038244D01*
X021815Y037118D02*
Y037638D01*
X021150Y036453D02*
X021815Y037118D01*
X022065Y037121D02*
Y037718D01*
X021216Y036272D02*
X022065Y037121D01*
X026751Y039337D02*
X027324D01*
X026626Y039212D02*
X026751Y039337D01*
X025362Y039212D02*
X026626D01*
X026513Y039540D02*
X027122D01*
X026386Y039412D02*
X026513Y039540D01*
X025737Y039412D02*
X026386D01*
X029845Y042121D02*
X030525D01*
X029785Y042061D02*
X029845Y042121D01*
X027805Y042061D02*
X029785D01*
X025608Y040063D02*
X025988D01*
X024820Y039275D02*
X025608Y040063D01*
X024820Y039196D02*
Y039275D01*
X025887Y040512D02*
X026156D01*
X024637Y039262D02*
X025887Y040512D01*
X025705Y039931D02*
X025950D01*
X024965Y039191D02*
X025705Y039931D01*
X024965Y039090D02*
Y039191D01*
X025950Y039931D02*
X026033Y039848D01*
X031452Y035209D02*
X031817Y034844D01*
Y034552D02*
Y034844D01*
X030468Y041981D02*
X030598Y041851D01*
X030695D01*
X030398Y041852D02*
X030488Y041762D01*
X030002Y041852D02*
X030398D01*
X030525Y042121D02*
X030605Y042041D01*
X029917Y041981D02*
X030468D01*
X029475Y041539D02*
X029917Y041981D01*
X029595Y041445D02*
X030002Y041852D01*
X030605Y042041D02*
X031537D01*
X027485Y041741D02*
X027805Y042061D01*
X031807Y036449D02*
X032437D01*
X031748Y036390D02*
X031807Y036449D01*
X031452Y036390D02*
X031748D01*
X031826Y036272D02*
X032200D01*
X031748Y036193D02*
X031826Y036272D01*
X031256Y036193D02*
X031748D01*
X031964Y036666D02*
Y036764D01*
Y036666D02*
X032043Y036587D01*
X031748Y036981D02*
X031964Y036764D01*
X032043Y036587D02*
X032929D01*
X031354Y036981D02*
X031748D01*
X030468Y039678D02*
X030549Y039758D01*
X030468Y037768D02*
Y039678D01*
X030549Y039758D02*
X030634D01*
X029595Y040433D02*
Y041445D01*
X029475Y040417D02*
Y041539D01*
X029595Y040433D02*
X029681Y040347D01*
X028893Y039835D02*
X029475Y040417D01*
X026156Y040512D02*
X026582Y040938D01*
X026487Y040111D02*
X028106D01*
X025887Y040262D02*
X026336D01*
X026487Y040111D01*
X025988Y040063D02*
X026083Y039968D01*
X025187Y039037D02*
X025362Y039212D01*
X027000Y039024D02*
X027122Y039146D01*
X025450Y039024D02*
X027000D01*
X025887Y039728D02*
X027327D01*
X025187Y039012D02*
Y039037D01*
X026361Y038812D02*
X026417Y038867D01*
X025437Y039012D02*
X025450Y039024D01*
X026834Y037965D02*
X027122D01*
X028347Y041222D02*
Y041872D01*
X028087Y040962D02*
X028347Y041222D01*
X027737Y040962D02*
X028087D01*
X027587Y041112D02*
X027737Y040962D01*
X026548Y041112D02*
X027587D01*
X034087Y023862D02*
X034837Y023112D01*
X033977Y026732D02*
X034087Y026622D01*
Y023862D02*
Y026622D01*
X034137Y023162D02*
X034537Y022762D01*
X033537Y023762D02*
X034137Y023162D01*
X031987Y024612D02*
X032837Y023762D01*
X033537D01*
X034537Y021477D02*
Y022762D01*
X040287Y029312D02*
X040487D01*
X037890Y027042D02*
Y027213D01*
Y027042D02*
X038011Y026922D01*
Y026862D02*
Y026922D01*
Y026862D02*
X038187D01*
Y026451D02*
Y026862D01*
Y026451D02*
X038376Y026263D01*
X037724Y025541D02*
Y025837D01*
Y025541D02*
X037788Y025478D01*
X037724Y025837D02*
X037824Y025937D01*
X038120Y025445D02*
Y025578D01*
X038087Y025412D02*
X038120Y025445D01*
X037853Y025412D02*
X038087D01*
X037788Y025478D02*
X037853Y025412D01*
X037719Y036277D02*
X038467D01*
X037704Y036262D02*
X037719Y036277D01*
X037337Y036262D02*
X037704D01*
X038502Y036312D02*
X038939D01*
X037719Y036277D02*
X037824Y036282D01*
X038467Y035247D02*
X039031Y035812D01*
X038467Y035232D02*
Y035247D01*
X039137Y035565D02*
Y035706D01*
Y035565D02*
X039378Y035325D01*
X033387Y034912D02*
Y035254D01*
X033694Y035262D02*
X033987D01*
X037824Y036282D02*
Y036727D01*
X037287D02*
X037824D01*
X037021D02*
X037287D01*
X036793Y036955D02*
X037021Y036727D01*
X038951Y034762D02*
X038978Y034788D01*
Y035010D01*
X026590Y037374D02*
X027319D01*
X026433Y037374D02*
X026590D01*
Y037768D02*
X027712D01*
X026433D02*
X026590D01*
X026334Y035996D02*
X027122D01*
X025073Y036193D02*
X028500D01*
X027122Y035996D02*
X027122Y035996D01*
X024995Y036115D02*
X025073Y036193D01*
X024480Y035075D02*
X025402Y035996D01*
X025941D01*
X029287Y039343D02*
X029484Y039540D01*
X027319Y038949D02*
X027712D01*
X035187Y023562D02*
X035371Y023378D01*
X040020Y024258D02*
Y024928D01*
X040437Y025412D02*
Y025662D01*
X040087Y025062D02*
X040437Y025412D01*
X040087Y024994D02*
Y025062D01*
X040020Y024928D02*
X040087Y024994D01*
X040335Y024928D02*
X040621D01*
X033775Y018950D02*
X034076D01*
X033537Y018712D02*
X033775Y018950D01*
X033537Y017662D02*
Y018712D01*
X033025Y018950D02*
X033137Y018838D01*
Y017612D02*
Y018838D01*
X035028Y019660D02*
X035056D01*
X036775Y019350D02*
X036937Y019512D01*
X036388Y019350D02*
X036775D01*
X036321Y023028D02*
Y023146D01*
X035995Y023028D02*
X036321D01*
X036895Y024612D02*
X036913Y024630D01*
X036537Y024612D02*
X036895D01*
X034887Y026387D02*
X035128Y026628D01*
X034887Y024562D02*
Y026387D01*
Y024562D02*
X035087Y024362D01*
X035631Y024128D02*
X035650Y024108D01*
X035087Y024362D02*
X035321Y024128D01*
X035631D02*
X035670D01*
X035321D02*
X035631D01*
X035650Y023778D02*
Y024108D01*
X030756Y020031D02*
X031087Y020362D01*
X030756Y019613D02*
Y020031D01*
Y019131D02*
Y019613D01*
X030687Y019062D02*
X030756Y019131D01*
X030437Y019062D02*
X030687D01*
X030037Y018662D02*
X030437Y019062D01*
X029487Y018662D02*
X030037D01*
X029887Y019412D02*
X029988Y019513D01*
X029487Y019412D02*
X029887D01*
X032279Y041921D02*
X032334Y041905D01*
X032332Y041898D02*
X032555Y041804D01*
X032235Y041920D02*
X032279Y041921D01*
X031537Y042041D02*
X032235Y041920D01*
X026177Y040741D02*
X026548Y041112D01*
X035321Y023028D02*
X035660D01*
X034397Y023952D02*
X035321Y023028D01*
X034397Y023952D02*
Y027082D01*
X026687Y038752D02*
X026826D01*
X026596Y038662D02*
X026687Y038752D01*
X022980Y038662D02*
X026596D01*
X022948Y038693D02*
X022980Y038662D01*
X026681Y038556D02*
X027712D01*
X026602Y038477D02*
X026681Y038556D01*
X022732Y038477D02*
X026602D01*
X026748Y038280D02*
X026826Y038359D01*
X023667Y028042D02*
X024065D01*
X023363Y027738D02*
X023667Y028042D01*
X020368Y027738D02*
X023363D01*
X021984Y038615D02*
X022482Y039112D01*
X022237Y038582D02*
X022642Y038987D01*
X022237Y038229D02*
Y038582D01*
X021078Y037071D02*
X022237Y038229D01*
X022421Y038496D02*
X022792Y038867D01*
X022421Y038244D02*
Y038496D01*
X019820Y030362D02*
X021687D01*
X019578Y030605D02*
X019820Y030362D01*
X020162Y026205D02*
X023928D01*
X019597Y025640D02*
X020162Y026205D01*
X023928D02*
X024108Y026385D01*
X031256Y035800D02*
X031797D01*
X034837Y020185D02*
Y023112D01*
X031452Y035603D02*
X032288D01*
X034397Y027082D02*
X034777Y027462D01*
X031107Y034602D02*
X031417Y034292D01*
X030577Y034122D02*
X030877Y034422D01*
X030507Y034122D02*
X030577D01*
X033418Y023215D02*
Y023461D01*
X033417Y023462D02*
X033418Y023461D01*
X033068Y023215D02*
Y023461D01*
X033067Y023462D02*
X033068Y023461D01*
X032717Y023462D02*
X032718Y023461D01*
Y023215D02*
Y023461D01*
X031157Y025252D02*
X031217Y025192D01*
X031124Y025015D02*
X031197Y024942D01*
X030848Y025015D02*
X031124D01*
X030734Y025252D02*
X031157D01*
X030498Y025015D02*
X030734Y025252D01*
X030148Y025015D02*
Y025172D01*
X032993Y022495D02*
X033418Y022920D01*
X032993Y022431D02*
Y022495D01*
X032737Y022589D02*
X033068Y022920D01*
X032737Y022431D02*
Y022589D01*
X032481Y022683D02*
X032718Y022920D01*
X032481Y022431D02*
Y022683D01*
X031237Y024212D02*
Y024512D01*
X031247Y023882D02*
X032167D01*
X032467Y023582D01*
Y022852D02*
Y023582D01*
X032057Y023622D02*
X032258Y023421D01*
Y023369D02*
Y023421D01*
X031858Y023181D02*
Y023460D01*
X031846Y023169D02*
X031858Y023181D01*
X031860Y022832D02*
X032107D01*
X031900Y022475D02*
Y022792D01*
Y022106D02*
Y022475D01*
X032225Y022610D02*
X032467Y022852D01*
X032225Y022431D02*
Y022610D01*
X030684Y022805D02*
Y024388D01*
X030848Y024552D02*
Y024720D01*
X030684Y024388D02*
X030848Y024552D01*
X030564Y022665D02*
Y023795D01*
X030497Y024719D02*
X030498Y024720D01*
X030497Y023862D02*
Y024719D01*
Y023862D02*
X030564Y023795D01*
X030148Y024021D02*
Y024720D01*
Y024021D02*
X030444Y023725D01*
Y022663D02*
Y023725D01*
X029767Y024802D02*
X029777Y024812D01*
X029767Y024412D02*
Y024802D01*
X036388Y019685D02*
X037704Y021002D01*
X038747D01*
X039187Y021442D01*
Y021552D01*
X039687Y022052D01*
X034778Y036732D02*
X034797Y036752D01*
X034778Y036428D02*
Y036732D01*
X035291Y036499D02*
Y036703D01*
X035381Y036793D01*
X035554D02*
X035645Y036703D01*
Y036499D02*
Y036703D01*
X030057Y040072D02*
X030077Y040052D01*
Y039346D02*
Y040052D01*
X029878Y039146D02*
X030077Y039346D01*
X031547Y041506D02*
Y041682D01*
X027496Y040938D02*
X028696Y039737D01*
X026582Y040938D02*
X027496D01*
X031547Y041682D02*
X031665Y041800D01*
X032263D02*
X032456Y041607D01*
Y041420D02*
Y041607D01*
X032259Y041420D02*
Y041558D01*
X032159Y041658D02*
X032259Y041558D01*
X031878Y041658D02*
X032159D01*
X031665Y041800D02*
X032263D01*
X031846Y041626D02*
X031878Y041658D01*
X035777Y038135D02*
X036065Y037847D01*
X028893Y039343D02*
Y039835D01*
X028858Y041276D02*
Y041428D01*
X028795Y041213D02*
X028858Y041276D01*
X028539Y041213D02*
X028795D01*
X028106Y040111D02*
X028500Y039717D01*
Y039343D02*
Y039717D01*
X028696Y039540D02*
Y039737D01*
X027327Y039728D02*
X027515Y039540D01*
X037462Y038387D02*
X037768D01*
X037287Y038562D02*
X037462Y038387D01*
X037287Y038562D02*
Y038962D01*
X037187Y039062D02*
X037287Y038962D01*
X036537Y039062D02*
X037187D01*
X036437Y039162D02*
X036537Y039062D01*
X036437Y039162D02*
Y039712D01*
X036314Y039835D02*
X036437Y039712D01*
X036224Y039835D02*
X036314D01*
X028106Y038162D02*
X028303Y037965D01*
X028106Y038556D02*
X028303Y038359D01*
X033224Y020164D02*
X034537Y021477D01*
X033224Y020128D02*
Y020164D01*
X033233Y020508D02*
X033837Y021112D01*
X032781Y020508D02*
X033233D01*
X033157Y020682D02*
X033587Y021112D01*
X032987Y020682D02*
X033157D01*
X031256Y038556D02*
X031452Y038752D01*
X031256Y037079D02*
Y038556D01*
Y037079D02*
X031354Y036981D01*
X031256Y036587D02*
Y036882D01*
X031157Y036981D02*
X031256Y036882D01*
X030989Y036981D02*
X031157D01*
X035999Y024128D02*
X036203Y023923D01*
Y023599D02*
Y023923D01*
X035981Y023378D02*
X036203Y023599D01*
X034837Y020185D02*
X035028Y019995D01*
X037667Y023012D02*
X037982Y022697D01*
X037442Y023012D02*
X037667D01*
X037266Y022835D02*
X037442Y023012D01*
X036487Y021823D02*
Y022162D01*
X037887Y023962D02*
X039037D01*
X037633Y024216D02*
X037887Y023962D01*
X037633Y024216D02*
Y024474D01*
X039037Y023962D02*
X039337Y024262D01*
X035371Y023378D02*
X035674D01*
X037578Y024530D02*
X037633Y024474D01*
X035985Y024128D02*
X035999D01*
X035987Y024130D02*
Y024462D01*
X038387Y024162D02*
X038494Y024269D01*
Y024657D01*
X038238Y024313D02*
Y024657D01*
X038158Y024233D02*
X038238Y024313D01*
X037578Y024825D02*
X037710D01*
X036913Y024630D02*
Y024649D01*
X037278Y025014D01*
X037885D01*
X037982Y024917D01*
Y024657D02*
Y024917D01*
X040339Y024578D02*
X040621D01*
X038987Y025612D02*
X039053Y025678D01*
X039316D01*
X038971Y025328D02*
X039281D01*
X039639Y025678D02*
X039921D01*
X039628Y025328D02*
X039921D01*
X039281D02*
Y025643D01*
X038750Y025146D02*
X038981Y025378D01*
X038750Y024657D02*
Y025146D01*
X039107Y025082D02*
X039866D01*
X039006Y024981D02*
X039107Y025082D01*
X039006Y024657D02*
Y024981D01*
X039866Y025082D02*
X040020Y024928D01*
X035687Y021618D02*
X035887Y021418D01*
X035687Y021618D02*
Y021762D01*
X036087Y021612D02*
Y021756D01*
X035887Y021412D02*
X036087Y021612D01*
X035037Y021618D02*
X035237Y021418D01*
X035037Y021618D02*
Y021762D01*
X035437Y021612D02*
Y021756D01*
X035237Y021412D02*
X035437Y021612D01*
X035237Y020906D02*
X035437Y020706D01*
Y020562D02*
Y020706D01*
X035037Y020568D02*
Y020712D01*
X035237Y020912D01*
X035687Y020712D02*
X035887Y020912D01*
X035687Y020568D02*
Y020712D01*
X036087Y020562D02*
Y020706D01*
X035887Y020906D02*
X036087Y020706D01*
X039262Y024337D02*
Y024657D01*
Y024337D02*
X039337Y024262D01*
X039437D01*
X039518Y024343D01*
Y024657D01*
X036074Y022225D02*
Y022578D01*
X037921Y021278D02*
X038216D01*
X037853Y021678D02*
X038181D01*
X037302Y021658D02*
X037607Y021962D01*
X038337D01*
X038494Y022119D01*
Y022413D01*
X038037Y022842D02*
X038177D01*
X037982Y022787D02*
X038037Y022842D01*
X037982Y022697D02*
Y022787D01*
X038177Y022842D02*
X038238Y022781D01*
X038387Y023262D02*
X038687D01*
X039262Y022687D01*
Y022413D02*
Y022687D01*
X039037Y023212D02*
X039518Y022731D01*
Y022413D02*
Y022731D01*
X037175Y021785D02*
Y022308D01*
X037982Y022413D02*
Y022697D01*
X038238Y022413D02*
Y022781D01*
X036860Y022327D02*
Y023358D01*
X036913Y024193D02*
Y024630D01*
X036728Y024008D02*
X036913Y024193D01*
X037443Y024825D02*
X037578D01*
X037248Y024630D02*
X037443Y024825D01*
X037248Y024137D02*
Y024630D01*
Y024137D02*
X037378Y024008D01*
X032647Y020642D02*
X032781Y020508D01*
X030747Y020682D02*
X031347D01*
X030637Y020792D02*
X030747Y020682D01*
X030637Y020792D02*
Y021013D01*
X031087Y020362D02*
X032037D01*
X031217Y021338D02*
X031301D01*
X031959Y021013D02*
X032225D01*
X031562Y021832D02*
X031800Y021594D01*
X031900D01*
X031547Y021832D02*
X031562D01*
X031217Y021594D02*
X031555D01*
X031320Y021850D02*
X031465Y021995D01*
X031217Y021850D02*
X031320D01*
X031637Y021987D02*
X031774Y021850D01*
X031900D01*
X031637Y021987D02*
Y022322D01*
X031465Y021995D02*
Y022727D01*
X031637Y022322D02*
X031657Y022342D01*
X032647Y020642D02*
X032737Y020731D01*
Y021013D01*
X032987Y020682D02*
Y021008D01*
X030941Y021062D02*
X031137D01*
X030893Y021013D02*
X030941Y021062D01*
X033317Y021092D02*
Y021338D01*
X032037Y020362D02*
X032481Y020806D01*
X031106Y017384D02*
X031348Y017142D01*
X031587D01*
X030747Y017719D02*
X031519D01*
X031780D01*
X030756Y017940D02*
X030787Y017909D01*
X031519Y017396D02*
X031771D01*
X030747Y017949D02*
Y018572D01*
X029199Y017671D02*
X029947D01*
X030500Y017940D02*
Y018665D01*
X030767Y018932D01*
X030747Y017949D02*
X030756Y017940D01*
X031677Y018662D02*
X031870D01*
X031407Y018932D02*
X031677Y018662D01*
X030767Y018932D02*
X031407D01*
X029612Y017683D02*
Y017943D01*
X029199Y017671D02*
Y017931D01*
Y017671D02*
X029199Y017671D01*
X026702Y017641D02*
Y018028D01*
Y018541D02*
Y018928D01*
X029559Y021594D02*
X029800D01*
X029337Y021372D02*
X029559Y021594D01*
X028487Y021843D02*
X028852Y021478D01*
X035988Y019540D02*
Y019832D01*
X035588Y019435D02*
Y019742D01*
X034076Y018438D02*
X035143D01*
X035588Y018882D01*
Y019100D01*
X035870D01*
X035988Y019218D01*
X036255D01*
X036388Y019350D01*
X034628Y019845D02*
Y020101D01*
X034207Y020522D02*
X034628Y020101D01*
X033752Y020522D02*
X034207D01*
X033562Y020332D02*
X033752Y020522D01*
X033562Y019486D02*
Y020332D01*
X033025Y018950D02*
X033562Y019486D01*
X032442Y018950D02*
X033025D01*
X033816Y020078D02*
Y020341D01*
X033727Y019362D02*
X033737Y019372D01*
X033757D01*
X033785Y019400D01*
Y019672D01*
X035078Y018835D02*
X035190D01*
X035309Y018954D01*
Y019407D01*
X035056Y019660D02*
X035309Y019407D01*
X032495Y019678D02*
X032900D01*
X034628Y018810D02*
X034652Y018835D01*
X034511Y018694D02*
X034628Y018810D01*
X034076Y018694D02*
X034511D01*
X034652Y018835D02*
X035078D01*
X034405Y018950D02*
X034628Y019172D01*
Y019145D02*
X035002D01*
X034628Y019172D02*
Y019510D01*
X034076Y018950D02*
X034405D01*
X032228Y019964D02*
X032495Y019697D01*
X032228Y019964D02*
Y020128D01*
X032086Y019138D02*
Y019678D01*
X031842Y020057D02*
Y020128D01*
Y020057D02*
X032160Y019739D01*
Y019678D02*
Y019739D01*
X032086Y019678D02*
X032160D01*
X031907Y018959D02*
X032086Y019138D01*
X031907Y018959D02*
X031916Y018950D01*
X032442D01*
X031870Y018662D02*
X031907Y018624D01*
X032495Y019678D02*
Y019697D01*
Y019259D02*
Y019678D01*
X032442Y019206D02*
X032495Y019259D01*
X028306Y019662D02*
X028627D01*
X026702Y019441D02*
Y019828D01*
X032481Y020806D02*
Y021013D01*
X029992Y020467D02*
X030381Y020856D01*
X029992Y019617D02*
Y020467D01*
X029988Y019613D02*
X029992Y019617D01*
X033525Y021594D02*
X033677Y021442D01*
X033317Y021594D02*
X033525D01*
X026702Y020341D02*
Y020728D01*
Y021241D02*
Y021628D01*
X029347Y020972D02*
X029713Y021338D01*
X026702Y022141D02*
Y022528D01*
X028199Y020455D02*
X028675D01*
X028702Y020428D01*
X026702Y023378D02*
Y023428D01*
Y023041D02*
Y023378D01*
Y023941D02*
Y024328D01*
X029267Y022192D02*
X029609Y021850D01*
X029800D01*
X026702Y025178D02*
Y025228D01*
Y024841D02*
Y025178D01*
X030684Y022805D02*
X030893Y022596D01*
X030637Y022431D02*
Y022592D01*
X030564Y022665D02*
X030637Y022592D01*
X030381Y022601D02*
X030444Y022663D01*
X030324Y022713D02*
Y023675D01*
X030267Y023732D02*
X030324Y023675D01*
X029827Y023732D02*
X030267D01*
X030893Y022431D02*
Y022596D01*
X030125Y022514D02*
X030324Y022713D01*
X030381Y022431D02*
Y022601D01*
X030125Y022431D02*
Y022514D01*
X030096Y023219D02*
X030108Y023231D01*
Y023510D01*
X029800Y022106D02*
Y022562D01*
X030958Y022810D02*
Y022896D01*
Y022810D02*
X031196Y022571D01*
X030946Y023207D02*
X030958Y023219D01*
Y023498D01*
X031346Y023169D02*
X031358Y023181D01*
Y023460D01*
X031196Y022571D02*
X031358Y022732D01*
Y022834D01*
X031465Y022727D01*
X033724Y022319D02*
X033736Y022331D01*
Y022611D01*
X034137Y022307D02*
X034149Y022319D01*
Y022599D01*
Y021996D02*
X034161Y022008D01*
X034149Y021717D02*
Y021996D01*
X033736Y021705D02*
Y021985D01*
X033748Y021996D02*
X034149D01*
X033736Y021985D02*
X033748Y021996D01*
X033601Y021850D02*
X033736Y021985D01*
X033317Y021850D02*
X033601D01*
X033317Y022102D02*
Y022310D01*
X031217Y022106D02*
Y022314D01*
X030742Y021470D02*
Y021489D01*
X030509Y021722D02*
X030742Y021489D01*
X033255Y019678D02*
Y020096D01*
X034139Y019269D02*
Y020078D01*
X034372D01*
X034076Y019206D02*
X034139Y019269D01*
X032442Y018694D02*
X032889D01*
X032728Y017418D02*
Y017678D01*
X032328Y017326D02*
Y017604D01*
Y018000D02*
Y018418D01*
Y017951D02*
Y018000D01*
X032728D01*
X032442Y018438D02*
X032613D01*
X032728Y018324D01*
Y018000D02*
Y018324D01*
X030468Y037768D02*
X030665Y037571D01*
X032867Y021454D02*
Y021981D01*
Y021452D02*
Y021454D01*
X032870D01*
X032373D02*
X032867D01*
Y021452D02*
X032870Y021454D01*
X032609Y021722D02*
X032867Y021981D01*
X032358Y021973D02*
X032609Y021722D01*
X030509Y021726D02*
X030744Y021961D01*
X030509Y021722D02*
Y021726D01*
X030500Y019613D02*
Y020263D01*
X030244Y019613D02*
Y020274D01*
Y017343D02*
Y017940D01*
X029199Y017349D02*
X029199Y017349D01*
Y017089D02*
Y017349D01*
X029612Y017337D02*
X029612Y017337D01*
Y017077D02*
Y017337D01*
X029612Y017683D02*
X029612Y017683D01*
X031059Y035996D02*
X031256Y035800D01*
X030870Y035525D02*
X030989Y035406D01*
X030477Y035791D02*
X030744D01*
X030989Y035406D02*
X032437D01*
X030744Y035791D02*
X030870Y035665D01*
Y035525D02*
Y035665D01*
X030665Y035560D02*
X030862Y035363D01*
X030665Y035560D02*
Y035603D01*
X030862Y035012D02*
Y035363D01*
X026033Y039848D02*
X027601D01*
X027909Y039540D01*
X027874Y039968D02*
X028303Y039540D01*
X026083Y039968D02*
X027874D01*
X033344Y036314D02*
X033458D01*
X032437Y035406D02*
X033344Y036314D01*
X032439Y035978D02*
X032731D01*
X033458Y036314D02*
X033578Y036193D01*
X034366D01*
X034600Y036428D01*
X034778D01*
X034255Y036369D02*
Y036572D01*
X034164Y036663D02*
X034255Y036572D01*
X033900D02*
X033991Y036663D01*
X033900Y036369D02*
Y036572D01*
X034748Y035938D02*
Y036398D01*
X033948Y037678D02*
X034078Y037548D01*
X034080Y037176D02*
X034778D01*
X034078Y037174D02*
X034080Y037176D01*
X034078Y037174D02*
Y037548D01*
X033635Y036749D02*
Y036952D01*
X033544Y037043D02*
X033635Y036952D01*
X033448Y037855D02*
X033539Y037764D01*
X033448Y037500D02*
X033539Y037591D01*
X028106Y035800D02*
X028303Y035996D01*
X025382Y035800D02*
X028106D01*
X025429Y035406D02*
X028500D01*
X027909Y034815D02*
X028303Y035209D01*
X029681Y039343D02*
Y040347D01*
X031279Y040497D02*
X031431Y040649D01*
X031159Y040547D02*
X031311Y040699D01*
X030960Y040603D02*
X031098Y040741D01*
X028303Y034146D02*
X028616D01*
X027338Y033776D02*
X027356Y033793D01*
X022653Y035267D02*
Y035327D01*
Y035267D02*
X022845Y035075D01*
X024480D01*
X027070Y033946D02*
X027410D01*
X027043Y033918D02*
X027070Y033946D01*
X027437Y033918D02*
X028862D01*
X027410Y033946D02*
X027437Y033918D01*
X025924Y032487D02*
Y032537D01*
X022850Y031744D02*
X024051D01*
X022752Y031843D02*
X022850Y031744D01*
X023126Y031961D02*
X024307D01*
X024444Y032167D02*
X025308D01*
X024307Y031961D02*
Y031981D01*
X027356Y033793D02*
X029249D01*
X029405Y033949D01*
Y034372D01*
X029609Y034575D01*
X029628D01*
X028862Y033918D02*
X028952Y034008D01*
Y034369D01*
X029159Y034575D01*
X029178D01*
X027667Y034146D02*
X027980D01*
X021098Y036272D02*
X021216D01*
X020688Y036453D02*
X021150D01*
X019078Y036134D02*
X020370D01*
X020688Y036453D01*
X018882Y035939D02*
X019078Y036134D01*
X021078Y036626D02*
Y037071D01*
X027318Y038162D02*
X027515Y037965D01*
X021172Y021872D02*
X021228Y021928D01*
X020573Y021872D02*
X021172D01*
X021004Y021281D02*
X021208Y021078D01*
X020573Y021281D02*
X021004D01*
X021117Y021478D02*
X021218Y021378D01*
X020573Y021478D02*
X021117D01*
X020573Y021675D02*
X021225D01*
X024065Y028042D02*
X024108Y027999D01*
X020038Y027408D02*
X020368Y027738D01*
X020038Y026865D02*
Y027408D01*
X019619Y026446D02*
X020038Y026865D01*
X024108Y026385D02*
Y026697D01*
X018128Y027728D02*
X018328Y027928D01*
X020190Y025965D02*
X025041D01*
X018128Y029255D02*
X018361Y029489D01*
X018750Y034839D02*
X019132D01*
X024537Y034955D02*
X025382Y035800D01*
X018209Y026446D02*
X019619D01*
X019025Y029855D02*
X019578D01*
X018128Y028928D02*
Y029255D01*
X018988Y029105D02*
X019578D01*
X019276Y026753D02*
Y026853D01*
X018978Y026753D02*
X019276D01*
X019528Y027105D02*
X019628D01*
X019276Y026853D02*
X019528Y027105D01*
X019328Y030305D02*
Y030605D01*
X018978Y030690D02*
X019163Y030505D01*
X018440Y025640D02*
X019597D01*
X018128Y025328D02*
X018440Y025640D01*
X018128Y026528D02*
X018209Y026446D01*
X018263Y032256D02*
Y032621D01*
X018128Y032120D02*
X018263Y032256D01*
X018128Y031828D02*
Y032120D01*
X026826Y036390D02*
X026826Y036390D01*
X027122D01*
X024563Y037178D02*
X026826D01*
X022397Y034973D02*
X022456Y034914D01*
X023263D01*
X023304Y034955D01*
X026610Y035603D02*
X027122D01*
X026826Y035209D02*
X027122D01*
X026590Y035012D02*
X027319D01*
X027515Y035209D01*
X028500Y036193D02*
X028696Y035996D01*
X028500Y035800D02*
Y035800D01*
X037010Y025208D02*
X038158D01*
X036824Y026506D02*
Y026630D01*
Y026506D02*
X036943Y026387D01*
Y025275D02*
Y026387D01*
Y025275D02*
X037010Y025208D01*
X037888Y025578D02*
X038120D01*
X037824Y025937D02*
X037874Y025887D01*
X037788Y025478D02*
X037874Y025564D01*
Y025887D01*
X038978Y035325D02*
Y035722D01*
Y035305D02*
Y035325D01*
Y035722D02*
X039028Y035772D01*
X035024Y040500D02*
Y040586D01*
X034950Y040426D02*
X035024Y040500D01*
X035874Y040087D02*
X035986D01*
X036224Y039849D01*
Y039835D02*
Y039849D01*
X035574Y040387D02*
X035874Y040087D01*
X035382Y040387D02*
X035574D01*
X035687Y040072D02*
X035874Y039885D01*
X035382Y040072D02*
X035687D01*
X035524Y038135D02*
X035777D01*
X033482Y039230D02*
Y039873D01*
X033788Y039773D02*
X034015D01*
X033565Y039996D02*
X033788Y039773D01*
X035524Y037587D02*
Y037839D01*
X035174Y037589D02*
Y037842D01*
Y038137D02*
X035177Y038135D01*
X034950Y038361D02*
X035174Y038137D01*
X034950Y038361D02*
Y038774D01*
X035177Y038135D02*
X035524D01*
X036574Y038287D02*
Y038539D01*
X036224Y038337D02*
Y038589D01*
X035874Y038387D02*
Y038639D01*
X036574Y038835D02*
X036974D01*
X036031Y039128D02*
X036224Y038935D01*
X035382Y039128D02*
X036031D01*
X035874Y039337D02*
Y039589D01*
X036674Y039237D02*
Y039489D01*
X036224Y039287D02*
Y039539D01*
X035382Y038828D02*
X035768D01*
X035874Y038935D01*
X035382Y038813D02*
Y038828D01*
X032043Y040032D02*
X033322D01*
X031748Y039737D02*
X032043Y040032D01*
X033775Y040387D02*
X034368D01*
X033322Y040032D02*
X033482Y039873D01*
X033511Y040323D02*
Y041121D01*
X034043Y038813D02*
X034518D01*
X033852Y038785D02*
X034015D01*
X033601Y039036D02*
X033852Y038785D01*
X033601Y039036D02*
Y039179D01*
X033840Y039419D01*
X034015D01*
X033481Y039229D02*
X033482Y039230D01*
X033481Y038986D02*
Y039229D01*
Y038986D02*
X033482Y038985D01*
Y038321D02*
Y038985D01*
X034028Y039107D02*
X034498D01*
X034015D02*
X034028D01*
X034203Y039283D01*
Y039337D01*
X034309Y039443D01*
X034518D01*
X034375Y040394D02*
Y040896D01*
X033374Y041257D02*
X033511Y041121D01*
X033231Y041257D02*
X033374D01*
X033126Y041153D02*
X033231Y041257D01*
X032920Y041153D02*
X033126D01*
X030862Y039737D02*
X030987D01*
X031059Y039540D02*
Y039638D01*
X029878Y039540D02*
Y040593D01*
X030862Y038949D02*
X031059Y038752D01*
X030792Y037178D02*
X030989Y036981D01*
X029641Y034764D02*
X030111D01*
X030116Y034759D01*
X030376Y035018D01*
X029168Y035414D02*
X029287Y035533D01*
X028893Y034859D02*
Y035279D01*
X029279Y035355D02*
X029484Y035560D01*
Y035603D01*
X029029Y035414D02*
X029168D01*
X028893Y035279D02*
X029029Y035414D01*
X029279Y035127D02*
Y035355D01*
X030376Y035018D02*
X030560D01*
X030074Y036292D02*
Y036587D01*
X029976Y036193D02*
X030074Y036292D01*
X030468Y035800D02*
X030477Y035791D01*
X029681Y035406D02*
Y036095D01*
X029779Y036193D01*
X029976D01*
X030567D02*
X030862D01*
X031059Y036390D02*
X031256Y036193D01*
X030560Y035018D02*
X030763Y034815D01*
X030960D01*
X031059Y034914D01*
Y035209D01*
X030271Y036784D02*
X030468Y036587D01*
X030271Y037178D02*
X030468Y036981D01*
X030763D01*
X030468Y036292D02*
X030567Y036193D01*
X030468Y036292D02*
Y036587D01*
X030862D02*
Y036882D01*
X030763Y036981D02*
X030862Y036882D01*
X030665Y037178D02*
X030792D01*
X031452Y035996D02*
X032097D01*
X028500Y038556D02*
X028696Y038359D01*
X028500Y038949D02*
Y038949D01*
Y038949D02*
X028696Y038752D01*
X028106Y039343D02*
X028303Y039146D01*
X027614Y036981D02*
X027712Y036882D01*
Y036587D02*
Y036882D01*
Y036587D02*
X027909Y036390D01*
X026826Y036784D02*
X027122D01*
X027318Y036587D02*
X027515Y036390D01*
X029484Y039146D02*
X029681Y039343D01*
X027712Y038949D02*
X027909Y039146D01*
Y037965D02*
X028106Y037768D01*
X024208Y032404D02*
X024444Y032167D01*
X030665Y037571D02*
X030665D01*
X030862Y038556D02*
Y038556D01*
X030665Y038359D02*
X030862Y038556D01*
Y039343D02*
X031059Y039146D01*
X028893Y034859D02*
X029178Y034575D01*
X029287Y035533D02*
Y036193D01*
X029484Y036390D01*
X027712Y037768D02*
X027909Y037571D01*
X027319Y037374D02*
X027515Y037571D01*
X028500Y035406D02*
X028696Y035603D01*
X028696Y038752D02*
X028696D01*
X028500Y039343D02*
X028696Y039146D01*
X028106Y038949D02*
X028303Y038752D01*
X028696Y036390D02*
X028893Y036193D01*
X028303Y035603D02*
X028500Y035800D01*
X031256Y038949D02*
X031452Y038752D01*
X025874Y032487D02*
X025924D01*
X025791Y032404D02*
X025874Y032487D01*
X025645Y032404D02*
X025791D01*
X025308Y032167D02*
X025379Y032238D01*
Y032592D01*
X024128Y032404D02*
X024208D01*
X024656D02*
X025072D01*
X025379Y032592D02*
X025487Y032699D01*
X025645D01*
X025645D02*
X026039Y033093D01*
X020574Y027437D02*
X024937D01*
X020474Y027537D02*
X020574Y027437D01*
X024937D02*
X025041Y027540D01*
X018128Y031393D02*
Y031828D01*
Y030228D02*
Y030663D01*
X038435Y025485D02*
Y025578D01*
X038158Y025208D02*
X038435Y025485D01*
X023586Y033159D02*
X023593Y033152D01*
X023593Y034468D02*
X023821Y034240D01*
X023586Y034476D02*
X023593Y034468D01*
X023821Y033929D02*
Y034240D01*
Y033929D02*
X024030Y033720D01*
X024128D01*
X024656D02*
X025072D01*
X035660Y022656D02*
Y023028D01*
X035582Y022578D02*
X035660Y022656D01*
X035938Y023578D02*
X036005Y023645D01*
Y023778D01*
X035748Y023578D02*
X035938D01*
X035674Y023504D02*
X035748Y023578D01*
X035674Y023378D02*
Y023504D01*
X028858Y041258D02*
Y041428D01*
X028370Y040636D02*
X028652Y040354D01*
X028370Y040636D02*
Y040828D01*
X028685D02*
X029013D01*
X029213Y040628D01*
X029090Y035113D02*
X029628Y034575D01*
X029090Y035113D02*
Y035209D01*
X029279Y035127D02*
X029641Y034764D01*
X027978Y034528D02*
X028291D01*
X028696Y034483D02*
Y035209D01*
X030116Y034478D02*
Y034759D01*
X028588Y018243D02*
X028852Y017979D01*
X027039Y017815D02*
X027152Y017928D01*
X027039Y017628D02*
Y017815D01*
X027152Y017928D02*
X027377D01*
X028199Y017755D02*
X028675D01*
X028702Y017728D01*
X027039Y018715D02*
X027152Y018828D01*
X027039Y018528D02*
Y018715D01*
X027152Y018828D02*
X027377D01*
X028199Y018655D02*
X028675D01*
X028702Y018628D01*
X028487Y019143D02*
X028852Y018778D01*
X027276Y018250D02*
X028624D01*
X027039Y019615D02*
X027152Y019728D01*
X027039Y019428D02*
Y019615D01*
X027152Y019728D02*
X027377D01*
X028487Y020043D02*
X028852Y019678D01*
X027276Y019150D02*
X028624D01*
X027039Y020515D02*
X027152Y020628D01*
X027039Y020328D02*
Y020515D01*
X027152Y020628D02*
X027377D01*
X028487Y020943D02*
X028852Y020578D01*
X026530Y020050D02*
X028624D01*
X027039Y021415D02*
X027152Y021528D01*
X027039Y021228D02*
Y021415D01*
X027152Y021528D02*
X027377D01*
X028199Y021355D02*
X028675D01*
X028702Y021328D01*
X027276Y020950D02*
X028624D01*
X027039Y022315D02*
X027152Y022428D01*
X027039Y022128D02*
Y022315D01*
X027152Y022428D02*
X027377D01*
X028199Y022255D02*
X028675D01*
X028702Y022228D01*
X028487Y022743D02*
X028852Y022378D01*
X027276Y021850D02*
X028624D01*
X027039Y023215D02*
X027152Y023328D01*
X027039Y023028D02*
Y023215D01*
X027152Y023328D02*
X027377D01*
X028199Y023155D02*
X028675D01*
X028702Y023128D01*
X028487Y023643D02*
X028852Y023278D01*
X027276Y022750D02*
X028624D01*
X027039Y024115D02*
X027152Y024228D01*
X027039Y023928D02*
Y024115D01*
X027152Y024228D02*
X027377D01*
X028199Y024055D02*
X028675D01*
X028702Y024028D01*
X028487Y024543D02*
X028852Y024178D01*
X027276Y023650D02*
X028624D01*
X027277Y024550D02*
X028625D01*
X028675Y024955D02*
X028702Y024928D01*
X028200Y024955D02*
X028675D01*
X027152Y025128D02*
X027378D01*
X027039Y024828D02*
Y025015D01*
X027152Y025128D01*
X033354Y038194D02*
X033482Y038321D01*
X033027Y036685D02*
Y038162D01*
X022378Y033875D02*
Y034128D01*
X032040Y039168D02*
X032650D01*
X032019Y039146D02*
X032040Y039168D01*
X031452Y039146D02*
X032019D01*
X032650Y039168D02*
X032820Y038998D01*
Y038929D02*
Y038998D01*
Y038929D02*
X033005Y038744D01*
Y039611D02*
X033360Y039256D01*
Y038418D02*
Y039256D01*
X033270Y038328D02*
X033360Y038418D01*
X032690Y038328D02*
X033270D01*
X032375Y038643D02*
X032690Y038328D01*
X032375Y038643D02*
Y038744D01*
X032367Y038752D02*
X032375Y038744D01*
X031452Y039540D02*
X032304D01*
X032375Y039611D01*
X031452Y037178D02*
X032040D01*
X032332Y036885D01*
X032490D01*
X031452Y037571D02*
X032034D01*
X032332Y037870D01*
X032490D01*
X031452Y038752D02*
X032367D01*
X032909Y036587D02*
X032929D01*
X033027Y036685D01*
X031452Y038752D02*
X031944Y038260D01*
X032535D01*
X032602Y038194D02*
X033354D01*
X033438Y038278D01*
X032535Y038260D02*
X032602Y038194D01*
X036194Y030093D02*
Y031002D01*
X027324Y039337D02*
X027515Y039146D01*
X023421Y034776D02*
X023460Y034815D01*
X023304Y034955D02*
X024537D01*
X027712Y038556D02*
X027909Y038359D01*
X026039Y033388D02*
X026787Y034136D01*
Y034612D01*
X026187Y035112D02*
X026483Y034815D01*
X024883Y035112D02*
X026187D01*
X024587Y034815D02*
X024883Y035112D01*
X023460Y034815D02*
X024587D01*
X026483D02*
X027909D01*
X032653Y020128D02*
X032831D01*
X032537Y020012D02*
X032653Y020128D01*
X033788Y039773D02*
X033794Y039768D01*
Y039664D02*
Y039768D01*
X030860Y040206D02*
X030960Y040307D01*
Y040603D01*
X030740Y040256D02*
X030840Y040356D01*
X034012Y039104D02*
X034015Y039107D01*
X033794Y039104D02*
X034012D01*
X033565Y039996D02*
Y040093D01*
X033657Y040184D01*
Y040269D01*
X033775Y040387D01*
X033448Y037854D02*
X033448Y037855D01*
X033214Y037854D02*
X033448D01*
X033444Y037504D02*
X033448Y037500D01*
X033214Y037504D02*
X033444D01*
X032602Y036284D02*
X032684D01*
X031789Y039974D02*
X032043Y040229D01*
X031634Y039974D02*
X031789D01*
X030840Y040356D02*
Y040739D01*
X030634Y039758D02*
X030860Y039984D01*
Y040206D01*
X032437Y036449D02*
X032602Y036284D01*
X033371Y037043D02*
X033374Y037040D01*
Y036654D02*
Y037040D01*
X022397Y034973D02*
Y037541D01*
X022284Y037654D02*
X022397Y037541D01*
X024494Y038962D02*
X024837D01*
X024464Y038812D02*
X026361D01*
X018361Y029489D02*
X023218D01*
X024108Y030379D01*
Y030597D01*
X018328Y027928D02*
X022947D01*
X024108Y029089D01*
Y029297D01*
X018263Y032621D02*
X018384Y032742D01*
Y034473D01*
X018750Y034839D01*
X018514Y032914D02*
X018804Y032624D01*
Y032184D02*
Y032624D01*
Y032184D02*
X018924Y032064D01*
X019254D01*
X019841Y031477D01*
X024381D01*
X018514Y032914D02*
Y033354D01*
X018864Y033704D01*
X019094D01*
X034950Y040426D02*
Y040606D01*
X034735Y040821D02*
X034950Y040606D01*
X034974Y040550D02*
X035024Y040500D01*
X036674Y039785D02*
X036752D01*
X036935Y039601D01*
Y039521D02*
Y039601D01*
X024564Y039082D02*
X024706D01*
X024820Y039196D01*
X024837Y038962D02*
X024965Y039090D01*
X024396Y036301D02*
X024879D01*
X025165Y036587D01*
X023913Y036784D02*
X024396Y036301D01*
X025165Y036587D02*
X027318D01*
X024345Y036741D02*
X024584Y036981D01*
X027614D01*
X034568Y037678D02*
X034854Y037391D01*
X035955D01*
X036255Y037691D01*
X038897Y036852D02*
X039144D01*
X040185Y032114D02*
Y035811D01*
X039144Y036852D02*
X040185Y035811D01*
X040495Y032404D02*
X040887Y032012D01*
X040495Y032404D02*
Y035761D01*
X038495Y037761D02*
X040495Y035761D01*
X029528Y022835D02*
X029800Y022562D01*
X029528Y022835D02*
X029638D01*
X029815Y023011D01*
X029942Y022884D01*
X030108D01*
Y022870D02*
Y022884D01*
X029800Y022562D02*
X030108Y022870D01*
X030185Y025210D02*
X030473D01*
X030148Y025172D02*
X030185Y025210D01*
X030473D02*
X030636Y025372D01*
X030735D01*
X030636D02*
X031097D01*
X032055Y017771D02*
X032234Y017951D01*
X032055Y017581D02*
Y017771D01*
X031771Y017396D02*
X031895Y017272D01*
Y017181D02*
Y017272D01*
X032905Y041431D02*
Y041593D01*
X032765Y041733D02*
X032905Y041593D01*
X032555Y041804D02*
X032765Y041733D01*
X031551Y040867D02*
X031640Y040956D01*
X031796D01*
X031431Y040649D02*
Y040947D01*
X031636Y041153D01*
X031796D01*
X031311Y040699D02*
Y041007D01*
X031723Y041420D01*
X032062D01*
X029037Y018832D02*
Y023402D01*
X029267Y023491D02*
X029335Y023559D01*
X029267Y022192D02*
Y023491D01*
X031217Y021338D02*
X031355Y021201D01*
Y021094D02*
Y021201D01*
Y021094D02*
X031907Y020542D01*
X031606Y021338D02*
X031900D01*
X031562Y021294D02*
X031606Y021338D01*
X039006Y021972D02*
Y022413D01*
X038955Y021921D02*
X039006Y021972D01*
X038531Y021907D02*
X038750Y022126D01*
Y022413D01*
X038531Y021681D02*
Y021907D01*
X038571Y021634D02*
X038795D01*
X038531Y021674D02*
X038571Y021634D01*
X038528Y021678D02*
X038531Y021681D01*
Y021674D02*
Y021681D01*
X038528Y021289D02*
Y021678D01*
X038539Y021278D02*
X038633Y021372D01*
X038747D01*
X038787D01*
X038747D02*
X038787Y021412D01*
X036065Y037847D02*
X036839D01*
X036981Y037989D01*
X036255Y037691D02*
X036885D01*
X036955Y037761D01*
X038495D01*
X029178Y033967D02*
Y034280D01*
X031417Y033592D02*
Y034292D01*
X031097Y025372D02*
X031207Y025482D01*
X029628Y033967D02*
Y034280D01*
X040335Y024258D02*
X040561D01*
X041055Y024751D01*
Y031244D01*
X040185Y032114D02*
X041055Y031244D01*
X026252Y024828D02*
Y025278D01*
Y024828D02*
X026253D01*
X026530Y024550D01*
X026252Y022578D02*
X026417Y022743D01*
X026252Y022128D02*
Y022578D01*
Y022128D02*
X026252D01*
X026530Y021850D01*
X026252Y021678D02*
X026417Y021843D01*
X026252Y021228D02*
Y021678D01*
Y021228D02*
X026252D01*
X026530Y020950D01*
X026252Y020778D02*
X026417Y020943D01*
X026252Y020328D02*
Y020778D01*
Y020328D02*
X026252D01*
X026252Y019878D02*
X026417Y020043D01*
X026252Y019428D02*
Y019878D01*
Y019428D02*
X026252D01*
X026530Y019150D01*
X026252Y018978D02*
X026417Y019143D01*
X026252Y018528D02*
Y018978D01*
Y018528D02*
X026252D01*
Y018428D02*
Y018528D01*
Y018428D02*
X026431Y018250D01*
X026252Y018071D02*
X026424Y018243D01*
X026252Y017628D02*
Y018071D01*
Y017628D02*
X026252D01*
Y017478D02*
Y017628D01*
Y017478D02*
X026381Y017350D01*
X028624D01*
X028852Y017578D01*
Y017979D01*
X026424Y018243D02*
X028588D01*
X026431Y018250D02*
X027276D01*
X027279Y018252D01*
X028624Y018250D02*
X028852Y018478D01*
Y018778D01*
X026417Y019143D02*
X028487D01*
X026530Y019150D02*
X027276D01*
X027279Y019152D01*
X028624Y019150D02*
X028852Y019378D01*
Y019678D01*
X026417Y020043D02*
X028487D01*
X026252Y020328D02*
X026530Y020050D01*
X028624D02*
X028852Y020278D01*
Y020578D01*
X026417Y020943D02*
X028487D01*
X026530Y020950D02*
X027276D01*
X027279Y020952D01*
X028624Y020950D02*
X028852Y021178D01*
Y021478D01*
X026417Y021843D02*
X028487D01*
X026530Y021850D02*
X027276D01*
X027279Y021852D01*
X028624Y021850D02*
X028852Y022078D01*
Y022378D01*
X026417Y022743D02*
X028487D01*
X028624Y022750D02*
X028852Y022978D01*
X027276Y022750D02*
X027279Y022752D01*
X026530Y022750D02*
X027276D01*
X026252Y023028D02*
X026530Y022750D01*
X026252Y023028D02*
X026252D01*
X026252D02*
Y023478D01*
Y024378D02*
X026417Y024543D01*
X026252Y023928D02*
Y024378D01*
Y023928D02*
X026252D01*
X026530Y023650D01*
X026252Y023478D02*
X026417Y023643D01*
X028487D01*
X028852Y022978D02*
Y023278D01*
X027276Y023650D02*
X027279Y023652D01*
X026530Y023650D02*
X027276D01*
X028624D02*
X028852Y023878D01*
Y024178D01*
X026417Y024543D02*
X028487D01*
X027277Y024550D02*
X027279Y024552D01*
X026530Y024550D02*
X027277D01*
X028625D02*
X028852Y024778D01*
X028581Y025335D02*
X028852Y025064D01*
Y024778D02*
Y025064D01*
X026252Y025278D02*
X026436Y025461D01*
X028205D01*
X028331Y025335D01*
X028581D01*
X032407Y034049D02*
Y035192D01*
Y034049D02*
X034777Y031679D01*
Y027462D02*
Y031679D01*
X025764Y040741D02*
X026177D01*
X025435Y040411D02*
X025764Y040741D01*
X031279Y040236D02*
X031311Y040204D01*
X031279Y040236D02*
Y040497D01*
X031256Y038949D02*
Y039638D01*
X031354Y039737D01*
X031748D01*
X031257Y039837D02*
X031259D01*
X031397Y039974D01*
X031634D01*
X031207Y039957D02*
X031209D01*
X031311Y040058D01*
Y040204D01*
X031059Y039638D02*
X031257Y039837D01*
X030987Y039737D02*
X031207Y039957D01*
X031159Y040195D02*
Y040547D01*
X020001Y026387D02*
X020174D01*
X019756Y026141D02*
Y026142D01*
X020001Y026387D01*
X019580Y025965D02*
X019756Y026141D01*
X018978Y025965D02*
X019580D01*
X032107Y022832D02*
Y022896D01*
X032258Y023046D01*
X031065Y040101D02*
X031159Y040195D01*
X031495Y040381D02*
Y040525D01*
X031551Y040581D01*
Y040867D01*
X030335Y039791D02*
X030506Y039962D01*
X030586D01*
X030740Y040116D01*
Y040256D01*
X029528Y023158D02*
X029708Y023338D01*
Y023437D01*
X029817Y020452D02*
Y020613D01*
X030125Y020921D01*
Y021013D01*
X033950Y035549D02*
X034040Y035640D01*
Y035843D01*
X034214Y035640D02*
X034304Y035549D01*
X034214Y035640D02*
Y035843D01*
X030074Y038556D02*
X030271Y038359D01*
X029287Y038556D02*
X029681D01*
X029878Y038359D01*
X030074Y038556D02*
Y038949D01*
X030488Y041608D02*
Y041762D01*
Y041608D02*
X030745Y041351D01*
X026437Y038062D02*
X026587D01*
X022065Y037718D02*
X022627Y038280D01*
X026737Y038062D02*
X026834Y037965D01*
X022627Y038280D02*
X026748D01*
X026587Y038062D02*
X026737D01*
X036628Y024008D02*
X036846Y023789D01*
X036856Y023630D02*
Y023789D01*
X037095Y023439D02*
X037182Y023351D01*
X036895Y023591D02*
X037035D01*
X037095Y023531D01*
Y023439D02*
Y023531D01*
X036856Y023630D02*
X036895Y023591D01*
X037710Y024825D02*
X037785Y024750D01*
Y024341D02*
Y024750D01*
Y024341D02*
X037894Y024233D01*
X038158D01*
X039687Y022052D02*
Y022543D01*
X040335Y023191D01*
Y024258D01*
D90*
X024992Y034468D02*
X025072D01*
X024855Y034331D02*
X024992Y034468D01*
X024855Y034111D02*
Y034331D01*
X037535Y037386D02*
X037674Y037247D01*
X037535Y037386D02*
Y037541D01*
X037674Y037247D02*
X037825Y037398D01*
Y037521D01*
X019949Y034001D02*
X020315D01*
X019937Y033989D02*
X019949Y034001D01*
X023142Y039592D02*
X023377Y039356D01*
X023387D01*
X037987Y035126D02*
X038093Y035232D01*
X037987Y034724D02*
Y035126D01*
Y034724D02*
X038174Y034537D01*
X039340Y028713D02*
Y028898D01*
Y028463D02*
Y028713D01*
X039437Y028062D02*
Y028365D01*
X039340Y028463D02*
X039437Y028365D01*
X039659Y027979D02*
X039774Y028094D01*
X039659Y027979D02*
X039794Y027844D01*
X039576Y028062D02*
X039659Y027979D01*
X040048Y027923D02*
Y028898D01*
X039969Y027844D02*
X040048Y027923D01*
X039794Y027844D02*
X039969D01*
X036397Y031204D02*
Y031662D01*
X039087Y036662D02*
X039235Y036514D01*
Y036312D02*
Y036514D01*
X039378Y034990D02*
X039510D01*
X039637Y035117D01*
Y035718D01*
X039543Y035812D02*
X039637Y035718D01*
X038978Y035325D02*
X039378D01*
X038560D02*
X038978D01*
X037287Y036562D02*
Y036727D01*
X037237Y036512D02*
X037287Y036562D01*
X036580Y036955D02*
X036793D01*
X036387Y036512D02*
Y036762D01*
X036580Y036955D01*
X037137Y034862D02*
X037295Y034704D01*
X037593D01*
X037137Y034612D02*
Y034862D01*
X036237Y034562D02*
Y034762D01*
X033637Y034394D02*
Y034677D01*
Y034110D02*
Y034394D01*
X033671Y034428D02*
X033888D01*
X033637Y034394D02*
X033671Y034428D01*
X033687Y034012D02*
Y034060D01*
X033637Y034110D02*
X033687Y034060D01*
X033637Y034677D02*
X033687Y034727D01*
Y034812D01*
X037737Y033062D02*
X037949Y032850D01*
Y032637D02*
Y032850D01*
X037687Y033362D02*
X037803Y033246D01*
X038174D01*
X037087Y033462D02*
X037437D01*
X037087Y033621D02*
X037574D01*
X037087Y033812D02*
X037574D01*
X038637Y032774D02*
Y033112D01*
X038274Y034887D02*
X038337D01*
Y034862D02*
Y034887D01*
Y034862D02*
X038587Y034612D01*
X036951Y036012D02*
X037437D01*
X039074Y032537D02*
Y034687D01*
X023414Y032347D02*
X023574Y032508D01*
X023324Y032437D02*
X023414Y032347D01*
X025165Y031978D02*
X025416D01*
X020311Y035504D02*
X020547Y035268D01*
X020488Y035682D02*
X020724Y035445D01*
X020665Y035859D02*
X020901Y035622D01*
X020842Y036036D02*
X021078Y035800D01*
X020779Y036036D02*
X020842D01*
X020449Y035706D02*
X020779Y036036D01*
X025094Y034185D02*
Y034446D01*
X025349Y034162D02*
X025645D01*
X025377Y031477D02*
X025739Y031839D01*
Y031978D02*
X026148Y032387D01*
X025739Y031948D02*
Y031978D01*
X022552Y039672D02*
X022860Y039363D01*
X022913D01*
X021955Y039555D02*
X022330D01*
X022008Y039128D02*
X022113Y039233D01*
X020082Y022069D02*
X020573D01*
X019878Y022274D02*
X020082Y022069D01*
X019878Y021578D02*
X019978Y021478D01*
X019078Y031577D02*
Y031878D01*
X018978Y031477D02*
X019078Y031577D01*
X018728Y031727D02*
Y031878D01*
Y031727D02*
X018978Y031477D01*
X021428Y021528D02*
Y021828D01*
X025041Y031477D02*
X025377D01*
X022227Y021478D02*
X023227D01*
X022828Y021678D02*
X023778D01*
X023227Y021478D02*
X024028Y020678D01*
X023778Y021678D02*
X024028Y021428D01*
X020232Y033689D02*
X020578D01*
X019937Y034267D02*
X020232D01*
X023748Y035248D02*
X023863Y035363D01*
X023864Y035842D02*
X024103Y035603D01*
X024092Y035592D02*
X024179Y035504D01*
X024563D01*
Y035859D02*
X024563Y035859D01*
X025045Y033152D02*
X025072D01*
X024779Y033418D02*
X025045Y033152D01*
X036520Y027249D02*
Y027278D01*
Y027249D02*
X036824Y026944D01*
X037628Y025637D02*
X037724Y025541D01*
X037474Y025637D02*
X037628D01*
X037474Y025387D02*
X037697D01*
X037788Y025478D01*
X037168D02*
Y026355D01*
X038344Y027651D02*
X038739D01*
X038210D02*
X038344D01*
X038739D02*
X038844Y027546D01*
X038074Y027787D02*
X038210Y027651D01*
X038435Y025578D02*
Y026203D01*
X038376Y026263D02*
X038435Y026203D01*
X037694Y027409D02*
X037890Y027213D01*
X039740Y026727D02*
X039794Y026781D01*
X037694Y027409D02*
Y028163D01*
X037674Y028924D02*
X037887D01*
X035544D02*
X037674D01*
Y028582D02*
Y028924D01*
X035144D02*
X035544D01*
X038074Y027787D02*
Y028737D01*
X037887Y028924D02*
X038074Y028737D01*
X036694Y031187D02*
Y031603D01*
Y030093D02*
Y031187D01*
X036380D02*
X036694D01*
X038844Y027979D02*
X039659D01*
X038339D02*
X038844D01*
X038274Y029437D02*
X038801D01*
X036800D02*
X038274D01*
X039774Y028094D02*
Y028463D01*
X038274Y028044D02*
X038339Y027979D01*
X038274Y028044D02*
Y029437D01*
X038801D02*
X039340Y028898D01*
X040048Y030827D02*
X040224Y030651D01*
Y029987D02*
Y030651D01*
X040024Y029787D02*
X040224Y029987D01*
X038000Y029787D02*
X040024D01*
X037694Y030093D02*
X038000Y029787D01*
X039863Y031013D02*
X040048Y030827D01*
X039789Y031087D02*
X039863Y031013D01*
X037744Y031087D02*
X039789D01*
X039074Y034687D02*
X039378Y034990D01*
X038774Y032237D02*
X039074Y032537D01*
X038093Y035232D02*
Y035519D01*
X037924Y035687D02*
X038093Y035519D01*
X036958Y035687D02*
X037924D01*
X034304Y033804D02*
X035593D01*
X034712Y033621D02*
X035458D01*
X033993Y034104D02*
X034218Y034330D01*
X033888Y033999D02*
X033993Y034104D01*
X033888Y034428D02*
X034120D01*
X034218Y034330D01*
X037949Y032321D02*
Y032637D01*
X037574Y033621D02*
X037799D01*
X037574D02*
Y034194D01*
X037799Y033621D02*
X038174Y033246D01*
X038093Y035069D02*
X038274Y034887D01*
X038093Y035069D02*
Y035232D01*
X034371Y038276D02*
X034715D01*
X034015Y038578D02*
Y038785D01*
X033859Y038422D02*
X034015Y038578D01*
X033859Y038196D02*
Y038422D01*
X029484Y035209D02*
X029665Y035028D01*
X025374Y032837D02*
X025617Y033079D01*
X025645D01*
X020254Y032468D02*
X020594D01*
X025645Y033916D02*
Y034162D01*
X025874Y033887D02*
Y033997D01*
X026039Y034162D01*
X025389Y033402D02*
X025645D01*
X025139Y033152D02*
X025389Y033402D01*
X025072Y033152D02*
X025139D01*
X023334Y033728D02*
X023478D01*
X023324Y032437D02*
Y032770D01*
X023574Y032508D02*
Y032770D01*
X023485Y033152D02*
X023593D01*
X024128D01*
X023593Y034468D02*
X024128D01*
X023485D02*
X023593D01*
X023574Y033824D02*
Y034087D01*
X023478Y033728D02*
X023574Y033824D01*
X023039Y034178D02*
X023330Y034468D01*
X022878Y034178D02*
X023039D01*
X030439Y034478D02*
Y034789D01*
X038467Y035232D02*
X038560Y035325D01*
X034243Y034504D02*
Y034804D01*
X035193Y034461D02*
Y034761D01*
X033993Y034104D02*
X034293D01*
X034704Y033404D02*
X035593D01*
X037744Y027763D02*
Y028113D01*
X037694Y028163D02*
X037744Y028113D01*
X037694Y028463D02*
X037744Y028513D01*
X037694Y028163D02*
Y028463D01*
X035502Y028559D02*
X035556Y028613D01*
X035502Y028263D02*
Y028559D01*
X035187Y028263D02*
Y028559D01*
X035144Y028601D02*
X035187Y028559D01*
X021951Y033580D02*
X022378D01*
X032920Y040759D02*
X033236D01*
X031452Y038752D02*
X031649Y038949D01*
X036694Y027644D02*
Y028163D01*
X036520Y027470D02*
X036694Y027644D01*
X036520Y027278D02*
Y027470D01*
X036835Y027278D02*
X037194D01*
X035544Y028601D02*
X035568Y028578D01*
X036128D01*
X037593Y034704D02*
X037719Y034830D01*
Y035232D01*
X023864Y035842D02*
X024128Y036105D01*
X019878Y022274D02*
X019981D01*
X019878Y021578D02*
Y021781D01*
X021674Y021281D02*
X022227D01*
X021428Y021528D02*
X021674Y021281D01*
X021669Y022069D02*
X022227D01*
X021678Y021675D02*
X022227D01*
Y021872D02*
X022633D01*
X022828Y021678D01*
X023324Y033737D02*
X023334Y033728D01*
X023324Y033737D02*
Y034087D01*
X024563Y035859D02*
Y036095D01*
X023378Y035378D02*
X023613Y035613D01*
X023578Y035248D02*
X023748D01*
X021428Y039028D02*
X021955Y039555D01*
X021828Y039128D02*
X022008D01*
X025787Y034737D02*
X026039Y034485D01*
X025787Y034737D02*
Y034812D01*
X025645Y034485D02*
Y034604D01*
X025437Y034812D02*
X025645Y034604D01*
X025072Y034468D02*
Y034797D01*
X025087Y034812D01*
X025072Y034468D02*
X026022D01*
X022878Y032618D02*
Y032700D01*
X023330Y033152D01*
X019437Y033121D02*
Y033212D01*
X019759Y033085D02*
Y033209D01*
X019437Y033121D02*
X019617Y032942D01*
X019646Y032912D02*
X020087D01*
X019617Y032942D02*
X019759Y033085D01*
X034490Y040044D02*
X034518Y040072D01*
X033774Y040044D02*
X034490D01*
X024381Y031477D02*
X025041D01*
X022821Y039941D02*
X023034Y040154D01*
X033755Y040618D02*
Y040896D01*
X033724Y040587D02*
X033755Y040618D01*
X033243Y040562D02*
X033302Y040503D01*
X032920Y040562D02*
X033243D01*
X032869Y040512D02*
X032920Y040562D01*
X032869Y040512D02*
X032874Y040508D01*
Y040384D02*
Y040508D01*
X021428Y021828D02*
X021491Y021891D01*
X021669Y022069D01*
X023233D02*
X023242Y022078D01*
X022895Y022069D02*
X023233D01*
X022227D02*
X022895D01*
X023734Y022078D02*
X024088D01*
X037949Y032321D02*
X038033Y032237D01*
X038774D01*
D91*
X039340Y028713D02*
X039948D01*
X039340Y029013D02*
X039948D01*
X039340Y028463D02*
X039774D01*
X037824Y026187D02*
Y026437D01*
Y025937D02*
Y026187D01*
X037194Y026381D02*
Y027278D01*
X039774Y028463D02*
X039948D01*
X039340Y029313D02*
X039948D01*
X039340Y030763D02*
X039948D01*
X039340Y031013D02*
X039863D01*
X039340Y031263D02*
X039948D01*
X039863Y031013D02*
X039948D01*
X037694Y031037D02*
X037744Y031087D01*
X037694Y030093D02*
Y031037D01*
X037194Y026381D02*
X037313Y026263D01*
X039340Y030413D02*
X039948D01*
X039390Y031213D02*
X039998D01*
X039390Y030463D02*
X039998D01*
X037194Y030093D02*
Y031449D01*
X037383Y031638D02*
X037744D01*
X037194Y031449D02*
X037383Y031638D01*
X037194Y027278D02*
Y028163D01*
D92*
X036694Y029412D02*
Y030093D01*
D93*
X028500Y038162D02*
X028500D01*
X029287Y037768D02*
Y037768D01*
X029878Y035996D02*
X030074Y035800D01*
X029878Y037965D02*
X030074Y038162D01*
X029681Y038162D02*
Y038162D01*
X029681Y036981D02*
Y036981D01*
X029484Y036784D02*
X029681Y036587D01*
X033302Y040826D02*
Y041084D01*
X029090Y037965D02*
Y037965D01*
X030074Y037768D02*
X030094D01*
X029661Y037355D02*
Y037374D01*
X029484Y036784D02*
Y036784D01*
X029878Y037571D02*
X030074Y037768D01*
X029878Y037571D02*
Y037571D01*
Y037965D02*
Y037965D01*
X029484Y037571D02*
Y037571D01*
X028696Y036784D02*
Y036784D01*
Y037965D02*
Y037965D01*
X028893Y036587D02*
X028893D01*
D94*
X028500Y038162D02*
X028696Y037965D01*
X028500Y037768D02*
X028696Y037571D01*
X029090Y037965D02*
X029287Y038162D01*
X029090Y037178D02*
X029287Y037374D01*
X029484Y037178D02*
X029661Y037355D01*
X029484Y037571D02*
X029681Y037768D01*
X029484Y037965D02*
X029681Y038162D01*
X029090Y037571D02*
X029287Y037768D01*
X028500Y036587D02*
X028696Y036784D01*
X028893Y036587D02*
X029090Y036784D01*
X028500Y037374D02*
X028696Y037178D01*
D95*
X019929Y033532D02*
X020994Y032468D01*
X019617Y033532D02*
X019929D01*
X019824Y032237D02*
Y032734D01*
Y032237D02*
X020024Y032037D01*
X024567Y032492D02*
Y032778D01*
Y033063D01*
X024128Y032778D02*
X024567D01*
X020974Y032987D02*
Y033287D01*
X021391Y033703D01*
X021828D01*
X022513Y032826D02*
X022878Y033191D01*
X022513Y032175D02*
Y032826D01*
X022374Y032037D02*
X022513Y032175D01*
X020024Y032037D02*
X022374D01*
X020628Y033487D02*
Y034104D01*
X021002Y032468D02*
X021518D01*
X022878Y033238D02*
Y033524D01*
X020652Y034128D02*
Y034795D01*
X021006Y035149D01*
X024567Y034094D02*
Y034380D01*
Y033808D02*
Y034094D01*
X024128D02*
X024567D01*
X019617Y032942D02*
X019646Y032912D01*
X019824Y032734D01*
D96*
X030074Y035406D02*
X030074D01*
X029878Y035603D02*
X030074Y035406D01*
X029878Y035209D02*
X030074Y035012D01*
X029878Y035603D02*
X029878D01*
Y035209D02*
Y035209D01*
Y036784D02*
X030074Y036587D01*
X029878Y037178D02*
X030074Y037374D01*
X029878Y037178D02*
X029878D01*
X031059D02*
X031059D01*
X030862Y037374D02*
X031059Y037178D01*
D97*
X033614Y027226D02*
D03*
X035730Y025110D02*
D03*
D98*
X024169Y040327D02*
D03*
X033187Y024912D02*
D03*
X024287Y018912D02*
D03*
X021537Y024662D02*
D03*
X024287D02*
D03*
D99*
X040887Y034012D02*
D03*
Y034512D02*
D03*
Y032012D02*
D03*
Y032512D02*
D03*
Y033012D02*
D03*
Y033512D02*
D03*
D100*
X035478Y026278D02*
D03*
X035128Y026628D02*
D03*
X034778Y026978D02*
D03*
D101*
X019528Y036978D02*
D03*
X018128Y031828D02*
D03*
Y030228D02*
D03*
Y024678D02*
D03*
Y025878D02*
D03*
Y027078D02*
D03*
Y028278D02*
D03*
X025828Y018078D02*
D03*
X021028Y038628D02*
D03*
X021428Y039028D02*
D03*
X020628Y038228D02*
D03*
X020228Y037828D02*
D03*
X019878Y037378D02*
D03*
X019178Y036528D02*
D03*
D102*
X018928Y033237D02*
D03*
Y034418D02*
D03*
D103*
X026928Y040528D02*
D03*
D104*
X026928Y041528D02*
D03*
D105*
X018128Y025328D02*
D03*
Y026528D02*
D03*
Y027728D02*
D03*
Y028928D02*
D03*
D106*
X025978Y041328D02*
D03*
D107*
X024028Y020678D02*
D03*
Y021428D02*
D03*
D108*
X026702Y024278D02*
D03*
Y022478D02*
D03*
Y021578D02*
D03*
Y019778D02*
D03*
Y017978D02*
D03*
X026702Y023378D02*
D03*
X026702Y018878D02*
D03*
Y020678D02*
D03*
Y025178D02*
D03*
D109*
X026252Y017628D02*
D03*
Y023928D02*
D03*
Y023028D02*
D03*
Y022128D02*
D03*
Y021228D02*
D03*
Y020328D02*
D03*
Y019428D02*
D03*
Y018528D02*
D03*
Y024828D02*
D03*
D110*
X030404Y040354D02*
D03*
X028652D02*
D03*
D111*
X031132Y041536D02*
D03*
X027923D02*
D03*
D112*
X024855Y034111D02*
D03*
X037535Y037541D02*
D03*
X037825Y037521D02*
D03*
X029261Y019535D02*
D03*
X030695Y041851D02*
D03*
X027485Y041741D02*
D03*
X020315Y034001D02*
D03*
X031655Y036591D02*
D03*
X038795Y021634D02*
D03*
X030335Y039791D02*
D03*
X025887Y040262D02*
D03*
X025737Y039412D02*
D03*
X025887Y039712D02*
D03*
X025187Y039012D02*
D03*
X025437D02*
D03*
X024637Y039262D02*
D03*
X023387Y039356D02*
D03*
X029287Y038556D02*
D03*
X031987Y024612D02*
D03*
X037387Y039262D02*
D03*
X035387Y031862D02*
D03*
Y031612D02*
D03*
Y031362D02*
D03*
X035437Y031062D02*
D03*
X035787D02*
D03*
X035987Y031212D02*
D03*
X039087Y027162D02*
D03*
X038737Y027212D02*
D03*
X038487Y027312D02*
D03*
X038287Y027162D02*
D03*
X038487Y026962D02*
D03*
X038837D02*
D03*
X039087Y026812D02*
D03*
X038937Y026512D02*
D03*
Y026012D02*
D03*
X039187Y026262D02*
D03*
X039437D02*
D03*
X039687D02*
D03*
X039937D02*
D03*
X040187D02*
D03*
X039087Y036662D02*
D03*
X032887Y034736D02*
D03*
X033387Y034912D02*
D03*
X033087D02*
D03*
X032887Y034428D02*
D03*
Y034148D02*
D03*
X033137Y034012D02*
D03*
X033987Y035262D02*
D03*
X033950Y035549D02*
D03*
X034304D02*
D03*
X038824Y033087D02*
D03*
Y033337D02*
D03*
X026590Y037374D02*
D03*
X026472Y034402D02*
D03*
X026590Y037768D02*
D03*
X026610Y035996D02*
D03*
X025941D02*
D03*
X029287Y039343D02*
D03*
X027319Y038949D02*
D03*
X040621Y024928D02*
D03*
X036321Y023028D02*
D03*
X039337Y023862D02*
D03*
X039787D02*
D03*
X021687Y030362D02*
D03*
X020487Y030112D02*
D03*
Y029762D02*
D03*
Y030562D02*
D03*
X031797Y035802D02*
D03*
X033977Y026732D02*
D03*
X031817Y034552D02*
D03*
X032297Y035612D02*
D03*
X032407Y035192D02*
D03*
X031107Y034602D02*
D03*
X030877Y034422D02*
D03*
X030507Y034122D02*
D03*
X033417Y023462D02*
D03*
X033067D02*
D03*
X032717D02*
D03*
X031217Y025192D02*
D03*
X031197Y024942D02*
D03*
X031237Y024212D02*
D03*
X032057Y023622D02*
D03*
X031858Y023460D02*
D03*
X032107Y022832D02*
D03*
X031900Y022475D02*
D03*
X029777Y024812D02*
D03*
X038897Y036852D02*
D03*
X034797Y036752D02*
D03*
X034837Y038012D02*
D03*
X035291Y036499D02*
D03*
X035645D02*
D03*
X030057Y040072D02*
D03*
X031547Y041492D02*
D03*
X028347Y041872D02*
D03*
X031846Y041626D02*
D03*
X030212Y041056D02*
D03*
X036374Y038063D02*
D03*
X028893Y039343D02*
D03*
X032200Y036272D02*
D03*
X028539Y041213D02*
D03*
X019937Y036462D02*
D03*
X028106Y038162D02*
D03*
X028500Y038162D02*
D03*
X028106Y038556D02*
D03*
X028500Y037768D02*
D03*
X033837Y021112D02*
D03*
X033587D02*
D03*
X031256Y036587D02*
D03*
X037637Y023012D02*
D03*
X036487Y022162D02*
D03*
X037887Y023962D02*
D03*
X035371Y023378D02*
D03*
X035987Y024462D02*
D03*
X038387Y024162D02*
D03*
X040621Y024578D02*
D03*
X038987Y025612D02*
D03*
X038971Y025328D02*
D03*
X039921Y025678D02*
D03*
Y025328D02*
D03*
X035687Y021762D02*
D03*
X036087Y021756D02*
D03*
X035037Y021762D02*
D03*
X035437Y021756D02*
D03*
Y020562D02*
D03*
X035037Y020568D02*
D03*
X035687D02*
D03*
X036087Y020562D02*
D03*
X036074Y022225D02*
D03*
X037921Y021278D02*
D03*
X037853Y021678D02*
D03*
X038787Y021372D02*
D03*
X038387Y023262D02*
D03*
X039037Y023212D02*
D03*
X031347Y020682D02*
D03*
X031907Y020542D02*
D03*
X031959Y021013D02*
D03*
X031555Y021584D02*
D03*
X031547Y021832D02*
D03*
X031657Y022342D02*
D03*
X032647Y020642D02*
D03*
X032987Y020682D02*
D03*
X031137Y021062D02*
D03*
X033317Y021092D02*
D03*
X031587Y017142D02*
D03*
X031780Y017719D02*
D03*
X030747Y018572D02*
D03*
X029612Y017943D02*
D03*
X029199Y017931D02*
D03*
X030287Y018512D02*
D03*
X029047Y018822D02*
D03*
X028807Y022662D02*
D03*
X029337Y021372D02*
D03*
X035988Y019832D02*
D03*
X035588Y019742D02*
D03*
X033816Y020341D02*
D03*
X033737Y019372D02*
D03*
X028627Y019662D02*
D03*
X029817Y020452D02*
D03*
X033677Y021442D02*
D03*
X029347Y020972D02*
D03*
X028675Y020455D02*
D03*
X030108Y023510D02*
D03*
X029708Y023437D02*
D03*
X030958Y023498D02*
D03*
X031358Y023460D02*
D03*
X031196Y022571D02*
D03*
X033736Y022611D02*
D03*
X034149Y022599D02*
D03*
Y021717D02*
D03*
X033736Y021705D02*
D03*
X033317Y022310D02*
D03*
X031217Y022314D02*
D03*
X030742Y021470D02*
D03*
X034372Y020078D02*
D03*
X032889Y018694D02*
D03*
X032728Y017418D02*
D03*
X032328Y017326D02*
D03*
X032373Y021454D02*
D03*
X032870D02*
D03*
X032867Y021981D02*
D03*
X032358Y021973D02*
D03*
X030744Y021961D02*
D03*
X030244Y017343D02*
D03*
X029199Y017089D02*
D03*
X029612Y017077D02*
D03*
X032731Y035978D02*
D03*
X034255Y036369D02*
D03*
X033900D02*
D03*
X033635Y036749D02*
D03*
X027318Y038162D02*
D03*
X026610Y035603D02*
D03*
X029287Y038162D02*
D03*
Y037768D02*
D03*
X031098Y040741D02*
D03*
X030840Y040739D02*
D03*
X028616Y034146D02*
D03*
X022948Y038693D02*
D03*
X022732Y038477D02*
D03*
X022653Y035327D02*
D03*
X023913Y036784D02*
D03*
X027338Y033772D02*
D03*
X025924Y032537D02*
D03*
X024051Y031744D02*
D03*
X023126Y031961D02*
D03*
X022752Y031843D02*
D03*
X027043Y033949D02*
D03*
X025165Y031978D02*
D03*
X024307Y031981D02*
D03*
X027667Y034146D02*
D03*
X020938Y034478D02*
D03*
X021288D02*
D03*
X020547Y035268D02*
D03*
X020724Y035445D02*
D03*
X020901Y035622D02*
D03*
X021078Y035800D02*
D03*
X021098Y036272D02*
D03*
X019759Y033209D02*
D03*
X020087Y032912D02*
D03*
X021984Y038615D02*
D03*
X021078Y036626D02*
D03*
X026433Y038851D02*
D03*
X025094Y034185D02*
D03*
X025349Y034162D02*
D03*
X018882Y035939D02*
D03*
X026826Y038752D02*
D03*
Y038359D02*
D03*
X021228Y021928D02*
D03*
X019978Y021478D02*
D03*
X018628Y030278D02*
D03*
X019078Y031878D02*
D03*
X018728D02*
D03*
X021208Y021078D02*
D03*
X021218Y021378D02*
D03*
X021225Y021675D02*
D03*
X023882Y026569D02*
D03*
Y027868D02*
D03*
Y029169D02*
D03*
Y030468D02*
D03*
X024108Y027999D02*
D03*
Y026697D02*
D03*
Y029297D02*
D03*
Y030597D02*
D03*
X024428Y030228D02*
D03*
Y028928D02*
D03*
Y027628D02*
D03*
Y026328D02*
D03*
X020190Y025965D02*
D03*
X019132Y034839D02*
D03*
X019632Y031989D02*
D03*
X020232Y033689D02*
D03*
Y034267D02*
D03*
X019578Y030605D02*
D03*
X020173Y028850D02*
D03*
X019578Y029855D02*
D03*
Y029105D02*
D03*
X019628Y027105D02*
D03*
Y027605D02*
D03*
X019328Y030305D02*
D03*
X019582Y026213D02*
D03*
X019028Y028729D02*
D03*
X019228Y035819D02*
D03*
X019326Y034146D02*
D03*
X019878Y035111D02*
D03*
X026826Y036390D02*
D03*
Y037178D02*
D03*
X024563D02*
D03*
X022397Y034973D02*
D03*
X026826Y035209D02*
D03*
X028500Y035800D02*
D03*
X025429Y035406D02*
D03*
X024779Y033418D02*
D03*
X026590Y035012D02*
D03*
X037824Y026437D02*
D03*
Y026187D02*
D03*
Y025937D02*
D03*
X037474Y025637D02*
D03*
Y025387D02*
D03*
X035524Y037587D02*
D03*
X035174Y037589D02*
D03*
X036574Y038287D02*
D03*
X036224Y038337D02*
D03*
X035874Y038387D02*
D03*
Y039337D02*
D03*
X036674Y039237D02*
D03*
X036224Y039287D02*
D03*
X034715Y038276D02*
D03*
X030862Y039737D02*
D03*
Y038949D02*
D03*
X030074Y035406D02*
D03*
X028893Y035800D02*
D03*
X029681Y035406D02*
D03*
X030074Y035012D02*
D03*
X030468Y035800D02*
D03*
X030862Y036193D02*
D03*
X030074Y035800D02*
D03*
X029665Y035028D02*
D03*
X030862Y035012D02*
D03*
Y036587D02*
D03*
X028500Y038556D02*
D03*
Y038949D02*
D03*
X028106Y039343D02*
D03*
X026826Y036784D02*
D03*
X028106Y037768D02*
D03*
X025874Y033916D02*
D03*
X024567Y032492D02*
D03*
X025645Y033916D02*
D03*
X024567Y032778D02*
D03*
X030862Y037768D02*
D03*
Y038556D02*
D03*
Y039343D02*
D03*
X028106Y038949D02*
D03*
X028893Y036193D02*
D03*
X030074Y038162D02*
D03*
X029681D02*
D03*
X025374Y032837D02*
D03*
X026148Y032387D02*
D03*
X020474Y027537D02*
D03*
X020174Y026387D02*
D03*
X020594Y032468D02*
D03*
X020974Y032987D02*
D03*
X023324Y032770D02*
D03*
X023574D02*
D03*
X024567Y033063D02*
D03*
X023574Y034087D02*
D03*
X030074Y036981D02*
D03*
X027978Y034528D02*
D03*
X030439Y034789D02*
D03*
X027152Y017928D02*
D03*
X028675Y017755D02*
D03*
X027152Y018828D02*
D03*
X028675Y018655D02*
D03*
X027152Y019728D02*
D03*
Y020628D02*
D03*
Y021528D02*
D03*
X028675Y021355D02*
D03*
X027152Y022428D02*
D03*
X028675Y022255D02*
D03*
X027152Y023328D02*
D03*
X028675Y023155D02*
D03*
X027152Y024228D02*
D03*
X028675Y024055D02*
D03*
X028675Y024955D02*
D03*
X027152Y025128D02*
D03*
X038824Y034587D02*
D03*
Y034337D02*
D03*
Y034087D02*
D03*
Y033837D02*
D03*
Y033587D02*
D03*
X030074Y036587D02*
D03*
X029681Y036981D02*
D03*
X029681Y036587D02*
D03*
X033302Y041084D02*
D03*
X030074Y037374D02*
D03*
X029287D02*
D03*
X030094Y037768D02*
D03*
X029661Y037374D02*
D03*
X029681Y037768D02*
D03*
X028500Y036587D02*
D03*
Y037374D02*
D03*
X028893Y036587D02*
D03*
X022378Y034128D02*
D03*
X032554Y040661D02*
D03*
X032161D02*
D03*
X031649Y038949D02*
D03*
X024128Y036105D02*
D03*
X023263Y037642D02*
D03*
Y036863D02*
D03*
X021678Y021675D02*
D03*
X023324Y034087D02*
D03*
X024995Y036115D02*
D03*
X024563Y036095D02*
D03*
X024567Y034380D02*
D03*
Y033808D02*
D03*
Y034094D02*
D03*
X023421Y034776D02*
D03*
X023378Y035378D02*
D03*
X023578Y035248D02*
D03*
X021828Y039128D02*
D03*
X036487Y037412D02*
D03*
X037487Y038912D02*
D03*
X037787D02*
D03*
X026787Y034612D02*
D03*
X025787Y034812D02*
D03*
X025437D02*
D03*
X025087D02*
D03*
X019437Y033212D02*
D03*
X018987Y032262D02*
D03*
X032537Y020012D02*
D03*
X033794Y039664D02*
D03*
X033374Y036654D02*
D03*
X033794Y039104D02*
D03*
X033483Y040256D02*
D03*
X033774Y040044D02*
D03*
X033214Y037854D02*
D03*
Y037504D02*
D03*
X032684Y036284D02*
D03*
X031634Y039974D02*
D03*
X021844Y036324D02*
D03*
X022054Y034594D02*
D03*
X022284Y037654D02*
D03*
X024381Y031477D02*
D03*
X023034Y040154D02*
D03*
X023984Y038854D02*
D03*
X022614Y037694D02*
D03*
Y037394D02*
D03*
X019094Y033704D02*
D03*
X030862Y037374D02*
D03*
X034735Y040821D02*
D03*
X036935Y039521D02*
D03*
X031535Y034801D02*
D03*
X024345Y036741D02*
D03*
X033724Y040587D02*
D03*
X032874Y040384D02*
D03*
X025455Y039421D02*
D03*
X024345Y037001D02*
D03*
X033387Y034012D02*
D03*
X021669Y022069D02*
D03*
X021491Y021891D02*
D03*
X022895Y022069D02*
D03*
X024088Y022078D02*
D03*
X029815Y023011D02*
D03*
X032055Y017581D02*
D03*
X031895Y017181D02*
D03*
X032905Y041431D02*
D03*
X030525Y041181D02*
D03*
X030745Y041351D02*
D03*
X029037Y023402D02*
D03*
X029335Y023559D02*
D03*
X031562Y021294D02*
D03*
X038955Y021921D02*
D03*
X037192Y037533D02*
D03*
X025955Y032151D02*
D03*
X029178Y033967D02*
D03*
X031417Y033592D02*
D03*
X031207Y025482D02*
D03*
X029628Y033967D02*
D03*
X025435Y040411D02*
D03*
X031065Y040101D02*
D03*
X031495Y040381D02*
D03*
X029775Y021053D02*
D03*
X030074Y038949D02*
D03*
X026587Y038062D02*
D03*
M02*
