G04 Layer_Color=15132400*
%FSAX24Y24*%
%MOIN*%
G70*
G01*
G75*
%ADD89C,0.0060*%
%ADD90C,0.0100*%
%ADD135C,0.0098*%
%ADD136C,0.0157*%
%ADD137C,0.0236*%
%ADD138C,0.0197*%
%ADD139C,0.0039*%
%ADD140C,0.0500*%
%ADD141C,0.0079*%
%ADD142C,0.0050*%
%ADD143C,0.0040*%
%ADD144C,0.0020*%
%ADD145C,0.0059*%
D89*
X021296Y034652D02*
X021367Y034723D01*
X021225Y034723D02*
X021296Y034652D01*
X021225Y034582D02*
X021296Y034652D01*
X021367Y034582D01*
D90*
X036858Y033975D02*
G03*
X036858Y033975I-001181J000000D01*
G01*
X040875Y029863D02*
G03*
X040875Y029863I-001181J000000D01*
G01*
X032072Y039978D02*
G03*
X032072Y039978I-000032J000000D01*
G01*
X026478Y040028D02*
G03*
X026478Y040028I-000050J000000D01*
G01*
X033661Y029528D02*
G03*
X033661Y029528I-004134J000000D01*
G01*
X035037Y020612D02*
X035437D01*
X035687D02*
X036087D01*
X033565Y037996D02*
Y038396D01*
X021238Y032696D02*
Y033259D01*
X020017Y032696D02*
Y033259D01*
Y032696D02*
X021238D01*
X020017Y033259D02*
X021238D01*
X037173Y032479D02*
Y035471D01*
X034181Y032479D02*
X037173D01*
X034181D02*
Y035471D01*
X037173D01*
X037924Y034291D02*
X038474D01*
X037924Y034191D02*
Y034291D01*
Y034191D02*
X038474D01*
Y034291D01*
X021137Y022062D02*
X021387Y022285D01*
X030737Y019042D02*
X030987Y018812D01*
X035960Y029162D02*
X036337Y028813D01*
X038198Y031359D02*
X041190D01*
Y028367D02*
Y031359D01*
X038198Y028367D02*
X041190D01*
X038198D02*
Y031359D01*
X026428Y041878D02*
X026528Y041978D01*
X026428Y041878D02*
X026428Y041178D01*
X026578Y041028D01*
X026428Y040878D02*
X026578Y041028D01*
X026428Y040278D02*
Y040878D01*
X027328Y041978D02*
X027428Y041878D01*
X026528Y041978D02*
X027328D01*
X026678Y040028D02*
X027328D01*
X027428Y040128D01*
Y040878D01*
X027278Y041028D02*
X027428Y040878D01*
X027278Y041028D02*
X027428Y041178D01*
Y041878D01*
X029528Y029278D02*
Y029778D01*
X029278Y029528D02*
X029778D01*
D135*
X031110Y019613D02*
G03*
X031110Y019613I-000049J000000D01*
G01*
X032491Y019491D02*
G03*
X032491Y019491I-000049J000000D01*
G01*
X039852Y024657D02*
G03*
X039852Y024657I-000049J000000D01*
G01*
X031674Y022509D02*
G03*
X031674Y022509I-000049J000000D01*
G01*
X029574D02*
G03*
X029574Y022509I-000049J000000D01*
G01*
X037030Y039135D02*
G03*
X037030Y039135I-000049J000000D01*
G01*
X034827Y037510D02*
G03*
X034827Y037510I-000049J000000D01*
G01*
X034192Y040584D02*
G03*
X034192Y040584I-000049J000000D01*
G01*
X037433Y035232D02*
G03*
X037433Y035232I-000049J000000D01*
G01*
X035889Y028163D02*
G03*
X035889Y028163I-000049J000000D01*
G01*
X037232Y030733D02*
G03*
X037232Y030733I-000049J000000D01*
G01*
X032510Y037496D02*
G03*
X032510Y037496I-000020J000000D01*
G01*
X033125Y040129D02*
G03*
X033125Y040129I-000039J000000D01*
G01*
X020622Y022344D02*
G03*
X020622Y022344I-000049J000000D01*
G01*
D136*
X033259Y019117D02*
G03*
X033259Y019117I-000079J000000D01*
G01*
X031821Y022509D02*
X032018D01*
X033396Y022313D02*
Y022509D01*
X033199Y020935D02*
X033396D01*
X031821D02*
Y021131D01*
X033396Y020935D02*
Y021131D01*
X031821Y020935D02*
X032018D01*
X031821Y022313D02*
Y022509D01*
X033199D02*
X033396D01*
X029721D02*
X029918D01*
X031296Y022313D02*
Y022509D01*
X031099Y020935D02*
X031296D01*
X029721D02*
Y021131D01*
X031296Y020935D02*
Y021131D01*
X029721Y020935D02*
X029918D01*
X029721Y022313D02*
Y022509D01*
X031099D02*
X031296D01*
D137*
X039478Y023771D02*
G03*
X039478Y023771I-000118J000000D01*
G01*
D138*
X027220Y034422D02*
G03*
X027220Y034422I-000098J000000D01*
G01*
X025533Y025375D02*
G03*
X025533Y025375I-000079J000000D01*
G01*
D139*
X028563Y041428D02*
G03*
X028563Y041428I-000020J000000D01*
G01*
X038694Y028163D02*
X038994D01*
X038702Y025625D02*
Y026900D01*
X036986Y025625D02*
Y026900D01*
X039156Y026454D02*
X040432D01*
X039156Y028171D02*
X040432D01*
D140*
X040887Y033012D02*
Y033112D01*
Y033512D01*
Y034012D02*
Y034512D01*
D141*
X029742Y018511D02*
Y019042D01*
X031002Y018511D02*
Y019042D01*
X029742Y018511D02*
X031002D01*
X029742Y019042D02*
X031002D01*
X032865Y018212D02*
Y019432D01*
X033652Y018212D02*
Y019432D01*
X032865D02*
X033652D01*
X032865Y018212D02*
X033652D01*
X037746Y024165D02*
X039754D01*
X037746Y022905D02*
X039754D01*
Y024165D01*
X037746Y022905D02*
Y024165D01*
X038696Y027704D02*
Y027822D01*
X038992Y027704D02*
Y027822D01*
X037309Y038962D02*
X037630D01*
Y038702D02*
Y038962D01*
X037309Y037812D02*
X037630D01*
Y038072D01*
X035250Y037392D02*
X035407D01*
Y037077D02*
Y037392D01*
X035250Y036211D02*
X035407D01*
Y036526D01*
X037285Y036266D02*
Y036542D01*
X036300Y036266D02*
Y036542D01*
X026728Y035012D02*
X026925Y034815D01*
X026728D02*
Y039933D01*
X031846D01*
Y034815D02*
Y039933D01*
X026728Y034815D02*
X031846D01*
X024502Y034685D02*
X024698D01*
X024502Y033504D02*
X024698D01*
X024502D02*
Y034685D01*
X024698Y033504D02*
Y034685D01*
X024502Y033368D02*
X024698D01*
X024502Y032187D02*
X024698D01*
X024502D02*
Y033368D01*
X024698Y032187D02*
Y033368D01*
X037502Y035803D02*
X038683D01*
X037502Y035606D02*
X038683D01*
Y035803D01*
X037502Y035606D02*
Y035803D01*
X035960Y028813D02*
X037928D01*
X035960Y029443D02*
X037928D01*
X035960Y028813D02*
Y029443D01*
X037928Y028813D02*
Y029443D01*
X036587Y030847D02*
Y031378D01*
X036902Y030847D02*
Y031378D01*
X036587D02*
X036902D01*
X036587Y030847D02*
X036902D01*
X028937Y040509D02*
Y040746D01*
X029862Y041920D02*
X030118D01*
X029862D02*
Y042195D01*
X028937Y041920D02*
X029193D01*
Y042195D01*
X028937Y040935D02*
X030118D01*
X029193Y042195D02*
X029862D01*
X018059Y031618D02*
X018296D01*
X021695Y034167D02*
X022728Y035201D01*
X019467Y036395D02*
X020501Y037428D01*
X019467Y036395D02*
X019704Y036158D01*
X020428Y036882D01*
X021458Y034404D02*
X022182Y035128D01*
X021458Y034404D02*
X021695Y034167D01*
X022009Y022619D02*
X025159Y022619D01*
X024371Y032068D02*
X025159Y032068D01*
X025159Y031910D02*
X025159Y032068D01*
Y022619D02*
Y025375D01*
X018859D02*
X018859Y025375D01*
X018859Y022619D02*
Y025375D01*
Y022619D02*
X022009Y022619D01*
X018859Y031910D02*
Y032068D01*
X019647D01*
X021124Y021065D02*
Y022285D01*
X021676Y021065D02*
Y022285D01*
X021124D02*
X021676D01*
X021124Y021065D02*
X021676D01*
D142*
X037667Y025869D02*
Y026656D01*
X029627Y023913D02*
X029906D01*
X029627Y024292D02*
X029906D01*
Y023913D02*
Y024292D01*
X029627Y023913D02*
Y024292D01*
X031097Y024013D02*
X031376D01*
X031097Y024392D02*
X031376D01*
Y024013D02*
Y024392D01*
X031097Y024013D02*
Y024392D01*
X037666Y025338D02*
Y025617D01*
X037288Y025338D02*
Y025617D01*
X037666D01*
X037288Y025338D02*
X037666D01*
X034253Y040756D02*
Y041035D01*
X033875Y040756D02*
Y041035D01*
X034253D01*
X033875Y040756D02*
X034253D01*
X022738Y034056D02*
X023018D01*
X022738Y033678D02*
X023018D01*
X022738D02*
Y034056D01*
X023018Y033678D02*
Y034056D01*
X022738Y032739D02*
X023017D01*
X022738Y033118D02*
X023017D01*
Y032739D02*
Y033118D01*
X022738Y032739D02*
Y033118D01*
X022367Y039684D02*
X022565Y039487D01*
X022100Y039417D02*
X022297Y039219D01*
X022100Y039417D02*
X022367Y039684D01*
X022297Y039219D02*
X022565Y039487D01*
X022370Y039688D02*
X022567Y039490D01*
X022637Y039955D02*
X022835Y039758D01*
X022567Y039490D02*
X022835Y039758D01*
X022370Y039688D02*
X022637Y039955D01*
X034069Y037538D02*
Y037818D01*
X034448Y037538D02*
Y037818D01*
X034069Y037538D02*
X034448D01*
X034069Y037818D02*
X034448D01*
X034056Y037538D02*
Y037817D01*
X033678Y037538D02*
Y037817D01*
X034056D01*
X033678Y037538D02*
X034056D01*
X034625Y035722D02*
Y036001D01*
X034247Y035722D02*
Y036001D01*
X034625D01*
X034247Y035722D02*
X034625D01*
X037534Y036749D02*
X037814D01*
X037534Y037127D02*
X037814D01*
Y036749D02*
Y037127D01*
X037534Y036749D02*
Y037127D01*
X039400Y027490D02*
X040188D01*
X037494Y031963D02*
X037994D01*
X033389Y034288D02*
Y034568D01*
X033768Y034288D02*
Y034568D01*
X033389Y034288D02*
X033768D01*
X033389Y034568D02*
X033768D01*
X029578Y040628D02*
Y040728D01*
X029478Y040628D02*
X029578Y040728D01*
X029478Y040628D02*
X029578Y040528D01*
Y040628D01*
X029478Y040528D02*
Y040728D01*
X018178Y030978D02*
X018278D01*
X018178Y031078D02*
X018278Y030978D01*
X018078D02*
X018178Y031078D01*
X018078Y030978D02*
X018178D01*
X018078Y031078D02*
X018278D01*
X036275Y031522D02*
Y031801D01*
X035897Y031522D02*
Y031801D01*
X036275D01*
X035897Y031522D02*
X036275D01*
D143*
X036986Y026900D02*
X038702D01*
X036986Y025625D02*
X038702D01*
X040432Y026454D02*
Y028171D01*
X039156Y026454D02*
Y028171D01*
D144*
X018278Y034428D02*
Y035328D01*
Y032328D02*
Y033278D01*
X025448Y038265D02*
X025648D01*
X025548D01*
Y037965D01*
X025748D02*
Y038265D01*
X025898D01*
X025948Y038215D01*
Y038115D01*
X025898Y038065D01*
X025748D01*
X026048Y037965D02*
X026148D01*
X026098D01*
Y038265D01*
X026048Y038215D01*
X041087Y026162D02*
Y025962D01*
Y026062D01*
X040787D01*
Y025862D02*
X041087D01*
Y025712D01*
X041037Y025662D01*
X040937D01*
X040887Y025712D01*
Y025862D01*
X040787Y025412D02*
X041087D01*
X040937Y025562D01*
Y025362D01*
X041037Y025262D02*
X041087Y025212D01*
Y025112D01*
X041037Y025062D01*
X040837D01*
X040787Y025112D01*
Y025212D01*
X040837Y025262D01*
X041037D01*
X033617Y023812D02*
X033817D01*
X033717D01*
Y023512D01*
X033917D02*
Y023812D01*
X034067D01*
X034117Y023762D01*
Y023662D01*
X034067Y023612D01*
X033917D01*
X034417Y023512D02*
X034217D01*
X034417Y023712D01*
Y023762D01*
X034367Y023812D01*
X034267D01*
X034217Y023762D01*
X034517D02*
X034567Y023812D01*
X034667D01*
X034717Y023762D01*
Y023712D01*
X034667Y023662D01*
X034717Y023612D01*
Y023562D01*
X034667Y023512D01*
X034567D01*
X034517Y023562D01*
Y023612D01*
X034567Y023662D01*
X034517Y023712D01*
Y023762D01*
X034567Y023662D02*
X034667D01*
X033387Y018212D02*
X033587D01*
X033487D01*
Y017912D01*
X033687D02*
Y018212D01*
X033837D01*
X033887Y018162D01*
Y018062D01*
X033837Y018012D01*
X033687D01*
X034187Y017912D02*
X033987D01*
X034187Y018112D01*
Y018162D01*
X034137Y018212D01*
X034037D01*
X033987Y018162D01*
X034487Y018212D02*
X034387Y018162D01*
X034287Y018062D01*
Y017962D01*
X034337Y017912D01*
X034437D01*
X034487Y017962D01*
Y018012D01*
X034437Y018062D01*
X034287D01*
X028637Y020012D02*
X028837D01*
X028737D01*
Y019712D01*
X028937D02*
Y020012D01*
X029087D01*
X029137Y019962D01*
Y019862D01*
X029087Y019812D01*
X028937D01*
X029437Y019712D02*
X029237D01*
X029437Y019912D01*
Y019962D01*
X029387Y020012D01*
X029287D01*
X029237Y019962D01*
X029737Y020012D02*
X029537D01*
Y019862D01*
X029637Y019912D01*
X029687D01*
X029737Y019862D01*
Y019762D01*
X029687Y019712D01*
X029587D01*
X029537Y019762D01*
X028987Y019262D02*
Y019062D01*
Y019162D01*
X028687D01*
Y018962D02*
X028987D01*
Y018812D01*
X028937Y018762D01*
X028837D01*
X028787Y018812D01*
Y018962D01*
X028687Y018462D02*
Y018662D01*
X028887Y018462D01*
X028937D01*
X028987Y018512D01*
Y018612D01*
X028937Y018662D01*
X028687Y018212D02*
X028987D01*
X028837Y018362D01*
Y018162D01*
X034437Y018562D02*
X034637D01*
X034537D01*
Y018262D01*
X034737D02*
Y018562D01*
X034887D01*
X034937Y018512D01*
Y018412D01*
X034887Y018362D01*
X034737D01*
X035237Y018262D02*
X035037D01*
X035237Y018462D01*
Y018512D01*
X035187Y018562D01*
X035087D01*
X035037Y018512D01*
X035537Y018262D02*
X035337D01*
X035537Y018462D01*
Y018512D01*
X035487Y018562D01*
X035387D01*
X035337Y018512D01*
X025287Y036162D02*
X025487D01*
X025387D01*
Y035862D01*
X025587D02*
Y036162D01*
X025737D01*
X025787Y036112D01*
Y036012D01*
X025737Y035962D01*
X025587D01*
X025887Y036162D02*
X026087D01*
Y036112D01*
X025887Y035912D01*
Y035862D01*
X025287Y035762D02*
X025487D01*
X025387D01*
Y035462D01*
X025587D02*
Y035762D01*
X025737D01*
X025787Y035712D01*
Y035612D01*
X025737Y035562D01*
X025587D01*
X026087Y035762D02*
X025987Y035712D01*
X025887Y035612D01*
Y035512D01*
X025937Y035462D01*
X026037D01*
X026087Y035512D01*
Y035562D01*
X026037Y035612D01*
X025887D01*
X025350Y037871D02*
X025550D01*
X025450D01*
Y037571D01*
X025650D02*
Y037871D01*
X025800D01*
X025850Y037821D01*
Y037721D01*
X025800Y037671D01*
X025650D01*
X026150Y037871D02*
X025950D01*
Y037721D01*
X026050Y037771D01*
X026100D01*
X026150Y037721D01*
Y037621D01*
X026100Y037571D01*
X026000D01*
X025950Y037621D01*
X025350Y037477D02*
X025550D01*
X025450D01*
Y037178D01*
X025650D02*
Y037477D01*
X025800D01*
X025850Y037427D01*
Y037328D01*
X025800Y037278D01*
X025650D01*
X026100Y037178D02*
Y037477D01*
X025950Y037328D01*
X026150D01*
X033287Y033512D02*
Y033812D01*
X033437D01*
X033487Y033762D01*
Y033662D01*
X033437Y033612D01*
X033287D01*
X033387D02*
X033487Y033512D01*
X033787Y033812D02*
X033687Y033762D01*
X033587Y033662D01*
Y033562D01*
X033637Y033512D01*
X033737D01*
X033787Y033562D01*
Y033612D01*
X033737Y033662D01*
X033587D01*
X036387Y025412D02*
Y025712D01*
X036537D01*
X036587Y025662D01*
Y025562D01*
X036537Y025512D01*
X036387D01*
X036487D02*
X036587Y025412D01*
X036837D02*
Y025712D01*
X036687Y025562D01*
X036887D01*
X026337Y040662D02*
Y040762D01*
Y040712D01*
X026087D01*
X026037Y040762D01*
Y040812D01*
X026087Y040862D01*
X026337Y040562D02*
X026087D01*
X026037Y040512D01*
Y040412D01*
X026087Y040362D01*
X026337D01*
X026287Y040062D02*
X026337Y040112D01*
Y040212D01*
X026287Y040262D01*
X026237D01*
X026187Y040212D01*
Y040112D01*
X026137Y040062D01*
X026087D01*
X026037Y040112D01*
Y040212D01*
X026087Y040262D01*
X026337Y039962D02*
X026037D01*
Y039812D01*
X026087Y039762D01*
X026137D01*
X026187Y039812D01*
Y039962D01*
Y039812D01*
X026237Y039762D01*
X026287D01*
X026337Y039812D01*
Y039962D01*
X024630Y039360D02*
Y039660D01*
X024780D01*
X024830Y039610D01*
Y039510D01*
X024780Y039460D01*
X024630D01*
X024930Y039610D02*
X024980Y039660D01*
X025080D01*
X025130Y039610D01*
Y039560D01*
X025080Y039510D01*
X025030D01*
X025080D01*
X025130Y039460D01*
Y039410D01*
X025080Y039360D01*
X024980D01*
X024930Y039410D01*
X025230Y039610D02*
X025280Y039660D01*
X025380D01*
X025430Y039610D01*
Y039560D01*
X025380Y039510D01*
X025330D01*
X025380D01*
X025430Y039460D01*
Y039410D01*
X025380Y039360D01*
X025280D01*
X025230Y039410D01*
X025030Y039760D02*
Y040060D01*
X025180D01*
X025230Y040010D01*
Y039910D01*
X025180Y039860D01*
X025030D01*
X025330Y040010D02*
X025380Y040060D01*
X025480D01*
X025530Y040010D01*
Y039960D01*
X025480Y039910D01*
X025430D01*
X025480D01*
X025530Y039860D01*
Y039810D01*
X025480Y039760D01*
X025380D01*
X025330Y039810D01*
X025830Y039760D02*
X025630D01*
X025830Y039960D01*
Y040010D01*
X025780Y040060D01*
X025680D01*
X025630Y040010D01*
X024230Y038960D02*
Y039260D01*
X024380D01*
X024430Y039210D01*
Y039110D01*
X024380Y039060D01*
X024230D01*
X024530Y039210D02*
X024580Y039260D01*
X024680D01*
X024730Y039210D01*
Y039160D01*
X024680Y039110D01*
X024630D01*
X024680D01*
X024730Y039060D01*
Y039010D01*
X024680Y038960D01*
X024580D01*
X024530Y039010D01*
X024830Y038960D02*
X024930D01*
X024880D01*
Y039260D01*
X024830Y039210D01*
X023830Y038560D02*
Y038860D01*
X023980D01*
X024030Y038810D01*
Y038710D01*
X023980Y038660D01*
X023830D01*
X024130Y038810D02*
X024180Y038860D01*
X024280D01*
X024330Y038810D01*
Y038760D01*
X024280Y038710D01*
X024230D01*
X024280D01*
X024330Y038660D01*
Y038610D01*
X024280Y038560D01*
X024180D01*
X024130Y038610D01*
X024430Y038810D02*
X024480Y038860D01*
X024580D01*
X024630Y038810D01*
Y038610D01*
X024580Y038560D01*
X024480D01*
X024430Y038610D01*
Y038810D01*
X023480Y038110D02*
Y038410D01*
X023630D01*
X023680Y038360D01*
Y038260D01*
X023630Y038210D01*
X023480D01*
X023980Y038110D02*
X023780D01*
X023980Y038310D01*
Y038360D01*
X023930Y038410D01*
X023830D01*
X023780Y038360D01*
X024080Y038160D02*
X024130Y038110D01*
X024230D01*
X024280Y038160D01*
Y038360D01*
X024230Y038410D01*
X024130D01*
X024080Y038360D01*
Y038310D01*
X024130Y038260D01*
X024280D01*
X023137Y037712D02*
Y038012D01*
X023287D01*
X023337Y037962D01*
Y037862D01*
X023287Y037812D01*
X023137D01*
X023637Y037712D02*
X023437D01*
X023637Y037912D01*
Y037962D01*
X023587Y038012D01*
X023487D01*
X023437Y037962D01*
X023737D02*
X023787Y038012D01*
X023887D01*
X023937Y037962D01*
Y037912D01*
X023887Y037862D01*
X023937Y037812D01*
Y037762D01*
X023887Y037712D01*
X023787D01*
X023737Y037762D01*
Y037812D01*
X023787Y037862D01*
X023737Y037912D01*
Y037962D01*
X023787Y037862D02*
X023887D01*
X026537Y034462D02*
X026587Y034512D01*
Y034612D01*
X026537Y034662D01*
X026337D01*
X026287Y034612D01*
Y034512D01*
X026337Y034462D01*
X026537Y034362D02*
X026587Y034312D01*
Y034212D01*
X026537Y034162D01*
X026487D01*
X026437Y034212D01*
X026387Y034162D01*
X026337D01*
X026287Y034212D01*
Y034312D01*
X026337Y034362D01*
X026387D01*
X026437Y034312D01*
X026487Y034362D01*
X026537D01*
X026437Y034312D02*
Y034212D01*
X026587Y033862D02*
X026537Y033962D01*
X026437Y034062D01*
X026337D01*
X026287Y034012D01*
Y033912D01*
X026337Y033862D01*
X026387D01*
X026437Y033912D01*
Y034062D01*
X026537Y033562D02*
X026587Y033612D01*
Y033712D01*
X026537Y033762D01*
X026337D01*
X026287Y033712D01*
Y033612D01*
X026337Y033562D01*
X026537Y033462D02*
X026587Y033412D01*
Y033312D01*
X026537Y033262D01*
X026487D01*
X026437Y033312D01*
X026387Y033262D01*
X026337D01*
X026287Y033312D01*
Y033412D01*
X026337Y033462D01*
X026387D01*
X026437Y033412D01*
X026487Y033462D01*
X026537D01*
X026437Y033412D02*
Y033312D01*
X026587Y032962D02*
Y033162D01*
X026437D01*
X026487Y033062D01*
Y033012D01*
X026437Y032962D01*
X026337D01*
X026287Y033012D01*
Y033112D01*
X026337Y033162D01*
X023452Y038880D02*
X023381Y038880D01*
X023310Y038809D01*
Y038739D01*
X023452Y038597D01*
X023522D01*
X023593Y038668D01*
X023593Y038739D01*
X023522Y038951D02*
Y039021D01*
X023593Y039092D01*
X023664Y039092D01*
X023699Y039057D01*
Y038986D01*
X023770Y038986D01*
X023805Y038951D01*
X023805Y038880D01*
X023734Y038809D01*
X023664D01*
X023628Y038845D01*
Y038915D01*
X023558Y038915D01*
X023522Y038951D01*
X023628Y038915D02*
X023699Y038986D01*
X024017Y039092D02*
X023805Y039304D01*
X023805Y039092D01*
X023946Y039233D01*
X022787Y031312D02*
X023087D01*
Y031162D01*
X023037Y031112D01*
X022937D01*
X022887Y031162D01*
Y031312D01*
Y031212D02*
X022787Y031112D01*
Y031012D02*
Y030912D01*
Y030962D01*
X023087D01*
X023037Y031012D01*
X022787Y030762D02*
Y030662D01*
Y030712D01*
X023087D01*
X023037Y030762D01*
X023087Y030512D02*
Y030312D01*
X023037D01*
X022837Y030512D01*
X022787D01*
X031437Y025462D02*
X031737D01*
Y025312D01*
X031687Y025262D01*
X031587D01*
X031537Y025312D01*
Y025462D01*
Y025362D02*
X031437Y025262D01*
Y025162D02*
Y025062D01*
Y025112D01*
X031737D01*
X031687Y025162D01*
X031437Y024912D02*
Y024812D01*
Y024862D01*
X031737D01*
X031687Y024912D01*
X031737Y024462D02*
X031687Y024562D01*
X031587Y024662D01*
X031487D01*
X031437Y024612D01*
Y024512D01*
X031487Y024462D01*
X031537D01*
X031587Y024512D01*
Y024662D01*
X029187Y024962D02*
X029487D01*
Y024812D01*
X029437Y024762D01*
X029337D01*
X029287Y024812D01*
Y024962D01*
Y024862D02*
X029187Y024762D01*
Y024662D02*
Y024562D01*
Y024612D01*
X029487D01*
X029437Y024662D01*
X029187Y024412D02*
Y024312D01*
Y024362D01*
X029487D01*
X029437Y024412D01*
X029487Y023962D02*
Y024162D01*
X029337D01*
X029387Y024062D01*
Y024012D01*
X029337Y023962D01*
X029237D01*
X029187Y024012D01*
Y024112D01*
X029237Y024162D01*
X035633Y032099D02*
Y032399D01*
X035783D01*
X035833Y032349D01*
Y032249D01*
X035783Y032199D01*
X035633D01*
X035733D02*
X035833Y032099D01*
X035933D02*
X036033D01*
X035983D01*
Y032399D01*
X035933Y032349D01*
X036183Y032099D02*
X036283D01*
X036233D01*
Y032399D01*
X036183Y032349D01*
X036583Y032099D02*
Y032399D01*
X036433Y032249D01*
X036633D01*
X036187Y037112D02*
X035937D01*
X035887Y037062D01*
Y036962D01*
X035937Y036912D01*
X036187D01*
X035887Y036812D02*
Y036712D01*
Y036762D01*
X036187D01*
X036137Y036812D01*
X036187Y036362D02*
X036137Y036462D01*
X036037Y036562D01*
X035937D01*
X035887Y036512D01*
Y036412D01*
X035937Y036362D01*
X035987D01*
X036037Y036412D01*
Y036562D01*
X021837Y021012D02*
Y020762D01*
X021887Y020712D01*
X021987D01*
X022037Y020762D01*
Y021012D01*
X022137Y020712D02*
X022237D01*
X022187D01*
Y021012D01*
X022137Y020962D01*
X022587Y021012D02*
X022387D01*
Y020862D01*
X022487Y020912D01*
X022537D01*
X022587Y020862D01*
Y020762D01*
X022537Y020712D01*
X022437D01*
X022387Y020762D01*
X037937Y036812D02*
Y036562D01*
X037987Y036512D01*
X038087D01*
X038137Y036562D01*
Y036812D01*
X038237Y036512D02*
X038337D01*
X038287D01*
Y036812D01*
X038237Y036762D01*
X038637Y036512D02*
Y036812D01*
X038487Y036662D01*
X038687D01*
X035137Y030362D02*
Y030112D01*
X035187Y030062D01*
X035287D01*
X035337Y030112D01*
Y030362D01*
X035437Y030062D02*
X035537D01*
X035487D01*
Y030362D01*
X035437Y030312D01*
X035687D02*
X035737Y030362D01*
X035837D01*
X035887Y030312D01*
Y030262D01*
X035837Y030212D01*
X035787D01*
X035837D01*
X035887Y030162D01*
Y030112D01*
X035837Y030062D01*
X035737D01*
X035687Y030112D01*
X024287Y035112D02*
Y034862D01*
X024337Y034812D01*
X024437D01*
X024487Y034862D01*
Y035112D01*
X024587Y034812D02*
X024687D01*
X024637D01*
Y035112D01*
X024587Y035062D01*
X025037Y034812D02*
X024837D01*
X025037Y035012D01*
Y035062D01*
X024987Y035112D01*
X024887D01*
X024837Y035062D01*
X023687Y032062D02*
Y031812D01*
X023737Y031762D01*
X023837D01*
X023887Y031812D01*
Y032062D01*
X023987Y031762D02*
X024087D01*
X024037D01*
Y032062D01*
X023987Y032012D01*
X024237Y031762D02*
X024337D01*
X024287D01*
Y032062D01*
X024237Y032012D01*
X034637Y041012D02*
Y040762D01*
X034687Y040712D01*
X034787D01*
X034837Y040762D01*
Y041012D01*
X034937Y040962D02*
X034987Y041012D01*
X035087D01*
X035137Y040962D01*
Y040912D01*
X035087Y040862D01*
X035137Y040812D01*
Y040762D01*
X035087Y040712D01*
X034987D01*
X034937Y040762D01*
Y040812D01*
X034987Y040862D01*
X034937Y040912D01*
Y040962D01*
X034987Y040862D02*
X035087D01*
X038937Y023962D02*
X038687D01*
X038637Y023912D01*
Y023812D01*
X038687Y023762D01*
X038937D01*
Y023662D02*
Y023462D01*
X038887D01*
X038687Y023662D01*
X038637D01*
X030037Y018962D02*
Y018712D01*
X030087Y018662D01*
X030187D01*
X030237Y018712D01*
Y018962D01*
X030537D02*
X030437Y018912D01*
X030337Y018812D01*
Y018712D01*
X030387Y018662D01*
X030487D01*
X030537Y018712D01*
Y018762D01*
X030487Y018812D01*
X030337D01*
X032987Y018862D02*
Y018612D01*
X033037Y018562D01*
X033137D01*
X033187Y018612D01*
Y018862D01*
X033487D02*
X033287D01*
Y018712D01*
X033387Y018762D01*
X033437D01*
X033487Y018712D01*
Y018612D01*
X033437Y018562D01*
X033337D01*
X033287Y018612D01*
X033587Y021662D02*
Y021412D01*
X033637Y021362D01*
X033737D01*
X033787Y021412D01*
Y021662D01*
X034037Y021362D02*
Y021662D01*
X033887Y021512D01*
X034087D01*
X032037Y041912D02*
Y041662D01*
X032087Y041612D01*
X032187D01*
X032237Y041662D01*
Y041912D01*
X032337Y041862D02*
X032387Y041912D01*
X032487D01*
X032537Y041862D01*
Y041812D01*
X032487Y041762D01*
X032437D01*
X032487D01*
X032537Y041712D01*
Y041662D01*
X032487Y041612D01*
X032387D01*
X032337Y041662D01*
X026137Y035162D02*
Y034912D01*
X026187Y034862D01*
X026287D01*
X026337Y034912D01*
Y035162D01*
X026637Y034862D02*
X026437D01*
X026637Y035062D01*
Y035112D01*
X026587Y035162D01*
X026487D01*
X026437Y035112D01*
X029087Y022062D02*
Y021812D01*
X029137Y021762D01*
X029237D01*
X029287Y021812D01*
Y022062D01*
X029387Y021762D02*
X029487D01*
X029437D01*
Y022062D01*
X029387Y022012D01*
X023485Y021233D02*
Y021033D01*
Y021133D01*
X023185D01*
Y020933D02*
X023485D01*
Y020783D01*
X023435Y020733D01*
X023335D01*
X023285Y020783D01*
Y020933D01*
X023235Y020633D02*
X023185Y020583D01*
Y020483D01*
X023235Y020433D01*
X023435D01*
X023485Y020483D01*
Y020583D01*
X023435Y020633D01*
X023385D01*
X023335Y020583D01*
Y020433D01*
X023435Y020333D02*
X023485Y020283D01*
Y020183D01*
X023435Y020133D01*
X023385D01*
X023335Y020183D01*
X023285Y020133D01*
X023235D01*
X023185Y020183D01*
Y020283D01*
X023235Y020333D01*
X023285D01*
X023335Y020283D01*
X023385Y020333D01*
X023435D01*
X023335Y020283D02*
Y020183D01*
X018637Y034062D02*
X018687Y034112D01*
Y034212D01*
X018637Y034262D01*
X018587D01*
X018537Y034212D01*
Y034112D01*
X018487Y034062D01*
X018437D01*
X018387Y034112D01*
Y034212D01*
X018437Y034262D01*
X018687Y033962D02*
X018387D01*
X018487Y033862D01*
X018387Y033762D01*
X018687D01*
X018387Y033512D02*
X018687D01*
X018537Y033662D01*
Y033462D01*
X028587Y042212D02*
X028537Y042262D01*
X028437D01*
X028387Y042212D01*
Y042162D01*
X028437Y042112D01*
X028537D01*
X028587Y042062D01*
Y042012D01*
X028537Y041962D01*
X028437D01*
X028387Y042012D01*
X028687Y042262D02*
Y041962D01*
X028787Y042062D01*
X028887Y041962D01*
Y042262D01*
X028987Y041962D02*
X029087D01*
X029037D01*
Y042262D01*
X028987Y042212D01*
X030787Y020212D02*
Y020512D01*
X030937D01*
X030987Y020462D01*
Y020362D01*
X030937Y020312D01*
X030787D01*
X030887D02*
X030987Y020212D01*
X031187Y020112D02*
X031237D01*
X031287Y020162D01*
Y020412D01*
X031137D01*
X031087Y020362D01*
Y020262D01*
X031137Y020212D01*
X031287D01*
X031187Y019512D02*
Y019812D01*
X031337D01*
X031387Y019762D01*
Y019662D01*
X031337Y019612D01*
X031187D01*
X031287D02*
X031387Y019512D01*
X031587Y019412D02*
X031637D01*
X031687Y019462D01*
Y019712D01*
X031537D01*
X031487Y019662D01*
Y019562D01*
X031537Y019512D01*
X031687D01*
X031987D02*
X031787D01*
X031987Y019712D01*
Y019762D01*
X031937Y019812D01*
X031837D01*
X031787Y019762D01*
X034987Y035712D02*
Y036012D01*
X035137D01*
X035187Y035962D01*
Y035862D01*
X035137Y035812D01*
X034987D01*
X035087D02*
X035187Y035712D01*
X035287D02*
X035387D01*
X035337D01*
Y036012D01*
X035287Y035962D01*
X035537Y035712D02*
X035637D01*
X035587D01*
Y036012D01*
X035537Y035962D01*
X035787D02*
X035837Y036012D01*
X035937D01*
X035987Y035962D01*
Y035912D01*
X035937Y035862D01*
X035887D01*
X035937D01*
X035987Y035812D01*
Y035762D01*
X035937Y035712D01*
X035837D01*
X035787Y035762D01*
X032937Y037312D02*
Y037612D01*
X033087D01*
X033137Y037562D01*
Y037462D01*
X033087Y037412D01*
X032937D01*
X033037D02*
X033137Y037312D01*
X033237D02*
X033337D01*
X033287D01*
Y037612D01*
X033237Y037562D01*
X033487Y037312D02*
X033587D01*
X033537D01*
Y037612D01*
X033487Y037562D01*
X033737Y037312D02*
X033837D01*
X033787D01*
Y037612D01*
X033737Y037562D01*
X033987Y037312D02*
Y037612D01*
X034137D01*
X034187Y037562D01*
Y037462D01*
X034137Y037412D01*
X033987D01*
X034087D02*
X034187Y037312D01*
X034287D02*
X034387D01*
X034337D01*
Y037612D01*
X034287Y037562D01*
X034537Y037312D02*
X034637D01*
X034587D01*
Y037612D01*
X034537Y037562D01*
X034787D02*
X034837Y037612D01*
X034937D01*
X034987Y037562D01*
Y037362D01*
X034937Y037312D01*
X034837D01*
X034787Y037362D01*
Y037562D01*
X030637Y034662D02*
X030937D01*
Y034512D01*
X030887Y034462D01*
X030787D01*
X030737Y034512D01*
Y034662D01*
Y034562D02*
X030637Y034462D01*
Y034362D02*
Y034262D01*
Y034312D01*
X030937D01*
X030887Y034362D01*
Y034112D02*
X030937Y034062D01*
Y033962D01*
X030887Y033912D01*
X030687D01*
X030637Y033962D01*
Y034062D01*
X030687Y034112D01*
X030887D01*
X030937Y033812D02*
Y033612D01*
X030887D01*
X030687Y033812D01*
X030637D01*
X031037Y034662D02*
X031337D01*
Y034512D01*
X031287Y034462D01*
X031187D01*
X031137Y034512D01*
Y034662D01*
Y034562D02*
X031037Y034462D01*
Y034362D02*
Y034262D01*
Y034312D01*
X031337D01*
X031287Y034362D01*
Y034112D02*
X031337Y034062D01*
Y033962D01*
X031287Y033912D01*
X031087D01*
X031037Y033962D01*
Y034062D01*
X031087Y034112D01*
X031287D01*
X031337Y033612D02*
X031287Y033712D01*
X031187Y033812D01*
X031087D01*
X031037Y033762D01*
Y033662D01*
X031087Y033612D01*
X031137D01*
X031187Y033662D01*
Y033812D01*
X032887Y034812D02*
Y035112D01*
X033037D01*
X033087Y035062D01*
Y034962D01*
X033037Y034912D01*
X032887D01*
X032987D02*
X033087Y034812D01*
X033187D02*
X033287D01*
X033237D01*
Y035112D01*
X033187Y035062D01*
X033437D02*
X033487Y035112D01*
X033587D01*
X033637Y035062D01*
Y034862D01*
X033587Y034812D01*
X033487D01*
X033437Y034862D01*
Y035062D01*
X033937Y035112D02*
X033737D01*
Y034962D01*
X033837Y035012D01*
X033887D01*
X033937Y034962D01*
Y034862D01*
X033887Y034812D01*
X033787D01*
X033737Y034862D01*
X037987Y025062D02*
Y025362D01*
X038137D01*
X038187Y025312D01*
Y025212D01*
X038137Y025162D01*
X037987D01*
X038087D02*
X038187Y025062D01*
X038287D02*
X038387D01*
X038337D01*
Y025362D01*
X038287Y025312D01*
X038537D02*
X038587Y025362D01*
X038687D01*
X038737Y025312D01*
Y025112D01*
X038687Y025062D01*
X038587D01*
X038537Y025112D01*
Y025312D01*
X038987Y025062D02*
Y025362D01*
X038837Y025212D01*
X039037D01*
X039387Y034712D02*
X039687D01*
Y034562D01*
X039637Y034512D01*
X039537D01*
X039487Y034562D01*
Y034712D01*
Y034612D02*
X039387Y034512D01*
Y034412D02*
Y034312D01*
Y034362D01*
X039687D01*
X039637Y034412D01*
Y034162D02*
X039687Y034112D01*
Y034012D01*
X039637Y033962D01*
X039437D01*
X039387Y034012D01*
Y034112D01*
X039437Y034162D01*
X039637D01*
Y033862D02*
X039687Y033812D01*
Y033712D01*
X039637Y033662D01*
X039587D01*
X039537Y033712D01*
Y033762D01*
Y033712D01*
X039487Y033662D01*
X039437D01*
X039387Y033712D01*
Y033812D01*
X039437Y033862D01*
X038887Y036462D02*
Y036762D01*
X039037D01*
X039087Y036712D01*
Y036612D01*
X039037Y036562D01*
X038887D01*
X038987D02*
X039087Y036462D01*
X039187D02*
X039287D01*
X039237D01*
Y036762D01*
X039187Y036712D01*
X039437D02*
X039487Y036762D01*
X039587D01*
X039637Y036712D01*
Y036512D01*
X039587Y036462D01*
X039487D01*
X039437Y036512D01*
Y036712D01*
X039937Y036462D02*
X039737D01*
X039937Y036662D01*
Y036712D01*
X039887Y036762D01*
X039787D01*
X039737Y036712D01*
X034037Y028112D02*
Y028412D01*
X034187D01*
X034237Y028362D01*
Y028262D01*
X034187Y028212D01*
X034037D01*
X034137D02*
X034237Y028112D01*
X034337D02*
X034437D01*
X034387D01*
Y028412D01*
X034337Y028362D01*
X034587D02*
X034637Y028412D01*
X034737D01*
X034787Y028362D01*
Y028162D01*
X034737Y028112D01*
X034637D01*
X034587Y028162D01*
Y028362D01*
X034887Y028112D02*
X034987D01*
X034937D01*
Y028412D01*
X034887Y028362D01*
X039787Y034712D02*
X040087D01*
Y034562D01*
X040037Y034512D01*
X039937D01*
X039887Y034562D01*
Y034712D01*
Y034612D02*
X039787Y034512D01*
Y034412D02*
Y034312D01*
Y034362D01*
X040087D01*
X040037Y034412D01*
Y034162D02*
X040087Y034112D01*
Y034012D01*
X040037Y033962D01*
X039837D01*
X039787Y034012D01*
Y034112D01*
X039837Y034162D01*
X040037D01*
Y033862D02*
X040087Y033812D01*
Y033712D01*
X040037Y033662D01*
X039837D01*
X039787Y033712D01*
Y033812D01*
X039837Y033862D01*
X040037D01*
X036337Y027012D02*
X036637D01*
Y026862D01*
X036587Y026812D01*
X036487D01*
X036437Y026862D01*
Y027012D01*
Y026912D02*
X036337Y026812D01*
X036387Y026712D02*
X036337Y026662D01*
Y026562D01*
X036387Y026512D01*
X036587D01*
X036637Y026562D01*
Y026662D01*
X036587Y026712D01*
X036537D01*
X036487Y026662D01*
Y026512D01*
X036387Y026412D02*
X036337Y026362D01*
Y026262D01*
X036387Y026212D01*
X036587D01*
X036637Y026262D01*
Y026362D01*
X036587Y026412D01*
X036537D01*
X036487Y026362D01*
Y026212D01*
X035587Y027312D02*
Y027612D01*
X035737D01*
X035787Y027562D01*
Y027462D01*
X035737Y027412D01*
X035587D01*
X035687D02*
X035787Y027312D01*
X035887Y027362D02*
X035937Y027312D01*
X036037D01*
X036087Y027362D01*
Y027562D01*
X036037Y027612D01*
X035937D01*
X035887Y027562D01*
Y027512D01*
X035937Y027462D01*
X036087D01*
X036187Y027562D02*
X036237Y027612D01*
X036337D01*
X036387Y027562D01*
Y027512D01*
X036337Y027462D01*
X036387Y027412D01*
Y027362D01*
X036337Y027312D01*
X036237D01*
X036187Y027362D01*
Y027412D01*
X036237Y027462D01*
X036187Y027512D01*
Y027562D01*
X036237Y027462D02*
X036337D01*
X037987Y037862D02*
X038287D01*
Y037712D01*
X038237Y037662D01*
X038137D01*
X038087Y037712D01*
Y037862D01*
Y037762D02*
X037987Y037662D01*
X038037Y037562D02*
X037987Y037512D01*
Y037412D01*
X038037Y037362D01*
X038237D01*
X038287Y037412D01*
Y037512D01*
X038237Y037562D01*
X038187D01*
X038137Y037512D01*
Y037362D01*
X038287Y037262D02*
Y037062D01*
X038237D01*
X038037Y037262D01*
X037987D01*
X022387Y032012D02*
X022687D01*
Y031862D01*
X022637Y031812D01*
X022537D01*
X022487Y031862D01*
Y032012D01*
Y031912D02*
X022387Y031812D01*
X022437Y031712D02*
X022387Y031662D01*
Y031562D01*
X022437Y031512D01*
X022637D01*
X022687Y031562D01*
Y031662D01*
X022637Y031712D01*
X022587D01*
X022537Y031662D01*
Y031512D01*
X022687Y031212D02*
Y031412D01*
X022537D01*
X022587Y031312D01*
Y031262D01*
X022537Y031212D01*
X022437D01*
X022387Y031262D01*
Y031362D01*
X022437Y031412D01*
X022787Y032262D02*
X023087D01*
Y032112D01*
X023037Y032062D01*
X022937D01*
X022887Y032112D01*
Y032262D01*
Y032162D02*
X022787Y032062D01*
X022837Y031962D02*
X022787Y031912D01*
Y031812D01*
X022837Y031762D01*
X023037D01*
X023087Y031812D01*
Y031912D01*
X023037Y031962D01*
X022987D01*
X022937Y031912D01*
Y031762D01*
X022787Y031512D02*
X023087D01*
X022937Y031662D01*
Y031462D01*
X025887Y032812D02*
X026187D01*
Y032662D01*
X026137Y032612D01*
X026037D01*
X025987Y032662D01*
Y032812D01*
Y032712D02*
X025887Y032612D01*
X026187Y032512D02*
Y032312D01*
X026137D01*
X025937Y032512D01*
X025887D01*
X026187Y032012D02*
Y032212D01*
X026037D01*
X026087Y032112D01*
Y032062D01*
X026037Y032012D01*
X025937D01*
X025887Y032062D01*
Y032162D01*
X025937Y032212D01*
X026687Y033762D02*
X026987D01*
Y033612D01*
X026937Y033562D01*
X026837D01*
X026787Y033612D01*
Y033762D01*
Y033662D02*
X026687Y033562D01*
X026987Y033462D02*
Y033262D01*
X026937D01*
X026737Y033462D01*
X026687D01*
Y033012D02*
X026987D01*
X026837Y033162D01*
Y032962D01*
X022687Y038412D02*
X022475Y038624D01*
X022581Y038730D01*
X022652Y038730D01*
X022722Y038659D01*
X022722Y038589D01*
X022616Y038482D01*
X022687Y038553D02*
X022828Y038553D01*
X022687Y038836D02*
X022828Y038977D01*
X022864Y038942D01*
Y038659D01*
X022899Y038624D01*
X022934Y039013D02*
Y039083D01*
X023005Y039154D01*
X023076D01*
X023217Y039013D01*
X023217Y038942D01*
X023146Y038871D01*
X023076D01*
X022934Y039013D01*
X023387Y039062D02*
X023175Y039274D01*
X023281Y039380D01*
X023352Y039380D01*
X023422Y039309D01*
X023422Y039239D01*
X023316Y039132D01*
X023387Y039203D02*
X023528Y039203D01*
Y039627D02*
X023493Y039521D01*
X023493Y039380D01*
X023564Y039309D01*
X023634D01*
X023705Y039380D01*
X023705Y039451D01*
X023670Y039486D01*
X023599Y039486D01*
X023493Y039380D01*
X023776Y039521D02*
X023846D01*
X023917Y039592D01*
X023917Y039663D01*
X023776Y039804D01*
X023705D01*
X023634Y039733D01*
Y039663D01*
X023670Y039627D01*
X023740Y039627D01*
X023846Y039733D01*
X036037Y039112D02*
X036337D01*
Y038962D01*
X036287Y038912D01*
X036187D01*
X036137Y038962D01*
Y039112D01*
Y039012D02*
X036037Y038912D01*
X036337Y038612D02*
X036287Y038712D01*
X036187Y038812D01*
X036087D01*
X036037Y038762D01*
Y038662D01*
X036087Y038612D01*
X036137D01*
X036187Y038662D01*
Y038812D01*
X036037Y038312D02*
Y038512D01*
X036237Y038312D01*
X036287D01*
X036337Y038362D01*
Y038462D01*
X036287Y038512D01*
X035637Y039112D02*
X035937D01*
Y038962D01*
X035887Y038912D01*
X035787D01*
X035737Y038962D01*
Y039112D01*
Y039012D02*
X035637Y038912D01*
X035937Y038612D02*
X035887Y038712D01*
X035787Y038812D01*
X035687D01*
X035637Y038762D01*
Y038662D01*
X035687Y038612D01*
X035737D01*
X035787Y038662D01*
Y038812D01*
X035637Y038512D02*
Y038412D01*
Y038462D01*
X035937D01*
X035887Y038512D01*
X036037Y040012D02*
X036337D01*
Y039862D01*
X036287Y039812D01*
X036187D01*
X036137Y039862D01*
Y040012D01*
Y039912D02*
X036037Y039812D01*
X036337Y039512D02*
X036287Y039612D01*
X036187Y039712D01*
X036087D01*
X036037Y039662D01*
Y039562D01*
X036087Y039512D01*
X036137D01*
X036187Y039562D01*
Y039712D01*
X036287Y039412D02*
X036337Y039362D01*
Y039262D01*
X036287Y039212D01*
X036087D01*
X036037Y039262D01*
Y039362D01*
X036087Y039412D01*
X036287D01*
X035737Y038212D02*
X036037D01*
Y038062D01*
X035987Y038012D01*
X035887D01*
X035837Y038062D01*
Y038212D01*
Y038112D02*
X035737Y038012D01*
X036037Y037712D02*
Y037912D01*
X035887D01*
X035937Y037812D01*
Y037762D01*
X035887Y037712D01*
X035787D01*
X035737Y037762D01*
Y037862D01*
X035787Y037912D01*
Y037612D02*
X035737Y037562D01*
Y037462D01*
X035787Y037412D01*
X035987D01*
X036037Y037462D01*
Y037562D01*
X035987Y037612D01*
X035937D01*
X035887Y037562D01*
Y037412D01*
X036437Y040012D02*
X036737D01*
Y039862D01*
X036687Y039812D01*
X036587D01*
X036537Y039862D01*
Y040012D01*
Y039912D02*
X036437Y039812D01*
X036737Y039512D02*
Y039712D01*
X036587D01*
X036637Y039612D01*
Y039562D01*
X036587Y039512D01*
X036487D01*
X036437Y039562D01*
Y039662D01*
X036487Y039712D01*
X036687Y039412D02*
X036737Y039362D01*
Y039262D01*
X036687Y039212D01*
X036637D01*
X036587Y039262D01*
X036537Y039212D01*
X036487D01*
X036437Y039262D01*
Y039362D01*
X036487Y039412D01*
X036537D01*
X036587Y039362D01*
X036637Y039412D01*
X036687D01*
X036587Y039362D02*
Y039262D01*
X035637Y040012D02*
X035937D01*
Y039862D01*
X035887Y039812D01*
X035787D01*
X035737Y039862D01*
Y040012D01*
Y039912D02*
X035637Y039812D01*
X035937Y039512D02*
Y039712D01*
X035787D01*
X035837Y039612D01*
Y039562D01*
X035787Y039512D01*
X035687D01*
X035637Y039562D01*
Y039662D01*
X035687Y039712D01*
X035937Y039412D02*
Y039212D01*
X035887D01*
X035687Y039412D01*
X035637D01*
X036137Y038212D02*
X036437D01*
Y038062D01*
X036387Y038012D01*
X036287D01*
X036237Y038062D01*
Y038212D01*
Y038112D02*
X036137Y038012D01*
X036437Y037712D02*
Y037912D01*
X036287D01*
X036337Y037812D01*
Y037762D01*
X036287Y037712D01*
X036187D01*
X036137Y037762D01*
Y037862D01*
X036187Y037912D01*
X036437Y037412D02*
X036387Y037512D01*
X036287Y037612D01*
X036187D01*
X036137Y037562D01*
Y037462D01*
X036187Y037412D01*
X036237D01*
X036287Y037462D01*
Y037612D01*
X036437Y039112D02*
X036737D01*
Y038962D01*
X036687Y038912D01*
X036587D01*
X036537Y038962D01*
Y039112D01*
Y039012D02*
X036437Y038912D01*
X036737Y038612D02*
Y038812D01*
X036587D01*
X036637Y038712D01*
Y038662D01*
X036587Y038612D01*
X036487D01*
X036437Y038662D01*
Y038762D01*
X036487Y038812D01*
X036737Y038312D02*
Y038512D01*
X036587D01*
X036637Y038412D01*
Y038362D01*
X036587Y038312D01*
X036487D01*
X036437Y038362D01*
Y038462D01*
X036487Y038512D01*
X033287Y041112D02*
Y041412D01*
X033437D01*
X033487Y041362D01*
Y041262D01*
X033437Y041212D01*
X033287D01*
X033387D02*
X033487Y041112D01*
X033787Y041412D02*
X033587D01*
Y041262D01*
X033687Y041312D01*
X033737D01*
X033787Y041262D01*
Y041162D01*
X033737Y041112D01*
X033637D01*
X033587Y041162D01*
X034037Y041112D02*
Y041412D01*
X033887Y041262D01*
X034087D01*
X034337Y023862D02*
Y024162D01*
X034487D01*
X034537Y024112D01*
Y024012D01*
X034487Y023962D01*
X034337D01*
X034437D02*
X034537Y023862D01*
X034837Y024162D02*
X034637D01*
Y024012D01*
X034737Y024062D01*
X034787D01*
X034837Y024012D01*
Y023912D01*
X034787Y023862D01*
X034687D01*
X034637Y023912D01*
X035137Y023862D02*
X034937D01*
X035137Y024062D01*
Y024112D01*
X035087Y024162D01*
X034987D01*
X034937Y024112D01*
X034337Y024562D02*
Y024862D01*
X034487D01*
X034537Y024812D01*
Y024712D01*
X034487Y024662D01*
X034337D01*
X034437D02*
X034537Y024562D01*
X034837Y024862D02*
X034637D01*
Y024712D01*
X034737Y024762D01*
X034787D01*
X034837Y024712D01*
Y024612D01*
X034787Y024562D01*
X034687D01*
X034637Y024612D01*
X034937Y024562D02*
X035037D01*
X034987D01*
Y024862D01*
X034937Y024812D01*
X034337Y023062D02*
Y023362D01*
X034487D01*
X034537Y023312D01*
Y023212D01*
X034487Y023162D01*
X034337D01*
X034437D02*
X034537Y023062D01*
X034837Y023362D02*
X034637D01*
Y023212D01*
X034737Y023262D01*
X034787D01*
X034837Y023212D01*
Y023112D01*
X034787Y023062D01*
X034687D01*
X034637Y023112D01*
X034937Y023312D02*
X034987Y023362D01*
X035087D01*
X035137Y023312D01*
Y023112D01*
X035087Y023062D01*
X034987D01*
X034937Y023112D01*
Y023312D01*
X036987Y021962D02*
Y022262D01*
X037137D01*
X037187Y022212D01*
Y022112D01*
X037137Y022062D01*
X036987D01*
X037087D02*
X037187Y021962D01*
X037437D02*
Y022262D01*
X037287Y022112D01*
X037487D01*
X037587Y022012D02*
X037637Y021962D01*
X037737D01*
X037787Y022012D01*
Y022212D01*
X037737Y022262D01*
X037637D01*
X037587Y022212D01*
Y022162D01*
X037637Y022112D01*
X037787D01*
X037824Y023356D02*
Y023655D01*
X037974D01*
X038024Y023605D01*
Y023505D01*
X037974Y023455D01*
X037824D01*
X037924D02*
X038024Y023356D01*
X038274D02*
Y023655D01*
X038124Y023505D01*
X038324D01*
X038424Y023605D02*
X038474Y023655D01*
X038574D01*
X038624Y023605D01*
Y023555D01*
X038574Y023505D01*
X038624Y023455D01*
Y023405D01*
X038574Y023356D01*
X038474D01*
X038424Y023405D01*
Y023455D01*
X038474Y023505D01*
X038424Y023555D01*
Y023605D01*
X038474Y023505D02*
X038574D01*
X036637Y024812D02*
Y025112D01*
X036787D01*
X036837Y025062D01*
Y024962D01*
X036787Y024912D01*
X036637D01*
X036737D02*
X036837Y024812D01*
X037087D02*
Y025112D01*
X036937Y024962D01*
X037137D01*
X037437Y025112D02*
X037237D01*
Y024962D01*
X037337Y025012D01*
X037387D01*
X037437Y024962D01*
Y024862D01*
X037387Y024812D01*
X037287D01*
X037237Y024862D01*
X037587Y025162D02*
X037887D01*
Y025012D01*
X037837Y024962D01*
X037737D01*
X037687Y025012D01*
Y025162D01*
Y025062D02*
X037587Y024962D01*
Y024712D02*
X037887D01*
X037737Y024862D01*
Y024662D01*
X037587Y024412D02*
X037887D01*
X037737Y024562D01*
Y024362D01*
X039840Y023810D02*
Y024110D01*
X039990D01*
X040040Y024060D01*
Y023960D01*
X039990Y023910D01*
X039840D01*
X039940D02*
X040040Y023810D01*
X040290D02*
Y024110D01*
X040140Y023960D01*
X040340D01*
X040440Y024060D02*
X040490Y024110D01*
X040590D01*
X040640Y024060D01*
Y024010D01*
X040590Y023960D01*
X040540D01*
X040590D01*
X040640Y023910D01*
Y023860D01*
X040590Y023810D01*
X040490D01*
X040440Y023860D01*
X039687Y023112D02*
Y023412D01*
X039837D01*
X039887Y023362D01*
Y023262D01*
X039837Y023212D01*
X039687D01*
X039787D02*
X039887Y023112D01*
X040137D02*
Y023412D01*
X039987Y023262D01*
X040187D01*
X040487Y023112D02*
X040287D01*
X040487Y023312D01*
Y023362D01*
X040437Y023412D01*
X040337D01*
X040287Y023362D01*
X031487Y019212D02*
Y019512D01*
X031637D01*
X031687Y019462D01*
Y019362D01*
X031637Y019312D01*
X031487D01*
X031587D02*
X031687Y019212D01*
X031987D02*
X031787D01*
X031987Y019412D01*
Y019462D01*
X031937Y019512D01*
X031837D01*
X031787Y019462D01*
X032087D02*
X032137Y019512D01*
X032237D01*
X032287Y019462D01*
Y019412D01*
X032237Y019362D01*
X032187D01*
X032237D01*
X032287Y019312D01*
Y019262D01*
X032237Y019212D01*
X032137D01*
X032087Y019262D01*
X031837Y019062D02*
X032137D01*
Y018912D01*
X032087Y018862D01*
X031987D01*
X031937Y018912D01*
Y019062D01*
Y018962D02*
X031837Y018862D01*
Y018562D02*
Y018762D01*
X032037Y018562D01*
X032087D01*
X032137Y018612D01*
Y018712D01*
X032087Y018762D01*
X031837Y018262D02*
Y018462D01*
X032037Y018262D01*
X032087D01*
X032137Y018312D01*
Y018412D01*
X032087Y018462D01*
X034487Y020662D02*
X034787D01*
Y020512D01*
X034737Y020462D01*
X034637D01*
X034587Y020512D01*
Y020662D01*
Y020562D02*
X034487Y020462D01*
Y020162D02*
Y020362D01*
X034687Y020162D01*
X034737D01*
X034787Y020212D01*
Y020312D01*
X034737Y020362D01*
X034487Y020062D02*
Y019962D01*
Y020012D01*
X034787D01*
X034737Y020062D01*
X036187Y020612D02*
X036487D01*
Y020462D01*
X036437Y020412D01*
X036337D01*
X036287Y020462D01*
Y020612D01*
Y020512D02*
X036187Y020412D01*
Y020312D02*
Y020212D01*
Y020262D01*
X036487D01*
X036437Y020312D01*
Y020062D02*
X036487Y020012D01*
Y019912D01*
X036437Y019862D01*
X036387D01*
X036337Y019912D01*
X036287Y019862D01*
X036237D01*
X036187Y019912D01*
Y020012D01*
X036237Y020062D01*
X036287D01*
X036337Y020012D01*
X036387Y020062D01*
X036437D01*
X036337Y020012D02*
Y019912D01*
X036987Y020812D02*
X037287D01*
Y020662D01*
X037237Y020612D01*
X037137D01*
X037087Y020662D01*
Y020812D01*
Y020712D02*
X036987Y020612D01*
Y020512D02*
Y020412D01*
Y020462D01*
X037287D01*
X037237Y020512D01*
X037287Y020262D02*
Y020062D01*
X037237D01*
X037037Y020262D01*
X036987D01*
X035187Y020512D02*
X035487D01*
Y020362D01*
X035437Y020312D01*
X035337D01*
X035287Y020362D01*
Y020512D01*
Y020412D02*
X035187Y020312D01*
Y020212D02*
Y020112D01*
Y020162D01*
X035487D01*
X035437Y020212D01*
X035487Y019762D02*
X035437Y019862D01*
X035337Y019962D01*
X035237D01*
X035187Y019912D01*
Y019812D01*
X035237Y019762D01*
X035287D01*
X035337Y019812D01*
Y019962D01*
X034487Y019362D02*
X034787D01*
Y019212D01*
X034737Y019162D01*
X034637D01*
X034587Y019212D01*
Y019362D01*
Y019262D02*
X034487Y019162D01*
Y019062D02*
Y018962D01*
Y019012D01*
X034787D01*
X034737Y019062D01*
X034787Y018612D02*
Y018812D01*
X034637D01*
X034687Y018712D01*
Y018662D01*
X034637Y018612D01*
X034537D01*
X034487Y018662D01*
Y018762D01*
X034537Y018812D01*
X033837Y024312D02*
X034137D01*
Y024162D01*
X034087Y024112D01*
X033987D01*
X033937Y024162D01*
Y024312D01*
Y024212D02*
X033837Y024112D01*
Y024012D02*
Y023912D01*
Y023962D01*
X034137D01*
X034087Y024012D01*
X033837Y023612D02*
X034137D01*
X033987Y023762D01*
Y023562D01*
X030737Y024562D02*
X031037D01*
Y024412D01*
X030987Y024362D01*
X030887D01*
X030837Y024412D01*
Y024562D01*
Y024462D02*
X030737Y024362D01*
Y024262D02*
Y024162D01*
Y024212D01*
X031037D01*
X030987Y024262D01*
Y024012D02*
X031037Y023962D01*
Y023862D01*
X030987Y023812D01*
X030937D01*
X030887Y023862D01*
Y023912D01*
Y023862D01*
X030837Y023812D01*
X030787D01*
X030737Y023862D01*
Y023962D01*
X030787Y024012D01*
X033437Y024312D02*
X033737D01*
Y024162D01*
X033687Y024112D01*
X033587D01*
X033537Y024162D01*
Y024312D01*
Y024212D02*
X033437Y024112D01*
Y024012D02*
Y023912D01*
Y023962D01*
X033737D01*
X033687Y024012D01*
X033437Y023562D02*
Y023762D01*
X033637Y023562D01*
X033687D01*
X033737Y023612D01*
Y023712D01*
X033687Y023762D01*
X030337Y024562D02*
X030637D01*
Y024412D01*
X030587Y024362D01*
X030487D01*
X030437Y024412D01*
Y024562D01*
Y024462D02*
X030337Y024362D01*
Y024262D02*
Y024162D01*
Y024212D01*
X030637D01*
X030587Y024262D01*
X030337Y024012D02*
Y023912D01*
Y023962D01*
X030637D01*
X030587Y024012D01*
X033037Y024312D02*
X033337D01*
Y024162D01*
X033287Y024112D01*
X033187D01*
X033137Y024162D01*
Y024312D01*
Y024212D02*
X033037Y024112D01*
Y024012D02*
Y023912D01*
Y023962D01*
X033337D01*
X033287Y024012D01*
Y023762D02*
X033337Y023712D01*
Y023612D01*
X033287Y023562D01*
X033087D01*
X033037Y023612D01*
Y023712D01*
X033087Y023762D01*
X033287D01*
X029937Y024562D02*
X030237D01*
Y024412D01*
X030187Y024362D01*
X030087D01*
X030037Y024412D01*
Y024562D01*
Y024462D02*
X029937Y024362D01*
X029987Y024262D02*
X029937Y024212D01*
Y024112D01*
X029987Y024062D01*
X030187D01*
X030237Y024112D01*
Y024212D01*
X030187Y024262D01*
X030137D01*
X030087Y024212D01*
Y024062D01*
X027637Y040662D02*
Y040962D01*
X027787D01*
X027837Y040912D01*
Y040812D01*
X027787Y040762D01*
X027637D01*
X027737D02*
X027837Y040662D01*
X027937Y040912D02*
X027987Y040962D01*
X028087D01*
X028137Y040912D01*
Y040862D01*
X028087Y040812D01*
X028137Y040762D01*
Y040712D01*
X028087Y040662D01*
X027987D01*
X027937Y040712D01*
Y040762D01*
X027987Y040812D01*
X027937Y040862D01*
Y040912D01*
X027987Y040812D02*
X028087D01*
X027537Y034362D02*
Y034662D01*
X027687D01*
X027737Y034612D01*
Y034512D01*
X027687Y034462D01*
X027537D01*
X027637D02*
X027737Y034362D01*
X028037Y034662D02*
X027837D01*
Y034512D01*
X027937Y034562D01*
X027987D01*
X028037Y034512D01*
Y034412D01*
X027987Y034362D01*
X027887D01*
X027837Y034412D01*
X021087Y033512D02*
Y033712D01*
X021037Y033762D01*
X020937D01*
X020887Y033712D01*
Y033512D01*
X020937Y033462D01*
X021037D01*
X020987Y033562D02*
X021087Y033462D01*
X021037D02*
X021087Y033512D01*
X021387Y033762D02*
X021287Y033712D01*
X021187Y033612D01*
Y033512D01*
X021237Y033462D01*
X021337D01*
X021387Y033512D01*
Y033562D01*
X021337Y033612D01*
X021187D01*
X022737Y037312D02*
Y037612D01*
X022887D01*
X022937Y037562D01*
Y037462D01*
X022887Y037412D01*
X022737D01*
X023237Y037312D02*
X023037D01*
X023237Y037512D01*
Y037562D01*
X023187Y037612D01*
X023087D01*
X023037Y037562D01*
X023337D02*
X023387Y037612D01*
X023487D01*
X023537Y037562D01*
Y037512D01*
X023487Y037462D01*
X023437D01*
X023487D01*
X023537Y037412D01*
Y037362D01*
X023487Y037312D01*
X023387D01*
X023337Y037362D01*
X034237Y032362D02*
Y032062D01*
X034437D01*
X034737D02*
X034537D01*
X034737Y032262D01*
Y032312D01*
X034687Y032362D01*
X034587D01*
X034537Y032312D01*
X040737Y028212D02*
Y027912D01*
X040937D01*
X041037D02*
X041137D01*
X041087D01*
Y028212D01*
X041037Y028162D01*
X033287Y039862D02*
X033087D01*
Y039712D01*
X033187D01*
X033087D01*
Y039562D01*
X033387Y039862D02*
Y039562D01*
X033537D01*
X033587Y039612D01*
Y039662D01*
X033537Y039712D01*
X033387D01*
X033537D01*
X033587Y039762D01*
Y039812D01*
X033537Y039862D01*
X033387D01*
X033837Y039562D02*
Y039862D01*
X033687Y039712D01*
X033887D01*
X025087Y035862D02*
Y036062D01*
X024937D01*
Y035962D01*
Y036062D01*
X024787D01*
X025087Y035762D02*
X024787D01*
Y035612D01*
X024837Y035562D01*
X024887D01*
X024937Y035612D01*
Y035762D01*
Y035612D01*
X024987Y035562D01*
X025037D01*
X025087Y035612D01*
Y035762D01*
X025037Y035462D02*
X025087Y035412D01*
Y035312D01*
X025037Y035262D01*
X024987D01*
X024937Y035312D01*
Y035362D01*
Y035312D01*
X024887Y035262D01*
X024837D01*
X024787Y035312D01*
Y035412D01*
X024837Y035462D01*
X039287Y034162D02*
X038987D01*
Y034012D01*
X039037Y033962D01*
X039237D01*
X039287Y034012D01*
Y034162D01*
X038987Y033862D02*
Y033762D01*
Y033812D01*
X039287D01*
X039237Y033862D01*
X038987Y033412D02*
Y033612D01*
X039187Y033412D01*
X039237D01*
X039287Y033462D01*
Y033562D01*
X039237Y033612D01*
X036694Y031812D02*
Y031512D01*
X036844D01*
X036894Y031562D01*
Y031762D01*
X036844Y031812D01*
X036694D01*
X036994Y031512D02*
X037094D01*
X037044D01*
Y031812D01*
X036994Y031762D01*
X037244Y031512D02*
X037344D01*
X037294D01*
Y031812D01*
X037244Y031762D01*
X021437Y032112D02*
Y031812D01*
X021587D01*
X021637Y031862D01*
Y032062D01*
X021587Y032112D01*
X021437D01*
X021737Y031812D02*
X021837D01*
X021787D01*
Y032112D01*
X021737Y032062D01*
X021987D02*
X022037Y032112D01*
X022137D01*
X022187Y032062D01*
Y031862D01*
X022137Y031812D01*
X022037D01*
X021987Y031862D01*
Y032062D01*
X017887Y029562D02*
Y029262D01*
X018037D01*
X018087Y029312D01*
Y029512D01*
X018037Y029562D01*
X017887D01*
X018187Y029312D02*
X018237Y029262D01*
X018337D01*
X018387Y029312D01*
Y029512D01*
X018337Y029562D01*
X018237D01*
X018187Y029512D01*
Y029462D01*
X018237Y029412D01*
X018387D01*
X017887Y029912D02*
Y029612D01*
X018037D01*
X018087Y029662D01*
Y029862D01*
X018037Y029912D01*
X017887D01*
X018187Y029862D02*
X018237Y029912D01*
X018337D01*
X018387Y029862D01*
Y029812D01*
X018337Y029762D01*
X018387Y029712D01*
Y029662D01*
X018337Y029612D01*
X018237D01*
X018187Y029662D01*
Y029712D01*
X018237Y029762D01*
X018187Y029812D01*
Y029862D01*
X018237Y029762D02*
X018337D01*
X018737Y024912D02*
X018437D01*
Y024762D01*
X018487Y024712D01*
X018687D01*
X018737Y024762D01*
Y024912D01*
Y024612D02*
Y024412D01*
X018687D01*
X018487Y024612D01*
X018437D01*
X018737Y025562D02*
X018437D01*
Y025412D01*
X018487Y025362D01*
X018687D01*
X018737Y025412D01*
Y025562D01*
Y025062D02*
X018687Y025162D01*
X018587Y025262D01*
X018487D01*
X018437Y025212D01*
Y025112D01*
X018487Y025062D01*
X018537D01*
X018587Y025112D01*
Y025262D01*
X017837Y032412D02*
Y032112D01*
X017987D01*
X018037Y032162D01*
Y032362D01*
X017987Y032412D01*
X017837D01*
X018137Y032362D02*
X018187Y032412D01*
X018287D01*
X018337Y032362D01*
Y032312D01*
X018287Y032262D01*
X018237D01*
X018287D01*
X018337Y032212D01*
Y032162D01*
X018287Y032112D01*
X018187D01*
X018137Y032162D01*
X038337Y038612D02*
X038037D01*
Y038462D01*
X038087Y038412D01*
X038287D01*
X038337Y038462D01*
Y038612D01*
X038037Y038112D02*
Y038312D01*
X038237Y038112D01*
X038287D01*
X038337Y038162D01*
Y038262D01*
X038287Y038312D01*
X029387Y040362D02*
Y040062D01*
X029537D01*
X029587Y040112D01*
Y040312D01*
X029537Y040362D01*
X029387D01*
X029687Y040062D02*
X029787D01*
X029737D01*
Y040362D01*
X029687Y040312D01*
X035237Y029462D02*
X035287Y029512D01*
Y029612D01*
X035237Y029662D01*
X035037D01*
X034987Y029612D01*
Y029512D01*
X035037Y029462D01*
X035287Y029362D02*
Y029162D01*
X035237D01*
X035037Y029362D01*
X034987D01*
Y029162D01*
X035637Y029462D02*
X035687Y029512D01*
Y029612D01*
X035637Y029662D01*
X035437D01*
X035387Y029612D01*
Y029512D01*
X035437Y029462D01*
X035387Y029362D02*
X035687D01*
Y029212D01*
X035637Y029162D01*
X035537D01*
X035487Y029212D01*
Y029362D01*
X031887Y020662D02*
X031837Y020712D01*
X031737D01*
X031687Y020662D01*
Y020462D01*
X031737Y020412D01*
X031837D01*
X031887Y020462D01*
X032087Y020312D02*
X032137D01*
X032187Y020362D01*
Y020612D01*
X032037D01*
X031987Y020562D01*
Y020462D01*
X032037Y020412D01*
X032187D01*
X032487D02*
X032287D01*
X032487Y020612D01*
Y020662D01*
X032437Y020712D01*
X032337D01*
X032287Y020662D01*
X038987Y036312D02*
X038937Y036362D01*
X038837D01*
X038787Y036312D01*
Y036112D01*
X038837Y036062D01*
X038937D01*
X038987Y036112D01*
X039087Y036012D02*
X039287D01*
X039387Y036062D02*
Y036362D01*
X039587Y036062D01*
Y036362D01*
X039887D02*
X039687D01*
Y036212D01*
X039787D01*
X039687D01*
Y036062D01*
X039987Y036362D02*
Y036062D01*
X040137D01*
X040187Y036112D01*
Y036162D01*
X040137Y036212D01*
X039987D01*
X040137D01*
X040187Y036262D01*
Y036312D01*
X040137Y036362D01*
X039987D01*
X033537Y035912D02*
X033587Y035962D01*
Y036062D01*
X033537Y036112D01*
X033337D01*
X033287Y036062D01*
Y035962D01*
X033337Y035912D01*
X033537Y035812D02*
X033587Y035762D01*
Y035662D01*
X033537Y035612D01*
X033487D01*
X033437Y035662D01*
X033387Y035612D01*
X033337D01*
X033287Y035662D01*
Y035762D01*
X033337Y035812D01*
X033387D01*
X033437Y035762D01*
X033487Y035812D01*
X033537D01*
X033437Y035762D02*
Y035662D01*
X033287Y035512D02*
Y035412D01*
Y035462D01*
X033587D01*
X033537Y035512D01*
X033987Y036262D02*
X034037Y036312D01*
Y036412D01*
X033987Y036462D01*
X033787D01*
X033737Y036412D01*
Y036312D01*
X033787Y036262D01*
X033987Y036162D02*
X034037Y036112D01*
Y036012D01*
X033987Y035962D01*
X033937D01*
X033887Y036012D01*
X033837Y035962D01*
X033787D01*
X033737Y036012D01*
Y036112D01*
X033787Y036162D01*
X033837D01*
X033887Y036112D01*
X033937Y036162D01*
X033987D01*
X033887Y036112D02*
Y036012D01*
X033987Y035862D02*
X034037Y035812D01*
Y035712D01*
X033987Y035662D01*
X033787D01*
X033737Y035712D01*
Y035812D01*
X033787Y035862D01*
X033987D01*
X019587Y022512D02*
X019637Y022562D01*
Y022662D01*
X019587Y022712D01*
X019387D01*
X019337Y022662D01*
Y022562D01*
X019387Y022512D01*
X019637Y022412D02*
Y022212D01*
X019587D01*
X019387Y022412D01*
X019337D01*
X019387Y022112D02*
X019337Y022062D01*
Y021962D01*
X019387Y021912D01*
X019587D01*
X019637Y021962D01*
Y022062D01*
X019587Y022112D01*
X019537D01*
X019487Y022062D01*
Y021912D01*
X023237Y021728D02*
X023187Y021778D01*
X023087D01*
X023037Y021728D01*
Y021528D01*
X023087Y021478D01*
X023187D01*
X023237Y021528D01*
X023337Y021778D02*
X023537D01*
Y021728D01*
X023337Y021528D01*
Y021478D01*
X023637Y021728D02*
X023687Y021778D01*
X023787D01*
X023837Y021728D01*
Y021678D01*
X023787Y021628D01*
X023837Y021578D01*
Y021528D01*
X023787Y021478D01*
X023687D01*
X023637Y021528D01*
Y021578D01*
X023687Y021628D01*
X023637Y021678D01*
Y021728D01*
X023687Y021628D02*
X023787D01*
X039063Y032734D02*
X039013Y032784D01*
X038913D01*
X038863Y032734D01*
Y032534D01*
X038913Y032484D01*
X039013D01*
X039063Y032534D01*
X039163Y032784D02*
X039363D01*
Y032734D01*
X039163Y032534D01*
Y032484D01*
X039463Y032784D02*
X039662D01*
Y032734D01*
X039463Y032534D01*
Y032484D01*
X037437Y027612D02*
X037387Y027662D01*
X037287D01*
X037237Y027612D01*
Y027412D01*
X037287Y027362D01*
X037387D01*
X037437Y027412D01*
X037537Y027662D02*
X037737D01*
Y027612D01*
X037537Y027412D01*
Y027362D01*
X038037Y027662D02*
X037937Y027612D01*
X037837Y027512D01*
Y027412D01*
X037887Y027362D01*
X037987D01*
X038037Y027412D01*
Y027462D01*
X037987Y027512D01*
X037837D01*
X038137Y028312D02*
X038187Y028362D01*
Y028462D01*
X038137Y028512D01*
X037937D01*
X037887Y028462D01*
Y028362D01*
X037937Y028312D01*
X038187Y028212D02*
Y028012D01*
X038137D01*
X037937Y028212D01*
X037887D01*
X038187Y027712D02*
Y027912D01*
X038037D01*
X038087Y027812D01*
Y027762D01*
X038037Y027712D01*
X037937D01*
X037887Y027762D01*
Y027862D01*
X037937Y027912D01*
X036337Y026062D02*
X036287Y026112D01*
X036187D01*
X036137Y026062D01*
Y025862D01*
X036187Y025812D01*
X036287D01*
X036337Y025862D01*
X036437Y026112D02*
X036637D01*
Y026062D01*
X036437Y025862D01*
Y025812D01*
X036887D02*
Y026112D01*
X036737Y025962D01*
X036937D01*
X040737Y027512D02*
X040787Y027562D01*
Y027662D01*
X040737Y027712D01*
X040537D01*
X040487Y027662D01*
Y027562D01*
X040537Y027512D01*
X040787Y027412D02*
Y027212D01*
X040737D01*
X040537Y027412D01*
X040487D01*
X040737Y027112D02*
X040787Y027062D01*
Y026962D01*
X040737Y026912D01*
X040687D01*
X040637Y026962D01*
Y027012D01*
Y026962D01*
X040587Y026912D01*
X040537D01*
X040487Y026962D01*
Y027062D01*
X040537Y027112D01*
X041137Y027512D02*
X041187Y027562D01*
Y027662D01*
X041137Y027712D01*
X040937D01*
X040887Y027662D01*
Y027562D01*
X040937Y027512D01*
X041187Y027412D02*
Y027212D01*
X041137D01*
X040937Y027412D01*
X040887D01*
Y026912D02*
Y027112D01*
X041087Y026912D01*
X041137D01*
X041187Y026962D01*
Y027062D01*
X041137Y027112D01*
X036637Y036512D02*
X036587Y036562D01*
X036487D01*
X036437Y036512D01*
Y036312D01*
X036487Y036262D01*
X036587D01*
X036637Y036312D01*
X036737Y036562D02*
X036937D01*
Y036512D01*
X036737Y036312D01*
Y036262D01*
X037037D02*
X037137D01*
X037087D01*
Y036562D01*
X037037Y036512D01*
X037687Y033762D02*
X037737Y033812D01*
Y033912D01*
X037687Y033962D01*
X037487D01*
X037437Y033912D01*
Y033812D01*
X037487Y033762D01*
X037737Y033662D02*
Y033462D01*
X037687D01*
X037487Y033662D01*
X037437D01*
X037687Y033362D02*
X037737Y033312D01*
Y033212D01*
X037687Y033162D01*
X037487D01*
X037437Y033212D01*
Y033312D01*
X037487Y033362D01*
X037687D01*
X038337Y031812D02*
X038287Y031862D01*
X038187D01*
X038137Y031812D01*
Y031612D01*
X038187Y031562D01*
X038287D01*
X038337Y031612D01*
X038637Y031862D02*
X038537Y031812D01*
X038437Y031712D01*
Y031612D01*
X038487Y031562D01*
X038587D01*
X038637Y031612D01*
Y031662D01*
X038587Y031712D01*
X038437D01*
X038737Y031612D02*
X038787Y031562D01*
X038887D01*
X038937Y031612D01*
Y031812D01*
X038887Y031862D01*
X038787D01*
X038737Y031812D01*
Y031762D01*
X038787Y031712D01*
X038937D01*
X026937Y034462D02*
X026987Y034512D01*
Y034612D01*
X026937Y034662D01*
X026737D01*
X026687Y034612D01*
Y034512D01*
X026737Y034462D01*
X026987Y034162D02*
X026937Y034262D01*
X026837Y034362D01*
X026737D01*
X026687Y034312D01*
Y034212D01*
X026737Y034162D01*
X026787D01*
X026837Y034212D01*
Y034362D01*
X026937Y034062D02*
X026987Y034012D01*
Y033912D01*
X026937Y033862D01*
X026887D01*
X026837Y033912D01*
X026787Y033862D01*
X026737D01*
X026687Y033912D01*
Y034012D01*
X026737Y034062D01*
X026787D01*
X026837Y034012D01*
X026887Y034062D01*
X026937D01*
X026837Y034012D02*
Y033912D01*
X023437Y032012D02*
X023487Y032062D01*
Y032162D01*
X023437Y032212D01*
X023237D01*
X023187Y032162D01*
Y032062D01*
X023237Y032012D01*
X023487Y031712D02*
X023437Y031812D01*
X023337Y031912D01*
X023237D01*
X023187Y031862D01*
Y031762D01*
X023237Y031712D01*
X023287D01*
X023337Y031762D01*
Y031912D01*
X023487Y031612D02*
Y031412D01*
X023437D01*
X023237Y031612D01*
X023187D01*
X023437Y031012D02*
X023487Y031062D01*
Y031162D01*
X023437Y031212D01*
X023237D01*
X023187Y031162D01*
Y031062D01*
X023237Y031012D01*
X023487Y030712D02*
X023437Y030812D01*
X023337Y030912D01*
X023237D01*
X023187Y030862D01*
Y030762D01*
X023237Y030712D01*
X023287D01*
X023337Y030762D01*
Y030912D01*
X023187Y030412D02*
Y030612D01*
X023387Y030412D01*
X023437D01*
X023487Y030462D01*
Y030562D01*
X023437Y030612D01*
X024687Y032012D02*
X024637Y032062D01*
X024537D01*
X024487Y032012D01*
Y031812D01*
X024537Y031762D01*
X024637D01*
X024687Y031812D01*
X024987Y032062D02*
X024887Y032012D01*
X024787Y031912D01*
Y031812D01*
X024837Y031762D01*
X024937D01*
X024987Y031812D01*
Y031862D01*
X024937Y031912D01*
X024787D01*
X025087Y031762D02*
X025187D01*
X025137D01*
Y032062D01*
X025087Y032012D01*
X020987Y034162D02*
X020937Y034212D01*
X020837D01*
X020787Y034162D01*
Y033962D01*
X020837Y033912D01*
X020937D01*
X020987Y033962D01*
X021287Y034212D02*
X021087D01*
Y034062D01*
X021187Y034112D01*
X021237D01*
X021287Y034062D01*
Y033962D01*
X021237Y033912D01*
X021137D01*
X021087Y033962D01*
X021387D02*
X021437Y033912D01*
X021537D01*
X021587Y033962D01*
Y034162D01*
X021537Y034212D01*
X021437D01*
X021387Y034162D01*
Y034112D01*
X021437Y034062D01*
X021587D01*
X033637Y039112D02*
X033687Y039162D01*
Y039262D01*
X033637Y039312D01*
X033437D01*
X033387Y039262D01*
Y039162D01*
X033437Y039112D01*
X033687Y038812D02*
Y039012D01*
X033537D01*
X033587Y038912D01*
Y038862D01*
X033537Y038812D01*
X033437D01*
X033387Y038862D01*
Y038962D01*
X033437Y039012D01*
X033687Y038512D02*
Y038712D01*
X033537D01*
X033587Y038612D01*
Y038562D01*
X033537Y038512D01*
X033437D01*
X033387Y038562D01*
Y038662D01*
X033437Y038712D01*
X033287Y040262D02*
X033237Y040312D01*
X033137D01*
X033087Y040262D01*
Y040062D01*
X033137Y040012D01*
X033237D01*
X033287Y040062D01*
X033587Y040312D02*
X033387D01*
Y040162D01*
X033487Y040212D01*
X033537D01*
X033587Y040162D01*
Y040062D01*
X033537Y040012D01*
X033437D01*
X033387Y040062D01*
X033837Y040012D02*
Y040312D01*
X033687Y040162D01*
X033887D01*
X032887Y038312D02*
X032837Y038362D01*
X032737D01*
X032687Y038312D01*
Y038112D01*
X032737Y038062D01*
X032837D01*
X032887Y038112D01*
X033187Y038362D02*
X032987D01*
Y038212D01*
X033087Y038262D01*
X033137D01*
X033187Y038212D01*
Y038112D01*
X033137Y038062D01*
X033037D01*
X032987Y038112D01*
X033287Y038312D02*
X033337Y038362D01*
X033437D01*
X033487Y038312D01*
Y038262D01*
X033437Y038212D01*
X033387D01*
X033437D01*
X033487Y038162D01*
Y038112D01*
X033437Y038062D01*
X033337D01*
X033287Y038112D01*
X037737Y020662D02*
X037687Y020712D01*
X037587D01*
X037537Y020662D01*
Y020462D01*
X037587Y020412D01*
X037687D01*
X037737Y020462D01*
X038037Y020712D02*
X037837D01*
Y020562D01*
X037937Y020612D01*
X037987D01*
X038037Y020562D01*
Y020462D01*
X037987Y020412D01*
X037887D01*
X037837Y020462D01*
X038337Y020412D02*
X038137D01*
X038337Y020612D01*
Y020662D01*
X038287Y020712D01*
X038187D01*
X038137Y020662D01*
X037837Y021012D02*
X037787Y021062D01*
X037687D01*
X037637Y021012D01*
Y020812D01*
X037687Y020762D01*
X037787D01*
X037837Y020812D01*
X038137Y021062D02*
X037937D01*
Y020912D01*
X038037Y020962D01*
X038087D01*
X038137Y020912D01*
Y020812D01*
X038087Y020762D01*
X037987D01*
X037937Y020812D01*
X038237Y020762D02*
X038337D01*
X038287D01*
Y021062D01*
X038237Y021012D01*
X039370Y026330D02*
X039320Y026380D01*
X039220D01*
X039170Y026330D01*
Y026130D01*
X039220Y026080D01*
X039320D01*
X039370Y026130D01*
X039670Y026380D02*
X039470D01*
Y026230D01*
X039570Y026280D01*
X039620D01*
X039670Y026230D01*
Y026130D01*
X039620Y026080D01*
X039520D01*
X039470Y026130D01*
X039770Y026330D02*
X039820Y026380D01*
X039920D01*
X039970Y026330D01*
Y026130D01*
X039920Y026080D01*
X039820D01*
X039770Y026130D01*
Y026330D01*
X039290Y026000D02*
X039240Y026050D01*
X039140D01*
X039090Y026000D01*
Y025800D01*
X039140Y025750D01*
X039240D01*
X039290Y025800D01*
X039540Y025750D02*
Y026050D01*
X039390Y025900D01*
X039590D01*
X039690Y025800D02*
X039740Y025750D01*
X039840D01*
X039890Y025800D01*
Y026000D01*
X039840Y026050D01*
X039740D01*
X039690Y026000D01*
Y025950D01*
X039740Y025900D01*
X039890D01*
X034537Y023712D02*
X034487Y023762D01*
X034387D01*
X034337Y023712D01*
Y023512D01*
X034387Y023462D01*
X034487D01*
X034537Y023512D01*
X034787Y023462D02*
Y023762D01*
X034637Y023612D01*
X034837D01*
X034937Y023712D02*
X034987Y023762D01*
X035087D01*
X035137Y023712D01*
Y023662D01*
X035087Y023612D01*
X035137Y023562D01*
Y023512D01*
X035087Y023462D01*
X034987D01*
X034937Y023512D01*
Y023562D01*
X034987Y023612D01*
X034937Y023662D01*
Y023712D01*
X034987Y023612D02*
X035087D01*
X036837Y021212D02*
X036787Y021262D01*
X036687D01*
X036637Y021212D01*
Y021012D01*
X036687Y020962D01*
X036787D01*
X036837Y021012D01*
X037087Y020962D02*
Y021262D01*
X036937Y021112D01*
X037137D01*
X037237Y021262D02*
X037437D01*
Y021212D01*
X037237Y021012D01*
Y020962D01*
X034537Y022912D02*
X034487Y022962D01*
X034387D01*
X034337Y022912D01*
Y022712D01*
X034387Y022662D01*
X034487D01*
X034537Y022712D01*
X034787Y022662D02*
Y022962D01*
X034637Y022812D01*
X034837D01*
X035137Y022962D02*
X035037Y022912D01*
X034937Y022812D01*
Y022712D01*
X034987Y022662D01*
X035087D01*
X035137Y022712D01*
Y022762D01*
X035087Y022812D01*
X034937D01*
X038037Y023212D02*
X037987Y023262D01*
X037887D01*
X037837Y023212D01*
Y023012D01*
X037887Y022962D01*
X037987D01*
X038037Y023012D01*
X038287Y022962D02*
Y023262D01*
X038137Y023112D01*
X038337D01*
X038637Y023262D02*
X038437D01*
Y023112D01*
X038537Y023162D01*
X038587D01*
X038637Y023112D01*
Y023012D01*
X038587Y022962D01*
X038487D01*
X038437Y023012D01*
X038037Y024012D02*
X037987Y024062D01*
X037887D01*
X037837Y024012D01*
Y023812D01*
X037887Y023762D01*
X037987D01*
X038037Y023812D01*
X038287Y023762D02*
Y024062D01*
X038137Y023912D01*
X038337D01*
X038587Y023762D02*
Y024062D01*
X038437Y023912D01*
X038637D01*
X040020Y023730D02*
X039970Y023780D01*
X039870D01*
X039820Y023730D01*
Y023530D01*
X039870Y023480D01*
X039970D01*
X040020Y023530D01*
X040270Y023480D02*
Y023780D01*
X040120Y023630D01*
X040320D01*
X040420Y023730D02*
X040470Y023780D01*
X040570D01*
X040620Y023730D01*
Y023680D01*
X040570Y023630D01*
X040520D01*
X040570D01*
X040620Y023580D01*
Y023530D01*
X040570Y023480D01*
X040470D01*
X040420Y023530D01*
X025420Y025050D02*
X025370Y025100D01*
X025270D01*
X025220Y025050D01*
Y024850D01*
X025270Y024800D01*
X025370D01*
X025420Y024850D01*
X025670Y024800D02*
Y025100D01*
X025520Y024950D01*
X025720D01*
X026020Y024800D02*
X025820D01*
X026020Y025000D01*
Y025050D01*
X025970Y025100D01*
X025870D01*
X025820Y025050D01*
X025420Y024150D02*
X025370Y024200D01*
X025270D01*
X025220Y024150D01*
Y023950D01*
X025270Y023900D01*
X025370D01*
X025420Y023950D01*
X025670Y023900D02*
Y024200D01*
X025520Y024050D01*
X025720D01*
X025820Y023900D02*
X025920D01*
X025870D01*
Y024200D01*
X025820Y024150D01*
X025420Y023250D02*
X025370Y023300D01*
X025270D01*
X025220Y023250D01*
Y023050D01*
X025270Y023000D01*
X025370D01*
X025420Y023050D01*
X025670Y023000D02*
Y023300D01*
X025520Y023150D01*
X025720D01*
X025820Y023250D02*
X025870Y023300D01*
X025970D01*
X026020Y023250D01*
Y023050D01*
X025970Y023000D01*
X025870D01*
X025820Y023050D01*
Y023250D01*
X025420Y022350D02*
X025370Y022400D01*
X025270D01*
X025220Y022350D01*
Y022150D01*
X025270Y022100D01*
X025370D01*
X025420Y022150D01*
X025520Y022350D02*
X025570Y022400D01*
X025670D01*
X025720Y022350D01*
Y022300D01*
X025670Y022250D01*
X025620D01*
X025670D01*
X025720Y022200D01*
Y022150D01*
X025670Y022100D01*
X025570D01*
X025520Y022150D01*
X025820D02*
X025870Y022100D01*
X025970D01*
X026020Y022150D01*
Y022350D01*
X025970Y022400D01*
X025870D01*
X025820Y022350D01*
Y022300D01*
X025870Y022250D01*
X026020D01*
X025400Y021480D02*
X025350Y021530D01*
X025250D01*
X025200Y021480D01*
Y021280D01*
X025250Y021230D01*
X025350D01*
X025400Y021280D01*
X025500Y021480D02*
X025550Y021530D01*
X025650D01*
X025700Y021480D01*
Y021430D01*
X025650Y021380D01*
X025600D01*
X025650D01*
X025700Y021330D01*
Y021280D01*
X025650Y021230D01*
X025550D01*
X025500Y021280D01*
X025800Y021480D02*
X025850Y021530D01*
X025950D01*
X026000Y021480D01*
Y021430D01*
X025950Y021380D01*
X026000Y021330D01*
Y021280D01*
X025950Y021230D01*
X025850D01*
X025800Y021280D01*
Y021330D01*
X025850Y021380D01*
X025800Y021430D01*
Y021480D01*
X025850Y021380D02*
X025950D01*
X025430Y020580D02*
X025380Y020630D01*
X025280D01*
X025230Y020580D01*
Y020380D01*
X025280Y020330D01*
X025380D01*
X025430Y020380D01*
X025530Y020580D02*
X025580Y020630D01*
X025680D01*
X025730Y020580D01*
Y020530D01*
X025680Y020480D01*
X025630D01*
X025680D01*
X025730Y020430D01*
Y020380D01*
X025680Y020330D01*
X025580D01*
X025530Y020380D01*
X025830Y020630D02*
X026030D01*
Y020580D01*
X025830Y020380D01*
Y020330D01*
X025430Y019680D02*
X025380Y019730D01*
X025280D01*
X025230Y019680D01*
Y019480D01*
X025280Y019430D01*
X025380D01*
X025430Y019480D01*
X025530Y019680D02*
X025580Y019730D01*
X025680D01*
X025730Y019680D01*
Y019630D01*
X025680Y019580D01*
X025630D01*
X025680D01*
X025730Y019530D01*
Y019480D01*
X025680Y019430D01*
X025580D01*
X025530Y019480D01*
X026030Y019730D02*
X025930Y019680D01*
X025830Y019580D01*
Y019480D01*
X025880Y019430D01*
X025980D01*
X026030Y019480D01*
Y019530D01*
X025980Y019580D01*
X025830D01*
X025430Y018780D02*
X025380Y018830D01*
X025280D01*
X025230Y018780D01*
Y018580D01*
X025280Y018530D01*
X025380D01*
X025430Y018580D01*
X025530Y018780D02*
X025580Y018830D01*
X025680D01*
X025730Y018780D01*
Y018730D01*
X025680Y018680D01*
X025630D01*
X025680D01*
X025730Y018630D01*
Y018580D01*
X025680Y018530D01*
X025580D01*
X025530Y018580D01*
X026030Y018830D02*
X025830D01*
Y018680D01*
X025930Y018730D01*
X025980D01*
X026030Y018680D01*
Y018580D01*
X025980Y018530D01*
X025880D01*
X025830Y018580D01*
X025430Y017880D02*
X025380Y017930D01*
X025280D01*
X025230Y017880D01*
Y017680D01*
X025280Y017630D01*
X025380D01*
X025430Y017680D01*
X025530Y017880D02*
X025580Y017930D01*
X025680D01*
X025730Y017880D01*
Y017830D01*
X025680Y017780D01*
X025630D01*
X025680D01*
X025730Y017730D01*
Y017680D01*
X025680Y017630D01*
X025580D01*
X025530Y017680D01*
X025980Y017630D02*
Y017930D01*
X025830Y017780D01*
X026030D01*
X028937Y017612D02*
X028987Y017662D01*
Y017762D01*
X028937Y017812D01*
X028737D01*
X028687Y017762D01*
Y017662D01*
X028737Y017612D01*
X028937Y017512D02*
X028987Y017462D01*
Y017362D01*
X028937Y017312D01*
X028887D01*
X028837Y017362D01*
Y017412D01*
Y017362D01*
X028787Y017312D01*
X028737D01*
X028687Y017362D01*
Y017462D01*
X028737Y017512D01*
X028937Y017212D02*
X028987Y017162D01*
Y017062D01*
X028937Y017012D01*
X028887D01*
X028837Y017062D01*
Y017112D01*
Y017062D01*
X028787Y017012D01*
X028737D01*
X028687Y017062D01*
Y017162D01*
X028737Y017212D01*
X030087Y017462D02*
X030137Y017512D01*
Y017612D01*
X030087Y017662D01*
X029887D01*
X029837Y017612D01*
Y017512D01*
X029887Y017462D01*
X030087Y017362D02*
X030137Y017312D01*
Y017212D01*
X030087Y017162D01*
X030037D01*
X029987Y017212D01*
Y017262D01*
Y017212D01*
X029937Y017162D01*
X029887D01*
X029837Y017212D01*
Y017312D01*
X029887Y017362D01*
X029837Y016862D02*
Y017062D01*
X030037Y016862D01*
X030087D01*
X030137Y016912D01*
Y017012D01*
X030087Y017062D01*
X031687Y018362D02*
X031737Y018412D01*
Y018512D01*
X031687Y018562D01*
X031487D01*
X031437Y018512D01*
Y018412D01*
X031487Y018362D01*
X031687Y018262D02*
X031737Y018212D01*
Y018112D01*
X031687Y018062D01*
X031637D01*
X031587Y018112D01*
Y018162D01*
Y018112D01*
X031537Y018062D01*
X031487D01*
X031437Y018112D01*
Y018212D01*
X031487Y018262D01*
X031437Y017962D02*
Y017862D01*
Y017912D01*
X031737D01*
X031687Y017962D01*
X031287Y018462D02*
X031337Y018512D01*
Y018612D01*
X031287Y018662D01*
X031087D01*
X031037Y018612D01*
Y018512D01*
X031087Y018462D01*
X031287Y018362D02*
X031337Y018312D01*
Y018212D01*
X031287Y018162D01*
X031237D01*
X031187Y018212D01*
Y018262D01*
Y018212D01*
X031137Y018162D01*
X031087D01*
X031037Y018212D01*
Y018312D01*
X031087Y018362D01*
X031287Y018062D02*
X031337Y018012D01*
Y017912D01*
X031287Y017862D01*
X031087D01*
X031037Y017912D01*
Y018012D01*
X031087Y018062D01*
X031287D01*
X032887Y024112D02*
X032937Y024162D01*
Y024262D01*
X032887Y024312D01*
X032687D01*
X032637Y024262D01*
Y024162D01*
X032687Y024112D01*
X032637Y023812D02*
Y024012D01*
X032837Y023812D01*
X032887D01*
X032937Y023862D01*
Y023962D01*
X032887Y024012D01*
X032687Y023712D02*
X032637Y023662D01*
Y023562D01*
X032687Y023512D01*
X032887D01*
X032937Y023562D01*
Y023662D01*
X032887Y023712D01*
X032837D01*
X032787Y023662D01*
Y023512D01*
X032487Y024112D02*
X032537Y024162D01*
Y024262D01*
X032487Y024312D01*
X032287D01*
X032237Y024262D01*
Y024162D01*
X032287Y024112D01*
X032237Y023812D02*
Y024012D01*
X032437Y023812D01*
X032487D01*
X032537Y023862D01*
Y023962D01*
X032487Y024012D01*
Y023712D02*
X032537Y023662D01*
Y023562D01*
X032487Y023512D01*
X032437D01*
X032387Y023562D01*
X032337Y023512D01*
X032287D01*
X032237Y023562D01*
Y023662D01*
X032287Y023712D01*
X032337D01*
X032387Y023662D01*
X032437Y023712D01*
X032487D01*
X032387Y023662D02*
Y023562D01*
X034987Y022362D02*
X035037Y022412D01*
Y022512D01*
X034987Y022562D01*
X034787D01*
X034737Y022512D01*
Y022412D01*
X034787Y022362D01*
X034737Y022062D02*
Y022262D01*
X034937Y022062D01*
X034987D01*
X035037Y022112D01*
Y022212D01*
X034987Y022262D01*
X035037Y021962D02*
Y021762D01*
X034987D01*
X034787Y021962D01*
X034737D01*
X034587Y022362D02*
X034637Y022412D01*
Y022512D01*
X034587Y022562D01*
X034387D01*
X034337Y022512D01*
Y022412D01*
X034387Y022362D01*
X034337Y022062D02*
Y022262D01*
X034537Y022062D01*
X034587D01*
X034637Y022112D01*
Y022212D01*
X034587Y022262D01*
X034637Y021762D02*
X034587Y021862D01*
X034487Y021962D01*
X034387D01*
X034337Y021912D01*
Y021812D01*
X034387Y021762D01*
X034437D01*
X034487Y021812D01*
Y021962D01*
X029207Y023312D02*
X029257Y023362D01*
Y023462D01*
X029207Y023512D01*
X029007D01*
X028957Y023462D01*
Y023362D01*
X029007Y023312D01*
X028957Y023012D02*
Y023212D01*
X029157Y023012D01*
X029207D01*
X029257Y023062D01*
Y023162D01*
X029207Y023212D01*
X029257Y022712D02*
Y022912D01*
X029107D01*
X029157Y022812D01*
Y022762D01*
X029107Y022712D01*
X029007D01*
X028957Y022762D01*
Y022862D01*
X029007Y022912D01*
X030587Y023312D02*
X030637Y023362D01*
Y023462D01*
X030587Y023512D01*
X030387D01*
X030337Y023462D01*
Y023362D01*
X030387Y023312D01*
X030337Y023012D02*
Y023212D01*
X030537Y023012D01*
X030587D01*
X030637Y023062D01*
Y023162D01*
X030587Y023212D01*
X030337Y022762D02*
X030637D01*
X030487Y022912D01*
Y022712D01*
X031687Y024112D02*
X031737Y024162D01*
Y024262D01*
X031687Y024312D01*
X031487D01*
X031437Y024262D01*
Y024162D01*
X031487Y024112D01*
X031437Y023812D02*
Y024012D01*
X031637Y023812D01*
X031687D01*
X031737Y023862D01*
Y023962D01*
X031687Y024012D01*
Y023712D02*
X031737Y023662D01*
Y023562D01*
X031687Y023512D01*
X031637D01*
X031587Y023562D01*
Y023612D01*
Y023562D01*
X031537Y023512D01*
X031487D01*
X031437Y023562D01*
Y023662D01*
X031487Y023712D01*
X032087Y024112D02*
X032137Y024162D01*
Y024262D01*
X032087Y024312D01*
X031887D01*
X031837Y024262D01*
Y024162D01*
X031887Y024112D01*
X031837Y023812D02*
Y024012D01*
X032037Y023812D01*
X032087D01*
X032137Y023862D01*
Y023962D01*
X032087Y024012D01*
X031837Y023512D02*
Y023712D01*
X032037Y023512D01*
X032087D01*
X032137Y023562D01*
Y023662D01*
X032087Y023712D01*
X033157Y017882D02*
X033207Y017932D01*
Y018032D01*
X033157Y018082D01*
X032957D01*
X032907Y018032D01*
Y017932D01*
X032957Y017882D01*
X032907Y017582D02*
Y017782D01*
X033107Y017582D01*
X033157D01*
X033207Y017632D01*
Y017732D01*
X033157Y017782D01*
X032907Y017482D02*
Y017382D01*
Y017432D01*
X033207D01*
X033157Y017482D01*
X032087Y017912D02*
X032137Y017962D01*
Y018062D01*
X032087Y018112D01*
X031887D01*
X031837Y018062D01*
Y017962D01*
X031887Y017912D01*
X031837Y017612D02*
Y017812D01*
X032037Y017612D01*
X032087D01*
X032137Y017662D01*
Y017762D01*
X032087Y017812D01*
Y017512D02*
X032137Y017462D01*
Y017362D01*
X032087Y017312D01*
X031887D01*
X031837Y017362D01*
Y017462D01*
X031887Y017512D01*
X032087D01*
X033787Y020912D02*
X033737Y020962D01*
X033637D01*
X033587Y020912D01*
Y020712D01*
X033637Y020662D01*
X033737D01*
X033787Y020712D01*
X033887Y020662D02*
X033987D01*
X033937D01*
Y020962D01*
X033887Y020912D01*
X034137Y020712D02*
X034187Y020662D01*
X034287D01*
X034337Y020712D01*
Y020912D01*
X034287Y020962D01*
X034187D01*
X034137Y020912D01*
Y020862D01*
X034187Y020812D01*
X034337D01*
X033787Y020512D02*
X033737Y020562D01*
X033637D01*
X033587Y020512D01*
Y020312D01*
X033637Y020262D01*
X033737D01*
X033787Y020312D01*
X033887Y020262D02*
X033987D01*
X033937D01*
Y020562D01*
X033887Y020512D01*
X034137D02*
X034187Y020562D01*
X034287D01*
X034337Y020512D01*
Y020462D01*
X034287Y020412D01*
X034337Y020362D01*
Y020312D01*
X034287Y020262D01*
X034187D01*
X034137Y020312D01*
Y020362D01*
X034187Y020412D01*
X034137Y020462D01*
Y020512D01*
X034187Y020412D02*
X034287D01*
X034587Y021362D02*
X034637Y021412D01*
Y021512D01*
X034587Y021562D01*
X034387D01*
X034337Y021512D01*
Y021412D01*
X034387Y021362D01*
X034337Y021262D02*
Y021162D01*
Y021212D01*
X034637D01*
X034587Y021262D01*
X034637Y021012D02*
Y020812D01*
X034587D01*
X034387Y021012D01*
X034337D01*
X031687Y034512D02*
X031637Y034562D01*
X031537D01*
X031487Y034512D01*
Y034312D01*
X031537Y034262D01*
X031637D01*
X031687Y034312D01*
X031787Y034262D02*
X031887D01*
X031837D01*
Y034562D01*
X031787Y034512D01*
X032237Y034562D02*
X032137Y034512D01*
X032037Y034412D01*
Y034312D01*
X032087Y034262D01*
X032187D01*
X032237Y034312D01*
Y034362D01*
X032187Y034412D01*
X032037D01*
X034987Y021362D02*
X035037Y021412D01*
Y021512D01*
X034987Y021562D01*
X034787D01*
X034737Y021512D01*
Y021412D01*
X034787Y021362D01*
X034737Y021262D02*
Y021162D01*
Y021212D01*
X035037D01*
X034987Y021262D01*
X035037Y020812D02*
Y021012D01*
X034887D01*
X034937Y020912D01*
Y020862D01*
X034887Y020812D01*
X034787D01*
X034737Y020862D01*
Y020962D01*
X034787Y021012D01*
X032937Y020662D02*
X032887Y020712D01*
X032787D01*
X032737Y020662D01*
Y020462D01*
X032787Y020412D01*
X032887D01*
X032937Y020462D01*
X033037Y020412D02*
X033137D01*
X033087D01*
Y020712D01*
X033037Y020662D01*
X033437Y020412D02*
Y020712D01*
X033287Y020562D01*
X033487D01*
X031537Y040912D02*
X031587Y040962D01*
Y041062D01*
X031537Y041112D01*
X031337D01*
X031287Y041062D01*
Y040962D01*
X031337Y040912D01*
X031287Y040812D02*
Y040712D01*
Y040762D01*
X031587D01*
X031537Y040812D01*
X031287Y040362D02*
Y040562D01*
X031487Y040362D01*
X031537D01*
X031587Y040412D01*
Y040512D01*
X031537Y040562D01*
X032187Y035712D02*
X032137Y035762D01*
X032037D01*
X031987Y035712D01*
Y035512D01*
X032037Y035462D01*
X032137D01*
X032187Y035512D01*
X032287Y035462D02*
X032387D01*
X032337D01*
Y035762D01*
X032287Y035712D01*
X032537Y035462D02*
X032637D01*
X032587D01*
Y035762D01*
X032537Y035712D01*
X036837Y020512D02*
X036887Y020562D01*
Y020662D01*
X036837Y020712D01*
X036637D01*
X036587Y020662D01*
Y020562D01*
X036637Y020512D01*
X036837Y020412D02*
X036887Y020362D01*
Y020262D01*
X036837Y020212D01*
X036787D01*
X036737Y020262D01*
X036687Y020212D01*
X036637D01*
X036587Y020262D01*
Y020362D01*
X036637Y020412D01*
X036687D01*
X036737Y020362D01*
X036787Y020412D01*
X036837D01*
X036737Y020362D02*
Y020262D01*
X035387Y019012D02*
X035437Y019062D01*
Y019162D01*
X035387Y019212D01*
X035187D01*
X035137Y019162D01*
Y019062D01*
X035187Y019012D01*
X035437Y018912D02*
Y018712D01*
X035387D01*
X035187Y018912D01*
X035137D01*
X028037Y033912D02*
X027987Y033962D01*
X027887D01*
X027837Y033912D01*
Y033712D01*
X027887Y033662D01*
X027987D01*
X028037Y033712D01*
X028137Y033912D02*
X028187Y033962D01*
X028287D01*
X028337Y033912D01*
Y033862D01*
X028287Y033812D01*
X028237D01*
X028287D01*
X028337Y033762D01*
Y033712D01*
X028287Y033662D01*
X028187D01*
X028137Y033712D01*
X024502Y036430D02*
X024431Y036430D01*
X024360Y036359D01*
Y036289D01*
X024502Y036147D01*
X024572D01*
X024643Y036218D01*
X024643Y036289D01*
X024890Y036465D02*
X024749Y036324D01*
Y036607D01*
X024714Y036642D01*
X024643Y036642D01*
X024572Y036571D01*
Y036501D01*
X024202Y036780D02*
X024131Y036780D01*
X024060Y036709D01*
Y036639D01*
X024202Y036497D01*
X024272D01*
X024343Y036568D01*
X024343Y036639D01*
X024449Y036674D02*
X024520Y036745D01*
X024484Y036709D01*
X024272Y036921D01*
Y036851D01*
X025837Y025312D02*
Y025512D01*
X025937Y025612D01*
X026037Y025512D01*
Y025312D01*
Y025462D01*
X025837D01*
X026137Y025312D02*
X026237D01*
X026187D01*
Y025612D01*
X026137Y025562D01*
X032537Y026162D02*
Y026462D01*
X032687D01*
X032737Y026412D01*
Y026312D01*
X032687Y026262D01*
X032537D01*
X032837Y026412D02*
X032887Y026462D01*
X032987D01*
X033037Y026412D01*
Y026362D01*
X032987Y026312D01*
X032937D01*
X032987D01*
X033037Y026262D01*
Y026212D01*
X032987Y026162D01*
X032887D01*
X032837Y026212D01*
X033337Y026462D02*
X033237Y026412D01*
X033137Y026312D01*
Y026212D01*
X033187Y026162D01*
X033287D01*
X033337Y026212D01*
Y026262D01*
X033287Y026312D01*
X033137D01*
X040487Y035212D02*
X040537Y035162D01*
Y035062D01*
X040487Y035012D01*
X040437D01*
X040387Y035062D01*
Y035112D01*
Y035062D01*
X040337Y035012D01*
X040287D01*
X040237Y035062D01*
Y035162D01*
X040287Y035212D01*
X040537Y034912D02*
X040337D01*
X040237Y034812D01*
X040337Y034712D01*
X040537D01*
X040487Y034612D02*
X040537Y034562D01*
Y034462D01*
X040487Y034412D01*
X040437D01*
X040387Y034462D01*
Y034512D01*
Y034462D01*
X040337Y034412D01*
X040287D01*
X040237Y034462D01*
Y034562D01*
X040287Y034612D01*
X040537Y034312D02*
Y034112D01*
Y034212D01*
X040237D01*
X040537Y034012D02*
X040487D01*
X040387Y033912D01*
X040487Y033812D01*
X040537D01*
X040387Y033912D02*
X040237D01*
X039487Y033112D02*
Y033312D01*
X039587Y033412D01*
X039687Y033312D01*
Y033112D01*
Y033262D01*
X039487D01*
X039987Y033362D02*
X039937Y033412D01*
X039837D01*
X039787Y033362D01*
Y033162D01*
X039837Y033112D01*
X039937D01*
X039987Y033162D01*
Y033262D01*
X039887D01*
X040087Y033112D02*
Y033412D01*
X040287Y033112D01*
Y033412D01*
X040387D02*
Y033112D01*
X040537D01*
X040587Y033162D01*
Y033362D01*
X040537Y033412D01*
X040387D01*
X039737Y032512D02*
X039937D01*
X040237Y032662D02*
X040037D01*
Y032512D01*
X040137Y032562D01*
X040187D01*
X040237Y032512D01*
Y032412D01*
X040187Y032362D01*
X040087D01*
X040037Y032412D01*
X040337Y032662D02*
Y032462D01*
X040437Y032362D01*
X040537Y032462D01*
Y032662D01*
X040237Y032162D02*
X040037D01*
Y032012D01*
X040137Y032062D01*
X040187D01*
X040237Y032012D01*
Y031912D01*
X040187Y031862D01*
X040087D01*
X040037Y031912D01*
X040337Y032162D02*
Y031962D01*
X040437Y031862D01*
X040537Y031962D01*
Y032162D01*
X034087Y021562D02*
X034287D01*
X029187Y022262D02*
X029387D01*
X029287Y022362D02*
Y022162D01*
X021325Y034974D02*
X021466Y034832D01*
X021608D01*
X021608Y034974D01*
X021466Y035115D01*
X021537Y035186D02*
X021749Y034974D01*
X021855Y035080D01*
X021855Y035151D01*
X021820Y035186D01*
X021749Y035186D01*
X021643Y035080D01*
X021749Y035186D01*
Y035257D01*
X021714Y035292D01*
X021643Y035292D01*
X021537Y035186D01*
X021961D02*
X021820Y035327D01*
Y035469D01*
X021961D01*
X022103Y035327D01*
X021996Y035433D01*
X021855Y035292D01*
X021961Y035610D02*
X022103Y035751D01*
X022032Y035681D01*
X022244Y035469D01*
X018637Y035812D02*
X018537D01*
X018487Y035762D01*
Y035562D01*
X018537Y035512D01*
X018637D01*
X018687Y035562D01*
Y035762D01*
X018637Y035812D01*
X018987D02*
X018787D01*
Y035662D01*
X018887D01*
X018787D01*
Y035512D01*
X019287Y035812D02*
X019087D01*
Y035662D01*
X019187D01*
X019087D01*
Y035512D01*
D145*
X031728Y040228D02*
X031924D01*
X031728D02*
Y040424D01*
Y041291D02*
Y041487D01*
X031924D01*
X032791D02*
X032987D01*
Y041291D02*
Y041487D01*
X032791Y040228D02*
X032987D01*
Y040424D01*
M02*
