G04 Layer_Color=16770453*
%FSAX24Y24*%
%MOIN*%
G70*
G01*
G75*
%ADD10O,0.0500X0.0200*%
%ADD11R,0.0295X0.0276*%
%ADD15C,0.0500*%
%ADD18R,0.0177X0.0197*%
%ADD23R,0.0236X0.0213*%
%ADD24R,0.0177X0.0177*%
%ADD25R,0.0177X0.0177*%
%ADD31R,0.0213X0.0236*%
%ADD36R,0.0360X0.0240*%
%ADD41R,0.0197X0.0177*%
%ADD44R,0.0197X0.0217*%
%ADD45R,0.0197X0.0197*%
G04:AMPARAMS|DCode=52|XSize=55.1mil|YSize=27.6mil|CornerRadius=2.8mil|HoleSize=0mil|Usage=FLASHONLY|Rotation=180.000|XOffset=0mil|YOffset=0mil|HoleType=Round|Shape=RoundedRectangle|*
%AMROUNDEDRECTD52*
21,1,0.0551,0.0220,0,0,180.0*
21,1,0.0496,0.0276,0,0,180.0*
1,1,0.0055,-0.0248,0.0110*
1,1,0.0055,0.0248,0.0110*
1,1,0.0055,0.0248,-0.0110*
1,1,0.0055,-0.0248,-0.0110*
%
%ADD52ROUNDEDRECTD52*%
%ADD64R,0.0217X0.0197*%
%ADD88R,0.0276X0.0256*%
%ADD113R,0.0276X0.0512*%
%ADD114O,0.0400X0.0200*%
%ADD115R,0.0157X0.0532*%
%ADD116R,0.1142X0.0748*%
%ADD117R,0.0413X0.0941*%
%ADD118R,0.0413X0.0472*%
%ADD119R,0.0413X0.0425*%
%ADD120R,0.0283X0.0307*%
%ADD121R,0.0197X0.0394*%
%ADD122R,0.0256X0.0433*%
%ADD123R,0.0354X0.0236*%
%ADD124R,0.0354X0.0236*%
%ADD125R,0.0669X0.0315*%
%ADD126R,0.0480X0.0358*%
G04:AMPARAMS|DCode=127|XSize=63mil|YSize=86.6mil|CornerRadius=0mil|HoleSize=0mil|Usage=FLASHONLY|Rotation=300.000|XOffset=0mil|YOffset=0mil|HoleType=Round|Shape=Rectangle|*
%AMROTATEDRECTD127*
4,1,4,-0.0533,0.0056,0.0218,0.0489,0.0533,-0.0056,-0.0218,-0.0489,-0.0533,0.0056,0.0*
%
%ADD127ROTATEDRECTD127*%

G04:AMPARAMS|DCode=128|XSize=27.6mil|YSize=70.9mil|CornerRadius=0mil|HoleSize=0mil|Usage=FLASHONLY|Rotation=300.000|XOffset=0mil|YOffset=0mil|HoleType=Round|Shape=Rectangle|*
%AMROTATEDRECTD128*
4,1,4,-0.0376,-0.0058,0.0238,0.0297,0.0376,0.0058,-0.0238,-0.0297,-0.0376,-0.0058,0.0*
%
%ADD128ROTATEDRECTD128*%

%ADD129R,0.0315X0.0630*%
%ADD130R,0.0630X0.1181*%
G04:AMPARAMS|DCode=131|XSize=23.6mil|YSize=21.3mil|CornerRadius=0mil|HoleSize=0mil|Usage=FLASHONLY|Rotation=45.000|XOffset=0mil|YOffset=0mil|HoleType=Round|Shape=Rectangle|*
%AMROTATEDRECTD131*
4,1,4,-0.0008,-0.0159,-0.0159,-0.0008,0.0008,0.0159,0.0159,0.0008,-0.0008,-0.0159,0.0*
%
%ADD131ROTATEDRECTD131*%

G04:AMPARAMS|DCode=132|XSize=25.2mil|YSize=26.8mil|CornerRadius=0mil|HoleSize=0mil|Usage=FLASHONLY|Rotation=45.000|XOffset=0mil|YOffset=0mil|HoleType=Round|Shape=Rectangle|*
%AMROTATEDRECTD132*
4,1,4,0.0006,-0.0184,-0.0184,0.0006,-0.0006,0.0184,0.0184,-0.0006,0.0006,-0.0184,0.0*
%
%ADD132ROTATEDRECTD132*%

%ADD133O,0.0200X0.0500*%
D10*
X032200Y036272D02*
D03*
X029137Y038562D02*
D03*
X027319Y038949D02*
D03*
D11*
X037650Y038612D02*
D03*
X038024D02*
D03*
D15*
X019028Y028728D02*
D03*
Y027728D02*
D03*
Y026728D02*
D03*
X037837Y022212D02*
D03*
X038387Y021062D02*
D03*
X040387Y023612D02*
D03*
D18*
X036837Y037214D02*
D03*
Y037509D02*
D03*
X029482Y039903D02*
D03*
Y039608D02*
D03*
X029832Y039900D02*
D03*
Y039605D02*
D03*
X023578Y030128D02*
D03*
Y029832D02*
D03*
Y031428D02*
D03*
Y031132D02*
D03*
Y027528D02*
D03*
Y027232D02*
D03*
Y028828D02*
D03*
Y028532D02*
D03*
D23*
Y029491D02*
D03*
Y029169D02*
D03*
Y030791D02*
D03*
Y030468D02*
D03*
Y026891D02*
D03*
Y026569D02*
D03*
Y028191D02*
D03*
Y027868D02*
D03*
X031108Y037733D02*
D03*
Y037410D02*
D03*
X029562Y036012D02*
D03*
Y036335D02*
D03*
D24*
X019615Y036138D02*
D03*
X019300D02*
D03*
X030285Y036038D02*
D03*
X029970D02*
D03*
D25*
X029976Y036036D02*
D03*
Y036351D02*
D03*
D31*
X037248Y038612D02*
D03*
X036926Y038612D02*
D03*
X020269Y036138D02*
D03*
X019946D02*
D03*
X029126Y035701D02*
D03*
X029448D02*
D03*
X019919Y034138D02*
D03*
X019596D02*
D03*
X028732Y037178D02*
D03*
X029055D02*
D03*
X028732Y037965D02*
D03*
X029055D02*
D03*
X028732Y037571D02*
D03*
X029055D02*
D03*
D36*
X038537Y037152D02*
D03*
Y037772D02*
D03*
X038878Y022558D02*
D03*
Y021938D02*
D03*
X039328Y022558D02*
D03*
Y021938D02*
D03*
X038428D02*
D03*
Y022558D02*
D03*
Y023548D02*
D03*
Y022928D02*
D03*
X038878Y023548D02*
D03*
Y022928D02*
D03*
X039328D02*
D03*
Y023548D02*
D03*
X039778Y022928D02*
D03*
Y023548D02*
D03*
D41*
X021130Y038178D02*
D03*
X021425D02*
D03*
X020530Y036628D02*
D03*
X020825D02*
D03*
X020530Y036978D02*
D03*
X020825D02*
D03*
X020530Y037328D02*
D03*
X020825D02*
D03*
X020680Y037678D02*
D03*
X020975D02*
D03*
X020173Y026605D02*
D03*
X019878D02*
D03*
Y027105D02*
D03*
X020173D02*
D03*
X019878Y029105D02*
D03*
X020173D02*
D03*
X020430Y021128D02*
D03*
X020725D02*
D03*
X020432Y021528D02*
D03*
X020728D02*
D03*
X020175Y031105D02*
D03*
X019880D02*
D03*
D44*
X036837Y038159D02*
D03*
Y037864D02*
D03*
D45*
X030309Y036935D02*
D03*
Y036580D02*
D03*
X029385Y037059D02*
D03*
Y036705D02*
D03*
D52*
X021119Y034852D02*
D03*
Y034104D02*
D03*
D64*
X020172Y027605D02*
D03*
X019877D02*
D03*
X020173Y028105D02*
D03*
X019878D02*
D03*
Y028605D02*
D03*
X020173D02*
D03*
X019878Y029605D02*
D03*
X020173D02*
D03*
X019880Y030605D02*
D03*
X020175D02*
D03*
X020173Y030105D02*
D03*
X019878D02*
D03*
D88*
X018637Y028237D02*
D03*
X019011D02*
D03*
X018637Y027237D02*
D03*
X019011D02*
D03*
X018687Y026237D02*
D03*
X019061D02*
D03*
X018687Y025887D02*
D03*
X019061D02*
D03*
D113*
X037292Y037135D02*
D03*
X038040D02*
D03*
Y038080D02*
D03*
X037666D02*
D03*
X037292D02*
D03*
D114*
X030763Y039343D02*
D03*
Y038949D02*
D03*
D115*
X030039Y040482D02*
D03*
X029783D02*
D03*
X029528D02*
D03*
X029272D02*
D03*
X029016D02*
D03*
D116*
X029528Y041536D02*
D03*
D117*
X021836Y035345D02*
D03*
Y036945D02*
D03*
D118*
X021836Y034091D02*
D03*
X026219Y033866D02*
D03*
X021836Y035691D02*
D03*
X026219Y035466D02*
D03*
D119*
Y034894D02*
D03*
Y036494D02*
D03*
D120*
Y035394D02*
D03*
Y036994D02*
D03*
D121*
X022397Y036449D02*
D03*
X022830Y036449D02*
D03*
X023263Y036449D02*
D03*
X023696D02*
D03*
X024129D02*
D03*
X024562Y036449D02*
D03*
X024995Y036449D02*
D03*
X025428Y036449D02*
D03*
X022397Y038049D02*
D03*
X022830D02*
D03*
X023263D02*
D03*
X023696D02*
D03*
X024129D02*
D03*
X024562D02*
D03*
X024995D02*
D03*
X025428D02*
D03*
D122*
X020306Y035608D02*
D03*
X019932D02*
D03*
X019558D02*
D03*
Y034664D02*
D03*
X019932D02*
D03*
X020306D02*
D03*
D123*
X020394Y032011D02*
D03*
X024108Y027002D02*
D03*
Y028304D02*
D03*
Y029602D02*
D03*
Y030902D02*
D03*
D124*
X019724Y032385D02*
D03*
Y031637D02*
D03*
X024778Y026628D02*
D03*
Y027376D02*
D03*
Y027930D02*
D03*
Y028678D02*
D03*
Y029228D02*
D03*
Y029976D02*
D03*
Y030528D02*
D03*
Y031276D02*
D03*
D125*
X018628Y032597D02*
D03*
Y031258D02*
D03*
Y030828D02*
D03*
Y029489D02*
D03*
D126*
X020828Y026884D02*
D03*
Y028171D02*
D03*
D127*
X029820Y024279D02*
D03*
X033309Y018235D02*
D03*
D128*
X030197Y021309D02*
D03*
X030443Y020882D02*
D03*
X029705Y022161D02*
D03*
X029951Y021735D02*
D03*
X029459Y022587D02*
D03*
X029213Y023013D02*
D03*
X030689Y020456D02*
D03*
X030935Y020030D02*
D03*
X031181Y019604D02*
D03*
X031428Y019178D02*
D03*
X031674Y018751D02*
D03*
X031920Y018325D02*
D03*
D129*
X029035Y018672D02*
D03*
X030020D02*
D03*
X029528D02*
D03*
D130*
X024815Y020403D02*
D03*
X024028D02*
D03*
X023240D02*
D03*
D131*
X035760Y027451D02*
D03*
X035989Y027223D02*
D03*
D132*
X035452Y027160D02*
D03*
X035697Y026915D02*
D03*
D133*
X029287Y039185D02*
D03*
M02*
