G04 Layer_Physical_Order=3*
G04 Layer_Color=56745*
%FSAX24Y24*%
%MOIN*%
G70*
G01*
G75*
%ADD89C,0.0060*%
%ADD90C,0.0100*%
%ADD98C,0.1250*%
%ADD99O,0.0450X0.0350*%
G04:AMPARAMS|DCode=100|XSize=40mil|YSize=60mil|CornerRadius=0mil|HoleSize=0mil|Usage=FLASHONLY|Rotation=135.000|XOffset=0mil|YOffset=0mil|HoleType=Round|Shape=Round|*
%AMOVALD100*
21,1,0.0200,0.0400,0.0000,0.0000,225.0*
1,1,0.0400,0.0071,0.0071*
1,1,0.0400,-0.0071,-0.0071*
%
%ADD100OVALD100*%

%ADD101C,0.0450*%
%ADD104C,0.0600*%
%ADD105R,0.0450X0.0450*%
%ADD106P,0.0649X8X22.5*%
%ADD112C,0.0177*%
G36*
X040645Y033876D02*
X040668Y033842D01*
X040741Y033793D01*
X040744Y033762D01*
X040741Y033730D01*
X040668Y033681D01*
X040616Y033603D01*
X040597Y033512D01*
X040616Y033420D01*
X040668Y033342D01*
X040741Y033293D01*
X040744Y033262D01*
X040741Y033230D01*
X040668Y033181D01*
X040616Y033103D01*
X040597Y033012D01*
X040616Y032920D01*
X040668Y032842D01*
X040741Y032793D01*
X040744Y032762D01*
X040741Y032730D01*
X040668Y032681D01*
X040616Y032603D01*
X040597Y032512D01*
X040616Y032420D01*
X040668Y032342D01*
X040703Y032319D01*
X040698Y032252D01*
X040641Y032208D01*
X040597Y032150D01*
X040569Y032084D01*
X040566Y032062D01*
X040887D01*
Y032012D01*
X040937D01*
Y031734D01*
X041009Y031744D01*
X041076Y031772D01*
X041133Y031816D01*
X041177Y031873D01*
X041179Y031877D01*
X041239Y031865D01*
X041239Y025005D01*
X041132Y024724D01*
X040844Y024080D01*
X040520Y023454D01*
X040162Y022847D01*
X040126Y022793D01*
X040101Y022782D01*
X040095Y022780D01*
X040063Y022775D01*
X040048Y022784D01*
X040037Y022791D01*
X040032Y022792D01*
X040028Y022794D01*
X040013Y022796D01*
X039998Y022798D01*
X038741Y022799D01*
X038739Y022798D01*
X038737Y022799D01*
X038678Y022797D01*
X038660Y022793D01*
X038642Y022789D01*
X038641Y022788D01*
X038639Y022788D01*
X038624Y022777D01*
X038614Y022770D01*
X038609Y022767D01*
X037801Y021958D01*
X037792Y021946D01*
X037783Y021934D01*
X037781Y021929D01*
X037778Y021925D01*
X037776Y021911D01*
X037771Y021896D01*
X037772Y021891D01*
X037771Y021886D01*
X037774Y021872D01*
X037775Y021857D01*
X037788Y021813D01*
X037746Y021785D01*
X037717Y021742D01*
X037674Y021755D01*
X037659Y021757D01*
X037644Y021760D01*
X037639Y021759D01*
X037634Y021759D01*
X037620Y021755D01*
X037605Y021752D01*
X037601Y021749D01*
X037596Y021748D01*
X037584Y021738D01*
X037572Y021730D01*
X036261Y020418D01*
X035751Y020419D01*
X035749Y020418D01*
X035747Y020419D01*
X035688Y020417D01*
X035670Y020413D01*
X035652Y020409D01*
X035651Y020408D01*
X035649Y020408D01*
X035634Y020397D01*
X035619Y020387D01*
X034033Y018801D01*
X033045Y018802D01*
X033040Y018801D01*
X033035Y018801D01*
X033020Y018797D01*
X033006Y018794D01*
X033002Y018792D01*
X032996Y018801D01*
X032947Y018834D01*
X032889Y018846D01*
X032831Y018834D01*
X032781Y018801D01*
X032749Y018752D01*
X032737Y018694D01*
X032739Y018686D01*
X032736Y018682D01*
X032723Y018673D01*
X032710Y018666D01*
X032707Y018663D01*
X032703Y018660D01*
X031855Y017812D01*
X031850Y017804D01*
X031842Y017797D01*
X031839Y017787D01*
X031833Y017779D01*
X031831Y017769D01*
X031827Y017760D01*
Y017750D01*
X031825Y017740D01*
X031827Y017730D01*
Y017720D01*
X031827Y017719D01*
X031825Y017708D01*
X031773Y017673D01*
X031755Y017676D01*
X031745D01*
X031735Y017678D01*
X031289D01*
X030592Y018376D01*
Y018464D01*
X030589Y018478D01*
X030588Y018493D01*
X030585Y018498D01*
X030584Y018503D01*
X030578Y018512D01*
X030584Y018521D01*
X030585Y018526D01*
X030588Y018530D01*
X030589Y018545D01*
X030592Y018560D01*
Y018647D01*
X030972Y019026D01*
X030973Y019027D01*
X030974Y019028D01*
X031014Y019072D01*
X031024Y019087D01*
X031034Y019102D01*
X031035Y019104D01*
X031036Y019105D01*
X031038Y019123D01*
X031042Y019141D01*
Y020880D01*
X031102Y020917D01*
X031137Y020910D01*
X031195Y020922D01*
X031244Y020955D01*
X031277Y021004D01*
X031288Y021062D01*
X031277Y021120D01*
X031244Y021169D01*
X031195Y021202D01*
X031137Y021213D01*
X031102Y021206D01*
X031042Y021244D01*
Y022201D01*
X031102Y022219D01*
X031110Y022207D01*
X031159Y022174D01*
X031217Y022163D01*
X031275Y022174D01*
X031324Y022207D01*
X031357Y022256D01*
X031369Y022314D01*
X031357Y022372D01*
X031324Y022421D01*
X031275Y022454D01*
X031217Y022466D01*
X031159Y022454D01*
X031110Y022421D01*
X031102Y022409D01*
X031042Y022427D01*
Y022727D01*
X031219Y022904D01*
X031351D01*
X031448Y022807D01*
X031448Y022521D01*
X031449Y022515D01*
X031448Y022509D01*
X031453Y022496D01*
X031455Y022482D01*
X031459Y022477D01*
X031461Y022471D01*
X031470Y022461D01*
X031478Y022449D01*
X031482Y022446D01*
X031486Y022441D01*
X031507Y022425D01*
X031517Y022400D01*
X031506Y022342D01*
X031517Y022284D01*
X031513Y022273D01*
X031479Y022236D01*
X031477Y022235D01*
X031470Y022223D01*
X031461Y022213D01*
X031459Y022207D01*
X031455Y022202D01*
X031453Y022188D01*
X031448Y022175D01*
X031449Y022169D01*
X031448Y022163D01*
X031447Y021983D01*
X031449Y021973D01*
Y021963D01*
X031453Y021954D01*
X031454Y021949D01*
X031440Y021939D01*
X031407Y021890D01*
X031396Y021832D01*
X031407Y021774D01*
X031440Y021725D01*
X031448Y021720D01*
Y021691D01*
X031415Y021642D01*
X031403Y021584D01*
X031415Y021526D01*
X031448Y021477D01*
X031454Y021473D01*
X031455Y021401D01*
X031422Y021352D01*
X031410Y021294D01*
X031422Y021236D01*
X031455Y021187D01*
X031504Y021154D01*
X031562Y021143D01*
X031620Y021154D01*
X031669Y021187D01*
X031702Y021236D01*
X031713Y021294D01*
X031702Y021352D01*
X031669Y021401D01*
X031663Y021406D01*
X031662Y021477D01*
X031695Y021526D01*
X031706Y021584D01*
X031762Y021613D01*
X032160Y021215D01*
X032161Y021214D01*
X032162Y021212D01*
X032205Y021172D01*
X032221Y021162D01*
X032236Y021152D01*
X032236Y021152D01*
X032236Y021152D01*
X032238Y021152D01*
X032239Y021151D01*
X032257Y021148D01*
X032275Y021144D01*
X032909Y021144D01*
X032911Y021144D01*
X032913Y021144D01*
X032972Y021146D01*
X032990Y021150D01*
X033007Y021153D01*
X033007Y021153D01*
X033008Y021153D01*
X033009Y021154D01*
X033011Y021155D01*
X033025Y021165D01*
X033040Y021175D01*
X033111Y021246D01*
X033112Y021247D01*
X033114Y021248D01*
X033154Y021291D01*
X033164Y021307D01*
X033174Y021322D01*
X033175Y021324D01*
X033175Y021325D01*
X033178Y021343D01*
X033180Y021352D01*
X033182Y021361D01*
Y021877D01*
X033340Y022035D01*
X033344Y022041D01*
X033350Y022046D01*
X033355Y022049D01*
X033390Y022062D01*
X033410Y022063D01*
X033415Y022063D01*
X033422Y022062D01*
X033433Y022059D01*
X033445Y022055D01*
X033453Y022056D01*
X033460Y022054D01*
X034201D01*
X035060Y021195D01*
X035061Y021194D01*
X035062Y021192D01*
X035105Y021152D01*
X035121Y021142D01*
X035136Y021132D01*
X035136Y021132D01*
X035136Y021132D01*
X035138Y021132D01*
X035139Y021131D01*
X035157Y021128D01*
X035175Y021124D01*
X035369Y021124D01*
X035371Y021124D01*
X035373Y021124D01*
X035432Y021126D01*
X035450Y021130D01*
X035467Y021133D01*
X035468Y021133D01*
X035468Y021133D01*
X035469Y021134D01*
X035471Y021135D01*
X035485Y021145D01*
X035501Y021155D01*
X035501Y021156D01*
X035501Y021156D01*
X035501Y021156D01*
X035601Y021256D01*
X035602Y021257D01*
X035604Y021258D01*
X035644Y021301D01*
X035654Y021317D01*
X035664Y021332D01*
X035664Y021332D01*
X035664Y021332D01*
X035665Y021334D01*
X035665Y021335D01*
X035668Y021353D01*
X035672Y021371D01*
X035672Y021598D01*
X035687Y021610D01*
X035745Y021622D01*
X035794Y021655D01*
X035827Y021704D01*
X035838Y021762D01*
X035827Y021820D01*
X035794Y021869D01*
X035745Y021902D01*
X035687Y021913D01*
X035674Y021960D01*
X035672Y021972D01*
X035671Y022028D01*
X035666Y022046D01*
X035663Y022064D01*
X035662Y022065D01*
X035661Y022067D01*
X035651Y022082D01*
X035641Y022097D01*
X034602Y023136D01*
Y026566D01*
X034662Y026610D01*
X034707Y026604D01*
X034741Y026609D01*
X034795Y026557D01*
X034804Y026489D01*
X034830Y026426D01*
X034871Y026371D01*
X034926Y026330D01*
X034989Y026304D01*
X035057Y026295D01*
X035099Y026300D01*
X035111Y026295D01*
X035145Y026261D01*
X035150Y026249D01*
X035145Y026207D01*
X035154Y026139D01*
X035180Y026076D01*
X035221Y026021D01*
X035276Y025980D01*
X035339Y025954D01*
X035407Y025945D01*
X035475Y025954D01*
X035538Y025980D01*
X035592Y026021D01*
X035734Y026163D01*
X035775Y026217D01*
X035802Y026280D01*
X035811Y026348D01*
X035802Y026416D01*
X035775Y026479D01*
X035734Y026534D01*
X035679Y026575D01*
X035616Y026602D01*
X035548Y026611D01*
X035506Y026605D01*
X035494Y026610D01*
X035460Y026644D01*
X035455Y026656D01*
X035461Y026698D01*
X035452Y026766D01*
X035425Y026829D01*
X035384Y026884D01*
X035329Y026925D01*
X035266Y026952D01*
X035198Y026961D01*
X035146Y027014D01*
X035151Y027048D01*
X035141Y027127D01*
X035110Y027200D01*
X035093Y027222D01*
X034813Y026942D01*
X034742Y027013D01*
X035056Y027326D01*
X035057Y027342D01*
X035084Y027372D01*
X035094Y027387D01*
X035104Y027402D01*
X035105Y027404D01*
X035106Y027405D01*
X035108Y027423D01*
X035112Y027441D01*
Y029307D01*
X035422Y029616D01*
X035423Y029617D01*
X035424Y029618D01*
X035464Y029662D01*
X035474Y029677D01*
X035484Y029692D01*
X035484Y029692D01*
X035484Y029692D01*
X035485Y029694D01*
X035485Y029695D01*
X035488Y029713D01*
X035492Y029731D01*
X035492Y030756D01*
X035492Y030757D01*
X035492Y030759D01*
X035492Y030773D01*
X035534Y030816D01*
X037520D01*
X040585Y033882D01*
X040645Y033876D01*
D02*
G37*
G36*
X033990Y040565D02*
Y040504D01*
X033944Y040420D01*
X033931Y040417D01*
X033917Y040416D01*
X033912Y040413D01*
X033905Y040412D01*
X033894Y040405D01*
X033882Y040398D01*
X033878Y040394D01*
X033872Y040390D01*
X033789Y040307D01*
X033786Y040302D01*
X033782Y040299D01*
X033775Y040286D01*
X033767Y040274D01*
X033766Y040268D01*
X033757Y040260D01*
X033731Y040246D01*
X033716Y040247D01*
X033674Y040264D01*
X033625Y040306D01*
X033623Y040314D01*
X033590Y040363D01*
X033541Y040396D01*
X033483Y040408D01*
X033425Y040396D01*
X033376Y040363D01*
X033343Y040314D01*
X033332Y040256D01*
X033343Y040198D01*
X033376Y040149D01*
X033377Y040148D01*
X033347Y040048D01*
X031779D01*
X031770Y040046D01*
X031764D01*
X031741Y040082D01*
X031692Y040114D01*
X031634Y040126D01*
X031576Y040114D01*
X031526Y040082D01*
X031503Y040046D01*
X031497D01*
X031488Y040048D01*
X031260D01*
X031216Y040101D01*
X031205Y040159D01*
X031172Y040208D01*
X031123Y040241D01*
X031065Y040253D01*
X031007Y040241D01*
X030958Y040208D01*
X030925Y040159D01*
X030913Y040101D01*
X030913Y040101D01*
X030837Y040041D01*
X030825Y040032D01*
X030812Y040025D01*
X030808Y040021D01*
X030804Y040019D01*
X030796Y040006D01*
X030786Y039994D01*
X030785Y039990D01*
X030782Y039985D01*
X030782Y039983D01*
X030779Y039976D01*
X030758Y039948D01*
X030680Y039908D01*
X030667Y039909D01*
X030655Y039911D01*
X030648Y039910D01*
X030640Y039910D01*
X030628Y039906D01*
X030616Y039903D01*
X030610Y039899D01*
X030603Y039897D01*
X030594Y039888D01*
X030583Y039881D01*
X030572Y039870D01*
X030555Y039866D01*
X030449Y039888D01*
X030442Y039898D01*
X030393Y039931D01*
X030335Y039943D01*
X030333Y039942D01*
X030265Y040011D01*
X030334Y040055D01*
X030404Y040046D01*
X030473Y040055D01*
X030538Y040082D01*
X030594Y040125D01*
X030636Y040181D01*
X030663Y040245D01*
X030673Y040315D01*
Y040394D01*
X030676Y040400D01*
X030755Y040466D01*
X030764Y040468D01*
X031237D01*
X031267Y040474D01*
X031296Y040454D01*
X031348Y040405D01*
X031343Y040381D01*
X031355Y040323D01*
X031388Y040274D01*
X031437Y040241D01*
X031495Y040230D01*
X031553Y040241D01*
X031602Y040274D01*
X031635Y040323D01*
X031646Y040381D01*
X031635Y040439D01*
X031602Y040488D01*
X031553Y040521D01*
X031495Y040533D01*
X031479Y040530D01*
X031430Y040622D01*
X031496Y040688D01*
X031857D01*
X031893Y040695D01*
X031917Y040711D01*
X031939Y040706D01*
X032009Y040661D01*
X032021Y040603D01*
X032054Y040554D01*
X032103Y040521D01*
X032161Y040509D01*
X032219Y040521D01*
X032268Y040554D01*
X032301Y040603D01*
X032307Y040632D01*
X032409D01*
X032414Y040603D01*
X032447Y040554D01*
X032496Y040521D01*
X032554Y040509D01*
X032612Y040521D01*
X032662Y040554D01*
X032694Y040603D01*
X032706Y040661D01*
X032786Y040747D01*
X033807D01*
X033990Y040565D01*
D02*
G37*
G36*
X019846Y022240D02*
X023928Y022240D01*
X023932Y022237D01*
X023964Y022160D01*
X023948Y022136D01*
X023936Y022078D01*
X023948Y022020D01*
X023980Y021970D01*
X024030Y021938D01*
X024088Y021926D01*
X024146Y021938D01*
X024195Y021970D01*
X024293Y021973D01*
X025144Y021122D01*
X025199Y021064D01*
X025199D01*
X025199Y020220D01*
X025197Y020141D01*
Y020141D01*
X024771Y019714D01*
X024714Y019659D01*
Y019659D01*
X022235Y019659D01*
X022160Y019687D01*
X022153Y019700D01*
X022150Y019715D01*
X022142Y019721D01*
X022137Y019731D01*
X020122Y021440D01*
X020129Y021478D01*
X020118Y021536D01*
X020085Y021585D01*
X020036Y021618D01*
X019978Y021629D01*
X019920Y021618D01*
X019877Y021589D01*
X018687Y023210D01*
X018683Y023212D01*
X018681Y023217D01*
X018653Y023245D01*
X018546Y023426D01*
X018610Y023475D01*
X019846Y022240D01*
D02*
G37*
G36*
X033387Y036467D02*
Y036467D01*
X033430Y036426D01*
X034197Y035659D01*
X034197Y035656D01*
X034182Y035634D01*
X034164Y035607D01*
X034160Y035584D01*
X034127Y035578D01*
X034094Y035584D01*
X034094Y035584D01*
X034090Y035607D01*
X034072Y035634D01*
X034057Y035656D01*
X034008Y035689D01*
X033950Y035701D01*
X033892Y035689D01*
X033843Y035656D01*
X033810Y035607D01*
X033798Y035549D01*
X033810Y035491D01*
X033843Y035442D01*
X033862Y035429D01*
X033878Y035374D01*
X033871Y035356D01*
X033847Y035320D01*
X033836Y035262D01*
X033847Y035204D01*
X033880Y035155D01*
X033929Y035122D01*
X033987Y035110D01*
X034045Y035122D01*
X034094Y035155D01*
X034127Y035204D01*
X034139Y035262D01*
X034127Y035320D01*
X034094Y035369D01*
X034075Y035382D01*
X034059Y035437D01*
X034066Y035455D01*
X034072Y035464D01*
X034090Y035491D01*
X034094Y035515D01*
X034127Y035520D01*
X034160Y035515D01*
X034160Y035515D01*
X034164Y035491D01*
X034182Y035464D01*
X034197Y035442D01*
X034246Y035409D01*
X034304Y035398D01*
X034362Y035409D01*
X034411Y035442D01*
X034414Y035442D01*
X035209Y034648D01*
D01*
X035211Y034588D01*
X035210Y030993D01*
X035389Y030815D01*
D01*
X035391Y030756D01*
X035390Y029731D01*
X035390D01*
X035350Y029688D01*
X035010Y029349D01*
Y027441D01*
X035010D01*
X034970Y027398D01*
X034878Y027307D01*
X034848Y027311D01*
X034780Y027302D01*
X034717Y027275D01*
X034663Y027234D01*
X034521Y027092D01*
X034480Y027038D01*
X034454Y026975D01*
X034445Y026907D01*
X034454Y026839D01*
X034480Y026776D01*
X034500Y026749D01*
Y023093D01*
X035569Y022025D01*
D01*
X035570Y021966D01*
X035570Y021855D01*
X035547Y021820D01*
X035536Y021762D01*
X035547Y021704D01*
X035570Y021669D01*
X035570Y021371D01*
X035570D01*
X035529Y021328D01*
X035429Y021228D01*
D01*
X035369Y021226D01*
X035175Y021226D01*
Y021226D01*
X035132Y021267D01*
X034243Y022156D01*
X033460D01*
X033449Y022171D01*
X033433Y022216D01*
X033457Y022252D01*
X033469Y022310D01*
X033457Y022368D01*
X033424Y022417D01*
X033375Y022450D01*
X033317Y022462D01*
X033259Y022450D01*
X033210Y022417D01*
X033177Y022368D01*
X033166Y022310D01*
X033177Y022252D01*
X033210Y022203D01*
X033252Y022175D01*
X033263Y022146D01*
X033268Y022107D01*
X033080Y021919D01*
Y021361D01*
X033080D01*
X033039Y021318D01*
X032969Y021248D01*
D01*
X032909Y021246D01*
X032275Y021246D01*
Y021246D01*
X032232Y021287D01*
X031697Y021822D01*
X031699Y021832D01*
X031687Y021890D01*
X031654Y021939D01*
X031605Y021972D01*
X031549Y021983D01*
X031549Y022163D01*
X031570Y022179D01*
X031609Y022200D01*
X031657Y022190D01*
X031715Y022202D01*
X031764Y022235D01*
X031797Y022284D01*
X031809Y022342D01*
X031797Y022400D01*
X031764Y022449D01*
X031715Y022482D01*
X031657Y022493D01*
X031610Y022484D01*
X031570Y022505D01*
X031550Y022521D01*
X031550Y022849D01*
X031393Y023006D01*
X031177D01*
X030940Y022769D01*
Y019141D01*
X030940D01*
X030900Y019098D01*
X030490Y018689D01*
Y018560D01*
X030430Y018554D01*
X030427Y018570D01*
X030394Y018619D01*
X030345Y018652D01*
X030287Y018663D01*
X030229Y018652D01*
X030180Y018619D01*
X030147Y018570D01*
X030136Y018512D01*
X030147Y018454D01*
X030180Y018405D01*
X030229Y018372D01*
X030287Y018360D01*
X030345Y018372D01*
X030394Y018405D01*
X030427Y018454D01*
X030430Y018470D01*
X030490Y018464D01*
Y018333D01*
X031247Y017576D01*
X031735D01*
X031780Y017567D01*
X031838Y017579D01*
X031887Y017612D01*
X031920Y017661D01*
X031931Y017719D01*
X031927Y017740D01*
X032775Y018588D01*
X032781Y018587D01*
X032831Y018554D01*
X032889Y018543D01*
X032947Y018554D01*
X032996Y018587D01*
X033029Y018636D01*
X033040Y018694D01*
X033045Y018700D01*
X034076Y018699D01*
X035691Y020315D01*
D01*
X035751Y020317D01*
X036303Y020316D01*
X037644Y021658D01*
X037709Y021638D01*
X037713Y021620D01*
X037746Y021570D01*
X037795Y021538D01*
X037853Y021526D01*
X037911Y021538D01*
X037960Y021570D01*
X037993Y021620D01*
X038004Y021678D01*
X037993Y021736D01*
X037960Y021785D01*
X037911Y021818D01*
X037892Y021821D01*
X037873Y021886D01*
X038681Y022695D01*
D01*
X038741Y022697D01*
X039998Y022696D01*
X040026Y022644D01*
X039771Y022261D01*
X039347Y021698D01*
X038892Y021160D01*
X038408Y020648D01*
X037896Y020164D01*
X037358Y019709D01*
X036795Y019285D01*
X036209Y018894D01*
X035602Y018536D01*
X034976Y018212D01*
X034333Y017925D01*
X033674Y017673D01*
X033003Y017459D01*
X032920Y017438D01*
X032869Y017470D01*
X032868Y017476D01*
X032835Y017525D01*
X032786Y017558D01*
X032728Y017570D01*
X032670Y017558D01*
X032620Y017525D01*
X032588Y017476D01*
X032576Y017418D01*
X032586Y017366D01*
X032552Y017351D01*
X032529Y017345D01*
X032468Y017383D01*
X032468Y017384D01*
X032435Y017433D01*
X032386Y017466D01*
X032328Y017477D01*
X032270Y017466D01*
X032220Y017433D01*
X032188Y017384D01*
X032176Y017326D01*
X032178Y017316D01*
X032135Y017246D01*
X032037Y017227D01*
X032035Y017239D01*
X032002Y017288D01*
X031953Y017321D01*
X031895Y017333D01*
X031837Y017321D01*
X031788Y017288D01*
X031764Y017253D01*
X031715Y017244D01*
X031695Y017247D01*
X031694Y017249D01*
X031645Y017282D01*
X031587Y017293D01*
X031529Y017282D01*
X031480Y017249D01*
X031447Y017200D01*
X031436Y017142D01*
X031417Y017116D01*
X030932Y017047D01*
X030913Y017046D01*
X030503Y017456D01*
X030342D01*
X030302Y017482D01*
X030244Y017494D01*
X030186Y017482D01*
X030147Y017456D01*
X029305D01*
Y017456D01*
X029262Y017497D01*
X029031Y017728D01*
D01*
X029029Y017787D01*
X029029Y018656D01*
X029047Y018670D01*
X029105Y018682D01*
X029154Y018715D01*
X029187Y018764D01*
X029199Y018822D01*
X029187Y018880D01*
X029154Y018929D01*
X029105Y018962D01*
X029047Y018973D01*
X029030Y018988D01*
X029030Y022591D01*
X029030D01*
X029070Y022634D01*
X029725Y023289D01*
X029766Y023297D01*
X029815Y023330D01*
X029848Y023379D01*
X029856Y023419D01*
X029903Y023467D01*
X029966Y023453D01*
X029970Y023449D01*
X030000Y023403D01*
X030050Y023370D01*
X030108Y023359D01*
X030166Y023370D01*
X030215Y023403D01*
X030248Y023452D01*
X030259Y023510D01*
X030248Y023568D01*
X030215Y023617D01*
X030169Y023648D01*
X030165Y023652D01*
X030151Y023714D01*
X030601Y024165D01*
D01*
X030661Y024167D01*
X031094Y024167D01*
X031097Y024154D01*
X031130Y024105D01*
X031179Y024072D01*
X031237Y024060D01*
X031295Y024072D01*
X031344Y024105D01*
X031377Y024154D01*
X031380Y024167D01*
X032073Y024166D01*
X032517Y024610D01*
X032576Y024602D01*
X032615Y024529D01*
X032700Y024425D01*
X032805Y024339D01*
X032924Y024276D01*
X033053Y024237D01*
X033187Y024223D01*
X033321Y024237D01*
X033450Y024276D01*
X033569Y024339D01*
X033674Y024425D01*
X033759Y024529D01*
X033823Y024648D01*
X033862Y024778D01*
X033875Y024912D01*
X033862Y025046D01*
X033823Y025175D01*
X033759Y025294D01*
X033674Y025399D01*
X033569Y025484D01*
X033497Y025523D01*
X033488Y025582D01*
X034190Y026283D01*
Y027321D01*
X034190D01*
X034230Y027364D01*
X034500Y027633D01*
Y031679D01*
X032671Y033508D01*
D01*
X032669Y033567D01*
X032670Y035777D01*
X032730Y035826D01*
X032731Y035826D01*
X032789Y035838D01*
X032838Y035870D01*
X032871Y035920D01*
X032883Y035978D01*
X032871Y036036D01*
X032838Y036085D01*
X032799Y036111D01*
X032790Y036157D01*
X032791Y036177D01*
X032824Y036226D01*
X032835Y036284D01*
X032824Y036342D01*
X032791Y036392D01*
X032767Y036407D01*
X032785Y036467D01*
X033387Y036467D01*
D02*
G37*
G36*
X024616Y036209D02*
X024616Y034569D01*
X024570Y034531D01*
X024567Y034531D01*
X024509Y034520D01*
X024460Y034487D01*
X024427Y034438D01*
X024416Y034380D01*
X024427Y034322D01*
X024460Y034273D01*
Y034201D01*
X024427Y034152D01*
X024416Y034094D01*
X024427Y034036D01*
X024460Y033987D01*
Y033915D01*
X024427Y033866D01*
X024416Y033808D01*
X024427Y033750D01*
X024460Y033701D01*
X024509Y033668D01*
X024567Y033657D01*
X024625Y033668D01*
X024674Y033701D01*
X024681Y033711D01*
X024758Y033720D01*
X024764Y033715D01*
X024779Y033705D01*
X024795Y033695D01*
X024796Y033695D01*
X024797Y033694D01*
X024815Y033691D01*
X024834Y033687D01*
X025479D01*
X025494Y033690D01*
X025509Y033692D01*
X025513Y033694D01*
X025518Y033695D01*
X025531Y033703D01*
X025544Y033710D01*
X025547Y033714D01*
X025551Y033717D01*
X025560Y033730D01*
X025569Y033741D01*
X025588Y033776D01*
X025645Y033765D01*
X025664Y033768D01*
X025682Y033759D01*
X025708Y033731D01*
X025715Y033720D01*
X025714Y033715D01*
X025716Y033700D01*
X025718Y033686D01*
X025720Y033681D01*
X025721Y033676D01*
X025730Y033664D01*
X025737Y033651D01*
X025741Y033647D01*
X025743Y033643D01*
X026581Y032806D01*
X026580Y032746D01*
X026439Y032617D01*
X026182Y032336D01*
X025950Y032034D01*
X025745Y031713D01*
X025570Y031376D01*
X025424Y031024D01*
X025310Y030661D01*
X025227Y030289D01*
X025177Y029912D01*
X025161Y029531D01*
X025177Y029151D01*
X025227Y028773D01*
X025310Y028402D01*
X025424Y028039D01*
X025570Y027687D01*
X025745Y027349D01*
X025950Y027028D01*
X026021Y026935D01*
X025088Y026001D01*
X025044Y025960D01*
Y025960D01*
X020346Y025960D01*
X020341Y025965D01*
X020330Y026023D01*
X020297Y026072D01*
X020248Y026105D01*
X020190Y026117D01*
X020132Y026105D01*
X020083Y026072D01*
X020050Y026023D01*
X020038Y025965D01*
X020034Y025960D01*
X019497Y025960D01*
X019489Y025961D01*
X019465Y026020D01*
X019471Y026026D01*
X019471Y026026D01*
X019471Y026026D01*
X019482Y026042D01*
X019493Y026059D01*
X019493Y026059D01*
X019493Y026059D01*
X019497Y026078D01*
X019501Y026098D01*
X019501Y026098D01*
X019501Y026098D01*
X019501Y026938D01*
X019561Y026971D01*
X019570Y026965D01*
X019628Y026953D01*
X019686Y026965D01*
X019735Y026998D01*
X019768Y027047D01*
X019779Y027105D01*
X019768Y027163D01*
X019735Y027212D01*
X019686Y027245D01*
X019628Y027256D01*
X019570Y027245D01*
X019561Y027239D01*
X019501Y027271D01*
X019501Y028911D01*
X019561Y028957D01*
X019578Y028953D01*
X019636Y028965D01*
X019685Y028998D01*
X019718Y029047D01*
X019729Y029105D01*
X019718Y029163D01*
X019685Y029212D01*
X019636Y029245D01*
X019578Y029256D01*
X019561Y029253D01*
X019501Y029299D01*
X019501Y029661D01*
X019561Y029707D01*
X019578Y029703D01*
X019636Y029715D01*
X019685Y029748D01*
X019718Y029797D01*
X019729Y029855D01*
X019718Y029913D01*
X019708Y029927D01*
X020818Y031037D01*
X023024D01*
X023042Y031041D01*
X023060Y031044D01*
X023061Y031045D01*
X023063Y031045D01*
X023078Y031055D01*
X023094Y031065D01*
X023151Y031120D01*
X023152Y031121D01*
X023153Y031122D01*
X023860Y031829D01*
X023887Y031815D01*
X023909Y031793D01*
X023899Y031744D01*
X023911Y031687D01*
X023944Y031637D01*
X023993Y031605D01*
X024051Y031593D01*
X024109Y031605D01*
X024158Y031637D01*
X024191Y031687D01*
X024202Y031744D01*
X024191Y031802D01*
X024185Y031811D01*
X024228Y031855D01*
X024249Y031841D01*
X024307Y031829D01*
X024365Y031841D01*
X024414Y031874D01*
X024447Y031923D01*
X024458Y031981D01*
X024447Y032039D01*
X024414Y032088D01*
X024365Y032121D01*
X024307Y032132D01*
X024249Y032121D01*
X024211Y032096D01*
X024173Y032142D01*
X024399Y032368D01*
X024434Y032378D01*
X024473Y032376D01*
X024475Y032374D01*
X024509Y032352D01*
X024567Y032340D01*
X024625Y032352D01*
X024674Y032385D01*
X024707Y032434D01*
X024719Y032492D01*
X024707Y032550D01*
X024674Y032599D01*
Y032670D01*
X024707Y032720D01*
X024719Y032778D01*
X024707Y032836D01*
X024674Y032885D01*
Y032956D01*
X024707Y033005D01*
X024719Y033063D01*
X024707Y033121D01*
X024674Y033171D01*
X024625Y033203D01*
X024567Y033215D01*
X024509Y033203D01*
X024501Y033198D01*
X024441Y033230D01*
X024441Y033527D01*
X024437Y033546D01*
X024433Y033566D01*
X024433Y033566D01*
X024433Y033566D01*
X024423Y033581D01*
X024411Y033599D01*
X024337Y033673D01*
X024329Y033685D01*
X024328Y033691D01*
X024328Y034493D01*
X024329Y034499D01*
X024337Y034511D01*
X024411Y034585D01*
X024411Y034585D01*
X024411Y034585D01*
X024423Y034602D01*
X024433Y034618D01*
X024433Y034618D01*
X024433Y034618D01*
X024437Y034638D01*
X024441Y034657D01*
X024441Y034657D01*
X024441Y034657D01*
X024441Y036005D01*
X024441Y036021D01*
X024440Y036023D01*
X024440Y036023D01*
X024440Y036023D01*
X024441Y036024D01*
X024441Y036025D01*
X024437Y036042D01*
X024433Y036060D01*
D01*
X024429Y036073D01*
X024423Y036105D01*
X024429Y036137D01*
X024433Y036151D01*
Y036151D01*
X024446Y036205D01*
X024501Y036257D01*
X024568D01*
X024616Y036209D01*
D02*
G37*
G36*
X029418Y038453D02*
X029433Y038449D01*
X029438Y038449D01*
X029443Y038448D01*
X030706D01*
X030711Y038449D01*
X030716Y038449D01*
X030730Y038453D01*
X030745Y038456D01*
X030750Y038455D01*
X030755Y038448D01*
X030804Y038416D01*
X030862Y038404D01*
X030878Y038407D01*
X031143Y038141D01*
Y037162D01*
X031150Y037126D01*
X031171Y037095D01*
X031550Y036717D01*
X031548Y036698D01*
X031515Y036649D01*
X031503Y036591D01*
X031515Y036533D01*
X031548Y036484D01*
X031597Y036451D01*
X031655Y036440D01*
X031682Y036445D01*
X031742Y036404D01*
X031742Y035942D01*
X031739Y035942D01*
X031690Y035909D01*
X031657Y035860D01*
X031646Y035802D01*
X031657Y035744D01*
X031690Y035695D01*
X031739Y035662D01*
X031797Y035650D01*
X031823Y035594D01*
X031822Y034708D01*
X031817Y034703D01*
X031759Y034692D01*
X031710Y034659D01*
X031677Y034610D01*
X031666Y034552D01*
X031677Y034494D01*
X031710Y034445D01*
X031759Y034412D01*
X031817Y034400D01*
X031822Y034396D01*
X031822Y033373D01*
X031822D01*
X031782Y033330D01*
X031741Y033289D01*
X031707Y033311D01*
X031519Y033409D01*
X031515Y033478D01*
X031524Y033485D01*
X031557Y033534D01*
X031569Y033592D01*
X031557Y033650D01*
X031524Y033699D01*
X031475Y033732D01*
X031417Y033743D01*
X031359Y033732D01*
X031310Y033699D01*
X031277Y033650D01*
X031266Y033594D01*
X031265Y033592D01*
X031212Y033552D01*
X031018Y033632D01*
X030654Y033747D01*
X030283Y033829D01*
X029905Y033879D01*
X029525Y033895D01*
X029145Y033879D01*
X028767Y033829D01*
X028395Y033747D01*
X028032Y033632D01*
X027681Y033487D01*
X027343Y033311D01*
X027022Y033106D01*
X026720Y032874D01*
X026687Y032844D01*
X025816Y033715D01*
X025845Y033770D01*
X025874Y033765D01*
X025932Y033776D01*
X025982Y033809D01*
X026014Y033858D01*
X026026Y033916D01*
X026014Y033974D01*
X025982Y034023D01*
X025932Y034056D01*
X025874Y034068D01*
X025816Y034056D01*
X025807Y034050D01*
X025760Y034027D01*
X025713Y034050D01*
X025703Y034056D01*
X025645Y034068D01*
X025587Y034056D01*
X025538Y034023D01*
X025505Y033974D01*
X025494Y033916D01*
X025505Y033858D01*
X025511Y033849D01*
X025479Y033789D01*
X024834D01*
Y033789D01*
X024790Y033830D01*
X024720Y033901D01*
D01*
X024718Y033960D01*
X024718Y034090D01*
X024719Y034094D01*
X024718Y034098D01*
X024718Y034376D01*
X024719Y034380D01*
X024718Y034384D01*
X024718Y036272D01*
X024631Y036359D01*
X024446D01*
X024441Y036361D01*
X024441Y036591D01*
X024439Y036601D01*
Y036611D01*
X024435Y036620D01*
X024434Y036622D01*
X024452Y036634D01*
X024485Y036683D01*
X024496Y036741D01*
X024485Y036799D01*
X024452Y036848D01*
X024403Y036881D01*
X024345Y036893D01*
X024333Y036890D01*
X024333Y036894D01*
X024324Y036907D01*
X024317Y036920D01*
X024313Y036923D01*
X024310Y036927D01*
X024276Y036962D01*
X024271Y037025D01*
X024366Y037121D01*
X024434Y037103D01*
X024455Y037070D01*
X024505Y037038D01*
X024563Y037026D01*
X024621Y037038D01*
X024670Y037070D01*
X024703Y037120D01*
X024714Y037178D01*
X024713Y037184D01*
X024762Y037244D01*
X026399D01*
X026415Y037244D01*
X026420Y037245D01*
X026420Y037245D01*
X026420D01*
X026420D01*
X026425Y037245D01*
X026425Y037245D01*
X026440Y037248D01*
X026454Y037252D01*
D01*
X026492Y037249D01*
X026519Y037243D01*
X026532Y037234D01*
X026590Y037223D01*
X026624Y037230D01*
X026672Y037191D01*
X026676Y037183D01*
X026675Y037178D01*
X026686Y037120D01*
X026719Y037070D01*
X026768Y037038D01*
X026826Y037026D01*
X026884Y037038D01*
X026934Y037070D01*
X026966Y037120D01*
X026978Y037178D01*
X026977Y037184D01*
X027026Y037244D01*
X027295D01*
X027313Y037248D01*
X027331Y037251D01*
X027333Y037252D01*
X027334Y037252D01*
X027350Y037262D01*
X027365Y037272D01*
X027408Y037312D01*
X027409Y037314D01*
X027411Y037315D01*
X027900Y037805D01*
X027956Y037775D01*
X027954Y037768D01*
X027966Y037710D01*
X027999Y037661D01*
X028048Y037628D01*
X028106Y037617D01*
X028164Y037628D01*
X028213Y037661D01*
X028246Y037710D01*
X028257Y037768D01*
X028246Y037826D01*
X028213Y037875D01*
X028164Y037908D01*
X028114Y037918D01*
X028112Y037921D01*
X028097Y037948D01*
X028088Y037977D01*
X028111Y038011D01*
X028164Y038022D01*
X028213Y038055D01*
X028246Y038104D01*
X028257Y038162D01*
X028255Y038173D01*
X028259Y038174D01*
X028271Y038182D01*
X028284Y038189D01*
X028288Y038193D01*
X028292Y038196D01*
X028465Y038370D01*
X028468Y038374D01*
X028472Y038377D01*
X028479Y038390D01*
X028487Y038403D01*
X028492Y038406D01*
X028500Y038404D01*
X028558Y038416D01*
X028607Y038448D01*
X028611Y038455D01*
X028616Y038456D01*
X028631Y038453D01*
X028645Y038449D01*
X028650Y038449D01*
X028655Y038448D01*
X029131D01*
X029136Y038449D01*
X029141Y038449D01*
X029156Y038453D01*
X029170Y038456D01*
X029175Y038455D01*
X029180Y038448D01*
X029229Y038416D01*
X029287Y038404D01*
X029345Y038416D01*
X029394Y038448D01*
X029399Y038455D01*
X029404Y038456D01*
X029418Y038453D01*
D02*
G37*
G36*
X030545Y041858D02*
X030543Y041851D01*
X030555Y041793D01*
X030588Y041744D01*
X030637Y041711D01*
X030695Y041700D01*
X030717Y041704D01*
X030804Y041642D01*
X030805Y041557D01*
X030745Y041503D01*
X030687Y041491D01*
X030668Y041478D01*
X030638Y041458D01*
X030605Y041409D01*
Y041409D01*
X030605Y041409D01*
X030545Y041338D01*
X030525Y041333D01*
X030467Y041321D01*
X030418Y041288D01*
X030385Y041239D01*
X030384Y041233D01*
X030277Y041191D01*
X030270Y041195D01*
X030212Y041207D01*
X030154Y041195D01*
X030105Y041163D01*
X030072Y041113D01*
X030061Y041056D01*
X030072Y040998D01*
X030101Y040955D01*
X030105Y040948D01*
X030105Y040948D01*
X030112Y040830D01*
X029991Y040708D01*
X029970Y040678D01*
X029963Y040642D01*
Y040188D01*
X029950Y040179D01*
X029917Y040130D01*
X029906Y040072D01*
X029913Y040033D01*
X029903Y040021D01*
X029854Y039982D01*
X029832Y039971D01*
X029817Y039981D01*
X029817Y039981D01*
X029817Y039981D01*
X029796Y039985D01*
X029778Y039989D01*
X029778Y039989D01*
X029778Y039989D01*
X028864Y039989D01*
X028849Y040008D01*
X028842Y040125D01*
X028885Y040181D01*
X028911Y040245D01*
X028921Y040315D01*
Y040394D01*
X028911Y040463D01*
X028885Y040528D01*
X028842Y040584D01*
X028786Y040627D01*
X028721Y040654D01*
X028652Y040663D01*
X028582Y040654D01*
X028517Y040627D01*
X028461Y040584D01*
X028419Y040528D01*
X028392Y040463D01*
X028383Y040394D01*
Y040315D01*
X028392Y040245D01*
X028419Y040181D01*
X028461Y040125D01*
X028454Y040008D01*
X028439Y039989D01*
X026135Y039988D01*
X026117Y039985D01*
X026117Y039985D01*
X026099Y039982D01*
X026098Y039981D01*
X026096Y039981D01*
X026096Y039981D01*
X026096Y039981D01*
X026081Y039970D01*
X026065Y039961D01*
X026022Y039920D01*
X026021Y039919D01*
X026020Y039918D01*
X025950Y039849D01*
X025950Y039849D01*
X025945Y039852D01*
X025887Y039863D01*
X025829Y039852D01*
X025780Y039819D01*
X025747Y039770D01*
X025736Y039712D01*
X025746Y039659D01*
X025745Y039650D01*
X025693Y039555D01*
X025679Y039552D01*
X025630Y039519D01*
X025597Y039470D01*
X025587Y039418D01*
X025557Y039416D01*
X025548Y039414D01*
X025539Y039413D01*
X025529Y039409D01*
X025519Y039406D01*
X025511Y039401D01*
X025503Y039397D01*
X025495Y039391D01*
X025490Y039385D01*
X025483Y039381D01*
X025466Y039364D01*
X025214D01*
X025205Y039367D01*
X025188Y039379D01*
X025188Y039379D01*
X025150Y039438D01*
X025145Y039461D01*
X025145Y039464D01*
X025814Y040132D01*
X025829Y040122D01*
X025887Y040110D01*
X025945Y040122D01*
X025994Y040155D01*
X026027Y040204D01*
X026038Y040262D01*
X026027Y040320D01*
X026017Y040335D01*
X026145Y040464D01*
X026209Y040526D01*
X026217Y040531D01*
X026217Y040531D01*
X026218D01*
X026227Y040533D01*
X026568D01*
Y040168D01*
X027288D01*
Y040878D01*
X027289Y040885D01*
Y040887D01*
X027291Y040889D01*
X027294Y040895D01*
X027350Y040957D01*
X027518Y041126D01*
X027518Y041126D01*
X027548Y041156D01*
X027548Y041181D01*
X027572Y041207D01*
X027676Y041229D01*
X027687Y041219D01*
X027712Y041186D01*
X027774Y041139D01*
X027846Y041109D01*
X027923Y041099D01*
X028001Y041109D01*
X028073Y041139D01*
X028135Y041186D01*
X028182Y041248D01*
X028212Y041320D01*
X028222Y041398D01*
Y041656D01*
X028252Y041690D01*
X028316Y041727D01*
X028347Y041720D01*
X028405Y041732D01*
X028454Y041765D01*
X028487Y041814D01*
X028498Y041872D01*
X028495Y041888D01*
X028566Y041958D01*
X030476D01*
X030545Y041858D01*
D02*
G37*
G36*
X034976Y040850D02*
X035602Y040527D01*
X036209Y040169D01*
X036795Y039777D01*
X036874Y039717D01*
X036862Y039651D01*
X036828Y039628D01*
X036795Y039579D01*
X036783Y039521D01*
X036795Y039463D01*
X036828Y039414D01*
X036877Y039381D01*
X036935Y039370D01*
X036993Y039381D01*
X037042Y039414D01*
X037075Y039463D01*
X037080Y039488D01*
X037144Y039514D01*
X037281Y039411D01*
X037280Y039369D01*
X037247Y039320D01*
X037236Y039262D01*
X037247Y039204D01*
X037280Y039155D01*
X037329Y039122D01*
X037387Y039110D01*
X037445Y039122D01*
X037494Y039155D01*
X037496Y039158D01*
X037576Y039169D01*
X037896Y038899D01*
X038408Y038415D01*
X038892Y037903D01*
X039347Y037364D01*
X039771Y036801D01*
X040162Y036215D01*
X040520Y035608D01*
X040844Y034982D01*
X040920Y034811D01*
X040881Y034751D01*
X040837D01*
X040745Y034733D01*
X040668Y034681D01*
X040616Y034604D01*
X040597Y034512D01*
X040616Y034420D01*
X040668Y034342D01*
X040741Y034293D01*
X040744Y034262D01*
X040741Y034230D01*
X040668Y034181D01*
X040616Y034104D01*
X040597Y034012D01*
X040556Y033980D01*
X040551Y033977D01*
X040546Y033976D01*
X040534Y033968D01*
X040521Y033961D01*
X040517Y033957D01*
X040513Y033954D01*
X037478Y030918D01*
X035534D01*
X035533Y030918D01*
X035532Y030918D01*
X035513Y030914D01*
X035495Y030911D01*
X035494Y030910D01*
X035493Y030910D01*
X035477Y030899D01*
X035462Y030889D01*
X035420Y030928D01*
X035312Y031036D01*
X035312Y034588D01*
X035312Y034590D01*
X035312Y034592D01*
X035311Y034651D01*
X035306Y034669D01*
X035303Y034687D01*
X035303Y034687D01*
X035303Y034687D01*
X035302Y034688D01*
X035301Y034690D01*
X035291Y034704D01*
X035281Y034720D01*
X034486Y035514D01*
X034482Y035517D01*
X034479Y035521D01*
X034466Y035528D01*
X034453Y035536D01*
X034453Y035536D01*
X034456Y035549D01*
X034444Y035607D01*
X034411Y035656D01*
X034362Y035689D01*
X034304Y035701D01*
X034292Y035698D01*
X034292Y035698D01*
X034283Y035711D01*
X034276Y035724D01*
X034272Y035727D01*
X034269Y035731D01*
X033831Y036170D01*
X033860Y036225D01*
X033900Y036217D01*
X033958Y036229D01*
X034008Y036262D01*
X034022Y036284D01*
X034040Y036311D01*
X034045Y036334D01*
X034078Y036340D01*
X034110Y036334D01*
X034110Y036334D01*
X034115Y036311D01*
X034133Y036284D01*
X034148Y036262D01*
X034197Y036229D01*
X034255Y036217D01*
X034313Y036229D01*
X034362Y036262D01*
X034395Y036311D01*
X034406Y036369D01*
X034395Y036427D01*
X034362Y036476D01*
X034313Y036509D01*
X034255Y036520D01*
X034197Y036509D01*
X034148Y036476D01*
X034133Y036454D01*
X034115Y036427D01*
X034110Y036403D01*
X034078Y036398D01*
X034045Y036403D01*
X034045Y036403D01*
X034040Y036427D01*
X034022Y036454D01*
X034008Y036476D01*
X033958Y036509D01*
X033900Y036520D01*
X033842Y036509D01*
X033793Y036476D01*
X033760Y036427D01*
X033749Y036369D01*
X033757Y036329D01*
X033702Y036299D01*
X033508Y036493D01*
X033481Y036547D01*
X033514Y036596D01*
X033577Y036609D01*
X033577Y036609D01*
X033635Y036597D01*
X033693Y036609D01*
X033742Y036642D01*
X033775Y036691D01*
X033786Y036749D01*
X033775Y036807D01*
X033742Y036856D01*
X033693Y036889D01*
X033635Y036900D01*
X033577Y036889D01*
X033528Y036856D01*
X033495Y036807D01*
X033432Y036794D01*
X033431Y036794D01*
X033374Y036806D01*
X033316Y036794D01*
X033266Y036762D01*
X033234Y036712D01*
X033222Y036654D01*
X033227Y036629D01*
X033185Y036569D01*
X032785Y036569D01*
X032780Y036568D01*
X032775Y036569D01*
X032761Y036564D01*
X032746Y036562D01*
X032742Y036559D01*
X032737Y036557D01*
X032726Y036548D01*
X032713Y036539D01*
X032710Y036535D01*
X032706Y036532D01*
X032699Y036519D01*
X032691Y036506D01*
X032690Y036501D01*
X032688Y036497D01*
X032675Y036456D01*
X031993Y036456D01*
X031933Y036458D01*
X031933D01*
X031805Y036586D01*
X031806Y036591D01*
X031795Y036649D01*
X031762Y036698D01*
X031749Y036707D01*
Y036744D01*
X031742Y036780D01*
X031721Y036810D01*
X031331Y037201D01*
Y038180D01*
X031324Y038216D01*
X031303Y038247D01*
X031010Y038540D01*
X031013Y038556D01*
X031002Y038613D01*
X030969Y038663D01*
X030920Y038695D01*
X030862Y038707D01*
X030804Y038695D01*
X030755Y038663D01*
X030722Y038613D01*
X030710Y038556D01*
X030706Y038550D01*
X029443D01*
X029439Y038556D01*
X029427Y038613D01*
X029394Y038663D01*
X029345Y038695D01*
X029287Y038707D01*
X029229Y038695D01*
X029180Y038663D01*
X029147Y038613D01*
X029136Y038556D01*
X029131Y038550D01*
X028655D01*
X028651Y038556D01*
X028640Y038613D01*
X028607Y038663D01*
X028558Y038695D01*
X028500Y038707D01*
X028442Y038695D01*
X028392Y038663D01*
X028360Y038613D01*
X028348Y038556D01*
X028360Y038498D01*
X028392Y038448D01*
X028393Y038442D01*
X028220Y038268D01*
X028213Y038269D01*
X028164Y038302D01*
X028106Y038313D01*
X028048Y038302D01*
X027999Y038269D01*
X027966Y038220D01*
X027954Y038162D01*
X027966Y038104D01*
X027999Y038055D01*
X027999Y038048D01*
X027339Y037387D01*
X027295Y037346D01*
Y037346D01*
X026765D01*
X026742Y037374D01*
X026730Y037432D01*
X026697Y037482D01*
X026648Y037514D01*
X026590Y037526D01*
X026532Y037514D01*
X026483Y037482D01*
X026450Y037432D01*
X026439Y037374D01*
X026415Y037346D01*
X024447D01*
X024101Y037000D01*
X024170Y036971D01*
Y036923D01*
X024239Y036855D01*
X024238Y036848D01*
X024205Y036799D01*
X024193Y036741D01*
X024205Y036683D01*
X024238Y036634D01*
X024287Y036601D01*
X024339Y036591D01*
X024339Y036190D01*
X024318Y036182D01*
X024259Y036176D01*
X024235Y036212D01*
X024186Y036245D01*
X024128Y036257D01*
X024070Y036245D01*
X024020Y036212D01*
X023988Y036163D01*
X023976Y036105D01*
X023988Y036047D01*
X024020Y035998D01*
X024070Y035965D01*
X024128Y035954D01*
X024186Y035965D01*
X024235Y035998D01*
X024259Y036034D01*
X024318Y036029D01*
X024339Y036021D01*
X024339Y034657D01*
X024258Y034576D01*
X024233Y034539D01*
X024225Y034495D01*
Y033689D01*
X024233Y033645D01*
X024258Y033608D01*
X024339Y033527D01*
X024339Y032530D01*
X024337Y032451D01*
Y032451D01*
X023081Y031194D01*
X023024Y031139D01*
Y031139D01*
X020776D01*
X019632Y029995D01*
X019578Y030006D01*
X019520Y029995D01*
X019470Y029962D01*
X019438Y029913D01*
X019426Y029855D01*
X019437Y029800D01*
X019399Y029762D01*
X019399Y026098D01*
X019321Y026020D01*
X019057D01*
X018599Y025562D01*
Y023557D01*
X018537Y023506D01*
X018499Y023513D01*
X018457Y023594D01*
X018460Y024311D01*
X018460Y024311D01*
X018460Y024311D01*
X018450Y024334D01*
X018441Y024357D01*
X018441Y024357D01*
X018441Y024357D01*
X018330Y024468D01*
X018331Y024474D01*
X018377Y024534D01*
X018405Y024603D01*
X018415Y024678D01*
X018405Y024752D01*
X018377Y024821D01*
X018331Y024881D01*
X018271Y024927D01*
X018202Y024955D01*
X018146Y024963D01*
X018151Y025043D01*
X018413D01*
Y025613D01*
X018381D01*
X018365Y025631D01*
X018345Y025693D01*
X018377Y025734D01*
X018405Y025803D01*
X018415Y025878D01*
X018405Y025952D01*
X018377Y026021D01*
X018331Y026081D01*
X018271Y026127D01*
X018202Y026155D01*
X018146Y026163D01*
X018151Y026243D01*
X018413D01*
Y026813D01*
X018381D01*
X018365Y026831D01*
X018345Y026893D01*
X018377Y026934D01*
X018405Y027003D01*
X018415Y027078D01*
X018405Y027152D01*
X018377Y027221D01*
X018331Y027281D01*
X018271Y027327D01*
X018202Y027355D01*
X018146Y027363D01*
X018151Y027443D01*
X018413D01*
Y028013D01*
X018381D01*
X018365Y028031D01*
X018345Y028093D01*
X018377Y028134D01*
X018405Y028203D01*
X018415Y028278D01*
X018405Y028352D01*
X018377Y028421D01*
X018331Y028481D01*
X018271Y028527D01*
X018202Y028555D01*
X018146Y028563D01*
X018151Y028643D01*
X018413D01*
Y029213D01*
X018192D01*
Y029949D01*
X018202Y029950D01*
X018271Y029979D01*
X018331Y030024D01*
X018377Y030084D01*
X018405Y030153D01*
X018411Y030201D01*
X018459Y030212D01*
X018493Y030211D01*
X018520Y030170D01*
X018570Y030138D01*
X018628Y030126D01*
X018686Y030138D01*
X018735Y030170D01*
X018768Y030220D01*
X018779Y030278D01*
X018768Y030336D01*
X018735Y030385D01*
X018686Y030418D01*
X018628Y030429D01*
X018570Y030418D01*
X018520Y030385D01*
X018488Y030336D01*
X018409Y030310D01*
X018401Y030312D01*
X018377Y030371D01*
X018331Y030431D01*
X018271Y030477D01*
X018202Y030505D01*
X018192Y030506D01*
Y031549D01*
X018202Y031550D01*
X018271Y031579D01*
X018331Y031624D01*
X018377Y031684D01*
X018405Y031753D01*
X018415Y031828D01*
X018405Y031902D01*
X018377Y031971D01*
X018331Y032031D01*
X018271Y032077D01*
X018202Y032105D01*
X018177Y032109D01*
X018161Y032377D01*
X018532Y032766D01*
X018541Y032789D01*
X018550Y032812D01*
X018530Y035610D01*
X018590Y035712D01*
X018683Y035824D01*
X018775Y035831D01*
X018824Y035799D01*
X018882Y035787D01*
X018940Y035799D01*
X018989Y035831D01*
X019001Y035849D01*
X019074Y035820D01*
X019077Y035819D01*
X019088Y035761D01*
X019121Y035712D01*
X019170Y035679D01*
X019228Y035668D01*
X019286Y035679D01*
X019335Y035712D01*
X019368Y035761D01*
X019379Y035819D01*
X019368Y035877D01*
X019335Y035926D01*
X019286Y035959D01*
X019228Y035971D01*
X019170Y035959D01*
X019121Y035926D01*
X019109Y035909D01*
X019036Y035938D01*
X019033Y035939D01*
X019022Y035997D01*
X018989Y036046D01*
X018976Y036054D01*
X018952Y036151D01*
X019051Y036271D01*
X019103Y036250D01*
X019178Y036240D01*
X019252Y036250D01*
X019321Y036279D01*
X019381Y036324D01*
X019427Y036384D01*
X019455Y036453D01*
X019465Y036528D01*
X019455Y036602D01*
X019448Y036620D01*
X019504Y036693D01*
X019528Y036690D01*
X019602Y036700D01*
X019671Y036729D01*
X019731Y036774D01*
X019777Y036834D01*
X019805Y036903D01*
X019815Y036978D01*
X019810Y037018D01*
X019860Y037082D01*
X019876Y037090D01*
X019878Y037090D01*
X019952Y037100D01*
X020021Y037129D01*
X020081Y037174D01*
X020127Y037234D01*
X020155Y037303D01*
X020165Y037378D01*
X020155Y037452D01*
X020142Y037484D01*
X020193Y037545D01*
X020228Y037540D01*
X020302Y037550D01*
X020371Y037579D01*
X020431Y037624D01*
X020477Y037684D01*
X020505Y037753D01*
X020515Y037828D01*
X020507Y037888D01*
X020518Y037903D01*
X020559Y037944D01*
X020565Y037948D01*
X020628Y037940D01*
X020702Y037950D01*
X020771Y037979D01*
X020831Y038024D01*
X020877Y038084D01*
X020905Y038153D01*
X020915Y038228D01*
X020908Y038282D01*
X020929Y038314D01*
X020941Y038326D01*
X020973Y038347D01*
X021028Y038340D01*
X021102Y038350D01*
X021171Y038379D01*
X021231Y038424D01*
X021277Y038484D01*
X021305Y038553D01*
X021315Y038628D01*
X021308Y038682D01*
X021329Y038714D01*
X021341Y038726D01*
X021373Y038747D01*
X021428Y038740D01*
X021502Y038750D01*
X021571Y038779D01*
X021631Y038824D01*
X021677Y038884D01*
X021705Y038953D01*
X021715Y039028D01*
X021705Y039102D01*
X021679Y039165D01*
X022086Y039526D01*
X022159Y039493D01*
Y038764D01*
X022126Y038744D01*
X022079Y038730D01*
X022042Y038755D01*
X021984Y038766D01*
X021926Y038755D01*
X021877Y038722D01*
X021844Y038673D01*
X021832Y038615D01*
X021844Y038557D01*
X021877Y038507D01*
X021926Y038475D01*
X021984Y038463D01*
X022042Y038475D01*
X022079Y038499D01*
X022126Y038485D01*
X022159Y038465D01*
Y037735D01*
X022144Y037712D01*
X022132Y037654D01*
X022144Y037596D01*
X022159Y037574D01*
Y037117D01*
X022356Y036920D01*
X022593D01*
X022623Y036846D01*
X022070Y036293D01*
X022014Y036316D01*
X021994Y036330D01*
X021984Y036382D01*
X021951Y036432D01*
X021902Y036464D01*
X021844Y036476D01*
X021786Y036464D01*
X021736Y036432D01*
X021704Y036382D01*
X021692Y036324D01*
X021704Y036266D01*
X021736Y036217D01*
X021786Y036184D01*
X021838Y036174D01*
X021852Y036154D01*
X021875Y036098D01*
X020536Y034759D01*
X020204D01*
X020160Y034750D01*
X020123Y034725D01*
X019556Y034158D01*
X019470Y034186D01*
X019466Y034204D01*
X019433Y034253D01*
X019384Y034286D01*
X019326Y034298D01*
X019268Y034286D01*
X019219Y034253D01*
X019186Y034204D01*
X019175Y034146D01*
X019186Y034088D01*
X019219Y034039D01*
X019268Y034006D01*
X019287Y034002D01*
X019314Y033917D01*
X019216Y033819D01*
X019190D01*
X019152Y033844D01*
X019094Y033856D01*
X019036Y033844D01*
X018986Y033812D01*
X018954Y033762D01*
X018942Y033704D01*
X018954Y033646D01*
X018986Y033597D01*
X019036Y033564D01*
X019094Y033553D01*
X019152Y033564D01*
X019190Y033590D01*
X019264D01*
X019307Y033599D01*
X019344Y033624D01*
X020002Y034281D01*
X020036Y034275D01*
X020084Y034250D01*
X020092Y034209D01*
X020125Y034159D01*
X020174Y034127D01*
X020175Y034059D01*
X020163Y034001D01*
X020175Y033943D01*
X020194Y033914D01*
X020177Y033840D01*
X020168Y033825D01*
X020125Y033796D01*
X020092Y033747D01*
X020080Y033689D01*
X020092Y033631D01*
X020125Y033581D01*
X020174Y033549D01*
X020232Y033537D01*
X020290Y033549D01*
X020339Y033581D01*
X020372Y033631D01*
X020383Y033689D01*
X020372Y033747D01*
X020352Y033776D01*
X020370Y033850D01*
X020379Y033865D01*
X020422Y033894D01*
X020455Y033943D01*
X020466Y034001D01*
X020455Y034059D01*
X020422Y034108D01*
X020373Y034141D01*
X020372Y034209D01*
X020383Y034267D01*
X020372Y034325D01*
X020339Y034374D01*
X020290Y034406D01*
X020278Y034409D01*
X020248Y034490D01*
X020283Y034530D01*
X020584D01*
X020627Y034539D01*
X020664Y034564D01*
X022995Y036894D01*
X023088Y036891D01*
X023111Y036863D01*
X023123Y036805D01*
X023156Y036756D01*
X023205Y036723D01*
X023263Y036711D01*
X023321Y036723D01*
X023370Y036756D01*
X023403Y036805D01*
X023414Y036863D01*
X023452Y036909D01*
X023405Y036909D01*
X023403Y036921D01*
X023370Y036970D01*
X023321Y037003D01*
X023263Y037014D01*
X023205Y037003D01*
X023156Y036970D01*
X023138Y036944D01*
X023106Y036943D01*
X023105Y036943D01*
X023062Y036998D01*
X023065Y037011D01*
Y037043D01*
X023258Y037237D01*
X023258Y037487D01*
X023263Y037491D01*
X023321Y037502D01*
X023370Y037535D01*
X023403Y037584D01*
X023414Y037642D01*
X023403Y037700D01*
X023370Y037749D01*
X023321Y037782D01*
X023277Y037791D01*
X023266Y037851D01*
X023464Y038049D01*
X023489Y038086D01*
X023498Y038130D01*
Y038557D01*
X023681Y038740D01*
X023887D01*
X023926Y038714D01*
X023984Y038703D01*
X024042Y038714D01*
X024091Y038747D01*
X024124Y038796D01*
X024135Y038854D01*
X024124Y038912D01*
X024091Y038962D01*
X024044Y038993D01*
X024050Y039007D01*
Y039262D01*
X024486D01*
X024497Y039204D01*
X024530Y039155D01*
X024579Y039122D01*
X024637Y039110D01*
X024695Y039122D01*
X024744Y039155D01*
X024777Y039204D01*
X024788Y039262D01*
X025508D01*
X025555Y039309D01*
X025563Y039314D01*
X025596Y039316D01*
X025624Y039313D01*
X025630Y039305D01*
X025679Y039272D01*
X025737Y039260D01*
X025795Y039272D01*
X025844Y039305D01*
X025877Y039354D01*
X025889Y039412D01*
X025877Y039470D01*
X025853Y039506D01*
X025876Y039554D01*
X025883Y039561D01*
X025887Y039560D01*
X025945Y039572D01*
X025994Y039605D01*
X026027Y039654D01*
X026038Y039712D01*
X026027Y039770D01*
X026022Y039777D01*
X026092Y039846D01*
X026135Y039886D01*
Y039886D01*
X029778Y039887D01*
X029874Y039791D01*
X029911Y039766D01*
X029919Y039764D01*
X030067Y039616D01*
X030463D01*
X030655Y039809D01*
X030718Y039794D01*
X030721Y039790D01*
X030710Y039737D01*
X030722Y039679D01*
X030755Y039629D01*
X030804Y039597D01*
X030862Y039585D01*
X030920Y039597D01*
X030969Y039629D01*
X031002Y039679D01*
X031013Y039737D01*
X031002Y039795D01*
X030969Y039844D01*
X030920Y039877D01*
X030870Y039886D01*
X030876Y039946D01*
X031488D01*
X031494Y039916D01*
X031526Y039867D01*
X031576Y039834D01*
X031634Y039823D01*
X031692Y039834D01*
X031741Y039867D01*
X031774Y039916D01*
X031779Y039946D01*
X033573D01*
X033583Y039957D01*
X033659Y039948D01*
X033666Y039937D01*
X033716Y039904D01*
X033774Y039893D01*
X033832Y039904D01*
X033881Y039937D01*
X033914Y039986D01*
X033925Y040044D01*
X033914Y040102D01*
X033881Y040152D01*
X033870Y040159D01*
X033861Y040235D01*
X033944Y040318D01*
X034017Y040309D01*
X034019Y040307D01*
X034943Y039383D01*
Y038266D01*
X034923Y038252D01*
X034894Y038265D01*
X034865Y038284D01*
X034855Y038334D01*
X034822Y038383D01*
X034773Y038416D01*
X034715Y038428D01*
X034657Y038416D01*
X034608Y038383D01*
X034575Y038334D01*
X034564Y038276D01*
X034575Y038218D01*
X034608Y038169D01*
X034657Y038136D01*
X034668Y038134D01*
X034697Y038070D01*
X034686Y038012D01*
X034697Y037954D01*
X034730Y037905D01*
X034779Y037872D01*
X034837Y037860D01*
X034895Y037872D01*
X034944Y037905D01*
X034977Y037954D01*
X034989Y038012D01*
X034988Y038017D01*
X035029Y038056D01*
X035081Y038034D01*
Y037705D01*
X035067Y037696D01*
X035034Y037647D01*
X035023Y037589D01*
X035034Y037531D01*
X035067Y037482D01*
X035116Y037449D01*
X035174Y037438D01*
X035232Y037449D01*
X035282Y037482D01*
X035314Y037531D01*
X035319Y037553D01*
X035380D01*
X035384Y037529D01*
X035417Y037480D01*
X035466Y037447D01*
X035524Y037436D01*
X035582Y037447D01*
X035632Y037480D01*
X035664Y037529D01*
X035676Y037587D01*
X035664Y037645D01*
X035632Y037694D01*
X035582Y037727D01*
X035524Y037738D01*
X035466Y037727D01*
X035417Y037694D01*
X035384Y037645D01*
X035380Y037624D01*
X035319D01*
X035314Y037647D01*
X035282Y037696D01*
X035268Y037705D01*
Y038505D01*
X035324Y038528D01*
X035855Y037997D01*
X035885Y037977D01*
X035921Y037970D01*
X036258D01*
X036267Y037956D01*
X036316Y037923D01*
X036374Y037912D01*
X036432Y037923D01*
X036481Y037956D01*
X036514Y038005D01*
X036525Y038063D01*
X036521Y038085D01*
X036570Y038136D01*
X036574Y038136D01*
X036632Y038147D01*
X036682Y038180D01*
X036714Y038229D01*
X036726Y038287D01*
X036714Y038345D01*
X036682Y038394D01*
X036632Y038427D01*
X036574Y038438D01*
X036559Y038435D01*
X036326Y038668D01*
X036295Y038688D01*
X036260Y038696D01*
X035596D01*
X035531Y038761D01*
Y039562D01*
X035524Y039598D01*
X035503Y039628D01*
X034586Y040546D01*
Y040676D01*
X034589Y040679D01*
X034646Y040702D01*
X034677Y040681D01*
X034735Y040670D01*
X034793Y040681D01*
X034842Y040714D01*
X034875Y040763D01*
X034886Y040821D01*
X034886Y040825D01*
X034939Y040867D01*
X034976Y040850D01*
D02*
G37*
G36*
X026538Y041632D02*
X026531Y041578D01*
X026928D01*
Y041528D01*
X026978D01*
Y041131D01*
X027032Y041138D01*
X027129Y041178D01*
X027213Y041242D01*
X027277Y041326D01*
X027317Y041423D01*
X027331Y041528D01*
X027328Y041547D01*
X027422Y041605D01*
X027427Y041601D01*
X027485Y041590D01*
X027559Y041502D01*
X027559Y041373D01*
X027528Y041367D01*
X027519Y041364D01*
X027509Y041362D01*
X027501Y041356D01*
X027492Y041352D01*
X027485Y041345D01*
X027476Y041340D01*
X027471Y041331D01*
X027464Y041324D01*
X027460Y041315D01*
X027454Y041306D01*
X027452Y041297D01*
X027448Y041287D01*
X027448Y041277D01*
X027446Y041267D01*
X027446Y041198D01*
X027278Y041030D01*
X027277Y041027D01*
X027274Y041026D01*
X027212Y040956D01*
X027203Y040941D01*
X027193Y040927D01*
X027193Y040924D01*
X027191Y040921D01*
X027189Y040904D01*
X027186Y040888D01*
X026568D01*
Y040635D01*
X026217D01*
X026198Y040631D01*
X026179Y040628D01*
X026179Y040627D01*
X026178Y040627D01*
X026162Y040616D01*
X026146Y040606D01*
X026075Y040537D01*
X026074Y040537D01*
X026073Y040536D01*
X025945Y040407D01*
X025941Y040403D01*
X025887Y040413D01*
X025829Y040402D01*
X025780Y040369D01*
X025747Y040320D01*
X025736Y040262D01*
X025746Y040207D01*
X025741Y040204D01*
X025066Y039528D01*
X025056Y039513D01*
X025044Y039495D01*
X025044Y039495D01*
X025044Y039495D01*
X025040Y039478D01*
X025036Y039456D01*
X025036Y039456D01*
X024989Y039384D01*
X024987Y039382D01*
X024957Y039364D01*
X024788D01*
X024779Y039362D01*
X024769D01*
X024759Y039358D01*
X024752Y039356D01*
X024744Y039369D01*
X024695Y039402D01*
X024637Y039413D01*
X024579Y039402D01*
X024530Y039369D01*
X024522Y039356D01*
X024515Y039358D01*
X024505Y039362D01*
X024495D01*
X024486Y039364D01*
X024050D01*
X024011Y039356D01*
X023992Y039343D01*
X023985Y039346D01*
X023935D01*
X023902Y039333D01*
X023889Y039327D01*
X023880Y039318D01*
X023861Y039272D01*
Y039255D01*
X023663Y039254D01*
X023269Y038860D01*
Y038176D01*
X022870Y037777D01*
X022845Y037740D01*
X022836Y037697D01*
Y037059D01*
X022774Y036996D01*
X022665Y036992D01*
X022632Y037014D01*
X022593Y037022D01*
X022398D01*
X022261Y037159D01*
Y037484D01*
X022284Y037503D01*
X022342Y037514D01*
X022391Y037547D01*
X022424Y037596D01*
X022435Y037654D01*
X022424Y037712D01*
X022391Y037762D01*
X022342Y037794D01*
X022284Y037806D01*
X022261Y037825D01*
Y038465D01*
X022258Y038476D01*
X022258Y038487D01*
X022255Y038495D01*
X022253Y038504D01*
X022247Y038513D01*
X022242Y038524D01*
X022236Y038530D01*
X022231Y038537D01*
X022221Y038543D01*
X022213Y038551D01*
X022202Y038558D01*
X022198Y038569D01*
X022190Y038609D01*
Y038620D01*
X022198Y038660D01*
X022202Y038671D01*
X022213Y038678D01*
X022221Y038686D01*
X022231Y038692D01*
X022236Y038699D01*
X022242Y038705D01*
X022247Y038716D01*
X022253Y038725D01*
X022255Y038734D01*
X022258Y038742D01*
X022258Y038753D01*
X022261Y038764D01*
Y039493D01*
X022257Y039512D01*
X022254Y039530D01*
X022253Y039531D01*
X022253Y039532D01*
X022243Y039548D01*
X022233Y039563D01*
X022226Y039577D01*
X022224Y039657D01*
X022224Y039672D01*
X022229Y039693D01*
X022253Y039765D01*
X022278Y039793D01*
X022785Y040132D01*
X022890Y040098D01*
X022899Y040089D01*
X022927Y040047D01*
X022976Y040014D01*
X023034Y040003D01*
X023092Y040014D01*
X023142Y040047D01*
X023174Y040096D01*
X023186Y040154D01*
X023174Y040212D01*
X023157Y040239D01*
X023161Y040332D01*
X023170Y040363D01*
X023401Y040499D01*
X023438Y040484D01*
X023491Y040436D01*
X023481Y040327D01*
X023494Y040193D01*
X023533Y040064D01*
X023597Y039945D01*
X023682Y039840D01*
X023786Y039755D01*
X023905Y039691D01*
X024035Y039652D01*
X024169Y039639D01*
X024303Y039652D01*
X024432Y039691D01*
X024551Y039755D01*
X024656Y039840D01*
X024741Y039945D01*
X024805Y040064D01*
X024844Y040193D01*
X024857Y040327D01*
X024844Y040461D01*
X024805Y040591D01*
X024741Y040710D01*
X024656Y040814D01*
X024551Y040899D01*
X024496Y040929D01*
X024500Y041041D01*
X024717Y041138D01*
X025376Y041389D01*
X025537Y041441D01*
X025618Y041382D01*
Y041148D01*
X025798Y040968D01*
X026158D01*
X026338Y041148D01*
Y041508D01*
X026273Y041572D01*
X026300Y041668D01*
X026462Y041710D01*
X026538Y041632D01*
D02*
G37*
%LPC*%
G36*
X020487Y030263D02*
X020429Y030252D01*
X020380Y030219D01*
X020347Y030170D01*
X020336Y030112D01*
X020347Y030054D01*
X020380Y030005D01*
X020429Y029972D01*
X020487Y029960D01*
X020545Y029972D01*
X020594Y030005D01*
X020627Y030054D01*
X020638Y030112D01*
X020627Y030170D01*
X020594Y030219D01*
X020545Y030252D01*
X020487Y030263D01*
D02*
G37*
G36*
X024428Y029079D02*
X024370Y029068D01*
X024320Y029035D01*
X024288Y028986D01*
X024276Y028928D01*
X024288Y028870D01*
X024320Y028820D01*
X024370Y028788D01*
X024428Y028776D01*
X024486Y028788D01*
X024535Y028820D01*
X024568Y028870D01*
X024579Y028928D01*
X024568Y028986D01*
X024535Y029035D01*
X024486Y029068D01*
X024428Y029079D01*
D02*
G37*
G36*
X024108Y029448D02*
X024050Y029437D01*
X024001Y029404D01*
X023968Y029355D01*
X023937Y029309D01*
X023882Y029320D01*
X023824Y029308D01*
X023775Y029276D01*
X023742Y029226D01*
X023731Y029169D01*
X023742Y029111D01*
X023775Y029061D01*
X023824Y029029D01*
X023882Y029017D01*
X023940Y029029D01*
X023989Y029061D01*
X023990Y029062D01*
X024022Y029110D01*
X024022Y029111D01*
X024022Y029111D01*
X024023Y029111D01*
X024040Y029122D01*
X024092Y029149D01*
X024092Y029149D01*
X024108Y029145D01*
X024148Y029153D01*
X024166Y029157D01*
X024215Y029190D01*
X024248Y029239D01*
X024260Y029297D01*
X024248Y029355D01*
X024215Y029404D01*
X024166Y029437D01*
X024108Y029448D01*
D02*
G37*
G36*
X021687Y030513D02*
X021629Y030502D01*
X021580Y030469D01*
X021547Y030420D01*
X021536Y030362D01*
X021547Y030304D01*
X021580Y030255D01*
X021629Y030222D01*
X021687Y030210D01*
X021745Y030222D01*
X021794Y030255D01*
X021827Y030304D01*
X021839Y030362D01*
X021827Y030420D01*
X021794Y030469D01*
X021745Y030502D01*
X021687Y030513D01*
D02*
G37*
G36*
X019578Y030756D02*
X019520Y030745D01*
X019470Y030712D01*
X019438Y030663D01*
X019426Y030605D01*
X019438Y030547D01*
X019470Y030498D01*
X019520Y030465D01*
X019578Y030453D01*
X019636Y030465D01*
X019685Y030498D01*
X019718Y030547D01*
X019729Y030605D01*
X019718Y030663D01*
X019685Y030712D01*
X019636Y030745D01*
X019578Y030756D01*
D02*
G37*
G36*
X024428Y030379D02*
X024370Y030368D01*
X024320Y030335D01*
X024288Y030286D01*
X024276Y030228D01*
X024288Y030170D01*
X024320Y030120D01*
X024370Y030088D01*
X024428Y030076D01*
X024486Y030088D01*
X024535Y030120D01*
X024568Y030170D01*
X024579Y030228D01*
X024568Y030286D01*
X024535Y030335D01*
X024486Y030368D01*
X024428Y030379D01*
D02*
G37*
G36*
X019328Y030456D02*
X019270Y030445D01*
X019220Y030412D01*
X019188Y030363D01*
X019176Y030305D01*
X019188Y030247D01*
X019220Y030198D01*
X019270Y030165D01*
X019328Y030153D01*
X019386Y030165D01*
X019435Y030198D01*
X019468Y030247D01*
X019479Y030305D01*
X019468Y030363D01*
X019435Y030412D01*
X019386Y030445D01*
X019328Y030456D01*
D02*
G37*
G36*
X019028Y028881D02*
X018970Y028869D01*
X018920Y028836D01*
X018888Y028787D01*
X018876Y028729D01*
X018888Y028671D01*
X018920Y028622D01*
X018970Y028589D01*
X019028Y028578D01*
X019086Y028589D01*
X019135Y028622D01*
X019168Y028671D01*
X019179Y028729D01*
X019168Y028787D01*
X019135Y028836D01*
X019086Y028869D01*
X019028Y028881D01*
D02*
G37*
G36*
X024428Y026479D02*
X024370Y026468D01*
X024320Y026435D01*
X024288Y026386D01*
X024276Y026328D01*
X024288Y026270D01*
X024320Y026220D01*
X024370Y026188D01*
X024428Y026176D01*
X024486Y026188D01*
X024535Y026220D01*
X024568Y026270D01*
X024579Y026328D01*
X024568Y026386D01*
X024535Y026435D01*
X024486Y026468D01*
X024428Y026479D01*
D02*
G37*
G36*
X020174Y026539D02*
X020116Y026527D01*
X020067Y026494D01*
X020034Y026445D01*
X020023Y026387D01*
X020034Y026329D01*
X020067Y026280D01*
X020116Y026247D01*
X020174Y026236D01*
X020232Y026247D01*
X020282Y026280D01*
X020314Y026329D01*
X020326Y026387D01*
X020314Y026445D01*
X020282Y026494D01*
X020232Y026527D01*
X020174Y026539D01*
D02*
G37*
G36*
X040621Y025079D02*
X040563Y025068D01*
X040514Y025035D01*
X040481Y024986D01*
X040470Y024928D01*
X040481Y024870D01*
X040514Y024820D01*
X040563Y024788D01*
X040586Y024783D01*
Y024722D01*
X040563Y024718D01*
X040514Y024685D01*
X040481Y024636D01*
X040470Y024578D01*
X040481Y024520D01*
X040514Y024470D01*
X040563Y024438D01*
X040621Y024426D01*
X040679Y024438D01*
X040728Y024470D01*
X040761Y024520D01*
X040773Y024578D01*
X040761Y024636D01*
X040728Y024685D01*
X040679Y024718D01*
X040657Y024722D01*
Y024783D01*
X040679Y024788D01*
X040728Y024820D01*
X040761Y024870D01*
X040773Y024928D01*
X040761Y024986D01*
X040728Y025035D01*
X040679Y025068D01*
X040621Y025079D01*
D02*
G37*
G36*
X039921Y025829D02*
X039863Y025818D01*
X039814Y025785D01*
X039781Y025736D01*
X039770Y025678D01*
X039781Y025620D01*
X039814Y025570D01*
X039863Y025538D01*
X039886Y025533D01*
Y025472D01*
X039863Y025468D01*
X039814Y025435D01*
X039781Y025386D01*
X039770Y025328D01*
X039781Y025270D01*
X039814Y025220D01*
X039863Y025188D01*
X039921Y025176D01*
X039979Y025188D01*
X040028Y025220D01*
X040061Y025270D01*
X040073Y025328D01*
X040061Y025386D01*
X040028Y025435D01*
X039979Y025468D01*
X039957Y025472D01*
Y025533D01*
X039979Y025538D01*
X040028Y025570D01*
X040061Y025620D01*
X040073Y025678D01*
X040061Y025736D01*
X040028Y025785D01*
X039979Y025818D01*
X039921Y025829D01*
D02*
G37*
G36*
X024108Y026848D02*
X024050Y026837D01*
X024001Y026804D01*
X023968Y026755D01*
X023937Y026709D01*
X023882Y026720D01*
X023824Y026708D01*
X023775Y026676D01*
X023742Y026626D01*
X023731Y026569D01*
X023742Y026511D01*
X023775Y026461D01*
X023824Y026429D01*
X023882Y026417D01*
X023940Y026429D01*
X023989Y026461D01*
X023990Y026462D01*
X024022Y026510D01*
X024022Y026511D01*
X024022Y026511D01*
X024023Y026511D01*
X024040Y026522D01*
X024092Y026549D01*
X024092Y026549D01*
X024108Y026545D01*
X024148Y026553D01*
X024166Y026557D01*
X024215Y026590D01*
X024248Y026639D01*
X024260Y026697D01*
X024248Y026755D01*
X024215Y026804D01*
X024166Y026837D01*
X024108Y026848D01*
D02*
G37*
G36*
X024428Y027779D02*
X024370Y027768D01*
X024320Y027735D01*
X024288Y027686D01*
X024276Y027628D01*
X024288Y027570D01*
X024320Y027520D01*
X024370Y027488D01*
X024428Y027476D01*
X024486Y027488D01*
X024535Y027520D01*
X024568Y027570D01*
X024579Y027628D01*
X024568Y027686D01*
X024535Y027735D01*
X024486Y027768D01*
X024428Y027779D01*
D02*
G37*
G36*
X024108Y028150D02*
X024050Y028139D01*
X024001Y028106D01*
X023968Y028057D01*
X023968Y028057D01*
Y028057D01*
X023940Y028008D01*
X023904Y028016D01*
X023882Y028020D01*
X023824Y028008D01*
X023775Y027976D01*
X023742Y027926D01*
X023731Y027868D01*
X023742Y027811D01*
X023775Y027761D01*
X023824Y027729D01*
X023882Y027717D01*
X023940Y027729D01*
X023989Y027761D01*
X024022Y027811D01*
X024022Y027811D01*
Y027811D01*
X024050Y027859D01*
X024087Y027852D01*
X024108Y027847D01*
X024166Y027859D01*
X024215Y027892D01*
X024248Y027941D01*
X024260Y027999D01*
X024248Y028057D01*
X024215Y028106D01*
X024166Y028139D01*
X024108Y028150D01*
D02*
G37*
G36*
X038487Y027463D02*
X038429Y027452D01*
X038380Y027419D01*
X038347Y027370D01*
X038336Y027312D01*
X038295Y027312D01*
X038287Y027313D01*
X038229Y027302D01*
X038180Y027269D01*
X038147Y027220D01*
X038136Y027162D01*
X038147Y027104D01*
X038180Y027055D01*
X038229Y027022D01*
X038287Y027010D01*
X038336Y026962D01*
X038347Y026904D01*
X038380Y026855D01*
X038429Y026822D01*
X038487Y026810D01*
X038545Y026822D01*
X038594Y026855D01*
X038627Y026904D01*
X038631Y026926D01*
X038693D01*
X038697Y026904D01*
X038730Y026855D01*
X038779Y026822D01*
X038837Y026810D01*
X038878Y026818D01*
X038902Y026816D01*
X038942Y026781D01*
X038947Y026754D01*
X038971Y026718D01*
X038948Y026669D01*
X038941Y026662D01*
X038937Y026663D01*
X038879Y026652D01*
X038830Y026619D01*
X038797Y026570D01*
X038786Y026512D01*
X038797Y026454D01*
X038830Y026405D01*
X038879Y026372D01*
X038937Y026360D01*
X038995Y026372D01*
X039016Y026386D01*
Y026386D01*
X039021Y026390D01*
X039022Y026390D01*
X039022Y026390D01*
X039022Y026389D01*
X039023Y026388D01*
X039063Y026348D01*
X039064Y026347D01*
X039065Y026346D01*
X039065Y026346D01*
X039065Y026346D01*
X039061Y026341D01*
Y026341D01*
X039047Y026320D01*
X039036Y026262D01*
X039047Y026204D01*
X039061Y026183D01*
X039061D01*
X039065Y026177D01*
X039065Y026177D01*
X039065Y026177D01*
X039064Y026177D01*
X039063Y026175D01*
X039023Y026136D01*
X039022Y026135D01*
X039022Y026134D01*
X039022Y026134D01*
X039021Y026134D01*
X039016Y026138D01*
X039016D01*
X038995Y026152D01*
X038937Y026163D01*
X038879Y026152D01*
X038830Y026119D01*
X038797Y026070D01*
X038786Y026012D01*
X038797Y025954D01*
X038830Y025905D01*
X038879Y025872D01*
X038937Y025860D01*
X038995Y025872D01*
X039044Y025905D01*
X039077Y025954D01*
X039088Y026012D01*
X039077Y026070D01*
X039063Y026091D01*
X039063D01*
X039059Y026096D01*
X039059Y026096D01*
X039059Y026096D01*
X039060Y026097D01*
X039061Y026098D01*
X039101Y026138D01*
X039102Y026139D01*
X039102Y026140D01*
X039102Y026140D01*
X039103Y026140D01*
X039108Y026136D01*
X039108D01*
X039129Y026122D01*
X039187Y026110D01*
X039245Y026122D01*
X039269Y026138D01*
X039312Y026150D01*
X039355Y026138D01*
X039379Y026122D01*
X039437Y026110D01*
X039495Y026122D01*
X039519Y026138D01*
X039562Y026150D01*
X039605Y026138D01*
X039629Y026122D01*
X039687Y026110D01*
X039745Y026122D01*
X039769Y026138D01*
X039812Y026150D01*
X039855Y026138D01*
X039879Y026122D01*
X039937Y026110D01*
X039995Y026122D01*
X040019Y026138D01*
X040062Y026150D01*
X040105Y026138D01*
X040129Y026122D01*
X040187Y026110D01*
X040245Y026122D01*
X040294Y026155D01*
X040327Y026204D01*
X040339Y026262D01*
X040327Y026320D01*
X040294Y026369D01*
X040245Y026402D01*
X040187Y026413D01*
X040129Y026402D01*
X040080Y026369D01*
X040044D01*
X039995Y026402D01*
X039937Y026413D01*
X039879Y026402D01*
X039830Y026369D01*
X039794D01*
X039745Y026402D01*
X039687Y026413D01*
X039629Y026402D01*
X039580Y026369D01*
X039544D01*
X039495Y026402D01*
X039437Y026413D01*
X039379Y026402D01*
X039330Y026369D01*
X039294D01*
X039245Y026402D01*
X039187Y026413D01*
X039129Y026402D01*
X039108Y026388D01*
Y026388D01*
X039103Y026384D01*
X039102Y026384D01*
X039102Y026384D01*
X039102Y026385D01*
X039101Y026386D01*
X039061Y026425D01*
X039060Y026427D01*
X039059Y026427D01*
X039059Y026427D01*
X039059Y026427D01*
X039063Y026433D01*
Y026433D01*
X039077Y026454D01*
X039088Y026512D01*
X039077Y026570D01*
X039053Y026606D01*
X039076Y026654D01*
X039083Y026661D01*
X039087Y026660D01*
X039145Y026672D01*
X039194Y026705D01*
X039227Y026754D01*
X039239Y026812D01*
X039227Y026870D01*
X039194Y026919D01*
X039145Y026952D01*
X039123Y026956D01*
Y027017D01*
X039145Y027022D01*
X039194Y027055D01*
X039227Y027104D01*
X039239Y027162D01*
X039227Y027220D01*
X039194Y027269D01*
X039145Y027302D01*
X039087Y027313D01*
X039029Y027302D01*
X038980Y027269D01*
X038947Y027220D01*
X038945Y027211D01*
X038888Y027212D01*
X038877Y027270D01*
X038844Y027319D01*
X038795Y027352D01*
X038737Y027363D01*
X038691Y027354D01*
X038627Y027370D01*
X038594Y027419D01*
X038545Y027452D01*
X038487Y027463D01*
D02*
G37*
G36*
X020474Y027689D02*
X020416Y027677D01*
X020367Y027644D01*
X020334Y027595D01*
X020323Y027537D01*
X020334Y027479D01*
X020367Y027430D01*
X020416Y027397D01*
X020474Y027386D01*
X020532Y027397D01*
X020582Y027430D01*
X020614Y027479D01*
X020626Y027537D01*
X020614Y027595D01*
X020582Y027644D01*
X020532Y027677D01*
X020474Y027689D01*
D02*
G37*
G36*
X024108Y030748D02*
X024050Y030737D01*
X024001Y030704D01*
X023968Y030655D01*
X023937Y030609D01*
X023882Y030620D01*
X023824Y030608D01*
X023775Y030576D01*
X023742Y030526D01*
X023731Y030468D01*
X023742Y030411D01*
X023775Y030361D01*
X023824Y030329D01*
X023882Y030317D01*
X023940Y030329D01*
X023989Y030361D01*
X023990Y030362D01*
X024022Y030410D01*
X024022Y030411D01*
X024022Y030411D01*
X024023Y030411D01*
X024040Y030422D01*
X024092Y030449D01*
X024092Y030449D01*
X024108Y030445D01*
X024148Y030453D01*
X024166Y030457D01*
X024215Y030490D01*
X024248Y030539D01*
X024260Y030597D01*
X024248Y030655D01*
X024215Y030704D01*
X024166Y030737D01*
X024108Y030748D01*
D02*
G37*
G36*
X038824Y034739D02*
X038766Y034727D01*
X038717Y034694D01*
X038684Y034645D01*
X038673Y034587D01*
X038684Y034529D01*
X038717Y034480D01*
Y034444D01*
X038684Y034395D01*
X038673Y034337D01*
X038684Y034279D01*
X038717Y034230D01*
Y034194D01*
X038684Y034145D01*
X038673Y034087D01*
X038684Y034029D01*
X038717Y033980D01*
Y033944D01*
X038684Y033895D01*
X038673Y033837D01*
X038684Y033779D01*
X038717Y033730D01*
Y033694D01*
X038684Y033645D01*
X038673Y033587D01*
X038684Y033529D01*
X038717Y033480D01*
Y033444D01*
X038684Y033395D01*
X038673Y033337D01*
X038684Y033279D01*
X038717Y033230D01*
Y033194D01*
X038684Y033145D01*
X038673Y033087D01*
X038684Y033029D01*
X038717Y032980D01*
X038766Y032947D01*
X038824Y032936D01*
X038882Y032947D01*
X038932Y032980D01*
X038964Y033029D01*
X038976Y033087D01*
X038964Y033145D01*
X038932Y033194D01*
Y033230D01*
X038964Y033279D01*
X038976Y033337D01*
X038964Y033395D01*
X038932Y033444D01*
Y033480D01*
X038964Y033529D01*
X038976Y033587D01*
X038964Y033645D01*
X038932Y033694D01*
Y033730D01*
X038964Y033779D01*
X038976Y033837D01*
X038964Y033895D01*
X038932Y033944D01*
Y033980D01*
X038964Y034029D01*
X038976Y034087D01*
X038964Y034145D01*
X038932Y034194D01*
Y034230D01*
X038964Y034279D01*
X038976Y034337D01*
X038964Y034395D01*
X038932Y034444D01*
Y034480D01*
X038964Y034529D01*
X038976Y034587D01*
X038964Y034645D01*
X038932Y034694D01*
X038882Y034727D01*
X038824Y034739D01*
D02*
G37*
G36*
X018928Y033489D02*
X018831Y033470D01*
X018749Y033415D01*
X018695Y033333D01*
X018676Y033237D01*
X018695Y033141D01*
X018749Y033059D01*
X018831Y033004D01*
X018928Y032985D01*
X019024Y033004D01*
X019106Y033059D01*
X019160Y033141D01*
X019179Y033237D01*
X019160Y033333D01*
X019106Y033415D01*
X019024Y033470D01*
X018928Y033489D01*
D02*
G37*
G36*
X020974Y033138D02*
X020916Y033127D01*
X020867Y033094D01*
X020834Y033045D01*
X020823Y032987D01*
X020834Y032929D01*
X020867Y032880D01*
X020916Y032847D01*
X020974Y032836D01*
X021032Y032847D01*
X021082Y032880D01*
X021114Y032929D01*
X021126Y032987D01*
X021114Y033045D01*
X021082Y033094D01*
X021032Y033127D01*
X020974Y033138D01*
D02*
G37*
G36*
X023574Y032922D02*
X023516Y032910D01*
X023467Y032878D01*
X023432D01*
X023382Y032910D01*
X023324Y032922D01*
X023266Y032910D01*
X023217Y032878D01*
X023184Y032828D01*
X023173Y032770D01*
X023184Y032713D01*
X023217Y032663D01*
X023266Y032631D01*
X023324Y032619D01*
X023382Y032631D01*
X023432Y032663D01*
X023467D01*
X023516Y032631D01*
X023574Y032619D01*
X023632Y032631D01*
X023682Y032663D01*
X023714Y032713D01*
X023726Y032770D01*
X023714Y032828D01*
X023682Y032878D01*
X023632Y032910D01*
X023574Y032922D01*
D02*
G37*
G36*
X027043Y034101D02*
X026985Y034089D01*
X026936Y034056D01*
X026903Y034007D01*
X026891Y033949D01*
X026903Y033891D01*
X026936Y033842D01*
X026985Y033809D01*
X027043Y033798D01*
X027101Y033809D01*
X027138Y033834D01*
X027183Y033813D01*
X027193Y033804D01*
X027187Y033772D01*
X027198Y033714D01*
X027231Y033665D01*
X027280Y033632D01*
X027338Y033621D01*
X027396Y033632D01*
X027445Y033665D01*
X027478Y033714D01*
X027490Y033772D01*
X027478Y033830D01*
X027445Y033879D01*
X027396Y033912D01*
X027338Y033924D01*
X027280Y033912D01*
X027243Y033887D01*
X027198Y033909D01*
X027188Y033917D01*
X027194Y033949D01*
X027183Y034007D01*
X027150Y034056D01*
X027101Y034089D01*
X027043Y034101D01*
D02*
G37*
G36*
X027667Y034298D02*
X027609Y034286D01*
X027560Y034253D01*
X027527Y034204D01*
X027515Y034146D01*
X027527Y034088D01*
X027560Y034039D01*
X027609Y034006D01*
X027667Y033995D01*
X027725Y034006D01*
X027774Y034039D01*
X027807Y034088D01*
X027818Y034146D01*
X027807Y034204D01*
X027774Y034253D01*
X027725Y034286D01*
X027667Y034298D01*
D02*
G37*
G36*
X025349Y034313D02*
X025291Y034302D01*
X025242Y034269D01*
X025209Y034220D01*
X025198Y034162D01*
X025209Y034104D01*
X025242Y034055D01*
X025291Y034022D01*
X025349Y034010D01*
X025407Y034022D01*
X025456Y034055D01*
X025489Y034104D01*
X025501Y034162D01*
X025489Y034220D01*
X025456Y034269D01*
X025407Y034302D01*
X025349Y034313D01*
D02*
G37*
G36*
X030507Y034273D02*
X030449Y034262D01*
X030400Y034229D01*
X030367Y034180D01*
X030356Y034122D01*
X030367Y034064D01*
X030400Y034015D01*
X030449Y033982D01*
X030507Y033970D01*
X030565Y033982D01*
X030614Y034015D01*
X030647Y034064D01*
X030659Y034122D01*
X030647Y034180D01*
X030614Y034229D01*
X030565Y034262D01*
X030507Y034273D01*
D02*
G37*
G36*
X022378Y034279D02*
X022320Y034268D01*
X022270Y034235D01*
X022238Y034186D01*
X022226Y034128D01*
X022238Y034070D01*
X022270Y034020D01*
X022320Y033988D01*
X022378Y033976D01*
X022436Y033988D01*
X022485Y034020D01*
X022518Y034070D01*
X022529Y034128D01*
X022518Y034186D01*
X022485Y034235D01*
X022436Y034268D01*
X022378Y034279D01*
D02*
G37*
G36*
X025374Y032989D02*
X025316Y032977D01*
X025267Y032944D01*
X025234Y032895D01*
X025223Y032837D01*
X025234Y032779D01*
X025267Y032730D01*
X025316Y032697D01*
X025374Y032686D01*
X025432Y032697D01*
X025482Y032730D01*
X025514Y032779D01*
X025526Y032837D01*
X025514Y032895D01*
X025482Y032944D01*
X025432Y032977D01*
X025374Y032989D01*
D02*
G37*
G36*
X023126Y032113D02*
X023068Y032101D01*
X023018Y032068D01*
X022986Y032019D01*
X022974Y031961D01*
X022986Y031903D01*
X023018Y031854D01*
X023068Y031821D01*
X023126Y031810D01*
X023184Y031821D01*
X023233Y031854D01*
X023266Y031903D01*
X023277Y031961D01*
X023266Y032019D01*
X023233Y032068D01*
X023184Y032101D01*
X023126Y032113D01*
D02*
G37*
G36*
X025165Y032129D02*
X025107Y032118D01*
X025058Y032085D01*
X025025Y032036D01*
X025013Y031978D01*
X025025Y031920D01*
X025058Y031870D01*
X025107Y031838D01*
X025165Y031826D01*
X025223Y031838D01*
X025272Y031870D01*
X025305Y031920D01*
X025316Y031978D01*
X025305Y032036D01*
X025272Y032085D01*
X025223Y032118D01*
X025165Y032129D01*
D02*
G37*
G36*
X022752Y031994D02*
X022694Y031983D01*
X022644Y031950D01*
X022612Y031901D01*
X022600Y031843D01*
X022612Y031785D01*
X022644Y031736D01*
X022694Y031703D01*
X022752Y031691D01*
X022810Y031703D01*
X022859Y031736D01*
X022892Y031785D01*
X022903Y031843D01*
X022892Y031901D01*
X022859Y031950D01*
X022810Y031983D01*
X022752Y031994D01*
D02*
G37*
G36*
X040837Y031962D02*
X040566D01*
X040569Y031940D01*
X040597Y031873D01*
X040641Y031816D01*
X040698Y031772D01*
X040765Y031744D01*
X040837Y031734D01*
Y031962D01*
D02*
G37*
G36*
X019632Y032140D02*
X019574Y032129D01*
X019525Y032096D01*
X019492Y032047D01*
X019480Y031989D01*
X019492Y031931D01*
X019525Y031881D01*
X019574Y031849D01*
X019632Y031837D01*
X019690Y031849D01*
X019739Y031881D01*
X019772Y031931D01*
X019783Y031989D01*
X019772Y032047D01*
X019739Y032096D01*
X019690Y032129D01*
X019632Y032140D01*
D02*
G37*
G36*
X020594Y032619D02*
X020536Y032608D01*
X020487Y032575D01*
X020454Y032526D01*
X020442Y032468D01*
X020454Y032410D01*
X020487Y032360D01*
X020536Y032328D01*
X020594Y032316D01*
X020652Y032328D01*
X020701Y032360D01*
X020734Y032410D01*
X020745Y032468D01*
X020734Y032526D01*
X020701Y032575D01*
X020652Y032608D01*
X020594Y032619D01*
D02*
G37*
G36*
X025924Y032689D02*
X025866Y032677D01*
X025817Y032644D01*
X025784Y032595D01*
X025773Y032537D01*
X025784Y032479D01*
X025817Y032430D01*
X025866Y032397D01*
X025924Y032386D01*
X025982Y032397D01*
X026032Y032430D01*
X026064Y032479D01*
X026076Y032537D01*
X026064Y032595D01*
X026032Y032644D01*
X025982Y032677D01*
X025924Y032689D01*
D02*
G37*
G36*
X019078Y032029D02*
X019020Y032018D01*
X018970Y031985D01*
X018946Y031949D01*
X018904Y031942D01*
X018901D01*
X018859Y031949D01*
X018835Y031985D01*
X018786Y032018D01*
X018728Y032029D01*
X018670Y032018D01*
X018620Y031985D01*
X018588Y031936D01*
X018576Y031878D01*
X018588Y031820D01*
X018620Y031770D01*
X018670Y031738D01*
X018728Y031726D01*
X018786Y031738D01*
X018835Y031770D01*
X018859Y031806D01*
X018901Y031813D01*
X018904D01*
X018946Y031806D01*
X018970Y031770D01*
X019020Y031738D01*
X019078Y031726D01*
X019136Y031738D01*
X019185Y031770D01*
X019218Y031820D01*
X019229Y031878D01*
X019218Y031936D01*
X019185Y031985D01*
X019136Y032018D01*
X019078Y032029D01*
D02*
G37*
G36*
X018987Y032413D02*
X018929Y032402D01*
X018880Y032369D01*
X018847Y032320D01*
X018836Y032262D01*
X018847Y032204D01*
X018880Y032155D01*
X018929Y032122D01*
X018987Y032110D01*
X019045Y032122D01*
X019094Y032155D01*
X019127Y032204D01*
X019138Y032262D01*
X019127Y032320D01*
X019094Y032369D01*
X019045Y032402D01*
X018987Y032413D01*
D02*
G37*
G36*
X035987Y024613D02*
X035929Y024602D01*
X035880Y024569D01*
X035847Y024520D01*
X035836Y024462D01*
X035847Y024404D01*
X035880Y024355D01*
X035929Y024322D01*
X035987Y024310D01*
X036045Y024322D01*
X036094Y024355D01*
X036127Y024404D01*
X036139Y024462D01*
X036127Y024520D01*
X036094Y024569D01*
X036045Y024602D01*
X035987Y024613D01*
D02*
G37*
G36*
X029347Y021123D02*
X029289Y021112D01*
X029240Y021079D01*
X029207Y021030D01*
X029196Y020972D01*
X029207Y020914D01*
X029240Y020865D01*
X029289Y020832D01*
X029347Y020820D01*
X029405Y020832D01*
X029454Y020865D01*
X029487Y020914D01*
X029499Y020972D01*
X029487Y021030D01*
X029454Y021079D01*
X029405Y021112D01*
X029347Y021123D01*
D02*
G37*
G36*
X031959Y021165D02*
X031901Y021153D01*
X031851Y021121D01*
X031819Y021071D01*
X031807Y021013D01*
X031819Y020955D01*
X031851Y020906D01*
X031901Y020873D01*
X031959Y020862D01*
X032017Y020873D01*
X032066Y020906D01*
X032099Y020955D01*
X032110Y021013D01*
X032099Y021071D01*
X032066Y021121D01*
X032017Y021153D01*
X031959Y021165D01*
D02*
G37*
G36*
X032987Y020833D02*
X032929Y020822D01*
X032880Y020789D01*
X032847Y020740D01*
X032842Y020717D01*
X032823Y020711D01*
X032780Y020710D01*
X032754Y020749D01*
X032705Y020782D01*
X032647Y020793D01*
X032589Y020782D01*
X032540Y020749D01*
X032507Y020700D01*
X032496Y020642D01*
X032507Y020584D01*
X032540Y020535D01*
X032589Y020502D01*
X032647Y020490D01*
X032705Y020502D01*
X032754Y020535D01*
X032787Y020584D01*
X032792Y020607D01*
X032811Y020613D01*
X032854Y020613D01*
X032880Y020575D01*
X032929Y020542D01*
X032987Y020530D01*
X033045Y020542D01*
X033094Y020575D01*
X033127Y020624D01*
X033138Y020682D01*
X033127Y020740D01*
X033094Y020789D01*
X033045Y020822D01*
X032987Y020833D01*
D02*
G37*
G36*
X035037Y020719D02*
X034979Y020708D01*
X034930Y020675D01*
X034897Y020626D01*
X034886Y020568D01*
X034897Y020510D01*
X034930Y020461D01*
X034979Y020428D01*
X035037Y020416D01*
X035095Y020428D01*
X035144Y020461D01*
X035177Y020510D01*
X035189Y020568D01*
X035177Y020626D01*
X035144Y020675D01*
X035095Y020708D01*
X035037Y020719D01*
D02*
G37*
G36*
X031347Y020833D02*
X031289Y020822D01*
X031240Y020789D01*
X031207Y020740D01*
X031196Y020682D01*
X031207Y020624D01*
X031240Y020575D01*
X031289Y020542D01*
X031347Y020530D01*
X031405Y020542D01*
X031454Y020575D01*
X031487Y020624D01*
X031498Y020682D01*
X031487Y020740D01*
X031454Y020789D01*
X031405Y020822D01*
X031347Y020833D01*
D02*
G37*
G36*
X033677Y021593D02*
X033619Y021582D01*
X033570Y021549D01*
X033537Y021500D01*
X033526Y021442D01*
X033537Y021384D01*
X033570Y021335D01*
X033591Y021321D01*
X033590Y021307D01*
X033573Y021260D01*
X033529Y021252D01*
X033482Y021220D01*
X033478Y021218D01*
X033424Y021199D01*
X033407Y021210D01*
X033375Y021232D01*
X033317Y021243D01*
X033259Y021232D01*
X033210Y021199D01*
X033177Y021150D01*
X033166Y021092D01*
X033177Y021034D01*
X033210Y020985D01*
X033259Y020952D01*
X033317Y020940D01*
X033375Y020952D01*
X033422Y020983D01*
X033426Y020985D01*
X033480Y021005D01*
X033497Y020993D01*
X033529Y020972D01*
X033587Y020960D01*
X033645Y020972D01*
X033669Y020988D01*
X033712Y021000D01*
X033755Y020988D01*
X033779Y020972D01*
X033837Y020960D01*
X033895Y020972D01*
X033944Y021005D01*
X033977Y021054D01*
X033988Y021112D01*
X033977Y021170D01*
X033944Y021219D01*
X033895Y021252D01*
X033837Y021263D01*
X033779Y021252D01*
X033756Y021237D01*
X033724Y021248D01*
X033735Y021302D01*
X033784Y021335D01*
X033817Y021384D01*
X033828Y021442D01*
X033817Y021500D01*
X033784Y021549D01*
X033735Y021582D01*
X033677Y021593D01*
D02*
G37*
G36*
X029337Y021523D02*
X029279Y021512D01*
X029230Y021479D01*
X029197Y021430D01*
X029186Y021372D01*
X029197Y021314D01*
X029230Y021265D01*
X029279Y021232D01*
X029337Y021220D01*
X029395Y021232D01*
X029444Y021265D01*
X029477Y021314D01*
X029488Y021372D01*
X029477Y021430D01*
X029444Y021479D01*
X029395Y021512D01*
X029337Y021523D01*
D02*
G37*
G36*
X037921Y021429D02*
X037863Y021418D01*
X037814Y021385D01*
X037781Y021336D01*
X037770Y021278D01*
X037781Y021220D01*
X037814Y021170D01*
X037863Y021138D01*
X037921Y021126D01*
X037979Y021138D01*
X038028Y021170D01*
X038061Y021220D01*
X038073Y021278D01*
X038061Y021336D01*
X038028Y021385D01*
X037979Y021418D01*
X037921Y021429D01*
D02*
G37*
G36*
X029775Y021205D02*
X029717Y021193D01*
X029668Y021160D01*
X029635Y021111D01*
X029624Y021053D01*
X029635Y020995D01*
X029668Y020946D01*
X029717Y020913D01*
X029775Y020902D01*
X029833Y020913D01*
X029882Y020946D01*
X029915Y020995D01*
X029927Y021053D01*
X029915Y021111D01*
X029882Y021160D01*
X029833Y021193D01*
X029775Y021205D01*
D02*
G37*
G36*
X021228Y022079D02*
X021170Y022068D01*
X021120Y022035D01*
X021088Y021986D01*
X021076Y021928D01*
X021088Y021870D01*
X021120Y021820D01*
X021092Y021743D01*
X021085Y021733D01*
X021074Y021675D01*
X021085Y021617D01*
X021118Y021568D01*
X021110Y021485D01*
X021078Y021436D01*
X021066Y021378D01*
X021078Y021320D01*
X021110Y021270D01*
X021100Y021185D01*
X021068Y021136D01*
X021056Y021078D01*
X021068Y021020D01*
X021100Y020970D01*
X021150Y020938D01*
X021208Y020926D01*
X021266Y020938D01*
X021315Y020970D01*
X021348Y021020D01*
X021359Y021078D01*
X021348Y021136D01*
X021315Y021185D01*
X021325Y021270D01*
X021358Y021320D01*
X021369Y021378D01*
X021358Y021436D01*
X021325Y021485D01*
X021332Y021568D01*
X021365Y021617D01*
X021376Y021675D01*
X021365Y021733D01*
X021332Y021782D01*
X021361Y021859D01*
X021368Y021870D01*
X021379Y021928D01*
X021368Y021986D01*
X021335Y022035D01*
X021286Y022068D01*
X021228Y022079D01*
D02*
G37*
G36*
X035988Y019984D02*
X035930Y019972D01*
X035880Y019939D01*
X035848Y019890D01*
X035836Y019832D01*
X035848Y019774D01*
X035880Y019725D01*
X035930Y019692D01*
X035988Y019681D01*
X036046Y019692D01*
X036095Y019725D01*
X036128Y019774D01*
X036139Y019832D01*
X036128Y019890D01*
X036095Y019939D01*
X036046Y019972D01*
X035988Y019984D01*
D02*
G37*
G36*
X032537Y020163D02*
X032479Y020152D01*
X032430Y020119D01*
X032397Y020070D01*
X032386Y020012D01*
X032397Y019954D01*
X032430Y019905D01*
X032479Y019872D01*
X032537Y019860D01*
X032595Y019872D01*
X032644Y019905D01*
X032677Y019954D01*
X032689Y020012D01*
X032677Y020070D01*
X032644Y020119D01*
X032595Y020152D01*
X032537Y020163D01*
D02*
G37*
G36*
X035588Y019894D02*
X035530Y019882D01*
X035480Y019849D01*
X035448Y019800D01*
X035436Y019742D01*
X035448Y019684D01*
X035480Y019635D01*
X035530Y019602D01*
X035588Y019591D01*
X035646Y019602D01*
X035695Y019635D01*
X035728Y019684D01*
X035739Y019742D01*
X035728Y019800D01*
X035695Y019849D01*
X035646Y019882D01*
X035588Y019894D01*
D02*
G37*
G36*
X033737Y019523D02*
X033679Y019512D01*
X033630Y019479D01*
X033597Y019430D01*
X033586Y019372D01*
X033597Y019314D01*
X033630Y019265D01*
X033679Y019232D01*
X033737Y019220D01*
X033795Y019232D01*
X033844Y019265D01*
X033877Y019314D01*
X033888Y019372D01*
X033877Y019430D01*
X033844Y019479D01*
X033795Y019512D01*
X033737Y019523D01*
D02*
G37*
G36*
X029261Y019687D02*
X029203Y019675D01*
X029153Y019642D01*
X029121Y019593D01*
X029109Y019535D01*
X029121Y019477D01*
X029153Y019428D01*
X029203Y019395D01*
X029261Y019384D01*
X029319Y019395D01*
X029368Y019428D01*
X029400Y019477D01*
X029412Y019535D01*
X029400Y019593D01*
X029368Y019642D01*
X029319Y019675D01*
X029261Y019687D01*
D02*
G37*
G36*
X031907Y020693D02*
X031849Y020682D01*
X031800Y020649D01*
X031767Y020600D01*
X031756Y020542D01*
X031767Y020484D01*
X031800Y020435D01*
X031849Y020402D01*
X031907Y020390D01*
X031965Y020402D01*
X032014Y020435D01*
X032047Y020484D01*
X032058Y020542D01*
X032047Y020600D01*
X032014Y020649D01*
X031965Y020682D01*
X031907Y020693D01*
D02*
G37*
G36*
X035437Y020713D02*
X035379Y020702D01*
X035330Y020669D01*
X035297Y020620D01*
X035286Y020562D01*
X035297Y020504D01*
X035330Y020455D01*
X035379Y020422D01*
X035437Y020410D01*
X035495Y020422D01*
X035544Y020455D01*
X035577Y020504D01*
X035589Y020562D01*
X035577Y020620D01*
X035544Y020669D01*
X035495Y020702D01*
X035437Y020713D01*
D02*
G37*
G36*
X024028Y021765D02*
X023940Y021754D01*
X023859Y021720D01*
X023789Y021666D01*
X023735Y021597D01*
X023701Y021515D01*
X023690Y021428D01*
X023701Y021340D01*
X023735Y021259D01*
X023789Y021189D01*
X023859Y021135D01*
X023940Y021101D01*
X023974Y021097D01*
X023974D01*
X024003Y021093D01*
Y021093D01*
Y021090D01*
Y021086D01*
Y021019D01*
Y021015D01*
Y021013D01*
Y021012D01*
X023974Y021008D01*
X023974D01*
X023940Y021004D01*
X023859Y020970D01*
X023789Y020916D01*
X023735Y020847D01*
X023701Y020765D01*
X023690Y020678D01*
X023701Y020590D01*
X023735Y020509D01*
X023789Y020439D01*
X023859Y020385D01*
X023940Y020351D01*
X024028Y020340D01*
X024115Y020351D01*
X024197Y020385D01*
X024266Y020439D01*
X024320Y020509D01*
X024354Y020590D01*
X024365Y020678D01*
X024354Y020765D01*
X024320Y020847D01*
X024266Y020916D01*
X024197Y020970D01*
X024115Y021004D01*
X024081Y021008D01*
X024081D01*
X024052Y021012D01*
Y021013D01*
Y021015D01*
Y021019D01*
Y021086D01*
Y021090D01*
Y021093D01*
Y021093D01*
X024081Y021097D01*
X024081D01*
X024115Y021101D01*
X024197Y021135D01*
X024266Y021189D01*
X024320Y021259D01*
X024354Y021340D01*
X024365Y021428D01*
X024354Y021515D01*
X024320Y021597D01*
X024266Y021666D01*
X024197Y021720D01*
X024115Y021754D01*
X024028Y021765D01*
D02*
G37*
G36*
X033816Y020492D02*
X033758Y020481D01*
X033709Y020448D01*
X033676Y020399D01*
X033665Y020341D01*
X033676Y020283D01*
X033709Y020234D01*
X033758Y020201D01*
X033816Y020189D01*
X033874Y020201D01*
X033923Y020234D01*
X033956Y020283D01*
X033968Y020341D01*
X033956Y020399D01*
X033923Y020448D01*
X033874Y020481D01*
X033816Y020492D01*
D02*
G37*
G36*
X029817Y020603D02*
X029759Y020592D01*
X029710Y020559D01*
X029677Y020510D01*
X029666Y020452D01*
X029677Y020394D01*
X029710Y020345D01*
X029759Y020312D01*
X029817Y020300D01*
X029875Y020312D01*
X029924Y020345D01*
X029957Y020394D01*
X029969Y020452D01*
X029957Y020510D01*
X029924Y020559D01*
X029875Y020592D01*
X029817Y020603D01*
D02*
G37*
G36*
X032057Y023773D02*
X031999Y023762D01*
X031950Y023729D01*
X031917Y023680D01*
X031913Y023662D01*
X031858Y023612D01*
X031800Y023600D01*
X031750Y023567D01*
X031718Y023518D01*
X031706Y023460D01*
X031718Y023402D01*
X031750Y023353D01*
X031800Y023320D01*
X031858Y023309D01*
X031916Y023320D01*
X031965Y023353D01*
X031998Y023402D01*
X032009Y023460D01*
X032068Y023472D01*
X032115Y023482D01*
X032164Y023515D01*
X032197Y023564D01*
X032208Y023622D01*
X032197Y023680D01*
X032164Y023729D01*
X032115Y023762D01*
X032057Y023773D01*
D02*
G37*
G36*
X030958Y023650D02*
X030900Y023638D01*
X030850Y023606D01*
X030818Y023556D01*
X030806Y023498D01*
X030818Y023441D01*
X030850Y023391D01*
X030900Y023359D01*
X030958Y023347D01*
X031016Y023359D01*
X031065Y023391D01*
X031098Y023441D01*
X031109Y023498D01*
X031098Y023556D01*
X031065Y023606D01*
X031016Y023638D01*
X030958Y023650D01*
D02*
G37*
G36*
X031358Y023612D02*
X031300Y023600D01*
X031250Y023567D01*
X031218Y023518D01*
X031206Y023460D01*
X031218Y023402D01*
X031250Y023353D01*
X031300Y023320D01*
X031358Y023309D01*
X031416Y023320D01*
X031465Y023353D01*
X031498Y023402D01*
X031509Y023460D01*
X031498Y023518D01*
X031465Y023567D01*
X031416Y023600D01*
X031358Y023612D01*
D02*
G37*
G36*
X038387Y023413D02*
X038329Y023402D01*
X038280Y023369D01*
X038247Y023320D01*
X038236Y023262D01*
X038247Y023204D01*
X038280Y023155D01*
X038329Y023122D01*
X038387Y023110D01*
X038445Y023122D01*
X038494Y023155D01*
X038527Y023204D01*
X038538Y023262D01*
X038527Y023320D01*
X038494Y023369D01*
X038445Y023402D01*
X038387Y023413D01*
D02*
G37*
G36*
X035371Y023529D02*
X035313Y023518D01*
X035264Y023485D01*
X035231Y023436D01*
X035220Y023378D01*
X035231Y023320D01*
X035264Y023270D01*
X035313Y023238D01*
X035371Y023226D01*
X035429Y023238D01*
X035478Y023270D01*
X035511Y023320D01*
X035523Y023378D01*
X035511Y023436D01*
X035478Y023485D01*
X035429Y023518D01*
X035371Y023529D01*
D02*
G37*
G36*
X037887Y024113D02*
X037829Y024102D01*
X037780Y024069D01*
X037747Y024020D01*
X037736Y023962D01*
X037747Y023904D01*
X037780Y023855D01*
X037829Y023822D01*
X037887Y023810D01*
X037945Y023822D01*
X037994Y023855D01*
X038027Y023904D01*
X038038Y023962D01*
X038027Y024020D01*
X037994Y024069D01*
X037945Y024102D01*
X037887Y024113D01*
D02*
G37*
G36*
X038387Y024313D02*
X038329Y024302D01*
X038280Y024269D01*
X038247Y024220D01*
X038236Y024162D01*
X038247Y024104D01*
X038280Y024055D01*
X038329Y024022D01*
X038387Y024010D01*
X038445Y024022D01*
X038494Y024055D01*
X038527Y024104D01*
X038538Y024162D01*
X038527Y024220D01*
X038494Y024269D01*
X038445Y024302D01*
X038387Y024313D01*
D02*
G37*
G36*
X039787Y024013D02*
X039729Y024002D01*
X039680Y023969D01*
X039647Y023920D01*
X039636Y023862D01*
X039647Y023804D01*
X039680Y023755D01*
X039729Y023722D01*
X039787Y023710D01*
X039845Y023722D01*
X039894Y023755D01*
X039927Y023804D01*
X039938Y023862D01*
X039927Y023920D01*
X039894Y023969D01*
X039845Y024002D01*
X039787Y024013D01*
D02*
G37*
G36*
X033417Y023613D02*
X033359Y023602D01*
X033310Y023569D01*
X033277Y023520D01*
X033273Y023497D01*
X033211D01*
X033207Y023520D01*
X033174Y023569D01*
X033125Y023602D01*
X033067Y023613D01*
X033009Y023602D01*
X032960Y023569D01*
X032927Y023520D01*
X032923Y023497D01*
X032861D01*
X032857Y023520D01*
X032824Y023569D01*
X032775Y023602D01*
X032717Y023613D01*
X032659Y023602D01*
X032610Y023569D01*
X032577Y023520D01*
X032566Y023462D01*
X032577Y023404D01*
X032610Y023355D01*
X032659Y023322D01*
X032717Y023310D01*
X032775Y023322D01*
X032824Y023355D01*
X032857Y023404D01*
X032861Y023426D01*
X032923D01*
X032927Y023404D01*
X032960Y023355D01*
X033009Y023322D01*
X033067Y023310D01*
X033125Y023322D01*
X033174Y023355D01*
X033207Y023404D01*
X033211Y023426D01*
X033273D01*
X033277Y023404D01*
X033310Y023355D01*
X033359Y023322D01*
X033417Y023310D01*
X033475Y023322D01*
X033524Y023355D01*
X033557Y023404D01*
X033568Y023462D01*
X033557Y023520D01*
X033524Y023569D01*
X033475Y023602D01*
X033417Y023613D01*
D02*
G37*
G36*
X039337Y024013D02*
X039279Y024002D01*
X039230Y023969D01*
X039197Y023920D01*
X039186Y023862D01*
X039197Y023804D01*
X039230Y023755D01*
X039279Y023722D01*
X039337Y023710D01*
X039395Y023722D01*
X039444Y023755D01*
X039477Y023804D01*
X039488Y023862D01*
X039477Y023920D01*
X039444Y023969D01*
X039395Y024002D01*
X039337Y024013D01*
D02*
G37*
G36*
X036487Y022313D02*
X036429Y022302D01*
X036380Y022269D01*
X036347Y022220D01*
X036336Y022162D01*
X036347Y022104D01*
X036380Y022055D01*
X036429Y022022D01*
X036487Y022010D01*
X036545Y022022D01*
X036594Y022055D01*
X036627Y022104D01*
X036639Y022162D01*
X036627Y022220D01*
X036594Y022269D01*
X036545Y022302D01*
X036487Y022313D01*
D02*
G37*
G36*
X036074Y022377D02*
X036016Y022365D01*
X035966Y022332D01*
X035934Y022283D01*
X035922Y022225D01*
X035934Y022167D01*
X035966Y022118D01*
X036016Y022085D01*
X036074Y022074D01*
X036132Y022085D01*
X036181Y022118D01*
X036214Y022167D01*
X036225Y022225D01*
X036214Y022283D01*
X036181Y022332D01*
X036132Y022365D01*
X036074Y022377D01*
D02*
G37*
G36*
X038955Y022073D02*
X038897Y022061D01*
X038848Y022028D01*
X038815Y021979D01*
X038803Y021921D01*
X038815Y021863D01*
X038848Y021814D01*
X038897Y021781D01*
X038955Y021770D01*
X039013Y021781D01*
X039062Y021814D01*
X039095Y021863D01*
X039106Y021921D01*
X039095Y021979D01*
X039062Y022028D01*
X039013Y022061D01*
X038955Y022073D01*
D02*
G37*
G36*
X021678Y021826D02*
X021620Y021815D01*
X021570Y021782D01*
X021538Y021733D01*
X021526Y021675D01*
X021538Y021617D01*
X021570Y021568D01*
X021620Y021535D01*
X021678Y021524D01*
X021736Y021535D01*
X021785Y021568D01*
X021818Y021617D01*
X021829Y021675D01*
X021818Y021733D01*
X021785Y021782D01*
X021736Y021815D01*
X021678Y021826D01*
D02*
G37*
G36*
X036087Y021907D02*
X036029Y021896D01*
X035980Y021863D01*
X035947Y021814D01*
X035936Y021756D01*
X035947Y021698D01*
X035980Y021649D01*
X036029Y021616D01*
X036087Y021604D01*
X036145Y021616D01*
X036194Y021649D01*
X036227Y021698D01*
X036239Y021756D01*
X036227Y021814D01*
X036194Y021863D01*
X036145Y021896D01*
X036087Y021907D01*
D02*
G37*
G36*
X036321Y023179D02*
X036263Y023168D01*
X036214Y023135D01*
X036181Y023086D01*
X036170Y023028D01*
X036181Y022970D01*
X036214Y022920D01*
X036263Y022888D01*
X036321Y022876D01*
X036379Y022888D01*
X036428Y022920D01*
X036461Y022970D01*
X036473Y023028D01*
X036461Y023086D01*
X036428Y023135D01*
X036379Y023168D01*
X036321Y023179D01*
D02*
G37*
G36*
X039037Y023363D02*
X038979Y023352D01*
X038930Y023319D01*
X038897Y023270D01*
X038886Y023212D01*
X038897Y023154D01*
X038930Y023105D01*
X038979Y023072D01*
X039037Y023060D01*
X039095Y023072D01*
X039144Y023105D01*
X039177Y023154D01*
X039188Y023212D01*
X039177Y023270D01*
X039144Y023319D01*
X039095Y023352D01*
X039037Y023363D01*
D02*
G37*
G36*
X037637Y023163D02*
X037579Y023152D01*
X037530Y023119D01*
X037497Y023070D01*
X037486Y023012D01*
X037497Y022954D01*
X037530Y022905D01*
X037579Y022872D01*
X037637Y022860D01*
X037695Y022872D01*
X037744Y022905D01*
X037777Y022954D01*
X037789Y023012D01*
X037777Y023070D01*
X037744Y023119D01*
X037695Y023152D01*
X037637Y023163D01*
D02*
G37*
G36*
X034149Y022750D02*
X034091Y022739D01*
X034042Y022706D01*
X034009Y022657D01*
X033998Y022599D01*
X034009Y022541D01*
X034042Y022492D01*
X034091Y022459D01*
X034149Y022447D01*
X034207Y022459D01*
X034256Y022492D01*
X034289Y022541D01*
X034301Y022599D01*
X034289Y022657D01*
X034256Y022706D01*
X034207Y022739D01*
X034149Y022750D01*
D02*
G37*
G36*
X033736Y022762D02*
X033678Y022751D01*
X033629Y022718D01*
X033596Y022669D01*
X033584Y022611D01*
X033596Y022553D01*
X033629Y022504D01*
X033678Y022471D01*
X033736Y022459D01*
X033794Y022471D01*
X033843Y022504D01*
X033876Y022553D01*
X033887Y022611D01*
X033876Y022669D01*
X033843Y022718D01*
X033794Y022751D01*
X033736Y022762D01*
D02*
G37*
G36*
X023574Y034239D02*
X023516Y034227D01*
X023467Y034194D01*
X023432D01*
X023382Y034227D01*
X023324Y034239D01*
X023266Y034227D01*
X023217Y034194D01*
X023184Y034145D01*
X023173Y034087D01*
X023184Y034029D01*
X023217Y033980D01*
X023266Y033947D01*
X023324Y033936D01*
X023382Y033947D01*
X023432Y033980D01*
X023467D01*
X023516Y033947D01*
X023574Y033936D01*
X023632Y033947D01*
X023682Y033980D01*
X023714Y034029D01*
X023726Y034087D01*
X023714Y034145D01*
X023682Y034194D01*
X023632Y034227D01*
X023574Y034239D01*
D02*
G37*
G36*
X027318Y038313D02*
X027261Y038302D01*
X027211Y038269D01*
X027179Y038220D01*
X027167Y038162D01*
X027179Y038104D01*
X027211Y038055D01*
X027261Y038022D01*
X027318Y038010D01*
X027376Y038022D01*
X027426Y038055D01*
X027458Y038104D01*
X027470Y038162D01*
X027458Y038220D01*
X027426Y038269D01*
X027376Y038302D01*
X027318Y038313D01*
D02*
G37*
G36*
X029681D02*
X029623Y038302D01*
X029574Y038269D01*
X029541Y038220D01*
X029529Y038162D01*
X029541Y038104D01*
X029574Y038055D01*
X029623Y038022D01*
X029681Y038010D01*
X029739Y038022D01*
X029788Y038055D01*
X029821Y038104D01*
X029832Y038162D01*
X029821Y038220D01*
X029788Y038269D01*
X029739Y038302D01*
X029681Y038313D01*
D02*
G37*
G36*
X030862Y037920D02*
X030804Y037908D01*
X030755Y037875D01*
X030722Y037826D01*
X030710Y037768D01*
X030722Y037710D01*
X030755Y037661D01*
X030804Y037628D01*
X030862Y037617D01*
X030920Y037628D01*
X030969Y037661D01*
X031002Y037710D01*
X031013Y037768D01*
X031002Y037826D01*
X030969Y037875D01*
X030920Y037908D01*
X030862Y037920D01*
D02*
G37*
G36*
X029287D02*
X029229Y037908D01*
X029180Y037875D01*
X029147Y037826D01*
X029136Y037768D01*
X029147Y037710D01*
X029180Y037661D01*
X029229Y037628D01*
X029287Y037617D01*
X029345Y037628D01*
X029394Y037661D01*
X029427Y037710D01*
X029439Y037768D01*
X029427Y037826D01*
X029394Y037875D01*
X029345Y037908D01*
X029287Y037920D01*
D02*
G37*
G36*
X029681D02*
X029623Y037908D01*
X029574Y037875D01*
X029541Y037826D01*
X029529Y037768D01*
X029541Y037710D01*
X029574Y037661D01*
X029623Y037628D01*
X029681Y037617D01*
X029739Y037628D01*
X029788Y037661D01*
X029821Y037710D01*
X029832Y037768D01*
X029821Y037826D01*
X029788Y037875D01*
X029739Y037908D01*
X029681Y037920D01*
D02*
G37*
G36*
X028106Y038707D02*
X028048Y038695D01*
X027999Y038663D01*
X027966Y038613D01*
X027954Y038556D01*
X027966Y038498D01*
X027999Y038448D01*
X028048Y038416D01*
X028106Y038404D01*
X028164Y038416D01*
X028213Y038448D01*
X028246Y038498D01*
X028257Y038556D01*
X028246Y038613D01*
X028213Y038663D01*
X028164Y038695D01*
X028106Y038707D01*
D02*
G37*
G36*
X026826Y038904D02*
X026768Y038892D01*
X026719Y038859D01*
X026686Y038810D01*
X026675Y038752D01*
X026686Y038694D01*
X026719Y038645D01*
X026768Y038612D01*
X026826Y038601D01*
X026884Y038612D01*
X026934Y038645D01*
X026966Y038694D01*
X026978Y038752D01*
X026966Y038810D01*
X026934Y038859D01*
X026884Y038892D01*
X026826Y038904D01*
D02*
G37*
G36*
X022948Y038845D02*
X022890Y038833D01*
X022841Y038800D01*
X022808Y038751D01*
X022802Y038716D01*
X022797Y038693D01*
X022764Y038661D01*
X022732Y038628D01*
X022709Y038624D01*
X022674Y038617D01*
X022625Y038584D01*
X022592Y038535D01*
X022580Y038477D01*
X022592Y038419D01*
X022625Y038370D01*
X022674Y038337D01*
X022732Y038325D01*
X022790Y038337D01*
X022839Y038370D01*
X022872Y038419D01*
X022879Y038454D01*
X022883Y038477D01*
X022916Y038509D01*
X022948Y038542D01*
X022971Y038546D01*
X023006Y038553D01*
X023056Y038586D01*
X023088Y038635D01*
X023100Y038693D01*
X023088Y038751D01*
X023056Y038800D01*
X023006Y038833D01*
X022948Y038845D01*
D02*
G37*
G36*
X030074Y038313D02*
X030016Y038302D01*
X029967Y038269D01*
X029934Y038220D01*
X029923Y038162D01*
X029934Y038104D01*
X029967Y038055D01*
X030016Y038022D01*
X030074Y038010D01*
X030132Y038022D01*
X030182Y038055D01*
X030214Y038104D01*
X030226Y038162D01*
X030214Y038220D01*
X030182Y038269D01*
X030132Y038302D01*
X030074Y038313D01*
D02*
G37*
G36*
X026826Y038510D02*
X026768Y038499D01*
X026719Y038466D01*
X026686Y038417D01*
X026675Y038359D01*
X026686Y038301D01*
X026719Y038252D01*
X026768Y038219D01*
X026826Y038207D01*
X026884Y038219D01*
X026934Y038252D01*
X026966Y038301D01*
X026978Y038359D01*
X026966Y038417D01*
X026934Y038466D01*
X026884Y038499D01*
X026826Y038510D01*
D02*
G37*
G36*
X029661Y037526D02*
X029603Y037514D01*
X029554Y037482D01*
X029521Y037432D01*
X029510Y037374D01*
X029521Y037316D01*
X029554Y037267D01*
X029603Y037234D01*
X029661Y037223D01*
X029719Y037234D01*
X029768Y037267D01*
X029801Y037316D01*
X029813Y037374D01*
X029801Y037432D01*
X029768Y037482D01*
X029719Y037514D01*
X029661Y037526D01*
D02*
G37*
G36*
X029287Y037526D02*
X029229Y037514D01*
X029180Y037482D01*
X029147Y037432D01*
X029136Y037374D01*
X029147Y037316D01*
X029180Y037267D01*
X029229Y037234D01*
X029287Y037223D01*
X029345Y037234D01*
X029394Y037267D01*
X029427Y037316D01*
X029439Y037374D01*
X029427Y037432D01*
X029394Y037482D01*
X029345Y037514D01*
X029287Y037526D01*
D02*
G37*
G36*
X024041Y036940D02*
X024028Y036928D01*
X023971Y036924D01*
X023971D01*
D01*
X023971Y036924D01*
X023913Y036935D01*
X023855Y036924D01*
X023833Y036909D01*
X023735Y036909D01*
X023773Y036842D01*
X023773Y036840D01*
X023761Y036784D01*
X023773Y036726D01*
X023806Y036677D01*
X023855Y036644D01*
X023913Y036632D01*
X023971Y036644D01*
X024020Y036677D01*
X024053Y036726D01*
X024064Y036784D01*
X024053Y036842D01*
X024044Y036855D01*
X024021Y036894D01*
X024041Y036940D01*
D02*
G37*
G36*
X026826Y036935D02*
X026768Y036924D01*
X026719Y036891D01*
X026686Y036842D01*
X026675Y036784D01*
X026686Y036726D01*
X026719Y036677D01*
X026768Y036644D01*
X026826Y036632D01*
X026884Y036644D01*
X026934Y036677D01*
X026966Y036726D01*
X026978Y036784D01*
X026966Y036842D01*
X026934Y036891D01*
X026884Y036924D01*
X026826Y036935D01*
D02*
G37*
G36*
X029681Y037132D02*
X029623Y037121D01*
X029574Y037088D01*
X029541Y037039D01*
X029529Y036981D01*
X029541Y036923D01*
X029574Y036874D01*
X029623Y036841D01*
X029681Y036829D01*
X029739Y036841D01*
X029788Y036874D01*
X029821Y036923D01*
X029832Y036981D01*
X029821Y037039D01*
X029788Y037088D01*
X029739Y037121D01*
X029681Y037132D01*
D02*
G37*
G36*
X030094Y037920D02*
X030036Y037908D01*
X029987Y037875D01*
X029954Y037826D01*
X029943Y037768D01*
X029954Y037710D01*
X029987Y037661D01*
X030036Y037628D01*
X030094Y037617D01*
X030152Y037628D01*
X030201Y037661D01*
X030234Y037710D01*
X030246Y037768D01*
X030234Y037826D01*
X030201Y037875D01*
X030152Y037908D01*
X030094Y037920D01*
D02*
G37*
G36*
X026587Y038213D02*
X026529Y038202D01*
X026480Y038169D01*
X026447Y038120D01*
X026436Y038062D01*
X026447Y038004D01*
X026480Y037955D01*
X026487Y037950D01*
Y037878D01*
X026483Y037875D01*
X026450Y037826D01*
X026439Y037768D01*
X026450Y037710D01*
X026483Y037661D01*
X026532Y037628D01*
X026590Y037617D01*
X026648Y037628D01*
X026697Y037661D01*
X026730Y037710D01*
X026742Y037768D01*
X026730Y037826D01*
X026697Y037875D01*
X026690Y037880D01*
Y037952D01*
X026694Y037955D01*
X026727Y038004D01*
X026739Y038062D01*
X026727Y038120D01*
X026694Y038169D01*
X026645Y038202D01*
X026587Y038213D01*
D02*
G37*
G36*
X037192Y037685D02*
X037134Y037673D01*
X037085Y037640D01*
X037052Y037591D01*
X037041Y037533D01*
X037052Y037475D01*
X037085Y037426D01*
X037134Y037393D01*
X037192Y037382D01*
X037250Y037393D01*
X037300Y037426D01*
X037332Y037475D01*
X037344Y037533D01*
X037332Y037591D01*
X037300Y037640D01*
X037250Y037673D01*
X037192Y037685D01*
D02*
G37*
G36*
X030074Y037526D02*
X030016Y037514D01*
X029967Y037482D01*
X029934Y037432D01*
X029923Y037374D01*
X029934Y037316D01*
X029967Y037267D01*
X030016Y037234D01*
X030074Y037223D01*
X030132Y037234D01*
X030182Y037267D01*
X030214Y037316D01*
X030226Y037374D01*
X030214Y037432D01*
X030182Y037482D01*
X030132Y037514D01*
X030074Y037526D01*
D02*
G37*
G36*
X036487Y037563D02*
X036429Y037552D01*
X036380Y037519D01*
X036347Y037470D01*
X036336Y037412D01*
X036347Y037354D01*
X036380Y037305D01*
X036429Y037272D01*
X036487Y037260D01*
X036545Y037272D01*
X036594Y037305D01*
X036627Y037354D01*
X036639Y037412D01*
X036627Y037470D01*
X036594Y037519D01*
X036545Y037552D01*
X036487Y037563D01*
D02*
G37*
G36*
X028106Y039494D02*
X028048Y039483D01*
X027999Y039450D01*
X027966Y039401D01*
X027954Y039343D01*
X027966Y039285D01*
X027999Y039236D01*
X028048Y039203D01*
X028106Y039191D01*
X028164Y039203D01*
X028213Y039236D01*
X028246Y039285D01*
X028257Y039343D01*
X028246Y039401D01*
X028213Y039450D01*
X028164Y039483D01*
X028106Y039494D01*
D02*
G37*
G36*
X030862D02*
X030804Y039483D01*
X030755Y039450D01*
X030722Y039401D01*
X030710Y039343D01*
X030722Y039285D01*
X030755Y039236D01*
X030804Y039203D01*
X030862Y039191D01*
X030920Y039203D01*
X030969Y039236D01*
X031002Y039285D01*
X031013Y039343D01*
X031002Y039401D01*
X030969Y039450D01*
X030920Y039483D01*
X030862Y039494D01*
D02*
G37*
G36*
X029287Y039494D02*
X029229Y039483D01*
X029180Y039450D01*
X029147Y039401D01*
X029136Y039343D01*
X029147Y039285D01*
X029180Y039236D01*
X029229Y039203D01*
X029287Y039191D01*
X029345Y039203D01*
X029394Y039236D01*
X029427Y039285D01*
X029439Y039343D01*
X029427Y039401D01*
X029394Y039450D01*
X029345Y039483D01*
X029287Y039494D01*
D02*
G37*
G36*
X035874Y039488D02*
X035816Y039477D01*
X035767Y039444D01*
X035734Y039395D01*
X035723Y039337D01*
X035734Y039279D01*
X035767Y039230D01*
X035816Y039197D01*
X035874Y039186D01*
X035932Y039197D01*
X035982Y039230D01*
X036014Y039279D01*
X036015Y039281D01*
Y039281D01*
X036016Y039288D01*
X036017Y039288D01*
X036020Y039288D01*
X036023Y039288D01*
X036070Y039287D01*
X036073Y039287D01*
X036074Y039281D01*
X036075Y039276D01*
X036079Y039257D01*
X036084Y039229D01*
X036089Y039222D01*
X036117Y039180D01*
X036166Y039147D01*
X036224Y039136D01*
X036282Y039147D01*
X036332Y039180D01*
X036364Y039229D01*
X036376Y039287D01*
X036364Y039345D01*
X036332Y039394D01*
X036282Y039427D01*
X036224Y039439D01*
X036166Y039427D01*
X036117Y039394D01*
X036084Y039345D01*
X036084Y039343D01*
X036084Y039343D01*
X036083Y039336D01*
X036082Y039336D01*
X036079Y039336D01*
X036076Y039336D01*
X036028Y039337D01*
X036026Y039337D01*
X036025Y039343D01*
X036024Y039348D01*
X036020Y039367D01*
X036014Y039395D01*
X036010Y039402D01*
X035982Y039444D01*
X035932Y039477D01*
X035874Y039488D01*
D02*
G37*
G36*
X028893Y039494D02*
X028835Y039483D01*
X028786Y039450D01*
X028753Y039401D01*
X028742Y039343D01*
X028753Y039285D01*
X028786Y039236D01*
X028835Y039203D01*
X028893Y039191D01*
X028951Y039203D01*
X029000Y039236D01*
X029033Y039285D01*
X029045Y039343D01*
X029033Y039401D01*
X029000Y039450D01*
X028951Y039483D01*
X028893Y039494D01*
D02*
G37*
G36*
X028539Y041364D02*
X028481Y041353D01*
X028432Y041320D01*
X028399Y041271D01*
X028387Y041213D01*
X028399Y041155D01*
X028432Y041106D01*
X028481Y041073D01*
X028539Y041062D01*
X028597Y041073D01*
X028646Y041106D01*
X028679Y041155D01*
X028690Y041213D01*
X028679Y041271D01*
X028646Y041320D01*
X028597Y041353D01*
X028539Y041364D01*
D02*
G37*
G36*
X026878Y041478D02*
X026531D01*
X026538Y041423D01*
X026578Y041326D01*
X026642Y041242D01*
X026726Y041178D01*
X026823Y041138D01*
X026878Y041131D01*
Y041478D01*
D02*
G37*
G36*
X025435Y040563D02*
X025377Y040551D01*
X025328Y040518D01*
X025295Y040469D01*
X025283Y040411D01*
X025295Y040353D01*
X025328Y040304D01*
X025377Y040271D01*
X025435Y040260D01*
X025493Y040271D01*
X025542Y040304D01*
X025575Y040353D01*
X025586Y040411D01*
X025575Y040469D01*
X025542Y040518D01*
X025493Y040551D01*
X025435Y040563D01*
D02*
G37*
G36*
X023387Y039508D02*
X023329Y039496D01*
X023280Y039463D01*
X023247Y039414D01*
X023236Y039356D01*
X023247Y039298D01*
X023280Y039249D01*
X023329Y039216D01*
X023387Y039205D01*
X023445Y039216D01*
X023494Y039249D01*
X023527Y039298D01*
X023538Y039356D01*
X023527Y039414D01*
X023494Y039463D01*
X023445Y039496D01*
X023387Y039508D01*
D02*
G37*
G36*
X033794Y039816D02*
X033736Y039804D01*
X033686Y039772D01*
X033654Y039722D01*
X033642Y039664D01*
X033654Y039606D01*
X033686Y039557D01*
X033736Y039524D01*
X033794Y039513D01*
X033852Y039524D01*
X033901Y039557D01*
X033934Y039606D01*
X033945Y039664D01*
X033934Y039722D01*
X033901Y039772D01*
X033852Y039804D01*
X033794Y039816D01*
D02*
G37*
G36*
X028106Y039101D02*
X028048Y039089D01*
X027999Y039056D01*
X027966Y039007D01*
X027954Y038949D01*
X027966Y038891D01*
X027999Y038842D01*
X028048Y038809D01*
X028106Y038798D01*
X028164Y038809D01*
X028213Y038842D01*
X028246Y038891D01*
X028257Y038949D01*
X028246Y039007D01*
X028213Y039056D01*
X028164Y039089D01*
X028106Y039101D01*
D02*
G37*
G36*
X028500D02*
X028442Y039089D01*
X028392Y039056D01*
X028360Y039007D01*
X028348Y038949D01*
X028360Y038891D01*
X028392Y038842D01*
X028442Y038809D01*
X028500Y038798D01*
X028558Y038809D01*
X028607Y038842D01*
X028640Y038891D01*
X028651Y038949D01*
X028640Y039007D01*
X028607Y039056D01*
X028558Y039089D01*
X028500Y039101D01*
D02*
G37*
G36*
X027319D02*
X027261Y039089D01*
X027211Y039056D01*
X027179Y039007D01*
X027167Y038949D01*
X027179Y038891D01*
X027211Y038842D01*
X027261Y038809D01*
X027319Y038798D01*
X027376Y038809D01*
X027426Y038842D01*
X027458Y038891D01*
X027470Y038949D01*
X027458Y039007D01*
X027426Y039056D01*
X027376Y039089D01*
X027319Y039101D01*
D02*
G37*
G36*
X026433Y039002D02*
X026375Y038991D01*
X026326Y038958D01*
X026293Y038909D01*
X026281Y038851D01*
X026293Y038793D01*
X026326Y038744D01*
X026375Y038711D01*
X026433Y038699D01*
X026491Y038711D01*
X026540Y038744D01*
X026573Y038793D01*
X026584Y038851D01*
X026573Y038909D01*
X026540Y038958D01*
X026491Y038991D01*
X026433Y039002D01*
D02*
G37*
G36*
X031649Y039101D02*
X031591Y039089D01*
X031542Y039056D01*
X031509Y039007D01*
X031498Y038949D01*
X031509Y038891D01*
X031542Y038842D01*
X031591Y038809D01*
X031649Y038798D01*
X031707Y038809D01*
X031756Y038842D01*
X031789Y038891D01*
X031801Y038949D01*
X031789Y039007D01*
X031756Y039056D01*
X031707Y039089D01*
X031649Y039101D01*
D02*
G37*
G36*
X036674Y039388D02*
X036616Y039377D01*
X036567Y039344D01*
X036534Y039295D01*
X036523Y039237D01*
X036534Y039179D01*
X036567Y039130D01*
X036616Y039097D01*
X036674Y039086D01*
X036732Y039097D01*
X036782Y039130D01*
X036814Y039179D01*
X036826Y039237D01*
X036814Y039295D01*
X036782Y039344D01*
X036732Y039377D01*
X036674Y039388D01*
D02*
G37*
G36*
X025437Y039163D02*
X025379Y039152D01*
X025330Y039119D01*
X025294D01*
X025245Y039152D01*
X025187Y039163D01*
X025129Y039152D01*
X025080Y039119D01*
X025047Y039070D01*
X025036Y039012D01*
X025047Y038954D01*
X025080Y038905D01*
X025129Y038872D01*
X025187Y038860D01*
X025245Y038872D01*
X025294Y038905D01*
X025330D01*
X025379Y038872D01*
X025437Y038860D01*
X025495Y038872D01*
X025544Y038905D01*
X025577Y038954D01*
X025589Y039012D01*
X025577Y039070D01*
X025544Y039119D01*
X025495Y039152D01*
X025437Y039163D01*
D02*
G37*
G36*
X033794Y039256D02*
X033736Y039244D01*
X033686Y039212D01*
X033654Y039162D01*
X033642Y039104D01*
X033654Y039046D01*
X033686Y038997D01*
X033736Y038964D01*
X033794Y038953D01*
X033852Y038964D01*
X033901Y038997D01*
X033934Y039046D01*
X033945Y039104D01*
X033934Y039162D01*
X033901Y039212D01*
X033852Y039244D01*
X033794Y039256D01*
D02*
G37*
G36*
X030074Y039101D02*
X030016Y039089D01*
X029967Y039056D01*
X029934Y039007D01*
X029923Y038949D01*
X029934Y038891D01*
X029967Y038842D01*
X030016Y038809D01*
X030074Y038798D01*
X030132Y038809D01*
X030182Y038842D01*
X030214Y038891D01*
X030226Y038949D01*
X030214Y039007D01*
X030182Y039056D01*
X030132Y039089D01*
X030074Y039101D01*
D02*
G37*
G36*
X030862D02*
X030804Y039089D01*
X030755Y039056D01*
X030722Y039007D01*
X030710Y038949D01*
X030722Y038891D01*
X030755Y038842D01*
X030804Y038809D01*
X030862Y038798D01*
X030920Y038809D01*
X030969Y038842D01*
X031002Y038891D01*
X031013Y038949D01*
X031002Y039007D01*
X030969Y039056D01*
X030920Y039089D01*
X030862Y039101D01*
D02*
G37*
G36*
X023378Y035529D02*
X023320Y035518D01*
X023270Y035485D01*
X023238Y035436D01*
X023226Y035378D01*
X023238Y035320D01*
X023270Y035270D01*
X023320Y035238D01*
X023378Y035226D01*
X023429Y035236D01*
X023438Y035190D01*
X023471Y035141D01*
X023520Y035108D01*
X023578Y035097D01*
X023636Y035108D01*
X023685Y035141D01*
X023718Y035190D01*
X023730Y035248D01*
X023718Y035306D01*
X023685Y035356D01*
X023636Y035388D01*
X023578Y035400D01*
X023527Y035390D01*
X023518Y035436D01*
X023485Y035485D01*
X023436Y035518D01*
X023378Y035529D01*
D02*
G37*
G36*
X021078Y035951D02*
X021020Y035940D01*
X020971Y035907D01*
X020938Y035858D01*
X020927Y035800D01*
X020901Y035774D01*
X020843Y035762D01*
X020794Y035730D01*
X020761Y035680D01*
X020750Y035622D01*
X020724Y035597D01*
X020666Y035585D01*
X020617Y035552D01*
X020584Y035503D01*
X020573Y035445D01*
X020547Y035420D01*
X020489Y035408D01*
X020440Y035375D01*
X020407Y035326D01*
X020395Y035268D01*
X020407Y035210D01*
X020440Y035161D01*
X020489Y035128D01*
X020547Y035117D01*
X020605Y035128D01*
X020654Y035161D01*
X020687Y035210D01*
X020698Y035268D01*
X020724Y035294D01*
X020782Y035305D01*
X020831Y035338D01*
X020864Y035387D01*
X020876Y035445D01*
X020901Y035471D01*
X020959Y035482D01*
X021008Y035515D01*
X021041Y035564D01*
X021053Y035622D01*
X021078Y035648D01*
X021136Y035660D01*
X021185Y035692D01*
X021218Y035742D01*
X021230Y035800D01*
X021218Y035858D01*
X021185Y035907D01*
X021136Y035940D01*
X021078Y035951D01*
D02*
G37*
G36*
X019878Y035262D02*
X019820Y035251D01*
X019770Y035218D01*
X019738Y035169D01*
X019726Y035111D01*
X019738Y035053D01*
X019770Y035004D01*
X019820Y034971D01*
X019878Y034959D01*
X019936Y034971D01*
X019985Y035004D01*
X020018Y035053D01*
X020029Y035111D01*
X020018Y035169D01*
X019985Y035218D01*
X019936Y035251D01*
X019878Y035262D01*
D02*
G37*
G36*
X030862Y035164D02*
X030804Y035152D01*
X030755Y035119D01*
X030722Y035070D01*
X030710Y035012D01*
X030722Y034954D01*
X030755Y034905D01*
X030804Y034872D01*
X030862Y034861D01*
X030920Y034872D01*
X030969Y034905D01*
X031002Y034954D01*
X031013Y035012D01*
X031002Y035070D01*
X030969Y035119D01*
X030920Y035152D01*
X030862Y035164D01*
D02*
G37*
G36*
X030074Y035164D02*
X030016Y035152D01*
X029967Y035119D01*
X029934Y035070D01*
X029923Y035012D01*
X029934Y034954D01*
X029967Y034905D01*
X030016Y034872D01*
X030074Y034861D01*
X030132Y034872D01*
X030182Y034905D01*
X030214Y034954D01*
X030226Y035012D01*
X030214Y035070D01*
X030182Y035119D01*
X030132Y035152D01*
X030074Y035164D01*
D02*
G37*
G36*
X029681Y035557D02*
X029623Y035546D01*
X029574Y035513D01*
X029541Y035464D01*
X029529Y035406D01*
X029541Y035348D01*
X029574Y035299D01*
X029623Y035266D01*
X029681Y035254D01*
X029739Y035266D01*
X029788Y035299D01*
X029821Y035348D01*
X029832Y035406D01*
X029821Y035464D01*
X029788Y035513D01*
X029739Y035546D01*
X029681Y035557D01*
D02*
G37*
G36*
X030074D02*
X030016Y035546D01*
X029967Y035513D01*
X029934Y035464D01*
X029923Y035406D01*
X029934Y035348D01*
X029967Y035299D01*
X030016Y035266D01*
X030074Y035254D01*
X030132Y035266D01*
X030182Y035299D01*
X030214Y035348D01*
X030226Y035406D01*
X030214Y035464D01*
X030182Y035513D01*
X030132Y035546D01*
X030074Y035557D01*
D02*
G37*
G36*
X025429D02*
X025371Y035546D01*
X025322Y035513D01*
X025289Y035464D01*
X025277Y035406D01*
X025289Y035348D01*
X025322Y035299D01*
X025371Y035266D01*
X025429Y035254D01*
X025487Y035266D01*
X025536Y035299D01*
X025569Y035348D01*
X025580Y035406D01*
X025569Y035464D01*
X025536Y035513D01*
X025487Y035546D01*
X025429Y035557D01*
D02*
G37*
G36*
X026826Y035361D02*
X026768Y035349D01*
X026719Y035316D01*
X026686Y035267D01*
X026675Y035209D01*
X026676Y035203D01*
X026672Y035196D01*
X026624Y035157D01*
X026590Y035164D01*
X026532Y035152D01*
X026483Y035119D01*
X026450Y035070D01*
X026439Y035012D01*
X026450Y034954D01*
X026483Y034905D01*
X026532Y034872D01*
X026590Y034861D01*
X026648Y034872D01*
X026697Y034905D01*
X026730Y034954D01*
X026742Y035012D01*
X026740Y035018D01*
X026744Y035025D01*
X026792Y035064D01*
X026826Y035058D01*
X026884Y035069D01*
X026934Y035102D01*
X026966Y035151D01*
X026978Y035209D01*
X026966Y035267D01*
X026934Y035316D01*
X026884Y035349D01*
X026826Y035361D01*
D02*
G37*
G36*
X022653Y035479D02*
X022595Y035467D01*
X022546Y035434D01*
X022513Y035385D01*
X022502Y035327D01*
X022513Y035269D01*
X022546Y035220D01*
X022595Y035187D01*
X022653Y035176D01*
X022711Y035187D01*
X022760Y035220D01*
X022793Y035269D01*
X022805Y035327D01*
X022793Y035385D01*
X022760Y035434D01*
X022711Y035467D01*
X022653Y035479D01*
D02*
G37*
G36*
X026787Y034763D02*
X026729Y034752D01*
X026680Y034719D01*
X026647Y034670D01*
X026636Y034612D01*
X026647Y034554D01*
X026680Y034505D01*
X026729Y034472D01*
X026787Y034460D01*
X026845Y034472D01*
X026894Y034505D01*
X026927Y034554D01*
X026939Y034612D01*
X026927Y034670D01*
X026894Y034719D01*
X026845Y034752D01*
X026787Y034763D01*
D02*
G37*
G36*
X021288Y034629D02*
X021230Y034618D01*
X021181Y034585D01*
X021157Y034549D01*
X021114Y034542D01*
X021112D01*
X021069Y034549D01*
X021045Y034585D01*
X020996Y034618D01*
X020938Y034629D01*
X020880Y034618D01*
X020831Y034585D01*
X020798Y034536D01*
X020787Y034478D01*
X020798Y034420D01*
X020831Y034370D01*
X020880Y034338D01*
X020938Y034326D01*
X020996Y034338D01*
X021045Y034370D01*
X021069Y034406D01*
X021112Y034413D01*
X021114D01*
X021157Y034406D01*
X021181Y034370D01*
X021230Y034338D01*
X021288Y034326D01*
X021346Y034338D01*
X021395Y034370D01*
X021428Y034420D01*
X021440Y034478D01*
X021428Y034536D01*
X021395Y034585D01*
X021346Y034618D01*
X021288Y034629D01*
D02*
G37*
G36*
X022054Y034746D02*
X021996Y034734D01*
X021946Y034702D01*
X021914Y034652D01*
X021902Y034594D01*
X021914Y034536D01*
X021946Y034487D01*
X021996Y034454D01*
X022054Y034443D01*
X022112Y034454D01*
X022161Y034487D01*
X022194Y034536D01*
X022205Y034594D01*
X022194Y034652D01*
X022161Y034702D01*
X022112Y034734D01*
X022054Y034746D01*
D02*
G37*
G36*
X026472Y034553D02*
X026414Y034542D01*
X026365Y034509D01*
X026332Y034460D01*
X026321Y034402D01*
X026332Y034344D01*
X026365Y034295D01*
X026414Y034262D01*
X026472Y034250D01*
X026530Y034262D01*
X026579Y034295D01*
X026612Y034344D01*
X026624Y034402D01*
X026612Y034460D01*
X026579Y034509D01*
X026530Y034542D01*
X026472Y034553D01*
D02*
G37*
G36*
X027978Y034679D02*
X027920Y034668D01*
X027870Y034635D01*
X027838Y034586D01*
X027826Y034528D01*
X027838Y034470D01*
X027870Y034420D01*
X027920Y034388D01*
X027978Y034376D01*
X028036Y034388D01*
X028085Y034420D01*
X028118Y034470D01*
X028129Y034528D01*
X028118Y034586D01*
X028085Y034635D01*
X028036Y034668D01*
X027978Y034679D01*
D02*
G37*
G36*
X019132Y034990D02*
X019074Y034979D01*
X019025Y034946D01*
X018992Y034897D01*
X018980Y034839D01*
X018992Y034781D01*
X019024Y034732D01*
X019023Y034728D01*
X018992Y034657D01*
X018928Y034670D01*
X018831Y034651D01*
X018749Y034596D01*
X018695Y034514D01*
X018676Y034418D01*
X018695Y034322D01*
X018749Y034240D01*
X018831Y034185D01*
X018928Y034166D01*
X019024Y034185D01*
X019106Y034240D01*
X019160Y034322D01*
X019179Y034418D01*
X019160Y034514D01*
X019106Y034596D01*
X019075Y034617D01*
X019106Y034692D01*
X019132Y034687D01*
X019190Y034699D01*
X019239Y034731D01*
X019272Y034781D01*
X019283Y034839D01*
X019272Y034897D01*
X019239Y034946D01*
X019190Y034979D01*
X019132Y034990D01*
D02*
G37*
G36*
X022397Y035124D02*
X022339Y035113D01*
X022290Y035080D01*
X022257Y035031D01*
X022246Y034973D01*
X022257Y034915D01*
X022290Y034866D01*
X022339Y034833D01*
X022397Y034821D01*
X022455Y034833D01*
X022504Y034866D01*
X022537Y034915D01*
X022549Y034973D01*
X022537Y035031D01*
X022504Y035080D01*
X022455Y035113D01*
X022397Y035124D01*
D02*
G37*
G36*
X030439Y034940D02*
X030381Y034929D01*
X030332Y034896D01*
X030299Y034847D01*
X030287Y034789D01*
X030299Y034731D01*
X030332Y034682D01*
X030381Y034649D01*
X030439Y034637D01*
X030497Y034649D01*
X030546Y034682D01*
X030579Y034731D01*
X030590Y034789D01*
X030579Y034847D01*
X030546Y034896D01*
X030497Y034929D01*
X030439Y034940D01*
D02*
G37*
G36*
X031107Y034753D02*
X031049Y034742D01*
X031000Y034709D01*
X030967Y034660D01*
X030958Y034614D01*
X030952Y034599D01*
X030901Y034569D01*
X030877Y034573D01*
X030819Y034562D01*
X030770Y034529D01*
X030737Y034480D01*
X030726Y034422D01*
X030737Y034364D01*
X030770Y034315D01*
X030819Y034282D01*
X030877Y034270D01*
X030935Y034282D01*
X030984Y034315D01*
X031017Y034364D01*
X031026Y034410D01*
X031032Y034424D01*
X031083Y034455D01*
X031107Y034450D01*
X031165Y034462D01*
X031214Y034495D01*
X031247Y034544D01*
X031258Y034602D01*
X031247Y034660D01*
X031214Y034709D01*
X031165Y034742D01*
X031107Y034753D01*
D02*
G37*
G36*
X023421Y034927D02*
X023363Y034916D01*
X023314Y034883D01*
X023281Y034834D01*
X023269Y034776D01*
X023281Y034718D01*
X023314Y034669D01*
X023363Y034636D01*
X023421Y034625D01*
X023479Y034636D01*
X023528Y034669D01*
X023561Y034718D01*
X023572Y034776D01*
X023561Y034834D01*
X023528Y034883D01*
X023479Y034916D01*
X023421Y034927D01*
D02*
G37*
G36*
X029681Y036739D02*
X029623Y036727D01*
X029574Y036694D01*
X029541Y036645D01*
X029529Y036587D01*
X029541Y036529D01*
X029574Y036480D01*
X029623Y036447D01*
X029681Y036436D01*
X029739Y036447D01*
X029788Y036480D01*
X029821Y036529D01*
X029832Y036587D01*
X029821Y036645D01*
X029788Y036694D01*
X029739Y036727D01*
X029681Y036739D01*
D02*
G37*
G36*
X030074Y036739D02*
X030016Y036727D01*
X029967Y036694D01*
X029934Y036645D01*
X029923Y036587D01*
X029934Y036529D01*
X029967Y036480D01*
X030016Y036447D01*
X030074Y036436D01*
X030132Y036447D01*
X030182Y036480D01*
X030214Y036529D01*
X030226Y036587D01*
X030214Y036645D01*
X030182Y036694D01*
X030132Y036727D01*
X030074Y036739D01*
D02*
G37*
G36*
X019937Y036613D02*
X019879Y036602D01*
X019830Y036569D01*
X019797Y036520D01*
X019786Y036462D01*
X019797Y036404D01*
X019830Y036355D01*
X019879Y036322D01*
X019937Y036310D01*
X019995Y036322D01*
X020044Y036355D01*
X020077Y036404D01*
X020089Y036462D01*
X020077Y036520D01*
X020044Y036569D01*
X019995Y036602D01*
X019937Y036613D01*
D02*
G37*
G36*
X021078Y036778D02*
X021020Y036766D01*
X020971Y036734D01*
X020938Y036684D01*
X020927Y036626D01*
X020938Y036568D01*
X020971Y036519D01*
X021019Y036487D01*
X021028Y036457D01*
X021027Y036403D01*
X020991Y036379D01*
X020958Y036330D01*
X020947Y036272D01*
X020958Y036214D01*
X020991Y036165D01*
X021040Y036132D01*
X021098Y036121D01*
X021156Y036132D01*
X021205Y036165D01*
X021238Y036214D01*
X021250Y036272D01*
X021238Y036330D01*
X021205Y036379D01*
X021157Y036411D01*
X021149Y036441D01*
X021149Y036495D01*
X021185Y036519D01*
X021218Y036568D01*
X021230Y036626D01*
X021218Y036684D01*
X021185Y036734D01*
X021136Y036766D01*
X021078Y036778D01*
D02*
G37*
G36*
X026826Y036542D02*
X026768Y036530D01*
X026719Y036497D01*
X026686Y036448D01*
X026675Y036390D01*
X026686Y036332D01*
X026719Y036283D01*
X026768Y036250D01*
X026826Y036239D01*
X026884Y036250D01*
X026934Y036283D01*
X026966Y036332D01*
X026978Y036390D01*
X026966Y036448D01*
X026934Y036497D01*
X026884Y036530D01*
X026826Y036542D01*
D02*
G37*
G36*
X035645Y036651D02*
X035587Y036639D01*
X035538Y036606D01*
X035523Y036584D01*
X035505Y036557D01*
X035500Y036534D01*
X035468Y036528D01*
X035435Y036534D01*
X035435Y036534D01*
X035431Y036557D01*
X035412Y036584D01*
X035398Y036606D01*
X035349Y036639D01*
X035291Y036651D01*
X035233Y036639D01*
X035184Y036606D01*
X035151Y036557D01*
X035139Y036499D01*
X035151Y036441D01*
X035184Y036392D01*
X035233Y036359D01*
X035291Y036348D01*
X035349Y036359D01*
X035398Y036392D01*
X035412Y036414D01*
X035431Y036441D01*
X035435Y036465D01*
X035468Y036470D01*
X035500Y036465D01*
X035500Y036465D01*
X035505Y036441D01*
X035523Y036414D01*
X035538Y036392D01*
X035587Y036359D01*
X035645Y036348D01*
X035703Y036359D01*
X035752Y036392D01*
X035785Y036441D01*
X035796Y036499D01*
X035785Y036557D01*
X035752Y036606D01*
X035703Y036639D01*
X035645Y036651D01*
D02*
G37*
G36*
X034797Y036903D02*
X034739Y036892D01*
X034690Y036859D01*
X034657Y036810D01*
X034646Y036752D01*
X034657Y036694D01*
X034690Y036645D01*
X034739Y036612D01*
X034797Y036600D01*
X034855Y036612D01*
X034904Y036645D01*
X034937Y036694D01*
X034948Y036752D01*
X034937Y036810D01*
X034904Y036859D01*
X034855Y036892D01*
X034797Y036903D01*
D02*
G37*
G36*
X038897Y037003D02*
X038839Y036992D01*
X038790Y036959D01*
X038757Y036910D01*
X038746Y036852D01*
X038757Y036794D01*
X038790Y036745D01*
X038839Y036712D01*
X038883Y036703D01*
X038914Y036679D01*
X038938Y036647D01*
X038947Y036604D01*
X038980Y036555D01*
X039029Y036522D01*
X039087Y036510D01*
X039145Y036522D01*
X039194Y036555D01*
X039227Y036604D01*
X039239Y036662D01*
X039227Y036720D01*
X039194Y036769D01*
X039145Y036802D01*
X039101Y036810D01*
X039070Y036835D01*
X039046Y036866D01*
X039037Y036910D01*
X039004Y036959D01*
X038955Y036992D01*
X038897Y037003D01*
D02*
G37*
G36*
X030862Y036739D02*
X030804Y036727D01*
X030755Y036694D01*
X030722Y036645D01*
X030710Y036587D01*
X030722Y036529D01*
X030755Y036480D01*
X030804Y036447D01*
X030862Y036436D01*
X030920Y036447D01*
X030969Y036480D01*
X031002Y036529D01*
X031013Y036587D01*
X031002Y036645D01*
X030969Y036694D01*
X030920Y036727D01*
X030862Y036739D01*
D02*
G37*
G36*
X031256D02*
X031198Y036727D01*
X031148Y036694D01*
X031116Y036645D01*
X031104Y036587D01*
X031116Y036529D01*
X031148Y036480D01*
X031198Y036447D01*
X031256Y036436D01*
X031313Y036447D01*
X031363Y036480D01*
X031395Y036529D01*
X031407Y036587D01*
X031395Y036645D01*
X031363Y036694D01*
X031313Y036727D01*
X031256Y036739D01*
D02*
G37*
G36*
X030074Y035951D02*
X030016Y035940D01*
X029967Y035907D01*
X029934Y035858D01*
X029923Y035800D01*
X029934Y035742D01*
X029967Y035692D01*
X030016Y035660D01*
X030074Y035648D01*
X030132Y035660D01*
X030182Y035692D01*
X030214Y035742D01*
X030226Y035800D01*
X030214Y035858D01*
X030182Y035907D01*
X030132Y035940D01*
X030074Y035951D01*
D02*
G37*
G36*
X030468D02*
X030410Y035940D01*
X030361Y035907D01*
X030328Y035858D01*
X030317Y035800D01*
X030328Y035742D01*
X030361Y035692D01*
X030410Y035660D01*
X030468Y035648D01*
X030526Y035660D01*
X030575Y035692D01*
X030608Y035742D01*
X030620Y035800D01*
X030608Y035858D01*
X030575Y035907D01*
X030526Y035940D01*
X030468Y035951D01*
D02*
G37*
G36*
X028893D02*
X028835Y035940D01*
X028786Y035907D01*
X028753Y035858D01*
X028742Y035800D01*
X028753Y035742D01*
X028786Y035692D01*
X028835Y035660D01*
X028893Y035648D01*
X028951Y035660D01*
X029000Y035692D01*
X029033Y035742D01*
X029045Y035800D01*
X029033Y035858D01*
X029000Y035907D01*
X028951Y035940D01*
X028893Y035951D01*
D02*
G37*
G36*
X026610Y035754D02*
X026552Y035743D01*
X026503Y035710D01*
X026470Y035661D01*
X026458Y035603D01*
X026470Y035545D01*
X026503Y035496D01*
X026552Y035463D01*
X026610Y035451D01*
X026668Y035463D01*
X026717Y035496D01*
X026750Y035545D01*
X026761Y035603D01*
X026750Y035661D01*
X026717Y035710D01*
X026668Y035743D01*
X026610Y035754D01*
D02*
G37*
G36*
X028500Y035951D02*
X028442Y035940D01*
X028392Y035907D01*
X028360Y035858D01*
X028348Y035800D01*
X028360Y035742D01*
X028392Y035692D01*
X028442Y035660D01*
X028500Y035648D01*
X028558Y035660D01*
X028607Y035692D01*
X028640Y035742D01*
X028651Y035800D01*
X028640Y035858D01*
X028607Y035907D01*
X028558Y035940D01*
X028500Y035951D01*
D02*
G37*
G36*
X028893Y036345D02*
X028835Y036333D01*
X028786Y036300D01*
X028753Y036251D01*
X028742Y036193D01*
X028753Y036135D01*
X028786Y036086D01*
X028835Y036053D01*
X028893Y036042D01*
X028951Y036053D01*
X029000Y036086D01*
X029033Y036135D01*
X029045Y036193D01*
X029033Y036251D01*
X029000Y036300D01*
X028951Y036333D01*
X028893Y036345D01*
D02*
G37*
G36*
X030862D02*
X030804Y036333D01*
X030755Y036300D01*
X030722Y036251D01*
X030710Y036193D01*
X030722Y036135D01*
X030755Y036086D01*
X030804Y036053D01*
X030862Y036042D01*
X030920Y036053D01*
X030969Y036086D01*
X031002Y036135D01*
X031013Y036193D01*
X031002Y036251D01*
X030969Y036300D01*
X030920Y036333D01*
X030862Y036345D01*
D02*
G37*
G36*
X024995Y036267D02*
X024937Y036255D01*
X024888Y036222D01*
X024855Y036173D01*
X024844Y036115D01*
X024855Y036057D01*
X024888Y036008D01*
X024937Y035975D01*
X024995Y035964D01*
X025053Y035975D01*
X025102Y036008D01*
X025135Y036057D01*
X025147Y036115D01*
X025135Y036173D01*
X025102Y036222D01*
X025053Y036255D01*
X024995Y036267D01*
D02*
G37*
G36*
X025941Y036148D02*
X025883Y036136D01*
X025833Y036104D01*
X025801Y036054D01*
X025789Y035996D01*
X025801Y035938D01*
X025833Y035889D01*
X025883Y035856D01*
X025941Y035845D01*
X025999Y035856D01*
X026048Y035889D01*
X026081Y035938D01*
X026092Y035996D01*
X026081Y036054D01*
X026048Y036104D01*
X025999Y036136D01*
X025941Y036148D01*
D02*
G37*
G36*
X026610D02*
X026552Y036136D01*
X026503Y036104D01*
X026470Y036054D01*
X026458Y035996D01*
X026470Y035938D01*
X026503Y035889D01*
X026552Y035856D01*
X026610Y035845D01*
X026668Y035856D01*
X026717Y035889D01*
X026750Y035938D01*
X026761Y035996D01*
X026750Y036054D01*
X026717Y036104D01*
X026668Y036136D01*
X026610Y036148D01*
D02*
G37*
%LPD*%
D89*
X031797Y035802D02*
X032185Y035414D01*
Y033594D02*
Y035414D01*
Y033594D02*
X034247Y031532D01*
X031817Y034552D02*
X031935Y034434D01*
X028527Y042052D02*
X031247D01*
X028347Y041872D02*
X028527Y042052D01*
X031247D02*
X031487Y041812D01*
X031655Y036591D02*
Y036744D01*
X031237Y037162D02*
X031655Y036744D01*
X034247Y027632D02*
Y031532D01*
X033977Y027362D02*
X034247Y027632D01*
X033977Y026732D02*
Y027362D01*
X034847Y038012D02*
X035037Y038202D01*
X034837Y038012D02*
X034847D01*
X035037Y038202D02*
Y039422D01*
X034083Y040375D02*
X035037Y039422D01*
X034203Y040428D02*
X035174Y039457D01*
X033361Y041270D02*
X033660Y040972D01*
X034339Y040462D02*
X035307Y039494D01*
X033411Y041390D02*
X033699Y041102D01*
X035307Y038677D02*
Y039494D01*
X034492Y040507D02*
X035437Y039562D01*
Y038722D02*
Y039562D01*
X031457Y040782D02*
X031857D01*
X031237Y040562D02*
X031457Y040782D01*
X030757Y040562D02*
X031237D01*
X030507Y040812D02*
X030757Y040562D01*
X030227Y040812D02*
X030507D01*
X030057Y040642D02*
X030227Y040812D01*
X030057Y040072D02*
Y040642D01*
X036260Y038602D02*
X036574Y038287D01*
X035557Y038602D02*
X036260D01*
X035437Y038722D02*
X035557Y038602D01*
X035307Y038677D02*
X035921Y038063D01*
X035174Y037589D02*
Y039457D01*
X031487Y041812D02*
X031947D01*
X030945Y041052D02*
X031645D01*
X030744Y041252D02*
X030945Y041052D01*
X035921Y038063D02*
X036374D01*
X031237Y037162D02*
Y038180D01*
X030862Y038556D02*
X031237Y038180D01*
X025169Y036178D02*
X025215Y036131D01*
X025169Y036178D02*
Y036187D01*
X025215Y034681D02*
Y036131D01*
X025057Y036289D02*
X025067D01*
X024345Y037001D02*
X025057Y036289D01*
X025067D02*
X025169Y036187D01*
X033235Y041270D02*
X033361D01*
X033185Y041390D02*
X033411D01*
X031645Y041052D02*
X031705Y041111D01*
X032906D01*
X033185Y041390D01*
X031857Y040782D02*
X031916Y040841D01*
X031689Y040918D02*
X031752Y040981D01*
X032946D01*
X033235Y041270D01*
X031916Y040841D02*
X033846D01*
X034083Y040603D01*
Y040375D02*
Y040603D01*
X033660Y040972D02*
X033885D01*
X034203Y040653D01*
Y040428D02*
Y040653D01*
X033699Y041102D02*
X033924D01*
X034339Y040687D01*
Y040462D02*
Y040687D01*
X033767Y041232D02*
X033964D01*
X034492Y040704D01*
Y040507D02*
Y040704D01*
X033488Y041511D02*
X033536Y041463D01*
X033129Y041511D02*
X033488D01*
X033767Y041232D01*
X031947Y041812D02*
X032078Y041681D01*
X032959D01*
X033129Y041511D01*
X030525Y041181D02*
X030789Y040918D01*
X031689D01*
X030744Y041252D02*
X030745Y041254D01*
Y041351D01*
X031728Y040384D02*
X032874D01*
X029375Y040231D02*
X029595D01*
X029760Y040066D01*
X033525Y027379D02*
X034025Y027879D01*
X031987Y024612D02*
Y025473D01*
X033525Y027011D01*
Y027379D01*
X031935Y033531D02*
Y034434D01*
Y033531D02*
X034025Y031441D01*
Y027879D02*
Y031441D01*
X030315Y039991D02*
X030625D01*
X030995Y040361D01*
X031195D01*
X031567Y040208D02*
X031669Y040309D01*
Y040325D01*
X031728Y040384D01*
X031349Y040208D02*
X031567D01*
X031195Y040361D02*
X031349Y040208D01*
D90*
X018515Y023791D02*
G03*
X018720Y023296I000700J000000D01*
G01*
X024339Y034495D02*
X024485Y034641D01*
X024339Y033689D02*
Y034495D01*
Y033689D02*
X024610Y033418D01*
X024779D01*
X020204Y034644D02*
X020584D01*
X019264Y033704D02*
X020204Y034644D01*
X019094Y033704D02*
X019264D01*
X023634Y038854D02*
X023984D01*
X023384Y038604D02*
X023634Y038854D01*
X023545Y036241D02*
Y037131D01*
X023705Y036631D02*
Y037201D01*
X030255Y039991D02*
X030315D01*
X030135Y039871D02*
X030255Y039991D01*
X029955Y039871D02*
X030135D01*
X029760Y040066D02*
X029955Y039871D01*
X023384Y038130D02*
Y038161D01*
X022950Y037697D02*
X023384Y038130D01*
X022950Y037011D02*
Y037697D01*
X023384Y038130D02*
Y038604D01*
X020584Y034644D02*
X022950Y037011D01*
X018720Y023296D02*
X018965Y023051D01*
D98*
X024169Y040327D02*
D03*
D99*
X040887Y034512D02*
D03*
Y032012D02*
D03*
D100*
X034778Y026978D02*
D03*
D101*
X019528Y036978D02*
D03*
X018128Y031828D02*
D03*
Y030228D02*
D03*
Y024678D02*
D03*
X021028Y038628D02*
D03*
X021428Y039028D02*
D03*
X020628Y038228D02*
D03*
X020228Y037828D02*
D03*
X019878Y037378D02*
D03*
X019178Y036528D02*
D03*
D104*
X026928Y041528D02*
D03*
D105*
X018128Y028928D02*
D03*
D106*
X025978Y041328D02*
D03*
D112*
X024855Y034111D02*
D03*
X037535Y037541D02*
D03*
X037825Y037521D02*
D03*
X031655Y036591D02*
D03*
X038795Y021634D02*
D03*
X031987Y024612D02*
D03*
X035387Y031862D02*
D03*
Y031612D02*
D03*
Y031362D02*
D03*
X035437Y031062D02*
D03*
X035787D02*
D03*
X035987Y031212D02*
D03*
X032887Y034736D02*
D03*
X033387Y034912D02*
D03*
X033087D02*
D03*
X032887Y034428D02*
D03*
Y034148D02*
D03*
X033137Y034012D02*
D03*
X020487Y029762D02*
D03*
Y030562D02*
D03*
X031797Y035802D02*
D03*
X033977Y026732D02*
D03*
X031817Y034552D02*
D03*
X032107Y022832D02*
D03*
X031900Y022475D02*
D03*
X034837Y038012D02*
D03*
X030057Y040072D02*
D03*
X028347Y041872D02*
D03*
X036374Y038063D02*
D03*
X028500Y038162D02*
D03*
X028500Y037768D02*
D03*
X038987Y025612D02*
D03*
X038971Y025328D02*
D03*
X035037Y021762D02*
D03*
X035437Y021756D02*
D03*
X035687Y020568D02*
D03*
X036087Y020562D02*
D03*
X038787Y021372D02*
D03*
X031587Y017142D02*
D03*
X031780Y017719D02*
D03*
X030747Y018572D02*
D03*
X029612Y017943D02*
D03*
X029199Y017931D02*
D03*
X031196Y022571D02*
D03*
X034149Y021717D02*
D03*
X033736Y021705D02*
D03*
X030742Y021470D02*
D03*
X034372Y020078D02*
D03*
X032373Y021454D02*
D03*
X032870D02*
D03*
X032867Y021981D02*
D03*
X032358Y021973D02*
D03*
X030744Y021961D02*
D03*
X029287Y038162D02*
D03*
X028616Y034146D02*
D03*
X019759Y033209D02*
D03*
X020087Y032912D02*
D03*
X025094Y034185D02*
D03*
X019978Y021478D02*
D03*
X020173Y028850D02*
D03*
X019628Y027605D02*
D03*
X019582Y026213D02*
D03*
X024779Y033418D02*
D03*
X037824Y026437D02*
D03*
Y026187D02*
D03*
Y025937D02*
D03*
X037474Y025637D02*
D03*
Y025387D02*
D03*
X035174Y037589D02*
D03*
X036574Y038287D02*
D03*
X029665Y035028D02*
D03*
X030862Y038556D02*
D03*
X026148Y032387D02*
D03*
X030074Y036981D02*
D03*
X028500Y036587D02*
D03*
Y037374D02*
D03*
X028893Y036587D02*
D03*
X024563Y036095D02*
D03*
X021828Y039128D02*
D03*
X037487Y038912D02*
D03*
X037787D02*
D03*
X025787Y034812D02*
D03*
X025437D02*
D03*
X025087D02*
D03*
X019437Y033212D02*
D03*
X033214Y037854D02*
D03*
Y037504D02*
D03*
X024381Y031477D02*
D03*
X023984Y038854D02*
D03*
X022614Y037694D02*
D03*
Y037394D02*
D03*
X019094Y033704D02*
D03*
X030862Y037374D02*
D03*
X031535Y034801D02*
D03*
X033724Y040587D02*
D03*
X032874Y040384D02*
D03*
X025455Y039421D02*
D03*
X024345Y037001D02*
D03*
X033387Y034012D02*
D03*
X021669Y022069D02*
D03*
X021491Y021891D02*
D03*
X022895Y022069D02*
D03*
X029815Y023011D02*
D03*
X032055Y017581D02*
D03*
X031895Y017181D02*
D03*
X030525Y041181D02*
D03*
X030745Y041351D02*
D03*
X025955Y032151D02*
D03*
X029178Y033967D02*
D03*
X031207Y025482D02*
D03*
X029628Y033967D02*
D03*
M02*
