M48
;Layer_Color=6321
;FILE_FORMAT=2:4
INCH
;TYPE=PLATED
T1F00S00C0.0118
T2F00S00C0.0250
T4F00S00C0.0300
T6F00S00C0.0354
T7F00S00C0.0400
;TYPE=NON_PLATED
T8F00S00C0.0374
T9F00S00C0.1250
%
T01
X031587Y017142
X031895Y017181
X032055Y017581
X031780Y017719
X032328Y017326
X032728Y017418
X032889Y018694
X033737Y019372
X033816Y020341
X033837Y021112
X033587
X033317Y021092
X033677Y021442
X033736Y021705
X034149Y021717
Y022599
X033736Y022611
X033317Y022310
X032867Y021981
X032358Y021973
X032373Y021454
X032870
X032987Y020682
X032647Y020642
X032537Y020012
X031907Y020542
X031959Y021013
X031562Y021294
X031555Y021584
X031547Y021832
X031657Y022342
X031900Y022475
X032107Y022832
X032057Y023622
X031858Y023460
X031358
X032717Y023462
X033067
X033417
X035371Y023378
X036321Y023028
X036487Y022162
X036074Y022225
X036087Y021756
X035687Y021762
X035437Y021756
X035037Y021762
Y020568
X035437Y020562
X035687Y020568
X036087Y020562
X035988Y019832
X035588Y019742
X034372Y020078
X031347Y020682
X031987Y024612
X033977Y026732
X037824Y026437
Y026187
Y025937
X037474Y025637
Y025387
X038971Y025328
X038987Y025612
X038937Y026012
Y026512
X039087Y026812
Y027162
X038737Y027212
X038487Y027312
X038287Y027162
X038487Y026962
X038837
X039187Y026262
X039437
X039687
X039937
X040187
X039921Y025678
Y025328
X040621Y024928
Y024578
X039787Y023862
X039337
X039037Y023212
X038387Y023262
Y024162
X037887Y023962
X037637Y023012
X037853Y021678
X037921Y021278
X038787Y021372
X038795Y021634
X038955Y021921
X035987Y024462
Y031212
X035787Y031062
X035437
X031207Y025482
X031217Y025192
X031197Y024942
X031237Y024212
X030958Y023498
X030108Y023510
X029708Y023437
X029335Y023559
X029037Y023402
X028675Y023155
X028807Y022662
X028675Y022255
Y021355
X029337Y021372
X029347Y020972
X029775Y021053
X029817Y020452
X028675Y020455
X028627Y019662
X029261Y019535
X029047Y018822
X028675Y018655
Y017755
X029199Y017931
X029612Y017943
X029612Y017077
X029199Y017089
X030244Y017343
X030287Y018512
X030747Y018572
X031137Y021062
X030742Y021470
X030744Y021961
X031217Y022314
X031196Y022571
X029815Y023011
X029777Y024812
X028675Y024955
X028675Y024055
X027152Y024228
Y023328
Y022428
Y021528
Y020628
Y019728
Y018828
Y017928
X027152Y025128
X024428Y026328
X024108Y026697
X023882Y026569
Y027868
X024108Y027999
X024428Y027628
Y028928
X024108Y029297
X023882Y029169
Y030468
X024108Y030597
X024428Y030228
X021687Y030362
X020487Y030562
Y030112
Y029762
X019578Y029855
X019328Y030305
X019578Y030605
X018628Y030278
X019028Y028729
X019578Y029105
X020173Y028850
X020474Y027537
X019628Y027605
Y027105
X019582Y026213
X020174Y026387
X020190Y025965
X019978Y021478
X021218Y021378
X021225Y021675
X021228Y021928
X021491Y021891
X021669Y022069
X021678Y021675
X021208Y021078
X022895Y022069
X024088Y022078
X024381Y031477
X024307Y031981
X024051Y031744
X023126Y031961
X022752Y031843
X023324Y032770
X023574
X024567Y032778
Y032492
Y033063
X024779Y033418
X024567Y033808
Y034094
Y034380
X024855Y034111
X025094Y034185
X025349Y034162
X025645Y033916
X025874
X025787Y034812
X025437
X025087
X025429Y035406
X025941Y035996
X026610
X026610Y035603
X026590Y035012
X026826Y035209
X026787Y034612
X026472Y034402
X027043Y033949
X027338Y033772
X027667Y034146
X027978Y034528
X028616Y034146
X029178Y033967
X029628
X030507Y034122
X030877Y034422
X031107Y034602
X030862Y035012
X030439Y034789
X030074Y035012
Y035406
X029681
X029665Y035028
X030074Y035800
X030468
X030862Y036193
Y036587
Y037374
Y037768
X030094Y037768
X030074Y037374
X030074Y036981
Y036587
X029681Y036587
X029681Y036981
X029661Y037374
X029287Y037374
Y037768
X029681
Y038162
X029287
Y038556
Y039343
X028893
X028500Y038949
Y038556
X028106
Y038162
Y037768
X028500
Y037374
X028500Y038162
X027318Y038162
X026826Y038359
Y038752
X026433Y038851
X026587Y038062
X026590Y037768
Y037374
X026826Y037178
X026826Y036784
X026826Y036390
X028500Y036587
X028893
Y036193
Y035800
X028500
X028106Y038949
Y039343
X027319Y038949
X025437Y039012
X025187
X025455Y039421
X025737Y039412
X025887Y039712
Y040262
X025435Y040411
X024637Y039262
X023984Y038854
X023387Y039356
X022948Y038693
X022732Y038477
X021984Y038615
X021828Y039128
X022284Y037654
X022614Y037694
Y037394
X023263Y037642
Y036863
X023913Y036784
X024345Y036741
Y037001
X024563Y037178
X024563Y036095
X024128Y036105
X024995Y036115
X023578Y035248
X023378Y035378
X023421Y034776
X023324Y034087
X023574
X022378Y034128
X022054Y034594
X022397Y034973
X022653Y035327
X021844Y036324
X021098Y036272
X021078Y036626
Y035800
X020901Y035622
X020724Y035445
X020547Y035268
X019878Y035111
X019132Y034839
X019326Y034146
X019094Y033704
X019437Y033212
X019759Y033209
X020087Y032912
X020232Y033689
X020315Y034001
X020232Y034267
X020938Y034478
X021288
X020974Y032987
X020594Y032468
X019632Y031989
X019078Y031878
X018728
X018987Y032262
X018882Y035939
X019228Y035819
X019937Y036462
X023034Y040154
X027485Y041741
X028347Y041872
X028539Y041213
X030212Y041056
X030525Y041181
X030745Y041351
X030695Y041851
X030840Y040739
X031098Y040741
X031065Y040101
X030862Y039737
Y039343
Y038949
Y038556
X030074Y038162
Y038949
X030335Y039791
X030057Y040072
X026148Y032387
X025924Y032537
X025955Y032151
X025165Y031978
X025374Y032837
X031417Y033592
X031535Y034801
X031817Y034552
X032887Y034428
Y034148
X033137Y034012
X033387
Y034912
X033087
X032887Y034736
X032407Y035192
X032297Y035612
X031797Y035802
X032200Y036272
X032684Y036284
X032731Y035978
X033374Y036654
X033635Y036749
X033900Y036369
X034255
X034304Y035549
X033950
X033987Y035262
X034797Y036752
X035291Y036499
X035645
X035524Y037587
X035174Y037589
X034837Y038012
X034715Y038276
X035874Y038387
X036224Y038337
X036574Y038287
X036374Y038063
X036487Y037412
X037192Y037533
X037535Y037541
X037825Y037521
X037787Y038912
X037487
X037387Y039262
X036935Y039521
X036674Y039237
X036224Y039287
X035874Y039337
X033794Y039104
Y039664
X033774Y040044
X033483Y040256
X033724Y040587
X033302Y041084
X032905Y041431
X032874Y040384
X032554Y040661
X032161
X031495Y040381
X031634Y039974
X031649Y038949
X031655Y036591
X031256Y036587
X033214Y037504
Y037854
X034735Y040821
X031846Y041626
X031547Y041492
X038897Y036852
X039087Y036662
X038824Y034587
Y034337
Y034087
Y033837
Y033587
Y033337
Y033087
X035387Y031862
Y031612
Y031362
T02
X040887Y032012
Y032512
Y033012
Y033512
Y034012
Y034512
T04
X035478Y026278
X035128Y026628
X034778Y026978
X026702Y025178
X026252Y024828
Y023928
X026702Y024278
X026702Y023378
X026252Y023028
Y022128
X026702Y022478
Y021578
X026252Y021228
Y020328
X026702Y020678
Y019778
X026252Y019428
Y018528
X026702Y018878
Y017978
X026252Y017628
X025828Y018078
X018128Y024678
Y025328
Y025878
Y026528
Y027078
Y027728
Y028278
Y028928
Y030228
Y031828
X019178Y036528
X019528Y036978
X019878Y037378
X020228Y037828
X020628Y038228
X021028Y038628
X021428Y039028
T06
X026928Y040528
X026928Y041528
T07
X024028Y020678
Y021428
X025978Y041328
T08
X018928Y033237
Y034418
T09
X033187Y024912
X024287Y024662
X021537
X024287Y018912
X024169Y040327
M30
